G04 #@! TF.GenerationSoftware,KiCad,Pcbnew,5.0.2-bee76a0~70~ubuntu18.04.1*
G04 #@! TF.CreationDate,2019-04-28T14:18:51+03:00*
G04 #@! TF.ProjectId,LED_controller,4c45445f-636f-46e7-9472-6f6c6c65722e,rev?*
G04 #@! TF.SameCoordinates,Original*
G04 #@! TF.FileFunction,Paste,Top*
G04 #@! TF.FilePolarity,Positive*
%FSLAX45Y45*%
G04 Gerber Fmt 4.5, Leading zero omitted, Abs format (unit mm)*
G04 Created by KiCad (PCBNEW 5.0.2-bee76a0~70~ubuntu18.04.1) date Вс 28 апр 2019 14:18:51*
%MOMM*%
%LPD*%
G01*
G04 APERTURE LIST*
%ADD10C,0.200000*%
%ADD11C,1.150000*%
%ADD12R,2.800000X3.000000*%
%ADD13C,1.425000*%
%ADD14C,2.250000*%
%ADD15R,0.800000X0.900000*%
%ADD16R,0.600000X1.550000*%
%ADD17C,1.000000*%
%ADD18R,1.840000X2.200000*%
%ADD19R,1.500000X1.000000*%
%ADD20R,1.800000X1.000000*%
%ADD21C,0.850000*%
%ADD22R,3.900000X6.900000*%
%ADD23R,4.000000X6.000000*%
%ADD24R,2.200000X0.800000*%
%ADD25R,1.300000X0.250000*%
%ADD26R,0.250000X1.300000*%
%ADD27R,1.000000X0.250000*%
%ADD28R,0.250000X1.000000*%
G04 APERTURE END LIST*
D10*
G04 #@! TO.C,D14*
G36*
X12637450Y-7330120D02*
X12639877Y-7330480D01*
X12642257Y-7331076D01*
X12644567Y-7331903D01*
X12646785Y-7332952D01*
X12648889Y-7334213D01*
X12650860Y-7335675D01*
X12652678Y-7337322D01*
X12654325Y-7339140D01*
X12655787Y-7341111D01*
X12657048Y-7343215D01*
X12658097Y-7345433D01*
X12658923Y-7347743D01*
X12659520Y-7350123D01*
X12659880Y-7352549D01*
X12660000Y-7355000D01*
X12660000Y-7445000D01*
X12659880Y-7447450D01*
X12659520Y-7449877D01*
X12658923Y-7452257D01*
X12658097Y-7454567D01*
X12657048Y-7456785D01*
X12655787Y-7458889D01*
X12654325Y-7460860D01*
X12652678Y-7462678D01*
X12650860Y-7464325D01*
X12648889Y-7465787D01*
X12646785Y-7467048D01*
X12644567Y-7468097D01*
X12642257Y-7468923D01*
X12639877Y-7469520D01*
X12637450Y-7469880D01*
X12635000Y-7470000D01*
X12570000Y-7470000D01*
X12567549Y-7469880D01*
X12565123Y-7469520D01*
X12562743Y-7468923D01*
X12560433Y-7468097D01*
X12558215Y-7467048D01*
X12556111Y-7465787D01*
X12554140Y-7464325D01*
X12552322Y-7462678D01*
X12550675Y-7460860D01*
X12549213Y-7458889D01*
X12547952Y-7456785D01*
X12546903Y-7454567D01*
X12546076Y-7452257D01*
X12545480Y-7449877D01*
X12545120Y-7447450D01*
X12545000Y-7445000D01*
X12545000Y-7355000D01*
X12545120Y-7352549D01*
X12545480Y-7350123D01*
X12546076Y-7347743D01*
X12546903Y-7345433D01*
X12547952Y-7343215D01*
X12549213Y-7341111D01*
X12550675Y-7339140D01*
X12552322Y-7337322D01*
X12554140Y-7335675D01*
X12556111Y-7334213D01*
X12558215Y-7332952D01*
X12560433Y-7331903D01*
X12562743Y-7331076D01*
X12565123Y-7330480D01*
X12567549Y-7330120D01*
X12570000Y-7330000D01*
X12635000Y-7330000D01*
X12637450Y-7330120D01*
X12637450Y-7330120D01*
G37*
D11*
X12602500Y-7400000D03*
D10*
G36*
X12432450Y-7330120D02*
X12434877Y-7330480D01*
X12437257Y-7331076D01*
X12439567Y-7331903D01*
X12441785Y-7332952D01*
X12443889Y-7334213D01*
X12445860Y-7335675D01*
X12447678Y-7337322D01*
X12449325Y-7339140D01*
X12450787Y-7341111D01*
X12452048Y-7343215D01*
X12453097Y-7345433D01*
X12453923Y-7347743D01*
X12454520Y-7350123D01*
X12454880Y-7352549D01*
X12455000Y-7355000D01*
X12455000Y-7445000D01*
X12454880Y-7447450D01*
X12454520Y-7449877D01*
X12453923Y-7452257D01*
X12453097Y-7454567D01*
X12452048Y-7456785D01*
X12450787Y-7458889D01*
X12449325Y-7460860D01*
X12447678Y-7462678D01*
X12445860Y-7464325D01*
X12443889Y-7465787D01*
X12441785Y-7467048D01*
X12439567Y-7468097D01*
X12437257Y-7468923D01*
X12434877Y-7469520D01*
X12432450Y-7469880D01*
X12430000Y-7470000D01*
X12365000Y-7470000D01*
X12362549Y-7469880D01*
X12360123Y-7469520D01*
X12357743Y-7468923D01*
X12355433Y-7468097D01*
X12353215Y-7467048D01*
X12351111Y-7465787D01*
X12349140Y-7464325D01*
X12347322Y-7462678D01*
X12345675Y-7460860D01*
X12344213Y-7458889D01*
X12342952Y-7456785D01*
X12341903Y-7454567D01*
X12341076Y-7452257D01*
X12340480Y-7449877D01*
X12340120Y-7447450D01*
X12340000Y-7445000D01*
X12340000Y-7355000D01*
X12340120Y-7352549D01*
X12340480Y-7350123D01*
X12341076Y-7347743D01*
X12341903Y-7345433D01*
X12342952Y-7343215D01*
X12344213Y-7341111D01*
X12345675Y-7339140D01*
X12347322Y-7337322D01*
X12349140Y-7335675D01*
X12351111Y-7334213D01*
X12353215Y-7332952D01*
X12355433Y-7331903D01*
X12357743Y-7331076D01*
X12360123Y-7330480D01*
X12362549Y-7330120D01*
X12365000Y-7330000D01*
X12430000Y-7330000D01*
X12432450Y-7330120D01*
X12432450Y-7330120D01*
G37*
D11*
X12397500Y-7400000D03*
G04 #@! TD*
D10*
G04 #@! TO.C,D13*
G36*
X12432450Y-6930120D02*
X12434877Y-6930480D01*
X12437257Y-6931076D01*
X12439567Y-6931903D01*
X12441785Y-6932952D01*
X12443889Y-6934213D01*
X12445860Y-6935675D01*
X12447678Y-6937322D01*
X12449325Y-6939140D01*
X12450787Y-6941111D01*
X12452048Y-6943215D01*
X12453097Y-6945433D01*
X12453923Y-6947743D01*
X12454520Y-6950123D01*
X12454880Y-6952549D01*
X12455000Y-6955000D01*
X12455000Y-7045000D01*
X12454880Y-7047450D01*
X12454520Y-7049877D01*
X12453923Y-7052257D01*
X12453097Y-7054567D01*
X12452048Y-7056785D01*
X12450787Y-7058889D01*
X12449325Y-7060860D01*
X12447678Y-7062678D01*
X12445860Y-7064325D01*
X12443889Y-7065787D01*
X12441785Y-7067048D01*
X12439567Y-7068097D01*
X12437257Y-7068923D01*
X12434877Y-7069520D01*
X12432450Y-7069880D01*
X12430000Y-7070000D01*
X12365000Y-7070000D01*
X12362549Y-7069880D01*
X12360123Y-7069520D01*
X12357743Y-7068923D01*
X12355433Y-7068097D01*
X12353215Y-7067048D01*
X12351111Y-7065787D01*
X12349140Y-7064325D01*
X12347322Y-7062678D01*
X12345675Y-7060860D01*
X12344213Y-7058889D01*
X12342952Y-7056785D01*
X12341903Y-7054567D01*
X12341076Y-7052257D01*
X12340480Y-7049877D01*
X12340120Y-7047450D01*
X12340000Y-7045000D01*
X12340000Y-6955000D01*
X12340120Y-6952549D01*
X12340480Y-6950123D01*
X12341076Y-6947743D01*
X12341903Y-6945433D01*
X12342952Y-6943215D01*
X12344213Y-6941111D01*
X12345675Y-6939140D01*
X12347322Y-6937322D01*
X12349140Y-6935675D01*
X12351111Y-6934213D01*
X12353215Y-6932952D01*
X12355433Y-6931903D01*
X12357743Y-6931076D01*
X12360123Y-6930480D01*
X12362549Y-6930120D01*
X12365000Y-6930000D01*
X12430000Y-6930000D01*
X12432450Y-6930120D01*
X12432450Y-6930120D01*
G37*
D11*
X12397500Y-7000000D03*
D10*
G36*
X12637450Y-6930120D02*
X12639877Y-6930480D01*
X12642257Y-6931076D01*
X12644567Y-6931903D01*
X12646785Y-6932952D01*
X12648889Y-6934213D01*
X12650860Y-6935675D01*
X12652678Y-6937322D01*
X12654325Y-6939140D01*
X12655787Y-6941111D01*
X12657048Y-6943215D01*
X12658097Y-6945433D01*
X12658923Y-6947743D01*
X12659520Y-6950123D01*
X12659880Y-6952549D01*
X12660000Y-6955000D01*
X12660000Y-7045000D01*
X12659880Y-7047450D01*
X12659520Y-7049877D01*
X12658923Y-7052257D01*
X12658097Y-7054567D01*
X12657048Y-7056785D01*
X12655787Y-7058889D01*
X12654325Y-7060860D01*
X12652678Y-7062678D01*
X12650860Y-7064325D01*
X12648889Y-7065787D01*
X12646785Y-7067048D01*
X12644567Y-7068097D01*
X12642257Y-7068923D01*
X12639877Y-7069520D01*
X12637450Y-7069880D01*
X12635000Y-7070000D01*
X12570000Y-7070000D01*
X12567549Y-7069880D01*
X12565123Y-7069520D01*
X12562743Y-7068923D01*
X12560433Y-7068097D01*
X12558215Y-7067048D01*
X12556111Y-7065787D01*
X12554140Y-7064325D01*
X12552322Y-7062678D01*
X12550675Y-7060860D01*
X12549213Y-7058889D01*
X12547952Y-7056785D01*
X12546903Y-7054567D01*
X12546076Y-7052257D01*
X12545480Y-7049877D01*
X12545120Y-7047450D01*
X12545000Y-7045000D01*
X12545000Y-6955000D01*
X12545120Y-6952549D01*
X12545480Y-6950123D01*
X12546076Y-6947743D01*
X12546903Y-6945433D01*
X12547952Y-6943215D01*
X12549213Y-6941111D01*
X12550675Y-6939140D01*
X12552322Y-6937322D01*
X12554140Y-6935675D01*
X12556111Y-6934213D01*
X12558215Y-6932952D01*
X12560433Y-6931903D01*
X12562743Y-6931076D01*
X12565123Y-6930480D01*
X12567549Y-6930120D01*
X12570000Y-6930000D01*
X12635000Y-6930000D01*
X12637450Y-6930120D01*
X12637450Y-6930120D01*
G37*
D11*
X12602500Y-7000000D03*
G04 #@! TD*
D10*
G04 #@! TO.C,D15*
G36*
X12637450Y-7730120D02*
X12639877Y-7730480D01*
X12642257Y-7731076D01*
X12644567Y-7731903D01*
X12646785Y-7732952D01*
X12648889Y-7734213D01*
X12650860Y-7735675D01*
X12652678Y-7737322D01*
X12654325Y-7739140D01*
X12655787Y-7741111D01*
X12657048Y-7743215D01*
X12658097Y-7745433D01*
X12658923Y-7747743D01*
X12659520Y-7750123D01*
X12659880Y-7752549D01*
X12660000Y-7755000D01*
X12660000Y-7845000D01*
X12659880Y-7847450D01*
X12659520Y-7849877D01*
X12658923Y-7852257D01*
X12658097Y-7854567D01*
X12657048Y-7856785D01*
X12655787Y-7858889D01*
X12654325Y-7860860D01*
X12652678Y-7862678D01*
X12650860Y-7864325D01*
X12648889Y-7865787D01*
X12646785Y-7867048D01*
X12644567Y-7868097D01*
X12642257Y-7868923D01*
X12639877Y-7869520D01*
X12637450Y-7869880D01*
X12635000Y-7870000D01*
X12570000Y-7870000D01*
X12567549Y-7869880D01*
X12565123Y-7869520D01*
X12562743Y-7868923D01*
X12560433Y-7868097D01*
X12558215Y-7867048D01*
X12556111Y-7865787D01*
X12554140Y-7864325D01*
X12552322Y-7862678D01*
X12550675Y-7860860D01*
X12549213Y-7858889D01*
X12547952Y-7856785D01*
X12546903Y-7854567D01*
X12546076Y-7852257D01*
X12545480Y-7849877D01*
X12545120Y-7847450D01*
X12545000Y-7845000D01*
X12545000Y-7755000D01*
X12545120Y-7752549D01*
X12545480Y-7750123D01*
X12546076Y-7747743D01*
X12546903Y-7745433D01*
X12547952Y-7743215D01*
X12549213Y-7741111D01*
X12550675Y-7739140D01*
X12552322Y-7737322D01*
X12554140Y-7735675D01*
X12556111Y-7734213D01*
X12558215Y-7732952D01*
X12560433Y-7731903D01*
X12562743Y-7731076D01*
X12565123Y-7730480D01*
X12567549Y-7730120D01*
X12570000Y-7730000D01*
X12635000Y-7730000D01*
X12637450Y-7730120D01*
X12637450Y-7730120D01*
G37*
D11*
X12602500Y-7800000D03*
D10*
G36*
X12432450Y-7730120D02*
X12434877Y-7730480D01*
X12437257Y-7731076D01*
X12439567Y-7731903D01*
X12441785Y-7732952D01*
X12443889Y-7734213D01*
X12445860Y-7735675D01*
X12447678Y-7737322D01*
X12449325Y-7739140D01*
X12450787Y-7741111D01*
X12452048Y-7743215D01*
X12453097Y-7745433D01*
X12453923Y-7747743D01*
X12454520Y-7750123D01*
X12454880Y-7752549D01*
X12455000Y-7755000D01*
X12455000Y-7845000D01*
X12454880Y-7847450D01*
X12454520Y-7849877D01*
X12453923Y-7852257D01*
X12453097Y-7854567D01*
X12452048Y-7856785D01*
X12450787Y-7858889D01*
X12449325Y-7860860D01*
X12447678Y-7862678D01*
X12445860Y-7864325D01*
X12443889Y-7865787D01*
X12441785Y-7867048D01*
X12439567Y-7868097D01*
X12437257Y-7868923D01*
X12434877Y-7869520D01*
X12432450Y-7869880D01*
X12430000Y-7870000D01*
X12365000Y-7870000D01*
X12362549Y-7869880D01*
X12360123Y-7869520D01*
X12357743Y-7868923D01*
X12355433Y-7868097D01*
X12353215Y-7867048D01*
X12351111Y-7865787D01*
X12349140Y-7864325D01*
X12347322Y-7862678D01*
X12345675Y-7860860D01*
X12344213Y-7858889D01*
X12342952Y-7856785D01*
X12341903Y-7854567D01*
X12341076Y-7852257D01*
X12340480Y-7849877D01*
X12340120Y-7847450D01*
X12340000Y-7845000D01*
X12340000Y-7755000D01*
X12340120Y-7752549D01*
X12340480Y-7750123D01*
X12341076Y-7747743D01*
X12341903Y-7745433D01*
X12342952Y-7743215D01*
X12344213Y-7741111D01*
X12345675Y-7739140D01*
X12347322Y-7737322D01*
X12349140Y-7735675D01*
X12351111Y-7734213D01*
X12353215Y-7732952D01*
X12355433Y-7731903D01*
X12357743Y-7731076D01*
X12360123Y-7730480D01*
X12362549Y-7730120D01*
X12365000Y-7730000D01*
X12430000Y-7730000D01*
X12432450Y-7730120D01*
X12432450Y-7730120D01*
G37*
D11*
X12397500Y-7800000D03*
G04 #@! TD*
D12*
G04 #@! TO.C,L5*
X15500000Y-11965000D03*
X15500000Y-10935000D03*
G04 #@! TD*
G04 #@! TO.C,L4*
X13200000Y-11965000D03*
X13200000Y-10935000D03*
G04 #@! TD*
G04 #@! TO.C,L3*
X10900000Y-11965000D03*
X10900000Y-10935000D03*
G04 #@! TD*
G04 #@! TO.C,L2*
X8600000Y-11965000D03*
X8600000Y-10935000D03*
G04 #@! TD*
D10*
G04 #@! TO.C,R12*
G36*
X5647450Y-12045120D02*
X5649877Y-12045480D01*
X5652257Y-12046076D01*
X5654567Y-12046903D01*
X5656785Y-12047952D01*
X5658889Y-12049213D01*
X5660860Y-12050675D01*
X5662678Y-12052322D01*
X5664325Y-12054140D01*
X5665787Y-12056111D01*
X5667048Y-12058215D01*
X5668097Y-12060433D01*
X5668923Y-12062743D01*
X5669520Y-12065123D01*
X5669880Y-12067549D01*
X5670000Y-12070000D01*
X5670000Y-12135000D01*
X5669880Y-12137450D01*
X5669520Y-12139877D01*
X5668923Y-12142257D01*
X5668097Y-12144567D01*
X5667048Y-12146785D01*
X5665787Y-12148889D01*
X5664325Y-12150860D01*
X5662678Y-12152678D01*
X5660860Y-12154325D01*
X5658889Y-12155787D01*
X5656785Y-12157048D01*
X5654567Y-12158097D01*
X5652257Y-12158923D01*
X5649877Y-12159520D01*
X5647450Y-12159880D01*
X5645000Y-12160000D01*
X5555000Y-12160000D01*
X5552550Y-12159880D01*
X5550123Y-12159520D01*
X5547743Y-12158923D01*
X5545433Y-12158097D01*
X5543215Y-12157048D01*
X5541111Y-12155787D01*
X5539140Y-12154325D01*
X5537322Y-12152678D01*
X5535675Y-12150860D01*
X5534213Y-12148889D01*
X5532952Y-12146785D01*
X5531903Y-12144567D01*
X5531077Y-12142257D01*
X5530480Y-12139877D01*
X5530120Y-12137450D01*
X5530000Y-12135000D01*
X5530000Y-12070000D01*
X5530120Y-12067549D01*
X5530480Y-12065123D01*
X5531077Y-12062743D01*
X5531903Y-12060433D01*
X5532952Y-12058215D01*
X5534213Y-12056111D01*
X5535675Y-12054140D01*
X5537322Y-12052322D01*
X5539140Y-12050675D01*
X5541111Y-12049213D01*
X5543215Y-12047952D01*
X5545433Y-12046903D01*
X5547743Y-12046076D01*
X5550123Y-12045480D01*
X5552550Y-12045120D01*
X5555000Y-12045000D01*
X5645000Y-12045000D01*
X5647450Y-12045120D01*
X5647450Y-12045120D01*
G37*
D11*
X5600000Y-12102500D03*
D10*
G36*
X5647450Y-11840120D02*
X5649877Y-11840480D01*
X5652257Y-11841076D01*
X5654567Y-11841903D01*
X5656785Y-11842952D01*
X5658889Y-11844213D01*
X5660860Y-11845675D01*
X5662678Y-11847322D01*
X5664325Y-11849140D01*
X5665787Y-11851111D01*
X5667048Y-11853215D01*
X5668097Y-11855433D01*
X5668923Y-11857743D01*
X5669520Y-11860123D01*
X5669880Y-11862549D01*
X5670000Y-11865000D01*
X5670000Y-11930000D01*
X5669880Y-11932450D01*
X5669520Y-11934877D01*
X5668923Y-11937257D01*
X5668097Y-11939567D01*
X5667048Y-11941785D01*
X5665787Y-11943889D01*
X5664325Y-11945860D01*
X5662678Y-11947678D01*
X5660860Y-11949325D01*
X5658889Y-11950787D01*
X5656785Y-11952048D01*
X5654567Y-11953097D01*
X5652257Y-11953923D01*
X5649877Y-11954520D01*
X5647450Y-11954880D01*
X5645000Y-11955000D01*
X5555000Y-11955000D01*
X5552550Y-11954880D01*
X5550123Y-11954520D01*
X5547743Y-11953923D01*
X5545433Y-11953097D01*
X5543215Y-11952048D01*
X5541111Y-11950787D01*
X5539140Y-11949325D01*
X5537322Y-11947678D01*
X5535675Y-11945860D01*
X5534213Y-11943889D01*
X5532952Y-11941785D01*
X5531903Y-11939567D01*
X5531077Y-11937257D01*
X5530480Y-11934877D01*
X5530120Y-11932450D01*
X5530000Y-11930000D01*
X5530000Y-11865000D01*
X5530120Y-11862549D01*
X5530480Y-11860123D01*
X5531077Y-11857743D01*
X5531903Y-11855433D01*
X5532952Y-11853215D01*
X5534213Y-11851111D01*
X5535675Y-11849140D01*
X5537322Y-11847322D01*
X5539140Y-11845675D01*
X5541111Y-11844213D01*
X5543215Y-11842952D01*
X5545433Y-11841903D01*
X5547743Y-11841076D01*
X5550123Y-11840480D01*
X5552550Y-11840120D01*
X5555000Y-11840000D01*
X5645000Y-11840000D01*
X5647450Y-11840120D01*
X5647450Y-11840120D01*
G37*
D11*
X5600000Y-11897500D03*
G04 #@! TD*
D10*
G04 #@! TO.C,C39*
G36*
X9597451Y-6910120D02*
X9599877Y-6910480D01*
X9602257Y-6911076D01*
X9604567Y-6911903D01*
X9606785Y-6912952D01*
X9608889Y-6914213D01*
X9610860Y-6915675D01*
X9612678Y-6917322D01*
X9614325Y-6919140D01*
X9615787Y-6921111D01*
X9617048Y-6923215D01*
X9618097Y-6925433D01*
X9618924Y-6927743D01*
X9619520Y-6930123D01*
X9619880Y-6932549D01*
X9620000Y-6935000D01*
X9620000Y-7000000D01*
X9619880Y-7002450D01*
X9619520Y-7004877D01*
X9618924Y-7007257D01*
X9618097Y-7009567D01*
X9617048Y-7011785D01*
X9615787Y-7013889D01*
X9614325Y-7015860D01*
X9612678Y-7017678D01*
X9610860Y-7019325D01*
X9608889Y-7020787D01*
X9606785Y-7022048D01*
X9604567Y-7023097D01*
X9602257Y-7023923D01*
X9599877Y-7024520D01*
X9597451Y-7024880D01*
X9595000Y-7025000D01*
X9505000Y-7025000D01*
X9502550Y-7024880D01*
X9500123Y-7024520D01*
X9497743Y-7023923D01*
X9495433Y-7023097D01*
X9493215Y-7022048D01*
X9491111Y-7020787D01*
X9489140Y-7019325D01*
X9487322Y-7017678D01*
X9485675Y-7015860D01*
X9484213Y-7013889D01*
X9482952Y-7011785D01*
X9481903Y-7009567D01*
X9481077Y-7007257D01*
X9480480Y-7004877D01*
X9480120Y-7002450D01*
X9480000Y-7000000D01*
X9480000Y-6935000D01*
X9480120Y-6932549D01*
X9480480Y-6930123D01*
X9481077Y-6927743D01*
X9481903Y-6925433D01*
X9482952Y-6923215D01*
X9484213Y-6921111D01*
X9485675Y-6919140D01*
X9487322Y-6917322D01*
X9489140Y-6915675D01*
X9491111Y-6914213D01*
X9493215Y-6912952D01*
X9495433Y-6911903D01*
X9497743Y-6911076D01*
X9500123Y-6910480D01*
X9502550Y-6910120D01*
X9505000Y-6910000D01*
X9595000Y-6910000D01*
X9597451Y-6910120D01*
X9597451Y-6910120D01*
G37*
D11*
X9550000Y-6967500D03*
D10*
G36*
X9597451Y-7115120D02*
X9599877Y-7115480D01*
X9602257Y-7116076D01*
X9604567Y-7116903D01*
X9606785Y-7117952D01*
X9608889Y-7119213D01*
X9610860Y-7120675D01*
X9612678Y-7122322D01*
X9614325Y-7124140D01*
X9615787Y-7126111D01*
X9617048Y-7128215D01*
X9618097Y-7130433D01*
X9618924Y-7132743D01*
X9619520Y-7135123D01*
X9619880Y-7137549D01*
X9620000Y-7140000D01*
X9620000Y-7205000D01*
X9619880Y-7207450D01*
X9619520Y-7209877D01*
X9618924Y-7212257D01*
X9618097Y-7214567D01*
X9617048Y-7216785D01*
X9615787Y-7218889D01*
X9614325Y-7220860D01*
X9612678Y-7222678D01*
X9610860Y-7224325D01*
X9608889Y-7225787D01*
X9606785Y-7227048D01*
X9604567Y-7228097D01*
X9602257Y-7228923D01*
X9599877Y-7229520D01*
X9597451Y-7229880D01*
X9595000Y-7230000D01*
X9505000Y-7230000D01*
X9502550Y-7229880D01*
X9500123Y-7229520D01*
X9497743Y-7228923D01*
X9495433Y-7228097D01*
X9493215Y-7227048D01*
X9491111Y-7225787D01*
X9489140Y-7224325D01*
X9487322Y-7222678D01*
X9485675Y-7220860D01*
X9484213Y-7218889D01*
X9482952Y-7216785D01*
X9481903Y-7214567D01*
X9481077Y-7212257D01*
X9480480Y-7209877D01*
X9480120Y-7207450D01*
X9480000Y-7205000D01*
X9480000Y-7140000D01*
X9480120Y-7137549D01*
X9480480Y-7135123D01*
X9481077Y-7132743D01*
X9481903Y-7130433D01*
X9482952Y-7128215D01*
X9484213Y-7126111D01*
X9485675Y-7124140D01*
X9487322Y-7122322D01*
X9489140Y-7120675D01*
X9491111Y-7119213D01*
X9493215Y-7117952D01*
X9495433Y-7116903D01*
X9497743Y-7116076D01*
X9500123Y-7115480D01*
X9502550Y-7115120D01*
X9505000Y-7115000D01*
X9595000Y-7115000D01*
X9597451Y-7115120D01*
X9597451Y-7115120D01*
G37*
D11*
X9550000Y-7172500D03*
G04 #@! TD*
D10*
G04 #@! TO.C,C7*
G36*
X5437451Y-11280120D02*
X5439877Y-11280480D01*
X5442257Y-11281076D01*
X5444567Y-11281903D01*
X5446785Y-11282952D01*
X5448889Y-11284213D01*
X5450860Y-11285675D01*
X5452678Y-11287322D01*
X5454325Y-11289140D01*
X5455787Y-11291111D01*
X5457048Y-11293215D01*
X5458097Y-11295433D01*
X5458924Y-11297743D01*
X5459520Y-11300123D01*
X5459880Y-11302549D01*
X5460000Y-11305000D01*
X5460000Y-11395000D01*
X5459880Y-11397450D01*
X5459520Y-11399877D01*
X5458924Y-11402257D01*
X5458097Y-11404567D01*
X5457048Y-11406785D01*
X5455787Y-11408889D01*
X5454325Y-11410860D01*
X5452678Y-11412678D01*
X5450860Y-11414325D01*
X5448889Y-11415787D01*
X5446785Y-11417048D01*
X5444567Y-11418097D01*
X5442257Y-11418923D01*
X5439877Y-11419520D01*
X5437451Y-11419880D01*
X5435000Y-11420000D01*
X5370000Y-11420000D01*
X5367550Y-11419880D01*
X5365123Y-11419520D01*
X5362743Y-11418923D01*
X5360433Y-11418097D01*
X5358215Y-11417048D01*
X5356111Y-11415787D01*
X5354140Y-11414325D01*
X5352322Y-11412678D01*
X5350675Y-11410860D01*
X5349213Y-11408889D01*
X5347952Y-11406785D01*
X5346903Y-11404567D01*
X5346077Y-11402257D01*
X5345480Y-11399877D01*
X5345120Y-11397450D01*
X5345000Y-11395000D01*
X5345000Y-11305000D01*
X5345120Y-11302549D01*
X5345480Y-11300123D01*
X5346077Y-11297743D01*
X5346903Y-11295433D01*
X5347952Y-11293215D01*
X5349213Y-11291111D01*
X5350675Y-11289140D01*
X5352322Y-11287322D01*
X5354140Y-11285675D01*
X5356111Y-11284213D01*
X5358215Y-11282952D01*
X5360433Y-11281903D01*
X5362743Y-11281076D01*
X5365123Y-11280480D01*
X5367550Y-11280120D01*
X5370000Y-11280000D01*
X5435000Y-11280000D01*
X5437451Y-11280120D01*
X5437451Y-11280120D01*
G37*
D11*
X5402500Y-11350000D03*
D10*
G36*
X5232451Y-11280120D02*
X5234877Y-11280480D01*
X5237257Y-11281076D01*
X5239567Y-11281903D01*
X5241785Y-11282952D01*
X5243889Y-11284213D01*
X5245860Y-11285675D01*
X5247678Y-11287322D01*
X5249325Y-11289140D01*
X5250787Y-11291111D01*
X5252048Y-11293215D01*
X5253097Y-11295433D01*
X5253924Y-11297743D01*
X5254520Y-11300123D01*
X5254880Y-11302549D01*
X5255000Y-11305000D01*
X5255000Y-11395000D01*
X5254880Y-11397450D01*
X5254520Y-11399877D01*
X5253924Y-11402257D01*
X5253097Y-11404567D01*
X5252048Y-11406785D01*
X5250787Y-11408889D01*
X5249325Y-11410860D01*
X5247678Y-11412678D01*
X5245860Y-11414325D01*
X5243889Y-11415787D01*
X5241785Y-11417048D01*
X5239567Y-11418097D01*
X5237257Y-11418923D01*
X5234877Y-11419520D01*
X5232451Y-11419880D01*
X5230000Y-11420000D01*
X5165000Y-11420000D01*
X5162550Y-11419880D01*
X5160123Y-11419520D01*
X5157743Y-11418923D01*
X5155433Y-11418097D01*
X5153215Y-11417048D01*
X5151111Y-11415787D01*
X5149140Y-11414325D01*
X5147322Y-11412678D01*
X5145675Y-11410860D01*
X5144213Y-11408889D01*
X5142952Y-11406785D01*
X5141903Y-11404567D01*
X5141077Y-11402257D01*
X5140480Y-11399877D01*
X5140120Y-11397450D01*
X5140000Y-11395000D01*
X5140000Y-11305000D01*
X5140120Y-11302549D01*
X5140480Y-11300123D01*
X5141077Y-11297743D01*
X5141903Y-11295433D01*
X5142952Y-11293215D01*
X5144213Y-11291111D01*
X5145675Y-11289140D01*
X5147322Y-11287322D01*
X5149140Y-11285675D01*
X5151111Y-11284213D01*
X5153215Y-11282952D01*
X5155433Y-11281903D01*
X5157743Y-11281076D01*
X5160123Y-11280480D01*
X5162550Y-11280120D01*
X5165000Y-11280000D01*
X5230000Y-11280000D01*
X5232451Y-11280120D01*
X5232451Y-11280120D01*
G37*
D11*
X5197500Y-11350000D03*
G04 #@! TD*
D10*
G04 #@! TO.C,C8*
G36*
X5437451Y-10530120D02*
X5439877Y-10530480D01*
X5442257Y-10531077D01*
X5444567Y-10531903D01*
X5446785Y-10532952D01*
X5448889Y-10534213D01*
X5450860Y-10535675D01*
X5452678Y-10537322D01*
X5454325Y-10539140D01*
X5455787Y-10541111D01*
X5457048Y-10543215D01*
X5458097Y-10545433D01*
X5458924Y-10547743D01*
X5459520Y-10550123D01*
X5459880Y-10552550D01*
X5460000Y-10555000D01*
X5460000Y-10645000D01*
X5459880Y-10647451D01*
X5459520Y-10649877D01*
X5458924Y-10652257D01*
X5458097Y-10654567D01*
X5457048Y-10656785D01*
X5455787Y-10658889D01*
X5454325Y-10660860D01*
X5452678Y-10662678D01*
X5450860Y-10664325D01*
X5448889Y-10665787D01*
X5446785Y-10667048D01*
X5444567Y-10668097D01*
X5442257Y-10668924D01*
X5439877Y-10669520D01*
X5437451Y-10669880D01*
X5435000Y-10670000D01*
X5370000Y-10670000D01*
X5367550Y-10669880D01*
X5365123Y-10669520D01*
X5362743Y-10668924D01*
X5360433Y-10668097D01*
X5358215Y-10667048D01*
X5356111Y-10665787D01*
X5354140Y-10664325D01*
X5352322Y-10662678D01*
X5350675Y-10660860D01*
X5349213Y-10658889D01*
X5347952Y-10656785D01*
X5346903Y-10654567D01*
X5346077Y-10652257D01*
X5345480Y-10649877D01*
X5345120Y-10647451D01*
X5345000Y-10645000D01*
X5345000Y-10555000D01*
X5345120Y-10552550D01*
X5345480Y-10550123D01*
X5346077Y-10547743D01*
X5346903Y-10545433D01*
X5347952Y-10543215D01*
X5349213Y-10541111D01*
X5350675Y-10539140D01*
X5352322Y-10537322D01*
X5354140Y-10535675D01*
X5356111Y-10534213D01*
X5358215Y-10532952D01*
X5360433Y-10531903D01*
X5362743Y-10531077D01*
X5365123Y-10530480D01*
X5367550Y-10530120D01*
X5370000Y-10530000D01*
X5435000Y-10530000D01*
X5437451Y-10530120D01*
X5437451Y-10530120D01*
G37*
D11*
X5402500Y-10600000D03*
D10*
G36*
X5232451Y-10530120D02*
X5234877Y-10530480D01*
X5237257Y-10531077D01*
X5239567Y-10531903D01*
X5241785Y-10532952D01*
X5243889Y-10534213D01*
X5245860Y-10535675D01*
X5247678Y-10537322D01*
X5249325Y-10539140D01*
X5250787Y-10541111D01*
X5252048Y-10543215D01*
X5253097Y-10545433D01*
X5253924Y-10547743D01*
X5254520Y-10550123D01*
X5254880Y-10552550D01*
X5255000Y-10555000D01*
X5255000Y-10645000D01*
X5254880Y-10647451D01*
X5254520Y-10649877D01*
X5253924Y-10652257D01*
X5253097Y-10654567D01*
X5252048Y-10656785D01*
X5250787Y-10658889D01*
X5249325Y-10660860D01*
X5247678Y-10662678D01*
X5245860Y-10664325D01*
X5243889Y-10665787D01*
X5241785Y-10667048D01*
X5239567Y-10668097D01*
X5237257Y-10668924D01*
X5234877Y-10669520D01*
X5232451Y-10669880D01*
X5230000Y-10670000D01*
X5165000Y-10670000D01*
X5162550Y-10669880D01*
X5160123Y-10669520D01*
X5157743Y-10668924D01*
X5155433Y-10668097D01*
X5153215Y-10667048D01*
X5151111Y-10665787D01*
X5149140Y-10664325D01*
X5147322Y-10662678D01*
X5145675Y-10660860D01*
X5144213Y-10658889D01*
X5142952Y-10656785D01*
X5141903Y-10654567D01*
X5141077Y-10652257D01*
X5140480Y-10649877D01*
X5140120Y-10647451D01*
X5140000Y-10645000D01*
X5140000Y-10555000D01*
X5140120Y-10552550D01*
X5140480Y-10550123D01*
X5141077Y-10547743D01*
X5141903Y-10545433D01*
X5142952Y-10543215D01*
X5144213Y-10541111D01*
X5145675Y-10539140D01*
X5147322Y-10537322D01*
X5149140Y-10535675D01*
X5151111Y-10534213D01*
X5153215Y-10532952D01*
X5155433Y-10531903D01*
X5157743Y-10531077D01*
X5160123Y-10530480D01*
X5162550Y-10530120D01*
X5165000Y-10530000D01*
X5230000Y-10530000D01*
X5232451Y-10530120D01*
X5232451Y-10530120D01*
G37*
D11*
X5197500Y-10600000D03*
G04 #@! TD*
D10*
G04 #@! TO.C,C6*
G36*
X6357450Y-9162620D02*
X6359877Y-9162980D01*
X6362257Y-9163577D01*
X6364567Y-9164403D01*
X6366785Y-9165452D01*
X6368889Y-9166713D01*
X6370860Y-9168175D01*
X6372678Y-9169822D01*
X6374325Y-9171640D01*
X6375787Y-9173611D01*
X6377048Y-9175715D01*
X6378097Y-9177933D01*
X6378923Y-9180243D01*
X6379520Y-9182623D01*
X6379880Y-9185050D01*
X6380000Y-9187500D01*
X6380000Y-9312500D01*
X6379880Y-9314950D01*
X6379520Y-9317377D01*
X6378923Y-9319757D01*
X6378097Y-9322067D01*
X6377048Y-9324285D01*
X6375787Y-9326389D01*
X6374325Y-9328360D01*
X6372678Y-9330178D01*
X6370860Y-9331825D01*
X6368889Y-9333287D01*
X6366785Y-9334548D01*
X6364567Y-9335597D01*
X6362257Y-9336424D01*
X6359877Y-9337020D01*
X6357450Y-9337380D01*
X6355000Y-9337500D01*
X6262500Y-9337500D01*
X6260050Y-9337380D01*
X6257623Y-9337020D01*
X6255243Y-9336424D01*
X6252933Y-9335597D01*
X6250715Y-9334548D01*
X6248611Y-9333287D01*
X6246640Y-9331825D01*
X6244822Y-9330178D01*
X6243175Y-9328360D01*
X6241713Y-9326389D01*
X6240452Y-9324285D01*
X6239403Y-9322067D01*
X6238576Y-9319757D01*
X6237980Y-9317377D01*
X6237620Y-9314950D01*
X6237500Y-9312500D01*
X6237500Y-9187500D01*
X6237620Y-9185050D01*
X6237980Y-9182623D01*
X6238576Y-9180243D01*
X6239403Y-9177933D01*
X6240452Y-9175715D01*
X6241713Y-9173611D01*
X6243175Y-9171640D01*
X6244822Y-9169822D01*
X6246640Y-9168175D01*
X6248611Y-9166713D01*
X6250715Y-9165452D01*
X6252933Y-9164403D01*
X6255243Y-9163577D01*
X6257623Y-9162980D01*
X6260050Y-9162620D01*
X6262500Y-9162500D01*
X6355000Y-9162500D01*
X6357450Y-9162620D01*
X6357450Y-9162620D01*
G37*
D13*
X6308750Y-9250000D03*
D10*
G36*
X6059950Y-9162620D02*
X6062377Y-9162980D01*
X6064757Y-9163577D01*
X6067067Y-9164403D01*
X6069285Y-9165452D01*
X6071389Y-9166713D01*
X6073360Y-9168175D01*
X6075178Y-9169822D01*
X6076825Y-9171640D01*
X6078287Y-9173611D01*
X6079548Y-9175715D01*
X6080597Y-9177933D01*
X6081423Y-9180243D01*
X6082020Y-9182623D01*
X6082380Y-9185050D01*
X6082500Y-9187500D01*
X6082500Y-9312500D01*
X6082380Y-9314950D01*
X6082020Y-9317377D01*
X6081423Y-9319757D01*
X6080597Y-9322067D01*
X6079548Y-9324285D01*
X6078287Y-9326389D01*
X6076825Y-9328360D01*
X6075178Y-9330178D01*
X6073360Y-9331825D01*
X6071389Y-9333287D01*
X6069285Y-9334548D01*
X6067067Y-9335597D01*
X6064757Y-9336424D01*
X6062377Y-9337020D01*
X6059950Y-9337380D01*
X6057500Y-9337500D01*
X5965000Y-9337500D01*
X5962550Y-9337380D01*
X5960123Y-9337020D01*
X5957743Y-9336424D01*
X5955433Y-9335597D01*
X5953215Y-9334548D01*
X5951111Y-9333287D01*
X5949140Y-9331825D01*
X5947322Y-9330178D01*
X5945675Y-9328360D01*
X5944213Y-9326389D01*
X5942952Y-9324285D01*
X5941903Y-9322067D01*
X5941076Y-9319757D01*
X5940480Y-9317377D01*
X5940120Y-9314950D01*
X5940000Y-9312500D01*
X5940000Y-9187500D01*
X5940120Y-9185050D01*
X5940480Y-9182623D01*
X5941076Y-9180243D01*
X5941903Y-9177933D01*
X5942952Y-9175715D01*
X5944213Y-9173611D01*
X5945675Y-9171640D01*
X5947322Y-9169822D01*
X5949140Y-9168175D01*
X5951111Y-9166713D01*
X5953215Y-9165452D01*
X5955433Y-9164403D01*
X5957743Y-9163577D01*
X5960123Y-9162980D01*
X5962550Y-9162620D01*
X5965000Y-9162500D01*
X6057500Y-9162500D01*
X6059950Y-9162620D01*
X6059950Y-9162620D01*
G37*
D13*
X6011250Y-9250000D03*
G04 #@! TD*
D10*
G04 #@! TO.C,C1*
G36*
X6079950Y-11592620D02*
X6082377Y-11592980D01*
X6084757Y-11593576D01*
X6087067Y-11594403D01*
X6089285Y-11595452D01*
X6091389Y-11596713D01*
X6093360Y-11598175D01*
X6095178Y-11599822D01*
X6096825Y-11601640D01*
X6098287Y-11603611D01*
X6099548Y-11605715D01*
X6100597Y-11607933D01*
X6101423Y-11610243D01*
X6102020Y-11612623D01*
X6102380Y-11615049D01*
X6102500Y-11617500D01*
X6102500Y-11822500D01*
X6102380Y-11824950D01*
X6102020Y-11827377D01*
X6101423Y-11829757D01*
X6100597Y-11832067D01*
X6099548Y-11834285D01*
X6098287Y-11836389D01*
X6096825Y-11838360D01*
X6095178Y-11840178D01*
X6093360Y-11841825D01*
X6091389Y-11843287D01*
X6089285Y-11844548D01*
X6087067Y-11845597D01*
X6084757Y-11846423D01*
X6082377Y-11847020D01*
X6079950Y-11847380D01*
X6077500Y-11847500D01*
X5902500Y-11847500D01*
X5900049Y-11847380D01*
X5897623Y-11847020D01*
X5895243Y-11846423D01*
X5892933Y-11845597D01*
X5890715Y-11844548D01*
X5888611Y-11843287D01*
X5886640Y-11841825D01*
X5884822Y-11840178D01*
X5883175Y-11838360D01*
X5881713Y-11836389D01*
X5880452Y-11834285D01*
X5879403Y-11832067D01*
X5878576Y-11829757D01*
X5877980Y-11827377D01*
X5877620Y-11824950D01*
X5877500Y-11822500D01*
X5877500Y-11617500D01*
X5877620Y-11615049D01*
X5877980Y-11612623D01*
X5878576Y-11610243D01*
X5879403Y-11607933D01*
X5880452Y-11605715D01*
X5881713Y-11603611D01*
X5883175Y-11601640D01*
X5884822Y-11599822D01*
X5886640Y-11598175D01*
X5888611Y-11596713D01*
X5890715Y-11595452D01*
X5892933Y-11594403D01*
X5895243Y-11593576D01*
X5897623Y-11592980D01*
X5900049Y-11592620D01*
X5902500Y-11592500D01*
X6077500Y-11592500D01*
X6079950Y-11592620D01*
X6079950Y-11592620D01*
G37*
D14*
X5990000Y-11720000D03*
D10*
G36*
X6719950Y-11592620D02*
X6722377Y-11592980D01*
X6724757Y-11593576D01*
X6727067Y-11594403D01*
X6729285Y-11595452D01*
X6731389Y-11596713D01*
X6733360Y-11598175D01*
X6735178Y-11599822D01*
X6736825Y-11601640D01*
X6738287Y-11603611D01*
X6739548Y-11605715D01*
X6740597Y-11607933D01*
X6741423Y-11610243D01*
X6742020Y-11612623D01*
X6742380Y-11615049D01*
X6742500Y-11617500D01*
X6742500Y-11822500D01*
X6742380Y-11824950D01*
X6742020Y-11827377D01*
X6741423Y-11829757D01*
X6740597Y-11832067D01*
X6739548Y-11834285D01*
X6738287Y-11836389D01*
X6736825Y-11838360D01*
X6735178Y-11840178D01*
X6733360Y-11841825D01*
X6731389Y-11843287D01*
X6729285Y-11844548D01*
X6727067Y-11845597D01*
X6724757Y-11846423D01*
X6722377Y-11847020D01*
X6719950Y-11847380D01*
X6717500Y-11847500D01*
X6542500Y-11847500D01*
X6540049Y-11847380D01*
X6537623Y-11847020D01*
X6535243Y-11846423D01*
X6532933Y-11845597D01*
X6530715Y-11844548D01*
X6528611Y-11843287D01*
X6526640Y-11841825D01*
X6524822Y-11840178D01*
X6523175Y-11838360D01*
X6521713Y-11836389D01*
X6520452Y-11834285D01*
X6519403Y-11832067D01*
X6518576Y-11829757D01*
X6517980Y-11827377D01*
X6517620Y-11824950D01*
X6517500Y-11822500D01*
X6517500Y-11617500D01*
X6517620Y-11615049D01*
X6517980Y-11612623D01*
X6518576Y-11610243D01*
X6519403Y-11607933D01*
X6520452Y-11605715D01*
X6521713Y-11603611D01*
X6523175Y-11601640D01*
X6524822Y-11599822D01*
X6526640Y-11598175D01*
X6528611Y-11596713D01*
X6530715Y-11595452D01*
X6532933Y-11594403D01*
X6535243Y-11593576D01*
X6537623Y-11592980D01*
X6540049Y-11592620D01*
X6542500Y-11592500D01*
X6717500Y-11592500D01*
X6719950Y-11592620D01*
X6719950Y-11592620D01*
G37*
D14*
X6630000Y-11720000D03*
G04 #@! TD*
D10*
G04 #@! TO.C,C5*
G36*
X5754950Y-10107620D02*
X5757377Y-10107980D01*
X5759757Y-10108577D01*
X5762067Y-10109403D01*
X5764285Y-10110452D01*
X5766389Y-10111713D01*
X5768360Y-10113175D01*
X5770178Y-10114822D01*
X5771825Y-10116640D01*
X5773287Y-10118611D01*
X5774548Y-10120715D01*
X5775597Y-10122933D01*
X5776423Y-10125243D01*
X5777020Y-10127623D01*
X5777380Y-10130050D01*
X5777500Y-10132500D01*
X5777500Y-10307500D01*
X5777380Y-10309951D01*
X5777020Y-10312377D01*
X5776423Y-10314757D01*
X5775597Y-10317067D01*
X5774548Y-10319285D01*
X5773287Y-10321389D01*
X5771825Y-10323360D01*
X5770178Y-10325178D01*
X5768360Y-10326825D01*
X5766389Y-10328287D01*
X5764285Y-10329548D01*
X5762067Y-10330597D01*
X5759757Y-10331424D01*
X5757377Y-10332020D01*
X5754950Y-10332380D01*
X5752500Y-10332500D01*
X5547500Y-10332500D01*
X5545050Y-10332380D01*
X5542623Y-10332020D01*
X5540243Y-10331424D01*
X5537933Y-10330597D01*
X5535715Y-10329548D01*
X5533611Y-10328287D01*
X5531640Y-10326825D01*
X5529822Y-10325178D01*
X5528175Y-10323360D01*
X5526713Y-10321389D01*
X5525452Y-10319285D01*
X5524403Y-10317067D01*
X5523577Y-10314757D01*
X5522980Y-10312377D01*
X5522620Y-10309951D01*
X5522500Y-10307500D01*
X5522500Y-10132500D01*
X5522620Y-10130050D01*
X5522980Y-10127623D01*
X5523577Y-10125243D01*
X5524403Y-10122933D01*
X5525452Y-10120715D01*
X5526713Y-10118611D01*
X5528175Y-10116640D01*
X5529822Y-10114822D01*
X5531640Y-10113175D01*
X5533611Y-10111713D01*
X5535715Y-10110452D01*
X5537933Y-10109403D01*
X5540243Y-10108577D01*
X5542623Y-10107980D01*
X5545050Y-10107620D01*
X5547500Y-10107500D01*
X5752500Y-10107500D01*
X5754950Y-10107620D01*
X5754950Y-10107620D01*
G37*
D14*
X5650000Y-10220000D03*
D10*
G36*
X5754950Y-9467620D02*
X5757377Y-9467980D01*
X5759757Y-9468577D01*
X5762067Y-9469403D01*
X5764285Y-9470452D01*
X5766389Y-9471713D01*
X5768360Y-9473175D01*
X5770178Y-9474822D01*
X5771825Y-9476640D01*
X5773287Y-9478611D01*
X5774548Y-9480715D01*
X5775597Y-9482933D01*
X5776423Y-9485243D01*
X5777020Y-9487623D01*
X5777380Y-9490050D01*
X5777500Y-9492500D01*
X5777500Y-9667500D01*
X5777380Y-9669951D01*
X5777020Y-9672377D01*
X5776423Y-9674757D01*
X5775597Y-9677067D01*
X5774548Y-9679285D01*
X5773287Y-9681389D01*
X5771825Y-9683360D01*
X5770178Y-9685178D01*
X5768360Y-9686825D01*
X5766389Y-9688287D01*
X5764285Y-9689548D01*
X5762067Y-9690597D01*
X5759757Y-9691424D01*
X5757377Y-9692020D01*
X5754950Y-9692380D01*
X5752500Y-9692500D01*
X5547500Y-9692500D01*
X5545050Y-9692380D01*
X5542623Y-9692020D01*
X5540243Y-9691424D01*
X5537933Y-9690597D01*
X5535715Y-9689548D01*
X5533611Y-9688287D01*
X5531640Y-9686825D01*
X5529822Y-9685178D01*
X5528175Y-9683360D01*
X5526713Y-9681389D01*
X5525452Y-9679285D01*
X5524403Y-9677067D01*
X5523577Y-9674757D01*
X5522980Y-9672377D01*
X5522620Y-9669951D01*
X5522500Y-9667500D01*
X5522500Y-9492500D01*
X5522620Y-9490050D01*
X5522980Y-9487623D01*
X5523577Y-9485243D01*
X5524403Y-9482933D01*
X5525452Y-9480715D01*
X5526713Y-9478611D01*
X5528175Y-9476640D01*
X5529822Y-9474822D01*
X5531640Y-9473175D01*
X5533611Y-9471713D01*
X5535715Y-9470452D01*
X5537933Y-9469403D01*
X5540243Y-9468577D01*
X5542623Y-9467980D01*
X5545050Y-9467620D01*
X5547500Y-9467500D01*
X5752500Y-9467500D01*
X5754950Y-9467620D01*
X5754950Y-9467620D01*
G37*
D14*
X5650000Y-9580000D03*
G04 #@! TD*
D10*
G04 #@! TO.C,C4*
G36*
X6264950Y-10107620D02*
X6267377Y-10107980D01*
X6269757Y-10108577D01*
X6272067Y-10109403D01*
X6274285Y-10110452D01*
X6276389Y-10111713D01*
X6278360Y-10113175D01*
X6280178Y-10114822D01*
X6281825Y-10116640D01*
X6283287Y-10118611D01*
X6284548Y-10120715D01*
X6285597Y-10122933D01*
X6286423Y-10125243D01*
X6287020Y-10127623D01*
X6287380Y-10130050D01*
X6287500Y-10132500D01*
X6287500Y-10307500D01*
X6287380Y-10309951D01*
X6287020Y-10312377D01*
X6286423Y-10314757D01*
X6285597Y-10317067D01*
X6284548Y-10319285D01*
X6283287Y-10321389D01*
X6281825Y-10323360D01*
X6280178Y-10325178D01*
X6278360Y-10326825D01*
X6276389Y-10328287D01*
X6274285Y-10329548D01*
X6272067Y-10330597D01*
X6269757Y-10331424D01*
X6267377Y-10332020D01*
X6264950Y-10332380D01*
X6262500Y-10332500D01*
X6057500Y-10332500D01*
X6055049Y-10332380D01*
X6052623Y-10332020D01*
X6050243Y-10331424D01*
X6047933Y-10330597D01*
X6045715Y-10329548D01*
X6043611Y-10328287D01*
X6041640Y-10326825D01*
X6039822Y-10325178D01*
X6038175Y-10323360D01*
X6036713Y-10321389D01*
X6035452Y-10319285D01*
X6034403Y-10317067D01*
X6033576Y-10314757D01*
X6032980Y-10312377D01*
X6032620Y-10309951D01*
X6032500Y-10307500D01*
X6032500Y-10132500D01*
X6032620Y-10130050D01*
X6032980Y-10127623D01*
X6033576Y-10125243D01*
X6034403Y-10122933D01*
X6035452Y-10120715D01*
X6036713Y-10118611D01*
X6038175Y-10116640D01*
X6039822Y-10114822D01*
X6041640Y-10113175D01*
X6043611Y-10111713D01*
X6045715Y-10110452D01*
X6047933Y-10109403D01*
X6050243Y-10108577D01*
X6052623Y-10107980D01*
X6055049Y-10107620D01*
X6057500Y-10107500D01*
X6262500Y-10107500D01*
X6264950Y-10107620D01*
X6264950Y-10107620D01*
G37*
D14*
X6160000Y-10220000D03*
D10*
G36*
X6264950Y-9467620D02*
X6267377Y-9467980D01*
X6269757Y-9468577D01*
X6272067Y-9469403D01*
X6274285Y-9470452D01*
X6276389Y-9471713D01*
X6278360Y-9473175D01*
X6280178Y-9474822D01*
X6281825Y-9476640D01*
X6283287Y-9478611D01*
X6284548Y-9480715D01*
X6285597Y-9482933D01*
X6286423Y-9485243D01*
X6287020Y-9487623D01*
X6287380Y-9490050D01*
X6287500Y-9492500D01*
X6287500Y-9667500D01*
X6287380Y-9669951D01*
X6287020Y-9672377D01*
X6286423Y-9674757D01*
X6285597Y-9677067D01*
X6284548Y-9679285D01*
X6283287Y-9681389D01*
X6281825Y-9683360D01*
X6280178Y-9685178D01*
X6278360Y-9686825D01*
X6276389Y-9688287D01*
X6274285Y-9689548D01*
X6272067Y-9690597D01*
X6269757Y-9691424D01*
X6267377Y-9692020D01*
X6264950Y-9692380D01*
X6262500Y-9692500D01*
X6057500Y-9692500D01*
X6055049Y-9692380D01*
X6052623Y-9692020D01*
X6050243Y-9691424D01*
X6047933Y-9690597D01*
X6045715Y-9689548D01*
X6043611Y-9688287D01*
X6041640Y-9686825D01*
X6039822Y-9685178D01*
X6038175Y-9683360D01*
X6036713Y-9681389D01*
X6035452Y-9679285D01*
X6034403Y-9677067D01*
X6033576Y-9674757D01*
X6032980Y-9672377D01*
X6032620Y-9669951D01*
X6032500Y-9667500D01*
X6032500Y-9492500D01*
X6032620Y-9490050D01*
X6032980Y-9487623D01*
X6033576Y-9485243D01*
X6034403Y-9482933D01*
X6035452Y-9480715D01*
X6036713Y-9478611D01*
X6038175Y-9476640D01*
X6039822Y-9474822D01*
X6041640Y-9473175D01*
X6043611Y-9471713D01*
X6045715Y-9470452D01*
X6047933Y-9469403D01*
X6050243Y-9468577D01*
X6052623Y-9467980D01*
X6055049Y-9467620D01*
X6057500Y-9467500D01*
X6262500Y-9467500D01*
X6264950Y-9467620D01*
X6264950Y-9467620D01*
G37*
D14*
X6160000Y-9580000D03*
G04 #@! TD*
D10*
G04 #@! TO.C,C2*
G36*
X6079950Y-11092620D02*
X6082377Y-11092980D01*
X6084757Y-11093577D01*
X6087067Y-11094403D01*
X6089285Y-11095452D01*
X6091389Y-11096713D01*
X6093360Y-11098175D01*
X6095178Y-11099822D01*
X6096825Y-11101640D01*
X6098287Y-11103611D01*
X6099548Y-11105715D01*
X6100597Y-11107933D01*
X6101423Y-11110243D01*
X6102020Y-11112623D01*
X6102380Y-11115050D01*
X6102500Y-11117500D01*
X6102500Y-11322500D01*
X6102380Y-11324950D01*
X6102020Y-11327377D01*
X6101423Y-11329757D01*
X6100597Y-11332067D01*
X6099548Y-11334285D01*
X6098287Y-11336389D01*
X6096825Y-11338360D01*
X6095178Y-11340178D01*
X6093360Y-11341825D01*
X6091389Y-11343287D01*
X6089285Y-11344548D01*
X6087067Y-11345597D01*
X6084757Y-11346423D01*
X6082377Y-11347020D01*
X6079950Y-11347380D01*
X6077500Y-11347500D01*
X5902500Y-11347500D01*
X5900049Y-11347380D01*
X5897623Y-11347020D01*
X5895243Y-11346423D01*
X5892933Y-11345597D01*
X5890715Y-11344548D01*
X5888611Y-11343287D01*
X5886640Y-11341825D01*
X5884822Y-11340178D01*
X5883175Y-11338360D01*
X5881713Y-11336389D01*
X5880452Y-11334285D01*
X5879403Y-11332067D01*
X5878576Y-11329757D01*
X5877980Y-11327377D01*
X5877620Y-11324950D01*
X5877500Y-11322500D01*
X5877500Y-11117500D01*
X5877620Y-11115050D01*
X5877980Y-11112623D01*
X5878576Y-11110243D01*
X5879403Y-11107933D01*
X5880452Y-11105715D01*
X5881713Y-11103611D01*
X5883175Y-11101640D01*
X5884822Y-11099822D01*
X5886640Y-11098175D01*
X5888611Y-11096713D01*
X5890715Y-11095452D01*
X5892933Y-11094403D01*
X5895243Y-11093577D01*
X5897623Y-11092980D01*
X5900049Y-11092620D01*
X5902500Y-11092500D01*
X6077500Y-11092500D01*
X6079950Y-11092620D01*
X6079950Y-11092620D01*
G37*
D14*
X5990000Y-11220000D03*
D10*
G36*
X6719950Y-11092620D02*
X6722377Y-11092980D01*
X6724757Y-11093577D01*
X6727067Y-11094403D01*
X6729285Y-11095452D01*
X6731389Y-11096713D01*
X6733360Y-11098175D01*
X6735178Y-11099822D01*
X6736825Y-11101640D01*
X6738287Y-11103611D01*
X6739548Y-11105715D01*
X6740597Y-11107933D01*
X6741423Y-11110243D01*
X6742020Y-11112623D01*
X6742380Y-11115050D01*
X6742500Y-11117500D01*
X6742500Y-11322500D01*
X6742380Y-11324950D01*
X6742020Y-11327377D01*
X6741423Y-11329757D01*
X6740597Y-11332067D01*
X6739548Y-11334285D01*
X6738287Y-11336389D01*
X6736825Y-11338360D01*
X6735178Y-11340178D01*
X6733360Y-11341825D01*
X6731389Y-11343287D01*
X6729285Y-11344548D01*
X6727067Y-11345597D01*
X6724757Y-11346423D01*
X6722377Y-11347020D01*
X6719950Y-11347380D01*
X6717500Y-11347500D01*
X6542500Y-11347500D01*
X6540049Y-11347380D01*
X6537623Y-11347020D01*
X6535243Y-11346423D01*
X6532933Y-11345597D01*
X6530715Y-11344548D01*
X6528611Y-11343287D01*
X6526640Y-11341825D01*
X6524822Y-11340178D01*
X6523175Y-11338360D01*
X6521713Y-11336389D01*
X6520452Y-11334285D01*
X6519403Y-11332067D01*
X6518576Y-11329757D01*
X6517980Y-11327377D01*
X6517620Y-11324950D01*
X6517500Y-11322500D01*
X6517500Y-11117500D01*
X6517620Y-11115050D01*
X6517980Y-11112623D01*
X6518576Y-11110243D01*
X6519403Y-11107933D01*
X6520452Y-11105715D01*
X6521713Y-11103611D01*
X6523175Y-11101640D01*
X6524822Y-11099822D01*
X6526640Y-11098175D01*
X6528611Y-11096713D01*
X6530715Y-11095452D01*
X6532933Y-11094403D01*
X6535243Y-11093577D01*
X6537623Y-11092980D01*
X6540049Y-11092620D01*
X6542500Y-11092500D01*
X6717500Y-11092500D01*
X6719950Y-11092620D01*
X6719950Y-11092620D01*
G37*
D14*
X6630000Y-11220000D03*
G04 #@! TD*
D15*
G04 #@! TO.C,D2*
X6390000Y-10850000D03*
X6295000Y-10650000D03*
X6485000Y-10650000D03*
G04 #@! TD*
D16*
G04 #@! TO.C,U1*
X7290500Y-11260000D03*
X7163500Y-11260000D03*
X7036500Y-11260000D03*
X6909500Y-11260000D03*
X6909500Y-10720000D03*
X7036500Y-10720000D03*
X7163500Y-10720000D03*
X7290500Y-10720000D03*
G04 #@! TD*
D17*
G04 #@! TO.C,U2*
X5339030Y-10980000D03*
D10*
G36*
X5389030Y-11090000D02*
X5289030Y-11020000D01*
X5289030Y-10940000D01*
X5389030Y-10870000D01*
X5389030Y-11090000D01*
X5389030Y-11090000D01*
G37*
D18*
X5480000Y-10980000D03*
D19*
X5198650Y-11130000D03*
D20*
X5213300Y-10980000D03*
D19*
X5198650Y-10830000D03*
D21*
X5613350Y-10980000D03*
D10*
G36*
X5570850Y-10870000D02*
X5655850Y-10930000D01*
X5655850Y-11030000D01*
X5570850Y-11090000D01*
X5570850Y-10870000D01*
X5570850Y-10870000D01*
G37*
G04 #@! TD*
G04 #@! TO.C,R1*
G36*
X7307450Y-11430120D02*
X7309877Y-11430480D01*
X7312257Y-11431076D01*
X7314567Y-11431903D01*
X7316785Y-11432952D01*
X7318889Y-11434213D01*
X7320860Y-11435675D01*
X7322678Y-11437322D01*
X7324325Y-11439140D01*
X7325787Y-11441111D01*
X7327048Y-11443215D01*
X7328097Y-11445433D01*
X7328923Y-11447743D01*
X7329520Y-11450123D01*
X7329880Y-11452549D01*
X7330000Y-11455000D01*
X7330000Y-11545000D01*
X7329880Y-11547450D01*
X7329520Y-11549877D01*
X7328923Y-11552257D01*
X7328097Y-11554567D01*
X7327048Y-11556785D01*
X7325787Y-11558889D01*
X7324325Y-11560860D01*
X7322678Y-11562678D01*
X7320860Y-11564325D01*
X7318889Y-11565787D01*
X7316785Y-11567048D01*
X7314567Y-11568097D01*
X7312257Y-11568923D01*
X7309877Y-11569520D01*
X7307450Y-11569880D01*
X7305000Y-11570000D01*
X7240000Y-11570000D01*
X7237549Y-11569880D01*
X7235123Y-11569520D01*
X7232743Y-11568923D01*
X7230433Y-11568097D01*
X7228215Y-11567048D01*
X7226111Y-11565787D01*
X7224140Y-11564325D01*
X7222322Y-11562678D01*
X7220675Y-11560860D01*
X7219213Y-11558889D01*
X7217952Y-11556785D01*
X7216903Y-11554567D01*
X7216076Y-11552257D01*
X7215480Y-11549877D01*
X7215120Y-11547450D01*
X7215000Y-11545000D01*
X7215000Y-11455000D01*
X7215120Y-11452549D01*
X7215480Y-11450123D01*
X7216076Y-11447743D01*
X7216903Y-11445433D01*
X7217952Y-11443215D01*
X7219213Y-11441111D01*
X7220675Y-11439140D01*
X7222322Y-11437322D01*
X7224140Y-11435675D01*
X7226111Y-11434213D01*
X7228215Y-11432952D01*
X7230433Y-11431903D01*
X7232743Y-11431076D01*
X7235123Y-11430480D01*
X7237549Y-11430120D01*
X7240000Y-11430000D01*
X7305000Y-11430000D01*
X7307450Y-11430120D01*
X7307450Y-11430120D01*
G37*
D11*
X7272500Y-11500000D03*
D10*
G36*
X7102450Y-11430120D02*
X7104877Y-11430480D01*
X7107257Y-11431076D01*
X7109567Y-11431903D01*
X7111785Y-11432952D01*
X7113889Y-11434213D01*
X7115860Y-11435675D01*
X7117678Y-11437322D01*
X7119325Y-11439140D01*
X7120787Y-11441111D01*
X7122048Y-11443215D01*
X7123097Y-11445433D01*
X7123923Y-11447743D01*
X7124520Y-11450123D01*
X7124880Y-11452549D01*
X7125000Y-11455000D01*
X7125000Y-11545000D01*
X7124880Y-11547450D01*
X7124520Y-11549877D01*
X7123923Y-11552257D01*
X7123097Y-11554567D01*
X7122048Y-11556785D01*
X7120787Y-11558889D01*
X7119325Y-11560860D01*
X7117678Y-11562678D01*
X7115860Y-11564325D01*
X7113889Y-11565787D01*
X7111785Y-11567048D01*
X7109567Y-11568097D01*
X7107257Y-11568923D01*
X7104877Y-11569520D01*
X7102450Y-11569880D01*
X7100000Y-11570000D01*
X7035000Y-11570000D01*
X7032549Y-11569880D01*
X7030123Y-11569520D01*
X7027743Y-11568923D01*
X7025433Y-11568097D01*
X7023215Y-11567048D01*
X7021111Y-11565787D01*
X7019140Y-11564325D01*
X7017322Y-11562678D01*
X7015675Y-11560860D01*
X7014213Y-11558889D01*
X7012952Y-11556785D01*
X7011903Y-11554567D01*
X7011076Y-11552257D01*
X7010480Y-11549877D01*
X7010120Y-11547450D01*
X7010000Y-11545000D01*
X7010000Y-11455000D01*
X7010120Y-11452549D01*
X7010480Y-11450123D01*
X7011076Y-11447743D01*
X7011903Y-11445433D01*
X7012952Y-11443215D01*
X7014213Y-11441111D01*
X7015675Y-11439140D01*
X7017322Y-11437322D01*
X7019140Y-11435675D01*
X7021111Y-11434213D01*
X7023215Y-11432952D01*
X7025433Y-11431903D01*
X7027743Y-11431076D01*
X7030123Y-11430480D01*
X7032549Y-11430120D01*
X7035000Y-11430000D01*
X7100000Y-11430000D01*
X7102450Y-11430120D01*
X7102450Y-11430120D01*
G37*
D11*
X7067500Y-11500000D03*
G04 #@! TD*
D10*
G04 #@! TO.C,R3*
G36*
X6147450Y-10610120D02*
X6149877Y-10610480D01*
X6152257Y-10611077D01*
X6154567Y-10611903D01*
X6156785Y-10612952D01*
X6158889Y-10614213D01*
X6160860Y-10615675D01*
X6162678Y-10617322D01*
X6164325Y-10619140D01*
X6165787Y-10621111D01*
X6167048Y-10623215D01*
X6168097Y-10625433D01*
X6168923Y-10627743D01*
X6169520Y-10630123D01*
X6169880Y-10632550D01*
X6170000Y-10635000D01*
X6170000Y-10700000D01*
X6169880Y-10702451D01*
X6169520Y-10704877D01*
X6168923Y-10707257D01*
X6168097Y-10709567D01*
X6167048Y-10711785D01*
X6165787Y-10713889D01*
X6164325Y-10715860D01*
X6162678Y-10717678D01*
X6160860Y-10719325D01*
X6158889Y-10720787D01*
X6156785Y-10722048D01*
X6154567Y-10723097D01*
X6152257Y-10723924D01*
X6149877Y-10724520D01*
X6147450Y-10724880D01*
X6145000Y-10725000D01*
X6055000Y-10725000D01*
X6052549Y-10724880D01*
X6050123Y-10724520D01*
X6047743Y-10723924D01*
X6045433Y-10723097D01*
X6043215Y-10722048D01*
X6041111Y-10720787D01*
X6039140Y-10719325D01*
X6037322Y-10717678D01*
X6035675Y-10715860D01*
X6034213Y-10713889D01*
X6032952Y-10711785D01*
X6031903Y-10709567D01*
X6031076Y-10707257D01*
X6030480Y-10704877D01*
X6030120Y-10702451D01*
X6030000Y-10700000D01*
X6030000Y-10635000D01*
X6030120Y-10632550D01*
X6030480Y-10630123D01*
X6031076Y-10627743D01*
X6031903Y-10625433D01*
X6032952Y-10623215D01*
X6034213Y-10621111D01*
X6035675Y-10619140D01*
X6037322Y-10617322D01*
X6039140Y-10615675D01*
X6041111Y-10614213D01*
X6043215Y-10612952D01*
X6045433Y-10611903D01*
X6047743Y-10611077D01*
X6050123Y-10610480D01*
X6052549Y-10610120D01*
X6055000Y-10610000D01*
X6145000Y-10610000D01*
X6147450Y-10610120D01*
X6147450Y-10610120D01*
G37*
D11*
X6100000Y-10667500D03*
D10*
G36*
X6147450Y-10815120D02*
X6149877Y-10815480D01*
X6152257Y-10816077D01*
X6154567Y-10816903D01*
X6156785Y-10817952D01*
X6158889Y-10819213D01*
X6160860Y-10820675D01*
X6162678Y-10822322D01*
X6164325Y-10824140D01*
X6165787Y-10826111D01*
X6167048Y-10828215D01*
X6168097Y-10830433D01*
X6168923Y-10832743D01*
X6169520Y-10835123D01*
X6169880Y-10837550D01*
X6170000Y-10840000D01*
X6170000Y-10905000D01*
X6169880Y-10907451D01*
X6169520Y-10909877D01*
X6168923Y-10912257D01*
X6168097Y-10914567D01*
X6167048Y-10916785D01*
X6165787Y-10918889D01*
X6164325Y-10920860D01*
X6162678Y-10922678D01*
X6160860Y-10924325D01*
X6158889Y-10925787D01*
X6156785Y-10927048D01*
X6154567Y-10928097D01*
X6152257Y-10928924D01*
X6149877Y-10929520D01*
X6147450Y-10929880D01*
X6145000Y-10930000D01*
X6055000Y-10930000D01*
X6052549Y-10929880D01*
X6050123Y-10929520D01*
X6047743Y-10928924D01*
X6045433Y-10928097D01*
X6043215Y-10927048D01*
X6041111Y-10925787D01*
X6039140Y-10924325D01*
X6037322Y-10922678D01*
X6035675Y-10920860D01*
X6034213Y-10918889D01*
X6032952Y-10916785D01*
X6031903Y-10914567D01*
X6031076Y-10912257D01*
X6030480Y-10909877D01*
X6030120Y-10907451D01*
X6030000Y-10905000D01*
X6030000Y-10840000D01*
X6030120Y-10837550D01*
X6030480Y-10835123D01*
X6031076Y-10832743D01*
X6031903Y-10830433D01*
X6032952Y-10828215D01*
X6034213Y-10826111D01*
X6035675Y-10824140D01*
X6037322Y-10822322D01*
X6039140Y-10820675D01*
X6041111Y-10819213D01*
X6043215Y-10817952D01*
X6045433Y-10816903D01*
X6047743Y-10816077D01*
X6050123Y-10815480D01*
X6052549Y-10815120D01*
X6055000Y-10815000D01*
X6145000Y-10815000D01*
X6147450Y-10815120D01*
X6147450Y-10815120D01*
G37*
D11*
X6100000Y-10872500D03*
G04 #@! TD*
D10*
G04 #@! TO.C,R4*
G36*
X6727450Y-10610120D02*
X6729877Y-10610480D01*
X6732257Y-10611077D01*
X6734567Y-10611903D01*
X6736785Y-10612952D01*
X6738889Y-10614213D01*
X6740860Y-10615675D01*
X6742678Y-10617322D01*
X6744325Y-10619140D01*
X6745787Y-10621111D01*
X6747048Y-10623215D01*
X6748097Y-10625433D01*
X6748923Y-10627743D01*
X6749520Y-10630123D01*
X6749880Y-10632550D01*
X6750000Y-10635000D01*
X6750000Y-10700000D01*
X6749880Y-10702451D01*
X6749520Y-10704877D01*
X6748923Y-10707257D01*
X6748097Y-10709567D01*
X6747048Y-10711785D01*
X6745787Y-10713889D01*
X6744325Y-10715860D01*
X6742678Y-10717678D01*
X6740860Y-10719325D01*
X6738889Y-10720787D01*
X6736785Y-10722048D01*
X6734567Y-10723097D01*
X6732257Y-10723924D01*
X6729877Y-10724520D01*
X6727450Y-10724880D01*
X6725000Y-10725000D01*
X6635000Y-10725000D01*
X6632549Y-10724880D01*
X6630123Y-10724520D01*
X6627743Y-10723924D01*
X6625433Y-10723097D01*
X6623215Y-10722048D01*
X6621111Y-10720787D01*
X6619140Y-10719325D01*
X6617322Y-10717678D01*
X6615675Y-10715860D01*
X6614213Y-10713889D01*
X6612952Y-10711785D01*
X6611903Y-10709567D01*
X6611076Y-10707257D01*
X6610480Y-10704877D01*
X6610120Y-10702451D01*
X6610000Y-10700000D01*
X6610000Y-10635000D01*
X6610120Y-10632550D01*
X6610480Y-10630123D01*
X6611076Y-10627743D01*
X6611903Y-10625433D01*
X6612952Y-10623215D01*
X6614213Y-10621111D01*
X6615675Y-10619140D01*
X6617322Y-10617322D01*
X6619140Y-10615675D01*
X6621111Y-10614213D01*
X6623215Y-10612952D01*
X6625433Y-10611903D01*
X6627743Y-10611077D01*
X6630123Y-10610480D01*
X6632549Y-10610120D01*
X6635000Y-10610000D01*
X6725000Y-10610000D01*
X6727450Y-10610120D01*
X6727450Y-10610120D01*
G37*
D11*
X6680000Y-10667500D03*
D10*
G36*
X6727450Y-10815120D02*
X6729877Y-10815480D01*
X6732257Y-10816077D01*
X6734567Y-10816903D01*
X6736785Y-10817952D01*
X6738889Y-10819213D01*
X6740860Y-10820675D01*
X6742678Y-10822322D01*
X6744325Y-10824140D01*
X6745787Y-10826111D01*
X6747048Y-10828215D01*
X6748097Y-10830433D01*
X6748923Y-10832743D01*
X6749520Y-10835123D01*
X6749880Y-10837550D01*
X6750000Y-10840000D01*
X6750000Y-10905000D01*
X6749880Y-10907451D01*
X6749520Y-10909877D01*
X6748923Y-10912257D01*
X6748097Y-10914567D01*
X6747048Y-10916785D01*
X6745787Y-10918889D01*
X6744325Y-10920860D01*
X6742678Y-10922678D01*
X6740860Y-10924325D01*
X6738889Y-10925787D01*
X6736785Y-10927048D01*
X6734567Y-10928097D01*
X6732257Y-10928924D01*
X6729877Y-10929520D01*
X6727450Y-10929880D01*
X6725000Y-10930000D01*
X6635000Y-10930000D01*
X6632549Y-10929880D01*
X6630123Y-10929520D01*
X6627743Y-10928924D01*
X6625433Y-10928097D01*
X6623215Y-10927048D01*
X6621111Y-10925787D01*
X6619140Y-10924325D01*
X6617322Y-10922678D01*
X6615675Y-10920860D01*
X6614213Y-10918889D01*
X6612952Y-10916785D01*
X6611903Y-10914567D01*
X6611076Y-10912257D01*
X6610480Y-10909877D01*
X6610120Y-10907451D01*
X6610000Y-10905000D01*
X6610000Y-10840000D01*
X6610120Y-10837550D01*
X6610480Y-10835123D01*
X6611076Y-10832743D01*
X6611903Y-10830433D01*
X6612952Y-10828215D01*
X6614213Y-10826111D01*
X6615675Y-10824140D01*
X6617322Y-10822322D01*
X6619140Y-10820675D01*
X6621111Y-10819213D01*
X6623215Y-10817952D01*
X6625433Y-10816903D01*
X6627743Y-10816077D01*
X6630123Y-10815480D01*
X6632549Y-10815120D01*
X6635000Y-10815000D01*
X6725000Y-10815000D01*
X6727450Y-10815120D01*
X6727450Y-10815120D01*
G37*
D11*
X6680000Y-10872500D03*
G04 #@! TD*
D10*
G04 #@! TO.C,R60*
G36*
X5827450Y-7920120D02*
X5829877Y-7920480D01*
X5832257Y-7921076D01*
X5834567Y-7921903D01*
X5836785Y-7922952D01*
X5838889Y-7924213D01*
X5840860Y-7925675D01*
X5842678Y-7927322D01*
X5844325Y-7929140D01*
X5845787Y-7931111D01*
X5847048Y-7933215D01*
X5848097Y-7935433D01*
X5848923Y-7937743D01*
X5849520Y-7940123D01*
X5849880Y-7942549D01*
X5850000Y-7945000D01*
X5850000Y-8010000D01*
X5849880Y-8012450D01*
X5849520Y-8014877D01*
X5848923Y-8017257D01*
X5848097Y-8019567D01*
X5847048Y-8021785D01*
X5845787Y-8023889D01*
X5844325Y-8025860D01*
X5842678Y-8027678D01*
X5840860Y-8029325D01*
X5838889Y-8030787D01*
X5836785Y-8032048D01*
X5834567Y-8033097D01*
X5832257Y-8033923D01*
X5829877Y-8034520D01*
X5827450Y-8034880D01*
X5825000Y-8035000D01*
X5735000Y-8035000D01*
X5732549Y-8034880D01*
X5730123Y-8034520D01*
X5727743Y-8033923D01*
X5725433Y-8033097D01*
X5723215Y-8032048D01*
X5721111Y-8030787D01*
X5719140Y-8029325D01*
X5717322Y-8027678D01*
X5715675Y-8025860D01*
X5714213Y-8023889D01*
X5712952Y-8021785D01*
X5711903Y-8019567D01*
X5711076Y-8017257D01*
X5710480Y-8014877D01*
X5710120Y-8012450D01*
X5710000Y-8010000D01*
X5710000Y-7945000D01*
X5710120Y-7942549D01*
X5710480Y-7940123D01*
X5711076Y-7937743D01*
X5711903Y-7935433D01*
X5712952Y-7933215D01*
X5714213Y-7931111D01*
X5715675Y-7929140D01*
X5717322Y-7927322D01*
X5719140Y-7925675D01*
X5721111Y-7924213D01*
X5723215Y-7922952D01*
X5725433Y-7921903D01*
X5727743Y-7921076D01*
X5730123Y-7920480D01*
X5732549Y-7920120D01*
X5735000Y-7920000D01*
X5825000Y-7920000D01*
X5827450Y-7920120D01*
X5827450Y-7920120D01*
G37*
D11*
X5780000Y-7977500D03*
D10*
G36*
X5827450Y-8125120D02*
X5829877Y-8125480D01*
X5832257Y-8126076D01*
X5834567Y-8126903D01*
X5836785Y-8127952D01*
X5838889Y-8129213D01*
X5840860Y-8130675D01*
X5842678Y-8132322D01*
X5844325Y-8134140D01*
X5845787Y-8136111D01*
X5847048Y-8138215D01*
X5848097Y-8140433D01*
X5848923Y-8142743D01*
X5849520Y-8145123D01*
X5849880Y-8147549D01*
X5850000Y-8150000D01*
X5850000Y-8215000D01*
X5849880Y-8217450D01*
X5849520Y-8219877D01*
X5848923Y-8222257D01*
X5848097Y-8224567D01*
X5847048Y-8226785D01*
X5845787Y-8228889D01*
X5844325Y-8230860D01*
X5842678Y-8232678D01*
X5840860Y-8234325D01*
X5838889Y-8235787D01*
X5836785Y-8237048D01*
X5834567Y-8238097D01*
X5832257Y-8238923D01*
X5829877Y-8239520D01*
X5827450Y-8239880D01*
X5825000Y-8240000D01*
X5735000Y-8240000D01*
X5732549Y-8239880D01*
X5730123Y-8239520D01*
X5727743Y-8238923D01*
X5725433Y-8238097D01*
X5723215Y-8237048D01*
X5721111Y-8235787D01*
X5719140Y-8234325D01*
X5717322Y-8232678D01*
X5715675Y-8230860D01*
X5714213Y-8228889D01*
X5712952Y-8226785D01*
X5711903Y-8224567D01*
X5711076Y-8222257D01*
X5710480Y-8219877D01*
X5710120Y-8217450D01*
X5710000Y-8215000D01*
X5710000Y-8150000D01*
X5710120Y-8147549D01*
X5710480Y-8145123D01*
X5711076Y-8142743D01*
X5711903Y-8140433D01*
X5712952Y-8138215D01*
X5714213Y-8136111D01*
X5715675Y-8134140D01*
X5717322Y-8132322D01*
X5719140Y-8130675D01*
X5721111Y-8129213D01*
X5723215Y-8127952D01*
X5725433Y-8126903D01*
X5727743Y-8126076D01*
X5730123Y-8125480D01*
X5732549Y-8125120D01*
X5735000Y-8125000D01*
X5825000Y-8125000D01*
X5827450Y-8125120D01*
X5827450Y-8125120D01*
G37*
D11*
X5780000Y-8182500D03*
G04 #@! TD*
D10*
G04 #@! TO.C,R70*
G36*
X12237450Y-6930120D02*
X12239877Y-6930480D01*
X12242257Y-6931076D01*
X12244567Y-6931903D01*
X12246785Y-6932952D01*
X12248889Y-6934213D01*
X12250860Y-6935675D01*
X12252678Y-6937322D01*
X12254325Y-6939140D01*
X12255787Y-6941111D01*
X12257048Y-6943215D01*
X12258097Y-6945433D01*
X12258923Y-6947743D01*
X12259520Y-6950123D01*
X12259880Y-6952549D01*
X12260000Y-6955000D01*
X12260000Y-7045000D01*
X12259880Y-7047450D01*
X12259520Y-7049877D01*
X12258923Y-7052257D01*
X12258097Y-7054567D01*
X12257048Y-7056785D01*
X12255787Y-7058889D01*
X12254325Y-7060860D01*
X12252678Y-7062678D01*
X12250860Y-7064325D01*
X12248889Y-7065787D01*
X12246785Y-7067048D01*
X12244567Y-7068097D01*
X12242257Y-7068923D01*
X12239877Y-7069520D01*
X12237450Y-7069880D01*
X12235000Y-7070000D01*
X12170000Y-7070000D01*
X12167549Y-7069880D01*
X12165123Y-7069520D01*
X12162743Y-7068923D01*
X12160433Y-7068097D01*
X12158215Y-7067048D01*
X12156111Y-7065787D01*
X12154140Y-7064325D01*
X12152322Y-7062678D01*
X12150675Y-7060860D01*
X12149213Y-7058889D01*
X12147952Y-7056785D01*
X12146903Y-7054567D01*
X12146076Y-7052257D01*
X12145480Y-7049877D01*
X12145120Y-7047450D01*
X12145000Y-7045000D01*
X12145000Y-6955000D01*
X12145120Y-6952549D01*
X12145480Y-6950123D01*
X12146076Y-6947743D01*
X12146903Y-6945433D01*
X12147952Y-6943215D01*
X12149213Y-6941111D01*
X12150675Y-6939140D01*
X12152322Y-6937322D01*
X12154140Y-6935675D01*
X12156111Y-6934213D01*
X12158215Y-6932952D01*
X12160433Y-6931903D01*
X12162743Y-6931076D01*
X12165123Y-6930480D01*
X12167549Y-6930120D01*
X12170000Y-6930000D01*
X12235000Y-6930000D01*
X12237450Y-6930120D01*
X12237450Y-6930120D01*
G37*
D11*
X12202500Y-7000000D03*
D10*
G36*
X12032450Y-6930120D02*
X12034877Y-6930480D01*
X12037257Y-6931076D01*
X12039567Y-6931903D01*
X12041785Y-6932952D01*
X12043889Y-6934213D01*
X12045860Y-6935675D01*
X12047678Y-6937322D01*
X12049325Y-6939140D01*
X12050787Y-6941111D01*
X12052048Y-6943215D01*
X12053097Y-6945433D01*
X12053923Y-6947743D01*
X12054520Y-6950123D01*
X12054880Y-6952549D01*
X12055000Y-6955000D01*
X12055000Y-7045000D01*
X12054880Y-7047450D01*
X12054520Y-7049877D01*
X12053923Y-7052257D01*
X12053097Y-7054567D01*
X12052048Y-7056785D01*
X12050787Y-7058889D01*
X12049325Y-7060860D01*
X12047678Y-7062678D01*
X12045860Y-7064325D01*
X12043889Y-7065787D01*
X12041785Y-7067048D01*
X12039567Y-7068097D01*
X12037257Y-7068923D01*
X12034877Y-7069520D01*
X12032450Y-7069880D01*
X12030000Y-7070000D01*
X11965000Y-7070000D01*
X11962549Y-7069880D01*
X11960123Y-7069520D01*
X11957743Y-7068923D01*
X11955433Y-7068097D01*
X11953215Y-7067048D01*
X11951111Y-7065787D01*
X11949140Y-7064325D01*
X11947322Y-7062678D01*
X11945675Y-7060860D01*
X11944213Y-7058889D01*
X11942952Y-7056785D01*
X11941903Y-7054567D01*
X11941076Y-7052257D01*
X11940480Y-7049877D01*
X11940120Y-7047450D01*
X11940000Y-7045000D01*
X11940000Y-6955000D01*
X11940120Y-6952549D01*
X11940480Y-6950123D01*
X11941076Y-6947743D01*
X11941903Y-6945433D01*
X11942952Y-6943215D01*
X11944213Y-6941111D01*
X11945675Y-6939140D01*
X11947322Y-6937322D01*
X11949140Y-6935675D01*
X11951111Y-6934213D01*
X11953215Y-6932952D01*
X11955433Y-6931903D01*
X11957743Y-6931076D01*
X11960123Y-6930480D01*
X11962549Y-6930120D01*
X11965000Y-6930000D01*
X12030000Y-6930000D01*
X12032450Y-6930120D01*
X12032450Y-6930120D01*
G37*
D11*
X11997500Y-7000000D03*
G04 #@! TD*
D10*
G04 #@! TO.C,R71*
G36*
X12237450Y-7330120D02*
X12239877Y-7330480D01*
X12242257Y-7331076D01*
X12244567Y-7331903D01*
X12246785Y-7332952D01*
X12248889Y-7334213D01*
X12250860Y-7335675D01*
X12252678Y-7337322D01*
X12254325Y-7339140D01*
X12255787Y-7341111D01*
X12257048Y-7343215D01*
X12258097Y-7345433D01*
X12258923Y-7347743D01*
X12259520Y-7350123D01*
X12259880Y-7352549D01*
X12260000Y-7355000D01*
X12260000Y-7445000D01*
X12259880Y-7447450D01*
X12259520Y-7449877D01*
X12258923Y-7452257D01*
X12258097Y-7454567D01*
X12257048Y-7456785D01*
X12255787Y-7458889D01*
X12254325Y-7460860D01*
X12252678Y-7462678D01*
X12250860Y-7464325D01*
X12248889Y-7465787D01*
X12246785Y-7467048D01*
X12244567Y-7468097D01*
X12242257Y-7468923D01*
X12239877Y-7469520D01*
X12237450Y-7469880D01*
X12235000Y-7470000D01*
X12170000Y-7470000D01*
X12167549Y-7469880D01*
X12165123Y-7469520D01*
X12162743Y-7468923D01*
X12160433Y-7468097D01*
X12158215Y-7467048D01*
X12156111Y-7465787D01*
X12154140Y-7464325D01*
X12152322Y-7462678D01*
X12150675Y-7460860D01*
X12149213Y-7458889D01*
X12147952Y-7456785D01*
X12146903Y-7454567D01*
X12146076Y-7452257D01*
X12145480Y-7449877D01*
X12145120Y-7447450D01*
X12145000Y-7445000D01*
X12145000Y-7355000D01*
X12145120Y-7352549D01*
X12145480Y-7350123D01*
X12146076Y-7347743D01*
X12146903Y-7345433D01*
X12147952Y-7343215D01*
X12149213Y-7341111D01*
X12150675Y-7339140D01*
X12152322Y-7337322D01*
X12154140Y-7335675D01*
X12156111Y-7334213D01*
X12158215Y-7332952D01*
X12160433Y-7331903D01*
X12162743Y-7331076D01*
X12165123Y-7330480D01*
X12167549Y-7330120D01*
X12170000Y-7330000D01*
X12235000Y-7330000D01*
X12237450Y-7330120D01*
X12237450Y-7330120D01*
G37*
D11*
X12202500Y-7400000D03*
D10*
G36*
X12032450Y-7330120D02*
X12034877Y-7330480D01*
X12037257Y-7331076D01*
X12039567Y-7331903D01*
X12041785Y-7332952D01*
X12043889Y-7334213D01*
X12045860Y-7335675D01*
X12047678Y-7337322D01*
X12049325Y-7339140D01*
X12050787Y-7341111D01*
X12052048Y-7343215D01*
X12053097Y-7345433D01*
X12053923Y-7347743D01*
X12054520Y-7350123D01*
X12054880Y-7352549D01*
X12055000Y-7355000D01*
X12055000Y-7445000D01*
X12054880Y-7447450D01*
X12054520Y-7449877D01*
X12053923Y-7452257D01*
X12053097Y-7454567D01*
X12052048Y-7456785D01*
X12050787Y-7458889D01*
X12049325Y-7460860D01*
X12047678Y-7462678D01*
X12045860Y-7464325D01*
X12043889Y-7465787D01*
X12041785Y-7467048D01*
X12039567Y-7468097D01*
X12037257Y-7468923D01*
X12034877Y-7469520D01*
X12032450Y-7469880D01*
X12030000Y-7470000D01*
X11965000Y-7470000D01*
X11962549Y-7469880D01*
X11960123Y-7469520D01*
X11957743Y-7468923D01*
X11955433Y-7468097D01*
X11953215Y-7467048D01*
X11951111Y-7465787D01*
X11949140Y-7464325D01*
X11947322Y-7462678D01*
X11945675Y-7460860D01*
X11944213Y-7458889D01*
X11942952Y-7456785D01*
X11941903Y-7454567D01*
X11941076Y-7452257D01*
X11940480Y-7449877D01*
X11940120Y-7447450D01*
X11940000Y-7445000D01*
X11940000Y-7355000D01*
X11940120Y-7352549D01*
X11940480Y-7350123D01*
X11941076Y-7347743D01*
X11941903Y-7345433D01*
X11942952Y-7343215D01*
X11944213Y-7341111D01*
X11945675Y-7339140D01*
X11947322Y-7337322D01*
X11949140Y-7335675D01*
X11951111Y-7334213D01*
X11953215Y-7332952D01*
X11955433Y-7331903D01*
X11957743Y-7331076D01*
X11960123Y-7330480D01*
X11962549Y-7330120D01*
X11965000Y-7330000D01*
X12030000Y-7330000D01*
X12032450Y-7330120D01*
X12032450Y-7330120D01*
G37*
D11*
X11997500Y-7400000D03*
G04 #@! TD*
D10*
G04 #@! TO.C,R72*
G36*
X12237450Y-7730120D02*
X12239877Y-7730480D01*
X12242257Y-7731076D01*
X12244567Y-7731903D01*
X12246785Y-7732952D01*
X12248889Y-7734213D01*
X12250860Y-7735675D01*
X12252678Y-7737322D01*
X12254325Y-7739140D01*
X12255787Y-7741111D01*
X12257048Y-7743215D01*
X12258097Y-7745433D01*
X12258923Y-7747743D01*
X12259520Y-7750123D01*
X12259880Y-7752549D01*
X12260000Y-7755000D01*
X12260000Y-7845000D01*
X12259880Y-7847450D01*
X12259520Y-7849877D01*
X12258923Y-7852257D01*
X12258097Y-7854567D01*
X12257048Y-7856785D01*
X12255787Y-7858889D01*
X12254325Y-7860860D01*
X12252678Y-7862678D01*
X12250860Y-7864325D01*
X12248889Y-7865787D01*
X12246785Y-7867048D01*
X12244567Y-7868097D01*
X12242257Y-7868923D01*
X12239877Y-7869520D01*
X12237450Y-7869880D01*
X12235000Y-7870000D01*
X12170000Y-7870000D01*
X12167549Y-7869880D01*
X12165123Y-7869520D01*
X12162743Y-7868923D01*
X12160433Y-7868097D01*
X12158215Y-7867048D01*
X12156111Y-7865787D01*
X12154140Y-7864325D01*
X12152322Y-7862678D01*
X12150675Y-7860860D01*
X12149213Y-7858889D01*
X12147952Y-7856785D01*
X12146903Y-7854567D01*
X12146076Y-7852257D01*
X12145480Y-7849877D01*
X12145120Y-7847450D01*
X12145000Y-7845000D01*
X12145000Y-7755000D01*
X12145120Y-7752549D01*
X12145480Y-7750123D01*
X12146076Y-7747743D01*
X12146903Y-7745433D01*
X12147952Y-7743215D01*
X12149213Y-7741111D01*
X12150675Y-7739140D01*
X12152322Y-7737322D01*
X12154140Y-7735675D01*
X12156111Y-7734213D01*
X12158215Y-7732952D01*
X12160433Y-7731903D01*
X12162743Y-7731076D01*
X12165123Y-7730480D01*
X12167549Y-7730120D01*
X12170000Y-7730000D01*
X12235000Y-7730000D01*
X12237450Y-7730120D01*
X12237450Y-7730120D01*
G37*
D11*
X12202500Y-7800000D03*
D10*
G36*
X12032450Y-7730120D02*
X12034877Y-7730480D01*
X12037257Y-7731076D01*
X12039567Y-7731903D01*
X12041785Y-7732952D01*
X12043889Y-7734213D01*
X12045860Y-7735675D01*
X12047678Y-7737322D01*
X12049325Y-7739140D01*
X12050787Y-7741111D01*
X12052048Y-7743215D01*
X12053097Y-7745433D01*
X12053923Y-7747743D01*
X12054520Y-7750123D01*
X12054880Y-7752549D01*
X12055000Y-7755000D01*
X12055000Y-7845000D01*
X12054880Y-7847450D01*
X12054520Y-7849877D01*
X12053923Y-7852257D01*
X12053097Y-7854567D01*
X12052048Y-7856785D01*
X12050787Y-7858889D01*
X12049325Y-7860860D01*
X12047678Y-7862678D01*
X12045860Y-7864325D01*
X12043889Y-7865787D01*
X12041785Y-7867048D01*
X12039567Y-7868097D01*
X12037257Y-7868923D01*
X12034877Y-7869520D01*
X12032450Y-7869880D01*
X12030000Y-7870000D01*
X11965000Y-7870000D01*
X11962549Y-7869880D01*
X11960123Y-7869520D01*
X11957743Y-7868923D01*
X11955433Y-7868097D01*
X11953215Y-7867048D01*
X11951111Y-7865787D01*
X11949140Y-7864325D01*
X11947322Y-7862678D01*
X11945675Y-7860860D01*
X11944213Y-7858889D01*
X11942952Y-7856785D01*
X11941903Y-7854567D01*
X11941076Y-7852257D01*
X11940480Y-7849877D01*
X11940120Y-7847450D01*
X11940000Y-7845000D01*
X11940000Y-7755000D01*
X11940120Y-7752549D01*
X11940480Y-7750123D01*
X11941076Y-7747743D01*
X11941903Y-7745433D01*
X11942952Y-7743215D01*
X11944213Y-7741111D01*
X11945675Y-7739140D01*
X11947322Y-7737322D01*
X11949140Y-7735675D01*
X11951111Y-7734213D01*
X11953215Y-7732952D01*
X11955433Y-7731903D01*
X11957743Y-7731076D01*
X11960123Y-7730480D01*
X11962549Y-7730120D01*
X11965000Y-7730000D01*
X12030000Y-7730000D01*
X12032450Y-7730120D01*
X12032450Y-7730120D01*
G37*
D11*
X11997500Y-7800000D03*
G04 #@! TD*
D10*
G04 #@! TO.C,R73*
G36*
X5397451Y-12045120D02*
X5399877Y-12045480D01*
X5402257Y-12046076D01*
X5404567Y-12046903D01*
X5406785Y-12047952D01*
X5408889Y-12049213D01*
X5410860Y-12050675D01*
X5412678Y-12052322D01*
X5414325Y-12054140D01*
X5415787Y-12056111D01*
X5417048Y-12058215D01*
X5418097Y-12060433D01*
X5418924Y-12062743D01*
X5419520Y-12065123D01*
X5419880Y-12067549D01*
X5420000Y-12070000D01*
X5420000Y-12135000D01*
X5419880Y-12137450D01*
X5419520Y-12139877D01*
X5418924Y-12142257D01*
X5418097Y-12144567D01*
X5417048Y-12146785D01*
X5415787Y-12148889D01*
X5414325Y-12150860D01*
X5412678Y-12152678D01*
X5410860Y-12154325D01*
X5408889Y-12155787D01*
X5406785Y-12157048D01*
X5404567Y-12158097D01*
X5402257Y-12158923D01*
X5399877Y-12159520D01*
X5397451Y-12159880D01*
X5395000Y-12160000D01*
X5305000Y-12160000D01*
X5302550Y-12159880D01*
X5300123Y-12159520D01*
X5297743Y-12158923D01*
X5295433Y-12158097D01*
X5293215Y-12157048D01*
X5291111Y-12155787D01*
X5289140Y-12154325D01*
X5287322Y-12152678D01*
X5285675Y-12150860D01*
X5284213Y-12148889D01*
X5282952Y-12146785D01*
X5281903Y-12144567D01*
X5281077Y-12142257D01*
X5280480Y-12139877D01*
X5280120Y-12137450D01*
X5280000Y-12135000D01*
X5280000Y-12070000D01*
X5280120Y-12067549D01*
X5280480Y-12065123D01*
X5281077Y-12062743D01*
X5281903Y-12060433D01*
X5282952Y-12058215D01*
X5284213Y-12056111D01*
X5285675Y-12054140D01*
X5287322Y-12052322D01*
X5289140Y-12050675D01*
X5291111Y-12049213D01*
X5293215Y-12047952D01*
X5295433Y-12046903D01*
X5297743Y-12046076D01*
X5300123Y-12045480D01*
X5302550Y-12045120D01*
X5305000Y-12045000D01*
X5395000Y-12045000D01*
X5397451Y-12045120D01*
X5397451Y-12045120D01*
G37*
D11*
X5350000Y-12102500D03*
D10*
G36*
X5397451Y-11840120D02*
X5399877Y-11840480D01*
X5402257Y-11841076D01*
X5404567Y-11841903D01*
X5406785Y-11842952D01*
X5408889Y-11844213D01*
X5410860Y-11845675D01*
X5412678Y-11847322D01*
X5414325Y-11849140D01*
X5415787Y-11851111D01*
X5417048Y-11853215D01*
X5418097Y-11855433D01*
X5418924Y-11857743D01*
X5419520Y-11860123D01*
X5419880Y-11862549D01*
X5420000Y-11865000D01*
X5420000Y-11930000D01*
X5419880Y-11932450D01*
X5419520Y-11934877D01*
X5418924Y-11937257D01*
X5418097Y-11939567D01*
X5417048Y-11941785D01*
X5415787Y-11943889D01*
X5414325Y-11945860D01*
X5412678Y-11947678D01*
X5410860Y-11949325D01*
X5408889Y-11950787D01*
X5406785Y-11952048D01*
X5404567Y-11953097D01*
X5402257Y-11953923D01*
X5399877Y-11954520D01*
X5397451Y-11954880D01*
X5395000Y-11955000D01*
X5305000Y-11955000D01*
X5302550Y-11954880D01*
X5300123Y-11954520D01*
X5297743Y-11953923D01*
X5295433Y-11953097D01*
X5293215Y-11952048D01*
X5291111Y-11950787D01*
X5289140Y-11949325D01*
X5287322Y-11947678D01*
X5285675Y-11945860D01*
X5284213Y-11943889D01*
X5282952Y-11941785D01*
X5281903Y-11939567D01*
X5281077Y-11937257D01*
X5280480Y-11934877D01*
X5280120Y-11932450D01*
X5280000Y-11930000D01*
X5280000Y-11865000D01*
X5280120Y-11862549D01*
X5280480Y-11860123D01*
X5281077Y-11857743D01*
X5281903Y-11855433D01*
X5282952Y-11853215D01*
X5284213Y-11851111D01*
X5285675Y-11849140D01*
X5287322Y-11847322D01*
X5289140Y-11845675D01*
X5291111Y-11844213D01*
X5293215Y-11842952D01*
X5295433Y-11841903D01*
X5297743Y-11841076D01*
X5300123Y-11840480D01*
X5302550Y-11840120D01*
X5305000Y-11840000D01*
X5395000Y-11840000D01*
X5397451Y-11840120D01*
X5397451Y-11840120D01*
G37*
D11*
X5350000Y-11897500D03*
G04 #@! TD*
D10*
G04 #@! TO.C,R67*
G36*
X9837451Y-8360120D02*
X9839877Y-8360480D01*
X9842257Y-8361076D01*
X9844567Y-8361903D01*
X9846785Y-8362952D01*
X9848889Y-8364213D01*
X9850860Y-8365675D01*
X9852678Y-8367322D01*
X9854325Y-8369140D01*
X9855787Y-8371111D01*
X9857048Y-8373215D01*
X9858097Y-8375433D01*
X9858924Y-8377743D01*
X9859520Y-8380123D01*
X9859880Y-8382549D01*
X9860000Y-8385000D01*
X9860000Y-8475000D01*
X9859880Y-8477451D01*
X9859520Y-8479877D01*
X9858924Y-8482257D01*
X9858097Y-8484567D01*
X9857048Y-8486785D01*
X9855787Y-8488889D01*
X9854325Y-8490860D01*
X9852678Y-8492678D01*
X9850860Y-8494325D01*
X9848889Y-8495787D01*
X9846785Y-8497048D01*
X9844567Y-8498097D01*
X9842257Y-8498924D01*
X9839877Y-8499520D01*
X9837451Y-8499880D01*
X9835000Y-8500000D01*
X9770000Y-8500000D01*
X9767550Y-8499880D01*
X9765123Y-8499520D01*
X9762743Y-8498924D01*
X9760433Y-8498097D01*
X9758215Y-8497048D01*
X9756111Y-8495787D01*
X9754140Y-8494325D01*
X9752322Y-8492678D01*
X9750675Y-8490860D01*
X9749213Y-8488889D01*
X9747952Y-8486785D01*
X9746903Y-8484567D01*
X9746077Y-8482257D01*
X9745480Y-8479877D01*
X9745120Y-8477451D01*
X9745000Y-8475000D01*
X9745000Y-8385000D01*
X9745120Y-8382549D01*
X9745480Y-8380123D01*
X9746077Y-8377743D01*
X9746903Y-8375433D01*
X9747952Y-8373215D01*
X9749213Y-8371111D01*
X9750675Y-8369140D01*
X9752322Y-8367322D01*
X9754140Y-8365675D01*
X9756111Y-8364213D01*
X9758215Y-8362952D01*
X9760433Y-8361903D01*
X9762743Y-8361076D01*
X9765123Y-8360480D01*
X9767550Y-8360120D01*
X9770000Y-8360000D01*
X9835000Y-8360000D01*
X9837451Y-8360120D01*
X9837451Y-8360120D01*
G37*
D11*
X9802500Y-8430000D03*
D10*
G36*
X9632451Y-8360120D02*
X9634877Y-8360480D01*
X9637257Y-8361076D01*
X9639567Y-8361903D01*
X9641785Y-8362952D01*
X9643889Y-8364213D01*
X9645860Y-8365675D01*
X9647678Y-8367322D01*
X9649325Y-8369140D01*
X9650787Y-8371111D01*
X9652048Y-8373215D01*
X9653097Y-8375433D01*
X9653924Y-8377743D01*
X9654520Y-8380123D01*
X9654880Y-8382549D01*
X9655000Y-8385000D01*
X9655000Y-8475000D01*
X9654880Y-8477451D01*
X9654520Y-8479877D01*
X9653924Y-8482257D01*
X9653097Y-8484567D01*
X9652048Y-8486785D01*
X9650787Y-8488889D01*
X9649325Y-8490860D01*
X9647678Y-8492678D01*
X9645860Y-8494325D01*
X9643889Y-8495787D01*
X9641785Y-8497048D01*
X9639567Y-8498097D01*
X9637257Y-8498924D01*
X9634877Y-8499520D01*
X9632451Y-8499880D01*
X9630000Y-8500000D01*
X9565000Y-8500000D01*
X9562550Y-8499880D01*
X9560123Y-8499520D01*
X9557743Y-8498924D01*
X9555433Y-8498097D01*
X9553215Y-8497048D01*
X9551111Y-8495787D01*
X9549140Y-8494325D01*
X9547322Y-8492678D01*
X9545675Y-8490860D01*
X9544213Y-8488889D01*
X9542952Y-8486785D01*
X9541903Y-8484567D01*
X9541077Y-8482257D01*
X9540480Y-8479877D01*
X9540120Y-8477451D01*
X9540000Y-8475000D01*
X9540000Y-8385000D01*
X9540120Y-8382549D01*
X9540480Y-8380123D01*
X9541077Y-8377743D01*
X9541903Y-8375433D01*
X9542952Y-8373215D01*
X9544213Y-8371111D01*
X9545675Y-8369140D01*
X9547322Y-8367322D01*
X9549140Y-8365675D01*
X9551111Y-8364213D01*
X9553215Y-8362952D01*
X9555433Y-8361903D01*
X9557743Y-8361076D01*
X9560123Y-8360480D01*
X9562550Y-8360120D01*
X9565000Y-8360000D01*
X9630000Y-8360000D01*
X9632451Y-8360120D01*
X9632451Y-8360120D01*
G37*
D11*
X9597500Y-8430000D03*
G04 #@! TD*
D10*
G04 #@! TO.C,R50*
G36*
X7472450Y-7150120D02*
X7474877Y-7150480D01*
X7477257Y-7151076D01*
X7479567Y-7151903D01*
X7481785Y-7152952D01*
X7483889Y-7154213D01*
X7485860Y-7155675D01*
X7487678Y-7157322D01*
X7489325Y-7159140D01*
X7490787Y-7161111D01*
X7492048Y-7163215D01*
X7493097Y-7165433D01*
X7493923Y-7167743D01*
X7494520Y-7170123D01*
X7494880Y-7172549D01*
X7495000Y-7175000D01*
X7495000Y-7265000D01*
X7494880Y-7267450D01*
X7494520Y-7269877D01*
X7493923Y-7272257D01*
X7493097Y-7274567D01*
X7492048Y-7276785D01*
X7490787Y-7278889D01*
X7489325Y-7280860D01*
X7487678Y-7282678D01*
X7485860Y-7284325D01*
X7483889Y-7285787D01*
X7481785Y-7287048D01*
X7479567Y-7288097D01*
X7477257Y-7288923D01*
X7474877Y-7289520D01*
X7472450Y-7289880D01*
X7470000Y-7290000D01*
X7405000Y-7290000D01*
X7402549Y-7289880D01*
X7400123Y-7289520D01*
X7397743Y-7288923D01*
X7395433Y-7288097D01*
X7393215Y-7287048D01*
X7391111Y-7285787D01*
X7389140Y-7284325D01*
X7387322Y-7282678D01*
X7385675Y-7280860D01*
X7384213Y-7278889D01*
X7382952Y-7276785D01*
X7381903Y-7274567D01*
X7381076Y-7272257D01*
X7380480Y-7269877D01*
X7380120Y-7267450D01*
X7380000Y-7265000D01*
X7380000Y-7175000D01*
X7380120Y-7172549D01*
X7380480Y-7170123D01*
X7381076Y-7167743D01*
X7381903Y-7165433D01*
X7382952Y-7163215D01*
X7384213Y-7161111D01*
X7385675Y-7159140D01*
X7387322Y-7157322D01*
X7389140Y-7155675D01*
X7391111Y-7154213D01*
X7393215Y-7152952D01*
X7395433Y-7151903D01*
X7397743Y-7151076D01*
X7400123Y-7150480D01*
X7402549Y-7150120D01*
X7405000Y-7150000D01*
X7470000Y-7150000D01*
X7472450Y-7150120D01*
X7472450Y-7150120D01*
G37*
D11*
X7437500Y-7220000D03*
D10*
G36*
X7677450Y-7150120D02*
X7679877Y-7150480D01*
X7682257Y-7151076D01*
X7684567Y-7151903D01*
X7686785Y-7152952D01*
X7688889Y-7154213D01*
X7690860Y-7155675D01*
X7692678Y-7157322D01*
X7694325Y-7159140D01*
X7695787Y-7161111D01*
X7697048Y-7163215D01*
X7698097Y-7165433D01*
X7698923Y-7167743D01*
X7699520Y-7170123D01*
X7699880Y-7172549D01*
X7700000Y-7175000D01*
X7700000Y-7265000D01*
X7699880Y-7267450D01*
X7699520Y-7269877D01*
X7698923Y-7272257D01*
X7698097Y-7274567D01*
X7697048Y-7276785D01*
X7695787Y-7278889D01*
X7694325Y-7280860D01*
X7692678Y-7282678D01*
X7690860Y-7284325D01*
X7688889Y-7285787D01*
X7686785Y-7287048D01*
X7684567Y-7288097D01*
X7682257Y-7288923D01*
X7679877Y-7289520D01*
X7677450Y-7289880D01*
X7675000Y-7290000D01*
X7610000Y-7290000D01*
X7607549Y-7289880D01*
X7605123Y-7289520D01*
X7602743Y-7288923D01*
X7600433Y-7288097D01*
X7598215Y-7287048D01*
X7596111Y-7285787D01*
X7594140Y-7284325D01*
X7592322Y-7282678D01*
X7590675Y-7280860D01*
X7589213Y-7278889D01*
X7587952Y-7276785D01*
X7586903Y-7274567D01*
X7586076Y-7272257D01*
X7585480Y-7269877D01*
X7585120Y-7267450D01*
X7585000Y-7265000D01*
X7585000Y-7175000D01*
X7585120Y-7172549D01*
X7585480Y-7170123D01*
X7586076Y-7167743D01*
X7586903Y-7165433D01*
X7587952Y-7163215D01*
X7589213Y-7161111D01*
X7590675Y-7159140D01*
X7592322Y-7157322D01*
X7594140Y-7155675D01*
X7596111Y-7154213D01*
X7598215Y-7152952D01*
X7600433Y-7151903D01*
X7602743Y-7151076D01*
X7605123Y-7150480D01*
X7607549Y-7150120D01*
X7610000Y-7150000D01*
X7675000Y-7150000D01*
X7677450Y-7150120D01*
X7677450Y-7150120D01*
G37*
D11*
X7642500Y-7220000D03*
G04 #@! TD*
D10*
G04 #@! TO.C,R51*
G36*
X7472450Y-6960120D02*
X7474877Y-6960480D01*
X7477257Y-6961076D01*
X7479567Y-6961903D01*
X7481785Y-6962952D01*
X7483889Y-6964213D01*
X7485860Y-6965675D01*
X7487678Y-6967322D01*
X7489325Y-6969140D01*
X7490787Y-6971111D01*
X7492048Y-6973215D01*
X7493097Y-6975433D01*
X7493923Y-6977743D01*
X7494520Y-6980123D01*
X7494880Y-6982549D01*
X7495000Y-6985000D01*
X7495000Y-7075000D01*
X7494880Y-7077450D01*
X7494520Y-7079877D01*
X7493923Y-7082257D01*
X7493097Y-7084567D01*
X7492048Y-7086785D01*
X7490787Y-7088889D01*
X7489325Y-7090860D01*
X7487678Y-7092678D01*
X7485860Y-7094325D01*
X7483889Y-7095787D01*
X7481785Y-7097048D01*
X7479567Y-7098097D01*
X7477257Y-7098923D01*
X7474877Y-7099520D01*
X7472450Y-7099880D01*
X7470000Y-7100000D01*
X7405000Y-7100000D01*
X7402549Y-7099880D01*
X7400123Y-7099520D01*
X7397743Y-7098923D01*
X7395433Y-7098097D01*
X7393215Y-7097048D01*
X7391111Y-7095787D01*
X7389140Y-7094325D01*
X7387322Y-7092678D01*
X7385675Y-7090860D01*
X7384213Y-7088889D01*
X7382952Y-7086785D01*
X7381903Y-7084567D01*
X7381076Y-7082257D01*
X7380480Y-7079877D01*
X7380120Y-7077450D01*
X7380000Y-7075000D01*
X7380000Y-6985000D01*
X7380120Y-6982549D01*
X7380480Y-6980123D01*
X7381076Y-6977743D01*
X7381903Y-6975433D01*
X7382952Y-6973215D01*
X7384213Y-6971111D01*
X7385675Y-6969140D01*
X7387322Y-6967322D01*
X7389140Y-6965675D01*
X7391111Y-6964213D01*
X7393215Y-6962952D01*
X7395433Y-6961903D01*
X7397743Y-6961076D01*
X7400123Y-6960480D01*
X7402549Y-6960120D01*
X7405000Y-6960000D01*
X7470000Y-6960000D01*
X7472450Y-6960120D01*
X7472450Y-6960120D01*
G37*
D11*
X7437500Y-7030000D03*
D10*
G36*
X7677450Y-6960120D02*
X7679877Y-6960480D01*
X7682257Y-6961076D01*
X7684567Y-6961903D01*
X7686785Y-6962952D01*
X7688889Y-6964213D01*
X7690860Y-6965675D01*
X7692678Y-6967322D01*
X7694325Y-6969140D01*
X7695787Y-6971111D01*
X7697048Y-6973215D01*
X7698097Y-6975433D01*
X7698923Y-6977743D01*
X7699520Y-6980123D01*
X7699880Y-6982549D01*
X7700000Y-6985000D01*
X7700000Y-7075000D01*
X7699880Y-7077450D01*
X7699520Y-7079877D01*
X7698923Y-7082257D01*
X7698097Y-7084567D01*
X7697048Y-7086785D01*
X7695787Y-7088889D01*
X7694325Y-7090860D01*
X7692678Y-7092678D01*
X7690860Y-7094325D01*
X7688889Y-7095787D01*
X7686785Y-7097048D01*
X7684567Y-7098097D01*
X7682257Y-7098923D01*
X7679877Y-7099520D01*
X7677450Y-7099880D01*
X7675000Y-7100000D01*
X7610000Y-7100000D01*
X7607549Y-7099880D01*
X7605123Y-7099520D01*
X7602743Y-7098923D01*
X7600433Y-7098097D01*
X7598215Y-7097048D01*
X7596111Y-7095787D01*
X7594140Y-7094325D01*
X7592322Y-7092678D01*
X7590675Y-7090860D01*
X7589213Y-7088889D01*
X7587952Y-7086785D01*
X7586903Y-7084567D01*
X7586076Y-7082257D01*
X7585480Y-7079877D01*
X7585120Y-7077450D01*
X7585000Y-7075000D01*
X7585000Y-6985000D01*
X7585120Y-6982549D01*
X7585480Y-6980123D01*
X7586076Y-6977743D01*
X7586903Y-6975433D01*
X7587952Y-6973215D01*
X7589213Y-6971111D01*
X7590675Y-6969140D01*
X7592322Y-6967322D01*
X7594140Y-6965675D01*
X7596111Y-6964213D01*
X7598215Y-6962952D01*
X7600433Y-6961903D01*
X7602743Y-6961076D01*
X7605123Y-6960480D01*
X7607549Y-6960120D01*
X7610000Y-6960000D01*
X7675000Y-6960000D01*
X7677450Y-6960120D01*
X7677450Y-6960120D01*
G37*
D11*
X7642500Y-7030000D03*
G04 #@! TD*
D10*
G04 #@! TO.C,R54*
G36*
X7472450Y-7340120D02*
X7474877Y-7340480D01*
X7477257Y-7341076D01*
X7479567Y-7341903D01*
X7481785Y-7342952D01*
X7483889Y-7344213D01*
X7485860Y-7345675D01*
X7487678Y-7347322D01*
X7489325Y-7349140D01*
X7490787Y-7351111D01*
X7492048Y-7353215D01*
X7493097Y-7355433D01*
X7493923Y-7357743D01*
X7494520Y-7360123D01*
X7494880Y-7362549D01*
X7495000Y-7365000D01*
X7495000Y-7455000D01*
X7494880Y-7457450D01*
X7494520Y-7459877D01*
X7493923Y-7462257D01*
X7493097Y-7464567D01*
X7492048Y-7466785D01*
X7490787Y-7468889D01*
X7489325Y-7470860D01*
X7487678Y-7472678D01*
X7485860Y-7474325D01*
X7483889Y-7475787D01*
X7481785Y-7477048D01*
X7479567Y-7478097D01*
X7477257Y-7478923D01*
X7474877Y-7479520D01*
X7472450Y-7479880D01*
X7470000Y-7480000D01*
X7405000Y-7480000D01*
X7402549Y-7479880D01*
X7400123Y-7479520D01*
X7397743Y-7478923D01*
X7395433Y-7478097D01*
X7393215Y-7477048D01*
X7391111Y-7475787D01*
X7389140Y-7474325D01*
X7387322Y-7472678D01*
X7385675Y-7470860D01*
X7384213Y-7468889D01*
X7382952Y-7466785D01*
X7381903Y-7464567D01*
X7381076Y-7462257D01*
X7380480Y-7459877D01*
X7380120Y-7457450D01*
X7380000Y-7455000D01*
X7380000Y-7365000D01*
X7380120Y-7362549D01*
X7380480Y-7360123D01*
X7381076Y-7357743D01*
X7381903Y-7355433D01*
X7382952Y-7353215D01*
X7384213Y-7351111D01*
X7385675Y-7349140D01*
X7387322Y-7347322D01*
X7389140Y-7345675D01*
X7391111Y-7344213D01*
X7393215Y-7342952D01*
X7395433Y-7341903D01*
X7397743Y-7341076D01*
X7400123Y-7340480D01*
X7402549Y-7340120D01*
X7405000Y-7340000D01*
X7470000Y-7340000D01*
X7472450Y-7340120D01*
X7472450Y-7340120D01*
G37*
D11*
X7437500Y-7410000D03*
D10*
G36*
X7677450Y-7340120D02*
X7679877Y-7340480D01*
X7682257Y-7341076D01*
X7684567Y-7341903D01*
X7686785Y-7342952D01*
X7688889Y-7344213D01*
X7690860Y-7345675D01*
X7692678Y-7347322D01*
X7694325Y-7349140D01*
X7695787Y-7351111D01*
X7697048Y-7353215D01*
X7698097Y-7355433D01*
X7698923Y-7357743D01*
X7699520Y-7360123D01*
X7699880Y-7362549D01*
X7700000Y-7365000D01*
X7700000Y-7455000D01*
X7699880Y-7457450D01*
X7699520Y-7459877D01*
X7698923Y-7462257D01*
X7698097Y-7464567D01*
X7697048Y-7466785D01*
X7695787Y-7468889D01*
X7694325Y-7470860D01*
X7692678Y-7472678D01*
X7690860Y-7474325D01*
X7688889Y-7475787D01*
X7686785Y-7477048D01*
X7684567Y-7478097D01*
X7682257Y-7478923D01*
X7679877Y-7479520D01*
X7677450Y-7479880D01*
X7675000Y-7480000D01*
X7610000Y-7480000D01*
X7607549Y-7479880D01*
X7605123Y-7479520D01*
X7602743Y-7478923D01*
X7600433Y-7478097D01*
X7598215Y-7477048D01*
X7596111Y-7475787D01*
X7594140Y-7474325D01*
X7592322Y-7472678D01*
X7590675Y-7470860D01*
X7589213Y-7468889D01*
X7587952Y-7466785D01*
X7586903Y-7464567D01*
X7586076Y-7462257D01*
X7585480Y-7459877D01*
X7585120Y-7457450D01*
X7585000Y-7455000D01*
X7585000Y-7365000D01*
X7585120Y-7362549D01*
X7585480Y-7360123D01*
X7586076Y-7357743D01*
X7586903Y-7355433D01*
X7587952Y-7353215D01*
X7589213Y-7351111D01*
X7590675Y-7349140D01*
X7592322Y-7347322D01*
X7594140Y-7345675D01*
X7596111Y-7344213D01*
X7598215Y-7342952D01*
X7600433Y-7341903D01*
X7602743Y-7341076D01*
X7605123Y-7340480D01*
X7607549Y-7340120D01*
X7610000Y-7340000D01*
X7675000Y-7340000D01*
X7677450Y-7340120D01*
X7677450Y-7340120D01*
G37*
D11*
X7642500Y-7410000D03*
G04 #@! TD*
D10*
G04 #@! TO.C,R55*
G36*
X7472450Y-7720120D02*
X7474877Y-7720480D01*
X7477257Y-7721076D01*
X7479567Y-7721903D01*
X7481785Y-7722952D01*
X7483889Y-7724213D01*
X7485860Y-7725675D01*
X7487678Y-7727322D01*
X7489325Y-7729140D01*
X7490787Y-7731111D01*
X7492048Y-7733215D01*
X7493097Y-7735433D01*
X7493923Y-7737743D01*
X7494520Y-7740123D01*
X7494880Y-7742549D01*
X7495000Y-7745000D01*
X7495000Y-7835000D01*
X7494880Y-7837450D01*
X7494520Y-7839877D01*
X7493923Y-7842257D01*
X7493097Y-7844567D01*
X7492048Y-7846785D01*
X7490787Y-7848889D01*
X7489325Y-7850860D01*
X7487678Y-7852678D01*
X7485860Y-7854325D01*
X7483889Y-7855787D01*
X7481785Y-7857048D01*
X7479567Y-7858097D01*
X7477257Y-7858923D01*
X7474877Y-7859520D01*
X7472450Y-7859880D01*
X7470000Y-7860000D01*
X7405000Y-7860000D01*
X7402549Y-7859880D01*
X7400123Y-7859520D01*
X7397743Y-7858923D01*
X7395433Y-7858097D01*
X7393215Y-7857048D01*
X7391111Y-7855787D01*
X7389140Y-7854325D01*
X7387322Y-7852678D01*
X7385675Y-7850860D01*
X7384213Y-7848889D01*
X7382952Y-7846785D01*
X7381903Y-7844567D01*
X7381076Y-7842257D01*
X7380480Y-7839877D01*
X7380120Y-7837450D01*
X7380000Y-7835000D01*
X7380000Y-7745000D01*
X7380120Y-7742549D01*
X7380480Y-7740123D01*
X7381076Y-7737743D01*
X7381903Y-7735433D01*
X7382952Y-7733215D01*
X7384213Y-7731111D01*
X7385675Y-7729140D01*
X7387322Y-7727322D01*
X7389140Y-7725675D01*
X7391111Y-7724213D01*
X7393215Y-7722952D01*
X7395433Y-7721903D01*
X7397743Y-7721076D01*
X7400123Y-7720480D01*
X7402549Y-7720120D01*
X7405000Y-7720000D01*
X7470000Y-7720000D01*
X7472450Y-7720120D01*
X7472450Y-7720120D01*
G37*
D11*
X7437500Y-7790000D03*
D10*
G36*
X7677450Y-7720120D02*
X7679877Y-7720480D01*
X7682257Y-7721076D01*
X7684567Y-7721903D01*
X7686785Y-7722952D01*
X7688889Y-7724213D01*
X7690860Y-7725675D01*
X7692678Y-7727322D01*
X7694325Y-7729140D01*
X7695787Y-7731111D01*
X7697048Y-7733215D01*
X7698097Y-7735433D01*
X7698923Y-7737743D01*
X7699520Y-7740123D01*
X7699880Y-7742549D01*
X7700000Y-7745000D01*
X7700000Y-7835000D01*
X7699880Y-7837450D01*
X7699520Y-7839877D01*
X7698923Y-7842257D01*
X7698097Y-7844567D01*
X7697048Y-7846785D01*
X7695787Y-7848889D01*
X7694325Y-7850860D01*
X7692678Y-7852678D01*
X7690860Y-7854325D01*
X7688889Y-7855787D01*
X7686785Y-7857048D01*
X7684567Y-7858097D01*
X7682257Y-7858923D01*
X7679877Y-7859520D01*
X7677450Y-7859880D01*
X7675000Y-7860000D01*
X7610000Y-7860000D01*
X7607549Y-7859880D01*
X7605123Y-7859520D01*
X7602743Y-7858923D01*
X7600433Y-7858097D01*
X7598215Y-7857048D01*
X7596111Y-7855787D01*
X7594140Y-7854325D01*
X7592322Y-7852678D01*
X7590675Y-7850860D01*
X7589213Y-7848889D01*
X7587952Y-7846785D01*
X7586903Y-7844567D01*
X7586076Y-7842257D01*
X7585480Y-7839877D01*
X7585120Y-7837450D01*
X7585000Y-7835000D01*
X7585000Y-7745000D01*
X7585120Y-7742549D01*
X7585480Y-7740123D01*
X7586076Y-7737743D01*
X7586903Y-7735433D01*
X7587952Y-7733215D01*
X7589213Y-7731111D01*
X7590675Y-7729140D01*
X7592322Y-7727322D01*
X7594140Y-7725675D01*
X7596111Y-7724213D01*
X7598215Y-7722952D01*
X7600433Y-7721903D01*
X7602743Y-7721076D01*
X7605123Y-7720480D01*
X7607549Y-7720120D01*
X7610000Y-7720000D01*
X7675000Y-7720000D01*
X7677450Y-7720120D01*
X7677450Y-7720120D01*
G37*
D11*
X7642500Y-7790000D03*
G04 #@! TD*
D10*
G04 #@! TO.C,R56*
G36*
X7472450Y-7530120D02*
X7474877Y-7530480D01*
X7477257Y-7531076D01*
X7479567Y-7531903D01*
X7481785Y-7532952D01*
X7483889Y-7534213D01*
X7485860Y-7535675D01*
X7487678Y-7537322D01*
X7489325Y-7539140D01*
X7490787Y-7541111D01*
X7492048Y-7543215D01*
X7493097Y-7545433D01*
X7493923Y-7547743D01*
X7494520Y-7550123D01*
X7494880Y-7552549D01*
X7495000Y-7555000D01*
X7495000Y-7645000D01*
X7494880Y-7647450D01*
X7494520Y-7649877D01*
X7493923Y-7652257D01*
X7493097Y-7654567D01*
X7492048Y-7656785D01*
X7490787Y-7658889D01*
X7489325Y-7660860D01*
X7487678Y-7662678D01*
X7485860Y-7664325D01*
X7483889Y-7665787D01*
X7481785Y-7667048D01*
X7479567Y-7668097D01*
X7477257Y-7668923D01*
X7474877Y-7669520D01*
X7472450Y-7669880D01*
X7470000Y-7670000D01*
X7405000Y-7670000D01*
X7402549Y-7669880D01*
X7400123Y-7669520D01*
X7397743Y-7668923D01*
X7395433Y-7668097D01*
X7393215Y-7667048D01*
X7391111Y-7665787D01*
X7389140Y-7664325D01*
X7387322Y-7662678D01*
X7385675Y-7660860D01*
X7384213Y-7658889D01*
X7382952Y-7656785D01*
X7381903Y-7654567D01*
X7381076Y-7652257D01*
X7380480Y-7649877D01*
X7380120Y-7647450D01*
X7380000Y-7645000D01*
X7380000Y-7555000D01*
X7380120Y-7552549D01*
X7380480Y-7550123D01*
X7381076Y-7547743D01*
X7381903Y-7545433D01*
X7382952Y-7543215D01*
X7384213Y-7541111D01*
X7385675Y-7539140D01*
X7387322Y-7537322D01*
X7389140Y-7535675D01*
X7391111Y-7534213D01*
X7393215Y-7532952D01*
X7395433Y-7531903D01*
X7397743Y-7531076D01*
X7400123Y-7530480D01*
X7402549Y-7530120D01*
X7405000Y-7530000D01*
X7470000Y-7530000D01*
X7472450Y-7530120D01*
X7472450Y-7530120D01*
G37*
D11*
X7437500Y-7600000D03*
D10*
G36*
X7677450Y-7530120D02*
X7679877Y-7530480D01*
X7682257Y-7531076D01*
X7684567Y-7531903D01*
X7686785Y-7532952D01*
X7688889Y-7534213D01*
X7690860Y-7535675D01*
X7692678Y-7537322D01*
X7694325Y-7539140D01*
X7695787Y-7541111D01*
X7697048Y-7543215D01*
X7698097Y-7545433D01*
X7698923Y-7547743D01*
X7699520Y-7550123D01*
X7699880Y-7552549D01*
X7700000Y-7555000D01*
X7700000Y-7645000D01*
X7699880Y-7647450D01*
X7699520Y-7649877D01*
X7698923Y-7652257D01*
X7698097Y-7654567D01*
X7697048Y-7656785D01*
X7695787Y-7658889D01*
X7694325Y-7660860D01*
X7692678Y-7662678D01*
X7690860Y-7664325D01*
X7688889Y-7665787D01*
X7686785Y-7667048D01*
X7684567Y-7668097D01*
X7682257Y-7668923D01*
X7679877Y-7669520D01*
X7677450Y-7669880D01*
X7675000Y-7670000D01*
X7610000Y-7670000D01*
X7607549Y-7669880D01*
X7605123Y-7669520D01*
X7602743Y-7668923D01*
X7600433Y-7668097D01*
X7598215Y-7667048D01*
X7596111Y-7665787D01*
X7594140Y-7664325D01*
X7592322Y-7662678D01*
X7590675Y-7660860D01*
X7589213Y-7658889D01*
X7587952Y-7656785D01*
X7586903Y-7654567D01*
X7586076Y-7652257D01*
X7585480Y-7649877D01*
X7585120Y-7647450D01*
X7585000Y-7645000D01*
X7585000Y-7555000D01*
X7585120Y-7552549D01*
X7585480Y-7550123D01*
X7586076Y-7547743D01*
X7586903Y-7545433D01*
X7587952Y-7543215D01*
X7589213Y-7541111D01*
X7590675Y-7539140D01*
X7592322Y-7537322D01*
X7594140Y-7535675D01*
X7596111Y-7534213D01*
X7598215Y-7532952D01*
X7600433Y-7531903D01*
X7602743Y-7531076D01*
X7605123Y-7530480D01*
X7607549Y-7530120D01*
X7610000Y-7530000D01*
X7675000Y-7530000D01*
X7677450Y-7530120D01*
X7677450Y-7530120D01*
G37*
D11*
X7642500Y-7600000D03*
G04 #@! TD*
D10*
G04 #@! TO.C,R57*
G36*
X7472450Y-7910120D02*
X7474877Y-7910480D01*
X7477257Y-7911076D01*
X7479567Y-7911903D01*
X7481785Y-7912952D01*
X7483889Y-7914213D01*
X7485860Y-7915675D01*
X7487678Y-7917322D01*
X7489325Y-7919140D01*
X7490787Y-7921111D01*
X7492048Y-7923215D01*
X7493097Y-7925433D01*
X7493923Y-7927743D01*
X7494520Y-7930123D01*
X7494880Y-7932549D01*
X7495000Y-7935000D01*
X7495000Y-8025000D01*
X7494880Y-8027450D01*
X7494520Y-8029877D01*
X7493923Y-8032257D01*
X7493097Y-8034567D01*
X7492048Y-8036785D01*
X7490787Y-8038889D01*
X7489325Y-8040860D01*
X7487678Y-8042678D01*
X7485860Y-8044325D01*
X7483889Y-8045787D01*
X7481785Y-8047048D01*
X7479567Y-8048097D01*
X7477257Y-8048923D01*
X7474877Y-8049520D01*
X7472450Y-8049880D01*
X7470000Y-8050000D01*
X7405000Y-8050000D01*
X7402549Y-8049880D01*
X7400123Y-8049520D01*
X7397743Y-8048923D01*
X7395433Y-8048097D01*
X7393215Y-8047048D01*
X7391111Y-8045787D01*
X7389140Y-8044325D01*
X7387322Y-8042678D01*
X7385675Y-8040860D01*
X7384213Y-8038889D01*
X7382952Y-8036785D01*
X7381903Y-8034567D01*
X7381076Y-8032257D01*
X7380480Y-8029877D01*
X7380120Y-8027450D01*
X7380000Y-8025000D01*
X7380000Y-7935000D01*
X7380120Y-7932549D01*
X7380480Y-7930123D01*
X7381076Y-7927743D01*
X7381903Y-7925433D01*
X7382952Y-7923215D01*
X7384213Y-7921111D01*
X7385675Y-7919140D01*
X7387322Y-7917322D01*
X7389140Y-7915675D01*
X7391111Y-7914213D01*
X7393215Y-7912952D01*
X7395433Y-7911903D01*
X7397743Y-7911076D01*
X7400123Y-7910480D01*
X7402549Y-7910120D01*
X7405000Y-7910000D01*
X7470000Y-7910000D01*
X7472450Y-7910120D01*
X7472450Y-7910120D01*
G37*
D11*
X7437500Y-7980000D03*
D10*
G36*
X7677450Y-7910120D02*
X7679877Y-7910480D01*
X7682257Y-7911076D01*
X7684567Y-7911903D01*
X7686785Y-7912952D01*
X7688889Y-7914213D01*
X7690860Y-7915675D01*
X7692678Y-7917322D01*
X7694325Y-7919140D01*
X7695787Y-7921111D01*
X7697048Y-7923215D01*
X7698097Y-7925433D01*
X7698923Y-7927743D01*
X7699520Y-7930123D01*
X7699880Y-7932549D01*
X7700000Y-7935000D01*
X7700000Y-8025000D01*
X7699880Y-8027450D01*
X7699520Y-8029877D01*
X7698923Y-8032257D01*
X7698097Y-8034567D01*
X7697048Y-8036785D01*
X7695787Y-8038889D01*
X7694325Y-8040860D01*
X7692678Y-8042678D01*
X7690860Y-8044325D01*
X7688889Y-8045787D01*
X7686785Y-8047048D01*
X7684567Y-8048097D01*
X7682257Y-8048923D01*
X7679877Y-8049520D01*
X7677450Y-8049880D01*
X7675000Y-8050000D01*
X7610000Y-8050000D01*
X7607549Y-8049880D01*
X7605123Y-8049520D01*
X7602743Y-8048923D01*
X7600433Y-8048097D01*
X7598215Y-8047048D01*
X7596111Y-8045787D01*
X7594140Y-8044325D01*
X7592322Y-8042678D01*
X7590675Y-8040860D01*
X7589213Y-8038889D01*
X7587952Y-8036785D01*
X7586903Y-8034567D01*
X7586076Y-8032257D01*
X7585480Y-8029877D01*
X7585120Y-8027450D01*
X7585000Y-8025000D01*
X7585000Y-7935000D01*
X7585120Y-7932549D01*
X7585480Y-7930123D01*
X7586076Y-7927743D01*
X7586903Y-7925433D01*
X7587952Y-7923215D01*
X7589213Y-7921111D01*
X7590675Y-7919140D01*
X7592322Y-7917322D01*
X7594140Y-7915675D01*
X7596111Y-7914213D01*
X7598215Y-7912952D01*
X7600433Y-7911903D01*
X7602743Y-7911076D01*
X7605123Y-7910480D01*
X7607549Y-7910120D01*
X7610000Y-7910000D01*
X7675000Y-7910000D01*
X7677450Y-7910120D01*
X7677450Y-7910120D01*
G37*
D11*
X7642500Y-7980000D03*
G04 #@! TD*
D10*
G04 #@! TO.C,R62*
G36*
X5812450Y-7340120D02*
X5814877Y-7340480D01*
X5817257Y-7341076D01*
X5819567Y-7341903D01*
X5821785Y-7342952D01*
X5823889Y-7344213D01*
X5825860Y-7345675D01*
X5827678Y-7347322D01*
X5829325Y-7349140D01*
X5830787Y-7351111D01*
X5832048Y-7353215D01*
X5833097Y-7355433D01*
X5833923Y-7357743D01*
X5834520Y-7360123D01*
X5834880Y-7362549D01*
X5835000Y-7365000D01*
X5835000Y-7455000D01*
X5834880Y-7457450D01*
X5834520Y-7459877D01*
X5833923Y-7462257D01*
X5833097Y-7464567D01*
X5832048Y-7466785D01*
X5830787Y-7468889D01*
X5829325Y-7470860D01*
X5827678Y-7472678D01*
X5825860Y-7474325D01*
X5823889Y-7475787D01*
X5821785Y-7477048D01*
X5819567Y-7478097D01*
X5817257Y-7478923D01*
X5814877Y-7479520D01*
X5812450Y-7479880D01*
X5810000Y-7480000D01*
X5745000Y-7480000D01*
X5742549Y-7479880D01*
X5740123Y-7479520D01*
X5737743Y-7478923D01*
X5735433Y-7478097D01*
X5733215Y-7477048D01*
X5731111Y-7475787D01*
X5729140Y-7474325D01*
X5727322Y-7472678D01*
X5725675Y-7470860D01*
X5724213Y-7468889D01*
X5722952Y-7466785D01*
X5721903Y-7464567D01*
X5721076Y-7462257D01*
X5720480Y-7459877D01*
X5720120Y-7457450D01*
X5720000Y-7455000D01*
X5720000Y-7365000D01*
X5720120Y-7362549D01*
X5720480Y-7360123D01*
X5721076Y-7357743D01*
X5721903Y-7355433D01*
X5722952Y-7353215D01*
X5724213Y-7351111D01*
X5725675Y-7349140D01*
X5727322Y-7347322D01*
X5729140Y-7345675D01*
X5731111Y-7344213D01*
X5733215Y-7342952D01*
X5735433Y-7341903D01*
X5737743Y-7341076D01*
X5740123Y-7340480D01*
X5742549Y-7340120D01*
X5745000Y-7340000D01*
X5810000Y-7340000D01*
X5812450Y-7340120D01*
X5812450Y-7340120D01*
G37*
D11*
X5777500Y-7410000D03*
D10*
G36*
X6017450Y-7340120D02*
X6019877Y-7340480D01*
X6022257Y-7341076D01*
X6024567Y-7341903D01*
X6026785Y-7342952D01*
X6028889Y-7344213D01*
X6030860Y-7345675D01*
X6032678Y-7347322D01*
X6034325Y-7349140D01*
X6035787Y-7351111D01*
X6037048Y-7353215D01*
X6038097Y-7355433D01*
X6038923Y-7357743D01*
X6039520Y-7360123D01*
X6039880Y-7362549D01*
X6040000Y-7365000D01*
X6040000Y-7455000D01*
X6039880Y-7457450D01*
X6039520Y-7459877D01*
X6038923Y-7462257D01*
X6038097Y-7464567D01*
X6037048Y-7466785D01*
X6035787Y-7468889D01*
X6034325Y-7470860D01*
X6032678Y-7472678D01*
X6030860Y-7474325D01*
X6028889Y-7475787D01*
X6026785Y-7477048D01*
X6024567Y-7478097D01*
X6022257Y-7478923D01*
X6019877Y-7479520D01*
X6017450Y-7479880D01*
X6015000Y-7480000D01*
X5950000Y-7480000D01*
X5947549Y-7479880D01*
X5945123Y-7479520D01*
X5942743Y-7478923D01*
X5940433Y-7478097D01*
X5938215Y-7477048D01*
X5936111Y-7475787D01*
X5934140Y-7474325D01*
X5932322Y-7472678D01*
X5930675Y-7470860D01*
X5929213Y-7468889D01*
X5927952Y-7466785D01*
X5926903Y-7464567D01*
X5926076Y-7462257D01*
X5925480Y-7459877D01*
X5925120Y-7457450D01*
X5925000Y-7455000D01*
X5925000Y-7365000D01*
X5925120Y-7362549D01*
X5925480Y-7360123D01*
X5926076Y-7357743D01*
X5926903Y-7355433D01*
X5927952Y-7353215D01*
X5929213Y-7351111D01*
X5930675Y-7349140D01*
X5932322Y-7347322D01*
X5934140Y-7345675D01*
X5936111Y-7344213D01*
X5938215Y-7342952D01*
X5940433Y-7341903D01*
X5942743Y-7341076D01*
X5945123Y-7340480D01*
X5947549Y-7340120D01*
X5950000Y-7340000D01*
X6015000Y-7340000D01*
X6017450Y-7340120D01*
X6017450Y-7340120D01*
G37*
D11*
X5982500Y-7410000D03*
G04 #@! TD*
D10*
G04 #@! TO.C,R63*
G36*
X7472450Y-8100120D02*
X7474877Y-8100480D01*
X7477257Y-8101076D01*
X7479567Y-8101903D01*
X7481785Y-8102952D01*
X7483889Y-8104213D01*
X7485860Y-8105675D01*
X7487678Y-8107322D01*
X7489325Y-8109140D01*
X7490787Y-8111111D01*
X7492048Y-8113215D01*
X7493097Y-8115433D01*
X7493923Y-8117743D01*
X7494520Y-8120123D01*
X7494880Y-8122549D01*
X7495000Y-8125000D01*
X7495000Y-8215000D01*
X7494880Y-8217450D01*
X7494520Y-8219877D01*
X7493923Y-8222257D01*
X7493097Y-8224567D01*
X7492048Y-8226785D01*
X7490787Y-8228889D01*
X7489325Y-8230860D01*
X7487678Y-8232678D01*
X7485860Y-8234325D01*
X7483889Y-8235787D01*
X7481785Y-8237048D01*
X7479567Y-8238097D01*
X7477257Y-8238923D01*
X7474877Y-8239520D01*
X7472450Y-8239880D01*
X7470000Y-8240000D01*
X7405000Y-8240000D01*
X7402549Y-8239880D01*
X7400123Y-8239520D01*
X7397743Y-8238923D01*
X7395433Y-8238097D01*
X7393215Y-8237048D01*
X7391111Y-8235787D01*
X7389140Y-8234325D01*
X7387322Y-8232678D01*
X7385675Y-8230860D01*
X7384213Y-8228889D01*
X7382952Y-8226785D01*
X7381903Y-8224567D01*
X7381076Y-8222257D01*
X7380480Y-8219877D01*
X7380120Y-8217450D01*
X7380000Y-8215000D01*
X7380000Y-8125000D01*
X7380120Y-8122549D01*
X7380480Y-8120123D01*
X7381076Y-8117743D01*
X7381903Y-8115433D01*
X7382952Y-8113215D01*
X7384213Y-8111111D01*
X7385675Y-8109140D01*
X7387322Y-8107322D01*
X7389140Y-8105675D01*
X7391111Y-8104213D01*
X7393215Y-8102952D01*
X7395433Y-8101903D01*
X7397743Y-8101076D01*
X7400123Y-8100480D01*
X7402549Y-8100120D01*
X7405000Y-8100000D01*
X7470000Y-8100000D01*
X7472450Y-8100120D01*
X7472450Y-8100120D01*
G37*
D11*
X7437500Y-8170000D03*
D10*
G36*
X7677450Y-8100120D02*
X7679877Y-8100480D01*
X7682257Y-8101076D01*
X7684567Y-8101903D01*
X7686785Y-8102952D01*
X7688889Y-8104213D01*
X7690860Y-8105675D01*
X7692678Y-8107322D01*
X7694325Y-8109140D01*
X7695787Y-8111111D01*
X7697048Y-8113215D01*
X7698097Y-8115433D01*
X7698923Y-8117743D01*
X7699520Y-8120123D01*
X7699880Y-8122549D01*
X7700000Y-8125000D01*
X7700000Y-8215000D01*
X7699880Y-8217450D01*
X7699520Y-8219877D01*
X7698923Y-8222257D01*
X7698097Y-8224567D01*
X7697048Y-8226785D01*
X7695787Y-8228889D01*
X7694325Y-8230860D01*
X7692678Y-8232678D01*
X7690860Y-8234325D01*
X7688889Y-8235787D01*
X7686785Y-8237048D01*
X7684567Y-8238097D01*
X7682257Y-8238923D01*
X7679877Y-8239520D01*
X7677450Y-8239880D01*
X7675000Y-8240000D01*
X7610000Y-8240000D01*
X7607549Y-8239880D01*
X7605123Y-8239520D01*
X7602743Y-8238923D01*
X7600433Y-8238097D01*
X7598215Y-8237048D01*
X7596111Y-8235787D01*
X7594140Y-8234325D01*
X7592322Y-8232678D01*
X7590675Y-8230860D01*
X7589213Y-8228889D01*
X7587952Y-8226785D01*
X7586903Y-8224567D01*
X7586076Y-8222257D01*
X7585480Y-8219877D01*
X7585120Y-8217450D01*
X7585000Y-8215000D01*
X7585000Y-8125000D01*
X7585120Y-8122549D01*
X7585480Y-8120123D01*
X7586076Y-8117743D01*
X7586903Y-8115433D01*
X7587952Y-8113215D01*
X7589213Y-8111111D01*
X7590675Y-8109140D01*
X7592322Y-8107322D01*
X7594140Y-8105675D01*
X7596111Y-8104213D01*
X7598215Y-8102952D01*
X7600433Y-8101903D01*
X7602743Y-8101076D01*
X7605123Y-8100480D01*
X7607549Y-8100120D01*
X7610000Y-8100000D01*
X7675000Y-8100000D01*
X7677450Y-8100120D01*
X7677450Y-8100120D01*
G37*
D11*
X7642500Y-8170000D03*
G04 #@! TD*
D10*
G04 #@! TO.C,R64*
G36*
X5812450Y-7530120D02*
X5814877Y-7530480D01*
X5817257Y-7531076D01*
X5819567Y-7531903D01*
X5821785Y-7532952D01*
X5823889Y-7534213D01*
X5825860Y-7535675D01*
X5827678Y-7537322D01*
X5829325Y-7539140D01*
X5830787Y-7541111D01*
X5832048Y-7543215D01*
X5833097Y-7545433D01*
X5833923Y-7547743D01*
X5834520Y-7550123D01*
X5834880Y-7552549D01*
X5835000Y-7555000D01*
X5835000Y-7645000D01*
X5834880Y-7647450D01*
X5834520Y-7649877D01*
X5833923Y-7652257D01*
X5833097Y-7654567D01*
X5832048Y-7656785D01*
X5830787Y-7658889D01*
X5829325Y-7660860D01*
X5827678Y-7662678D01*
X5825860Y-7664325D01*
X5823889Y-7665787D01*
X5821785Y-7667048D01*
X5819567Y-7668097D01*
X5817257Y-7668923D01*
X5814877Y-7669520D01*
X5812450Y-7669880D01*
X5810000Y-7670000D01*
X5745000Y-7670000D01*
X5742549Y-7669880D01*
X5740123Y-7669520D01*
X5737743Y-7668923D01*
X5735433Y-7668097D01*
X5733215Y-7667048D01*
X5731111Y-7665787D01*
X5729140Y-7664325D01*
X5727322Y-7662678D01*
X5725675Y-7660860D01*
X5724213Y-7658889D01*
X5722952Y-7656785D01*
X5721903Y-7654567D01*
X5721076Y-7652257D01*
X5720480Y-7649877D01*
X5720120Y-7647450D01*
X5720000Y-7645000D01*
X5720000Y-7555000D01*
X5720120Y-7552549D01*
X5720480Y-7550123D01*
X5721076Y-7547743D01*
X5721903Y-7545433D01*
X5722952Y-7543215D01*
X5724213Y-7541111D01*
X5725675Y-7539140D01*
X5727322Y-7537322D01*
X5729140Y-7535675D01*
X5731111Y-7534213D01*
X5733215Y-7532952D01*
X5735433Y-7531903D01*
X5737743Y-7531076D01*
X5740123Y-7530480D01*
X5742549Y-7530120D01*
X5745000Y-7530000D01*
X5810000Y-7530000D01*
X5812450Y-7530120D01*
X5812450Y-7530120D01*
G37*
D11*
X5777500Y-7600000D03*
D10*
G36*
X6017450Y-7530120D02*
X6019877Y-7530480D01*
X6022257Y-7531076D01*
X6024567Y-7531903D01*
X6026785Y-7532952D01*
X6028889Y-7534213D01*
X6030860Y-7535675D01*
X6032678Y-7537322D01*
X6034325Y-7539140D01*
X6035787Y-7541111D01*
X6037048Y-7543215D01*
X6038097Y-7545433D01*
X6038923Y-7547743D01*
X6039520Y-7550123D01*
X6039880Y-7552549D01*
X6040000Y-7555000D01*
X6040000Y-7645000D01*
X6039880Y-7647450D01*
X6039520Y-7649877D01*
X6038923Y-7652257D01*
X6038097Y-7654567D01*
X6037048Y-7656785D01*
X6035787Y-7658889D01*
X6034325Y-7660860D01*
X6032678Y-7662678D01*
X6030860Y-7664325D01*
X6028889Y-7665787D01*
X6026785Y-7667048D01*
X6024567Y-7668097D01*
X6022257Y-7668923D01*
X6019877Y-7669520D01*
X6017450Y-7669880D01*
X6015000Y-7670000D01*
X5950000Y-7670000D01*
X5947549Y-7669880D01*
X5945123Y-7669520D01*
X5942743Y-7668923D01*
X5940433Y-7668097D01*
X5938215Y-7667048D01*
X5936111Y-7665787D01*
X5934140Y-7664325D01*
X5932322Y-7662678D01*
X5930675Y-7660860D01*
X5929213Y-7658889D01*
X5927952Y-7656785D01*
X5926903Y-7654567D01*
X5926076Y-7652257D01*
X5925480Y-7649877D01*
X5925120Y-7647450D01*
X5925000Y-7645000D01*
X5925000Y-7555000D01*
X5925120Y-7552549D01*
X5925480Y-7550123D01*
X5926076Y-7547743D01*
X5926903Y-7545433D01*
X5927952Y-7543215D01*
X5929213Y-7541111D01*
X5930675Y-7539140D01*
X5932322Y-7537322D01*
X5934140Y-7535675D01*
X5936111Y-7534213D01*
X5938215Y-7532952D01*
X5940433Y-7531903D01*
X5942743Y-7531076D01*
X5945123Y-7530480D01*
X5947549Y-7530120D01*
X5950000Y-7530000D01*
X6015000Y-7530000D01*
X6017450Y-7530120D01*
X6017450Y-7530120D01*
G37*
D11*
X5982500Y-7600000D03*
G04 #@! TD*
D10*
G04 #@! TO.C,R65*
G36*
X5812450Y-7720120D02*
X5814877Y-7720480D01*
X5817257Y-7721076D01*
X5819567Y-7721903D01*
X5821785Y-7722952D01*
X5823889Y-7724213D01*
X5825860Y-7725675D01*
X5827678Y-7727322D01*
X5829325Y-7729140D01*
X5830787Y-7731111D01*
X5832048Y-7733215D01*
X5833097Y-7735433D01*
X5833923Y-7737743D01*
X5834520Y-7740123D01*
X5834880Y-7742549D01*
X5835000Y-7745000D01*
X5835000Y-7835000D01*
X5834880Y-7837450D01*
X5834520Y-7839877D01*
X5833923Y-7842257D01*
X5833097Y-7844567D01*
X5832048Y-7846785D01*
X5830787Y-7848889D01*
X5829325Y-7850860D01*
X5827678Y-7852678D01*
X5825860Y-7854325D01*
X5823889Y-7855787D01*
X5821785Y-7857048D01*
X5819567Y-7858097D01*
X5817257Y-7858923D01*
X5814877Y-7859520D01*
X5812450Y-7859880D01*
X5810000Y-7860000D01*
X5745000Y-7860000D01*
X5742549Y-7859880D01*
X5740123Y-7859520D01*
X5737743Y-7858923D01*
X5735433Y-7858097D01*
X5733215Y-7857048D01*
X5731111Y-7855787D01*
X5729140Y-7854325D01*
X5727322Y-7852678D01*
X5725675Y-7850860D01*
X5724213Y-7848889D01*
X5722952Y-7846785D01*
X5721903Y-7844567D01*
X5721076Y-7842257D01*
X5720480Y-7839877D01*
X5720120Y-7837450D01*
X5720000Y-7835000D01*
X5720000Y-7745000D01*
X5720120Y-7742549D01*
X5720480Y-7740123D01*
X5721076Y-7737743D01*
X5721903Y-7735433D01*
X5722952Y-7733215D01*
X5724213Y-7731111D01*
X5725675Y-7729140D01*
X5727322Y-7727322D01*
X5729140Y-7725675D01*
X5731111Y-7724213D01*
X5733215Y-7722952D01*
X5735433Y-7721903D01*
X5737743Y-7721076D01*
X5740123Y-7720480D01*
X5742549Y-7720120D01*
X5745000Y-7720000D01*
X5810000Y-7720000D01*
X5812450Y-7720120D01*
X5812450Y-7720120D01*
G37*
D11*
X5777500Y-7790000D03*
D10*
G36*
X6017450Y-7720120D02*
X6019877Y-7720480D01*
X6022257Y-7721076D01*
X6024567Y-7721903D01*
X6026785Y-7722952D01*
X6028889Y-7724213D01*
X6030860Y-7725675D01*
X6032678Y-7727322D01*
X6034325Y-7729140D01*
X6035787Y-7731111D01*
X6037048Y-7733215D01*
X6038097Y-7735433D01*
X6038923Y-7737743D01*
X6039520Y-7740123D01*
X6039880Y-7742549D01*
X6040000Y-7745000D01*
X6040000Y-7835000D01*
X6039880Y-7837450D01*
X6039520Y-7839877D01*
X6038923Y-7842257D01*
X6038097Y-7844567D01*
X6037048Y-7846785D01*
X6035787Y-7848889D01*
X6034325Y-7850860D01*
X6032678Y-7852678D01*
X6030860Y-7854325D01*
X6028889Y-7855787D01*
X6026785Y-7857048D01*
X6024567Y-7858097D01*
X6022257Y-7858923D01*
X6019877Y-7859520D01*
X6017450Y-7859880D01*
X6015000Y-7860000D01*
X5950000Y-7860000D01*
X5947549Y-7859880D01*
X5945123Y-7859520D01*
X5942743Y-7858923D01*
X5940433Y-7858097D01*
X5938215Y-7857048D01*
X5936111Y-7855787D01*
X5934140Y-7854325D01*
X5932322Y-7852678D01*
X5930675Y-7850860D01*
X5929213Y-7848889D01*
X5927952Y-7846785D01*
X5926903Y-7844567D01*
X5926076Y-7842257D01*
X5925480Y-7839877D01*
X5925120Y-7837450D01*
X5925000Y-7835000D01*
X5925000Y-7745000D01*
X5925120Y-7742549D01*
X5925480Y-7740123D01*
X5926076Y-7737743D01*
X5926903Y-7735433D01*
X5927952Y-7733215D01*
X5929213Y-7731111D01*
X5930675Y-7729140D01*
X5932322Y-7727322D01*
X5934140Y-7725675D01*
X5936111Y-7724213D01*
X5938215Y-7722952D01*
X5940433Y-7721903D01*
X5942743Y-7721076D01*
X5945123Y-7720480D01*
X5947549Y-7720120D01*
X5950000Y-7720000D01*
X6015000Y-7720000D01*
X6017450Y-7720120D01*
X6017450Y-7720120D01*
G37*
D11*
X5982500Y-7790000D03*
G04 #@! TD*
D22*
G04 #@! TO.C,L1*
X6650000Y-9850000D03*
X7650000Y-9850000D03*
G04 #@! TD*
D23*
G04 #@! TO.C,U6*
X15190000Y-10290000D03*
D24*
X16000000Y-10030000D03*
X16000000Y-10160000D03*
X16000000Y-10290000D03*
X16000000Y-10420000D03*
X16000000Y-10550000D03*
G04 #@! TD*
D10*
G04 #@! TO.C,C15*
G36*
X15449950Y-9292620D02*
X15452377Y-9292980D01*
X15454757Y-9293577D01*
X15457067Y-9294403D01*
X15459285Y-9295452D01*
X15461389Y-9296713D01*
X15463360Y-9298175D01*
X15465178Y-9299822D01*
X15466825Y-9301640D01*
X15468287Y-9303611D01*
X15469548Y-9305715D01*
X15470597Y-9307933D01*
X15471423Y-9310243D01*
X15472020Y-9312623D01*
X15472380Y-9315050D01*
X15472500Y-9317500D01*
X15472500Y-9522500D01*
X15472380Y-9524951D01*
X15472020Y-9527377D01*
X15471423Y-9529757D01*
X15470597Y-9532067D01*
X15469548Y-9534285D01*
X15468287Y-9536389D01*
X15466825Y-9538360D01*
X15465178Y-9540178D01*
X15463360Y-9541825D01*
X15461389Y-9543287D01*
X15459285Y-9544548D01*
X15457067Y-9545597D01*
X15454757Y-9546424D01*
X15452377Y-9547020D01*
X15449950Y-9547380D01*
X15447500Y-9547500D01*
X15272500Y-9547500D01*
X15270049Y-9547380D01*
X15267623Y-9547020D01*
X15265243Y-9546424D01*
X15262933Y-9545597D01*
X15260715Y-9544548D01*
X15258611Y-9543287D01*
X15256640Y-9541825D01*
X15254822Y-9540178D01*
X15253175Y-9538360D01*
X15251713Y-9536389D01*
X15250452Y-9534285D01*
X15249403Y-9532067D01*
X15248576Y-9529757D01*
X15247980Y-9527377D01*
X15247620Y-9524951D01*
X15247500Y-9522500D01*
X15247500Y-9317500D01*
X15247620Y-9315050D01*
X15247980Y-9312623D01*
X15248576Y-9310243D01*
X15249403Y-9307933D01*
X15250452Y-9305715D01*
X15251713Y-9303611D01*
X15253175Y-9301640D01*
X15254822Y-9299822D01*
X15256640Y-9298175D01*
X15258611Y-9296713D01*
X15260715Y-9295452D01*
X15262933Y-9294403D01*
X15265243Y-9293577D01*
X15267623Y-9292980D01*
X15270049Y-9292620D01*
X15272500Y-9292500D01*
X15447500Y-9292500D01*
X15449950Y-9292620D01*
X15449950Y-9292620D01*
G37*
D14*
X15360000Y-9420000D03*
D10*
G36*
X16089950Y-9292620D02*
X16092377Y-9292980D01*
X16094757Y-9293577D01*
X16097067Y-9294403D01*
X16099285Y-9295452D01*
X16101389Y-9296713D01*
X16103360Y-9298175D01*
X16105178Y-9299822D01*
X16106825Y-9301640D01*
X16108287Y-9303611D01*
X16109548Y-9305715D01*
X16110597Y-9307933D01*
X16111423Y-9310243D01*
X16112020Y-9312623D01*
X16112380Y-9315050D01*
X16112500Y-9317500D01*
X16112500Y-9522500D01*
X16112380Y-9524951D01*
X16112020Y-9527377D01*
X16111423Y-9529757D01*
X16110597Y-9532067D01*
X16109548Y-9534285D01*
X16108287Y-9536389D01*
X16106825Y-9538360D01*
X16105178Y-9540178D01*
X16103360Y-9541825D01*
X16101389Y-9543287D01*
X16099285Y-9544548D01*
X16097067Y-9545597D01*
X16094757Y-9546424D01*
X16092377Y-9547020D01*
X16089950Y-9547380D01*
X16087500Y-9547500D01*
X15912500Y-9547500D01*
X15910049Y-9547380D01*
X15907623Y-9547020D01*
X15905243Y-9546424D01*
X15902933Y-9545597D01*
X15900715Y-9544548D01*
X15898611Y-9543287D01*
X15896640Y-9541825D01*
X15894822Y-9540178D01*
X15893175Y-9538360D01*
X15891713Y-9536389D01*
X15890452Y-9534285D01*
X15889403Y-9532067D01*
X15888576Y-9529757D01*
X15887980Y-9527377D01*
X15887620Y-9524951D01*
X15887500Y-9522500D01*
X15887500Y-9317500D01*
X15887620Y-9315050D01*
X15887980Y-9312623D01*
X15888576Y-9310243D01*
X15889403Y-9307933D01*
X15890452Y-9305715D01*
X15891713Y-9303611D01*
X15893175Y-9301640D01*
X15894822Y-9299822D01*
X15896640Y-9298175D01*
X15898611Y-9296713D01*
X15900715Y-9295452D01*
X15902933Y-9294403D01*
X15905243Y-9293577D01*
X15907623Y-9292980D01*
X15910049Y-9292620D01*
X15912500Y-9292500D01*
X16087500Y-9292500D01*
X16089950Y-9292620D01*
X16089950Y-9292620D01*
G37*
D14*
X16000000Y-9420000D03*
G04 #@! TD*
D10*
G04 #@! TO.C,C16*
G36*
X16544950Y-11807620D02*
X16547377Y-11807980D01*
X16549757Y-11808576D01*
X16552067Y-11809403D01*
X16554285Y-11810452D01*
X16556389Y-11811713D01*
X16558360Y-11813175D01*
X16560178Y-11814822D01*
X16561825Y-11816640D01*
X16563287Y-11818611D01*
X16564548Y-11820715D01*
X16565597Y-11822933D01*
X16566423Y-11825243D01*
X16567020Y-11827623D01*
X16567380Y-11830049D01*
X16567500Y-11832500D01*
X16567500Y-12007500D01*
X16567380Y-12009950D01*
X16567020Y-12012377D01*
X16566423Y-12014757D01*
X16565597Y-12017067D01*
X16564548Y-12019285D01*
X16563287Y-12021389D01*
X16561825Y-12023360D01*
X16560178Y-12025178D01*
X16558360Y-12026825D01*
X16556389Y-12028287D01*
X16554285Y-12029548D01*
X16552067Y-12030597D01*
X16549757Y-12031423D01*
X16547377Y-12032020D01*
X16544950Y-12032380D01*
X16542500Y-12032500D01*
X16337500Y-12032500D01*
X16335049Y-12032380D01*
X16332623Y-12032020D01*
X16330243Y-12031423D01*
X16327933Y-12030597D01*
X16325715Y-12029548D01*
X16323611Y-12028287D01*
X16321640Y-12026825D01*
X16319822Y-12025178D01*
X16318175Y-12023360D01*
X16316713Y-12021389D01*
X16315452Y-12019285D01*
X16314403Y-12017067D01*
X16313576Y-12014757D01*
X16312980Y-12012377D01*
X16312620Y-12009950D01*
X16312500Y-12007500D01*
X16312500Y-11832500D01*
X16312620Y-11830049D01*
X16312980Y-11827623D01*
X16313576Y-11825243D01*
X16314403Y-11822933D01*
X16315452Y-11820715D01*
X16316713Y-11818611D01*
X16318175Y-11816640D01*
X16319822Y-11814822D01*
X16321640Y-11813175D01*
X16323611Y-11811713D01*
X16325715Y-11810452D01*
X16327933Y-11809403D01*
X16330243Y-11808576D01*
X16332623Y-11807980D01*
X16335049Y-11807620D01*
X16337500Y-11807500D01*
X16542500Y-11807500D01*
X16544950Y-11807620D01*
X16544950Y-11807620D01*
G37*
D14*
X16440000Y-11920000D03*
D10*
G36*
X16544950Y-11167620D02*
X16547377Y-11167980D01*
X16549757Y-11168577D01*
X16552067Y-11169403D01*
X16554285Y-11170452D01*
X16556389Y-11171713D01*
X16558360Y-11173175D01*
X16560178Y-11174822D01*
X16561825Y-11176640D01*
X16563287Y-11178611D01*
X16564548Y-11180715D01*
X16565597Y-11182933D01*
X16566423Y-11185243D01*
X16567020Y-11187623D01*
X16567380Y-11190049D01*
X16567500Y-11192500D01*
X16567500Y-11367500D01*
X16567380Y-11369950D01*
X16567020Y-11372377D01*
X16566423Y-11374757D01*
X16565597Y-11377067D01*
X16564548Y-11379285D01*
X16563287Y-11381389D01*
X16561825Y-11383360D01*
X16560178Y-11385178D01*
X16558360Y-11386825D01*
X16556389Y-11388287D01*
X16554285Y-11389548D01*
X16552067Y-11390597D01*
X16549757Y-11391423D01*
X16547377Y-11392020D01*
X16544950Y-11392380D01*
X16542500Y-11392500D01*
X16337500Y-11392500D01*
X16335049Y-11392380D01*
X16332623Y-11392020D01*
X16330243Y-11391423D01*
X16327933Y-11390597D01*
X16325715Y-11389548D01*
X16323611Y-11388287D01*
X16321640Y-11386825D01*
X16319822Y-11385178D01*
X16318175Y-11383360D01*
X16316713Y-11381389D01*
X16315452Y-11379285D01*
X16314403Y-11377067D01*
X16313576Y-11374757D01*
X16312980Y-11372377D01*
X16312620Y-11369950D01*
X16312500Y-11367500D01*
X16312500Y-11192500D01*
X16312620Y-11190049D01*
X16312980Y-11187623D01*
X16313576Y-11185243D01*
X16314403Y-11182933D01*
X16315452Y-11180715D01*
X16316713Y-11178611D01*
X16318175Y-11176640D01*
X16319822Y-11174822D01*
X16321640Y-11173175D01*
X16323611Y-11171713D01*
X16325715Y-11170452D01*
X16327933Y-11169403D01*
X16330243Y-11168577D01*
X16332623Y-11167980D01*
X16335049Y-11167620D01*
X16337500Y-11167500D01*
X16542500Y-11167500D01*
X16544950Y-11167620D01*
X16544950Y-11167620D01*
G37*
D14*
X16440000Y-11280000D03*
G04 #@! TD*
D23*
G04 #@! TO.C,U5*
X12890000Y-10290000D03*
D24*
X13700000Y-10030000D03*
X13700000Y-10160000D03*
X13700000Y-10290000D03*
X13700000Y-10420000D03*
X13700000Y-10550000D03*
G04 #@! TD*
D10*
G04 #@! TO.C,C13*
G36*
X13149950Y-9292620D02*
X13152377Y-9292980D01*
X13154757Y-9293577D01*
X13157067Y-9294403D01*
X13159285Y-9295452D01*
X13161389Y-9296713D01*
X13163360Y-9298175D01*
X13165178Y-9299822D01*
X13166825Y-9301640D01*
X13168287Y-9303611D01*
X13169548Y-9305715D01*
X13170597Y-9307933D01*
X13171423Y-9310243D01*
X13172020Y-9312623D01*
X13172380Y-9315050D01*
X13172500Y-9317500D01*
X13172500Y-9522500D01*
X13172380Y-9524951D01*
X13172020Y-9527377D01*
X13171423Y-9529757D01*
X13170597Y-9532067D01*
X13169548Y-9534285D01*
X13168287Y-9536389D01*
X13166825Y-9538360D01*
X13165178Y-9540178D01*
X13163360Y-9541825D01*
X13161389Y-9543287D01*
X13159285Y-9544548D01*
X13157067Y-9545597D01*
X13154757Y-9546424D01*
X13152377Y-9547020D01*
X13149950Y-9547380D01*
X13147500Y-9547500D01*
X12972500Y-9547500D01*
X12970049Y-9547380D01*
X12967623Y-9547020D01*
X12965243Y-9546424D01*
X12962933Y-9545597D01*
X12960715Y-9544548D01*
X12958611Y-9543287D01*
X12956640Y-9541825D01*
X12954822Y-9540178D01*
X12953175Y-9538360D01*
X12951713Y-9536389D01*
X12950452Y-9534285D01*
X12949403Y-9532067D01*
X12948576Y-9529757D01*
X12947980Y-9527377D01*
X12947620Y-9524951D01*
X12947500Y-9522500D01*
X12947500Y-9317500D01*
X12947620Y-9315050D01*
X12947980Y-9312623D01*
X12948576Y-9310243D01*
X12949403Y-9307933D01*
X12950452Y-9305715D01*
X12951713Y-9303611D01*
X12953175Y-9301640D01*
X12954822Y-9299822D01*
X12956640Y-9298175D01*
X12958611Y-9296713D01*
X12960715Y-9295452D01*
X12962933Y-9294403D01*
X12965243Y-9293577D01*
X12967623Y-9292980D01*
X12970049Y-9292620D01*
X12972500Y-9292500D01*
X13147500Y-9292500D01*
X13149950Y-9292620D01*
X13149950Y-9292620D01*
G37*
D14*
X13060000Y-9420000D03*
D10*
G36*
X13789950Y-9292620D02*
X13792377Y-9292980D01*
X13794757Y-9293577D01*
X13797067Y-9294403D01*
X13799285Y-9295452D01*
X13801389Y-9296713D01*
X13803360Y-9298175D01*
X13805178Y-9299822D01*
X13806825Y-9301640D01*
X13808287Y-9303611D01*
X13809548Y-9305715D01*
X13810597Y-9307933D01*
X13811423Y-9310243D01*
X13812020Y-9312623D01*
X13812380Y-9315050D01*
X13812500Y-9317500D01*
X13812500Y-9522500D01*
X13812380Y-9524951D01*
X13812020Y-9527377D01*
X13811423Y-9529757D01*
X13810597Y-9532067D01*
X13809548Y-9534285D01*
X13808287Y-9536389D01*
X13806825Y-9538360D01*
X13805178Y-9540178D01*
X13803360Y-9541825D01*
X13801389Y-9543287D01*
X13799285Y-9544548D01*
X13797067Y-9545597D01*
X13794757Y-9546424D01*
X13792377Y-9547020D01*
X13789950Y-9547380D01*
X13787500Y-9547500D01*
X13612500Y-9547500D01*
X13610049Y-9547380D01*
X13607623Y-9547020D01*
X13605243Y-9546424D01*
X13602933Y-9545597D01*
X13600715Y-9544548D01*
X13598611Y-9543287D01*
X13596640Y-9541825D01*
X13594822Y-9540178D01*
X13593175Y-9538360D01*
X13591713Y-9536389D01*
X13590452Y-9534285D01*
X13589403Y-9532067D01*
X13588576Y-9529757D01*
X13587980Y-9527377D01*
X13587620Y-9524951D01*
X13587500Y-9522500D01*
X13587500Y-9317500D01*
X13587620Y-9315050D01*
X13587980Y-9312623D01*
X13588576Y-9310243D01*
X13589403Y-9307933D01*
X13590452Y-9305715D01*
X13591713Y-9303611D01*
X13593175Y-9301640D01*
X13594822Y-9299822D01*
X13596640Y-9298175D01*
X13598611Y-9296713D01*
X13600715Y-9295452D01*
X13602933Y-9294403D01*
X13605243Y-9293577D01*
X13607623Y-9292980D01*
X13610049Y-9292620D01*
X13612500Y-9292500D01*
X13787500Y-9292500D01*
X13789950Y-9292620D01*
X13789950Y-9292620D01*
G37*
D14*
X13700000Y-9420000D03*
G04 #@! TD*
D10*
G04 #@! TO.C,C14*
G36*
X14244950Y-11807620D02*
X14247377Y-11807980D01*
X14249757Y-11808576D01*
X14252067Y-11809403D01*
X14254285Y-11810452D01*
X14256389Y-11811713D01*
X14258360Y-11813175D01*
X14260178Y-11814822D01*
X14261825Y-11816640D01*
X14263287Y-11818611D01*
X14264548Y-11820715D01*
X14265597Y-11822933D01*
X14266423Y-11825243D01*
X14267020Y-11827623D01*
X14267380Y-11830049D01*
X14267500Y-11832500D01*
X14267500Y-12007500D01*
X14267380Y-12009950D01*
X14267020Y-12012377D01*
X14266423Y-12014757D01*
X14265597Y-12017067D01*
X14264548Y-12019285D01*
X14263287Y-12021389D01*
X14261825Y-12023360D01*
X14260178Y-12025178D01*
X14258360Y-12026825D01*
X14256389Y-12028287D01*
X14254285Y-12029548D01*
X14252067Y-12030597D01*
X14249757Y-12031423D01*
X14247377Y-12032020D01*
X14244950Y-12032380D01*
X14242500Y-12032500D01*
X14037500Y-12032500D01*
X14035049Y-12032380D01*
X14032623Y-12032020D01*
X14030243Y-12031423D01*
X14027933Y-12030597D01*
X14025715Y-12029548D01*
X14023611Y-12028287D01*
X14021640Y-12026825D01*
X14019822Y-12025178D01*
X14018175Y-12023360D01*
X14016713Y-12021389D01*
X14015452Y-12019285D01*
X14014403Y-12017067D01*
X14013576Y-12014757D01*
X14012980Y-12012377D01*
X14012620Y-12009950D01*
X14012500Y-12007500D01*
X14012500Y-11832500D01*
X14012620Y-11830049D01*
X14012980Y-11827623D01*
X14013576Y-11825243D01*
X14014403Y-11822933D01*
X14015452Y-11820715D01*
X14016713Y-11818611D01*
X14018175Y-11816640D01*
X14019822Y-11814822D01*
X14021640Y-11813175D01*
X14023611Y-11811713D01*
X14025715Y-11810452D01*
X14027933Y-11809403D01*
X14030243Y-11808576D01*
X14032623Y-11807980D01*
X14035049Y-11807620D01*
X14037500Y-11807500D01*
X14242500Y-11807500D01*
X14244950Y-11807620D01*
X14244950Y-11807620D01*
G37*
D14*
X14140000Y-11920000D03*
D10*
G36*
X14244950Y-11167620D02*
X14247377Y-11167980D01*
X14249757Y-11168577D01*
X14252067Y-11169403D01*
X14254285Y-11170452D01*
X14256389Y-11171713D01*
X14258360Y-11173175D01*
X14260178Y-11174822D01*
X14261825Y-11176640D01*
X14263287Y-11178611D01*
X14264548Y-11180715D01*
X14265597Y-11182933D01*
X14266423Y-11185243D01*
X14267020Y-11187623D01*
X14267380Y-11190049D01*
X14267500Y-11192500D01*
X14267500Y-11367500D01*
X14267380Y-11369950D01*
X14267020Y-11372377D01*
X14266423Y-11374757D01*
X14265597Y-11377067D01*
X14264548Y-11379285D01*
X14263287Y-11381389D01*
X14261825Y-11383360D01*
X14260178Y-11385178D01*
X14258360Y-11386825D01*
X14256389Y-11388287D01*
X14254285Y-11389548D01*
X14252067Y-11390597D01*
X14249757Y-11391423D01*
X14247377Y-11392020D01*
X14244950Y-11392380D01*
X14242500Y-11392500D01*
X14037500Y-11392500D01*
X14035049Y-11392380D01*
X14032623Y-11392020D01*
X14030243Y-11391423D01*
X14027933Y-11390597D01*
X14025715Y-11389548D01*
X14023611Y-11388287D01*
X14021640Y-11386825D01*
X14019822Y-11385178D01*
X14018175Y-11383360D01*
X14016713Y-11381389D01*
X14015452Y-11379285D01*
X14014403Y-11377067D01*
X14013576Y-11374757D01*
X14012980Y-11372377D01*
X14012620Y-11369950D01*
X14012500Y-11367500D01*
X14012500Y-11192500D01*
X14012620Y-11190049D01*
X14012980Y-11187623D01*
X14013576Y-11185243D01*
X14014403Y-11182933D01*
X14015452Y-11180715D01*
X14016713Y-11178611D01*
X14018175Y-11176640D01*
X14019822Y-11174822D01*
X14021640Y-11173175D01*
X14023611Y-11171713D01*
X14025715Y-11170452D01*
X14027933Y-11169403D01*
X14030243Y-11168577D01*
X14032623Y-11167980D01*
X14035049Y-11167620D01*
X14037500Y-11167500D01*
X14242500Y-11167500D01*
X14244950Y-11167620D01*
X14244950Y-11167620D01*
G37*
D14*
X14140000Y-11280000D03*
G04 #@! TD*
D23*
G04 #@! TO.C,U4*
X10590000Y-10290000D03*
D24*
X11400000Y-10030000D03*
X11400000Y-10160000D03*
X11400000Y-10290000D03*
X11400000Y-10420000D03*
X11400000Y-10550000D03*
G04 #@! TD*
D10*
G04 #@! TO.C,C11*
G36*
X10849951Y-9292620D02*
X10852377Y-9292980D01*
X10854757Y-9293577D01*
X10857067Y-9294403D01*
X10859285Y-9295452D01*
X10861389Y-9296713D01*
X10863360Y-9298175D01*
X10865178Y-9299822D01*
X10866825Y-9301640D01*
X10868287Y-9303611D01*
X10869548Y-9305715D01*
X10870597Y-9307933D01*
X10871424Y-9310243D01*
X10872020Y-9312623D01*
X10872380Y-9315050D01*
X10872500Y-9317500D01*
X10872500Y-9522500D01*
X10872380Y-9524951D01*
X10872020Y-9527377D01*
X10871424Y-9529757D01*
X10870597Y-9532067D01*
X10869548Y-9534285D01*
X10868287Y-9536389D01*
X10866825Y-9538360D01*
X10865178Y-9540178D01*
X10863360Y-9541825D01*
X10861389Y-9543287D01*
X10859285Y-9544548D01*
X10857067Y-9545597D01*
X10854757Y-9546424D01*
X10852377Y-9547020D01*
X10849951Y-9547380D01*
X10847500Y-9547500D01*
X10672500Y-9547500D01*
X10670050Y-9547380D01*
X10667623Y-9547020D01*
X10665243Y-9546424D01*
X10662933Y-9545597D01*
X10660715Y-9544548D01*
X10658611Y-9543287D01*
X10656640Y-9541825D01*
X10654822Y-9540178D01*
X10653175Y-9538360D01*
X10651713Y-9536389D01*
X10650452Y-9534285D01*
X10649403Y-9532067D01*
X10648577Y-9529757D01*
X10647980Y-9527377D01*
X10647620Y-9524951D01*
X10647500Y-9522500D01*
X10647500Y-9317500D01*
X10647620Y-9315050D01*
X10647980Y-9312623D01*
X10648577Y-9310243D01*
X10649403Y-9307933D01*
X10650452Y-9305715D01*
X10651713Y-9303611D01*
X10653175Y-9301640D01*
X10654822Y-9299822D01*
X10656640Y-9298175D01*
X10658611Y-9296713D01*
X10660715Y-9295452D01*
X10662933Y-9294403D01*
X10665243Y-9293577D01*
X10667623Y-9292980D01*
X10670050Y-9292620D01*
X10672500Y-9292500D01*
X10847500Y-9292500D01*
X10849951Y-9292620D01*
X10849951Y-9292620D01*
G37*
D14*
X10760000Y-9420000D03*
D10*
G36*
X11489950Y-9292620D02*
X11492377Y-9292980D01*
X11494757Y-9293577D01*
X11497067Y-9294403D01*
X11499285Y-9295452D01*
X11501389Y-9296713D01*
X11503360Y-9298175D01*
X11505178Y-9299822D01*
X11506825Y-9301640D01*
X11508287Y-9303611D01*
X11509548Y-9305715D01*
X11510597Y-9307933D01*
X11511423Y-9310243D01*
X11512020Y-9312623D01*
X11512380Y-9315050D01*
X11512500Y-9317500D01*
X11512500Y-9522500D01*
X11512380Y-9524951D01*
X11512020Y-9527377D01*
X11511423Y-9529757D01*
X11510597Y-9532067D01*
X11509548Y-9534285D01*
X11508287Y-9536389D01*
X11506825Y-9538360D01*
X11505178Y-9540178D01*
X11503360Y-9541825D01*
X11501389Y-9543287D01*
X11499285Y-9544548D01*
X11497067Y-9545597D01*
X11494757Y-9546424D01*
X11492377Y-9547020D01*
X11489950Y-9547380D01*
X11487500Y-9547500D01*
X11312500Y-9547500D01*
X11310049Y-9547380D01*
X11307623Y-9547020D01*
X11305243Y-9546424D01*
X11302933Y-9545597D01*
X11300715Y-9544548D01*
X11298611Y-9543287D01*
X11296640Y-9541825D01*
X11294822Y-9540178D01*
X11293175Y-9538360D01*
X11291713Y-9536389D01*
X11290452Y-9534285D01*
X11289403Y-9532067D01*
X11288576Y-9529757D01*
X11287980Y-9527377D01*
X11287620Y-9524951D01*
X11287500Y-9522500D01*
X11287500Y-9317500D01*
X11287620Y-9315050D01*
X11287980Y-9312623D01*
X11288576Y-9310243D01*
X11289403Y-9307933D01*
X11290452Y-9305715D01*
X11291713Y-9303611D01*
X11293175Y-9301640D01*
X11294822Y-9299822D01*
X11296640Y-9298175D01*
X11298611Y-9296713D01*
X11300715Y-9295452D01*
X11302933Y-9294403D01*
X11305243Y-9293577D01*
X11307623Y-9292980D01*
X11310049Y-9292620D01*
X11312500Y-9292500D01*
X11487500Y-9292500D01*
X11489950Y-9292620D01*
X11489950Y-9292620D01*
G37*
D14*
X11400000Y-9420000D03*
G04 #@! TD*
D10*
G04 #@! TO.C,C12*
G36*
X11944950Y-11807620D02*
X11947377Y-11807980D01*
X11949757Y-11808576D01*
X11952067Y-11809403D01*
X11954285Y-11810452D01*
X11956389Y-11811713D01*
X11958360Y-11813175D01*
X11960178Y-11814822D01*
X11961825Y-11816640D01*
X11963287Y-11818611D01*
X11964548Y-11820715D01*
X11965597Y-11822933D01*
X11966423Y-11825243D01*
X11967020Y-11827623D01*
X11967380Y-11830049D01*
X11967500Y-11832500D01*
X11967500Y-12007500D01*
X11967380Y-12009950D01*
X11967020Y-12012377D01*
X11966423Y-12014757D01*
X11965597Y-12017067D01*
X11964548Y-12019285D01*
X11963287Y-12021389D01*
X11961825Y-12023360D01*
X11960178Y-12025178D01*
X11958360Y-12026825D01*
X11956389Y-12028287D01*
X11954285Y-12029548D01*
X11952067Y-12030597D01*
X11949757Y-12031423D01*
X11947377Y-12032020D01*
X11944950Y-12032380D01*
X11942500Y-12032500D01*
X11737500Y-12032500D01*
X11735049Y-12032380D01*
X11732623Y-12032020D01*
X11730243Y-12031423D01*
X11727933Y-12030597D01*
X11725715Y-12029548D01*
X11723611Y-12028287D01*
X11721640Y-12026825D01*
X11719822Y-12025178D01*
X11718175Y-12023360D01*
X11716713Y-12021389D01*
X11715452Y-12019285D01*
X11714403Y-12017067D01*
X11713576Y-12014757D01*
X11712980Y-12012377D01*
X11712620Y-12009950D01*
X11712500Y-12007500D01*
X11712500Y-11832500D01*
X11712620Y-11830049D01*
X11712980Y-11827623D01*
X11713576Y-11825243D01*
X11714403Y-11822933D01*
X11715452Y-11820715D01*
X11716713Y-11818611D01*
X11718175Y-11816640D01*
X11719822Y-11814822D01*
X11721640Y-11813175D01*
X11723611Y-11811713D01*
X11725715Y-11810452D01*
X11727933Y-11809403D01*
X11730243Y-11808576D01*
X11732623Y-11807980D01*
X11735049Y-11807620D01*
X11737500Y-11807500D01*
X11942500Y-11807500D01*
X11944950Y-11807620D01*
X11944950Y-11807620D01*
G37*
D14*
X11840000Y-11920000D03*
D10*
G36*
X11944950Y-11167620D02*
X11947377Y-11167980D01*
X11949757Y-11168577D01*
X11952067Y-11169403D01*
X11954285Y-11170452D01*
X11956389Y-11171713D01*
X11958360Y-11173175D01*
X11960178Y-11174822D01*
X11961825Y-11176640D01*
X11963287Y-11178611D01*
X11964548Y-11180715D01*
X11965597Y-11182933D01*
X11966423Y-11185243D01*
X11967020Y-11187623D01*
X11967380Y-11190049D01*
X11967500Y-11192500D01*
X11967500Y-11367500D01*
X11967380Y-11369950D01*
X11967020Y-11372377D01*
X11966423Y-11374757D01*
X11965597Y-11377067D01*
X11964548Y-11379285D01*
X11963287Y-11381389D01*
X11961825Y-11383360D01*
X11960178Y-11385178D01*
X11958360Y-11386825D01*
X11956389Y-11388287D01*
X11954285Y-11389548D01*
X11952067Y-11390597D01*
X11949757Y-11391423D01*
X11947377Y-11392020D01*
X11944950Y-11392380D01*
X11942500Y-11392500D01*
X11737500Y-11392500D01*
X11735049Y-11392380D01*
X11732623Y-11392020D01*
X11730243Y-11391423D01*
X11727933Y-11390597D01*
X11725715Y-11389548D01*
X11723611Y-11388287D01*
X11721640Y-11386825D01*
X11719822Y-11385178D01*
X11718175Y-11383360D01*
X11716713Y-11381389D01*
X11715452Y-11379285D01*
X11714403Y-11377067D01*
X11713576Y-11374757D01*
X11712980Y-11372377D01*
X11712620Y-11369950D01*
X11712500Y-11367500D01*
X11712500Y-11192500D01*
X11712620Y-11190049D01*
X11712980Y-11187623D01*
X11713576Y-11185243D01*
X11714403Y-11182933D01*
X11715452Y-11180715D01*
X11716713Y-11178611D01*
X11718175Y-11176640D01*
X11719822Y-11174822D01*
X11721640Y-11173175D01*
X11723611Y-11171713D01*
X11725715Y-11170452D01*
X11727933Y-11169403D01*
X11730243Y-11168577D01*
X11732623Y-11167980D01*
X11735049Y-11167620D01*
X11737500Y-11167500D01*
X11942500Y-11167500D01*
X11944950Y-11167620D01*
X11944950Y-11167620D01*
G37*
D14*
X11840000Y-11280000D03*
G04 #@! TD*
D23*
G04 #@! TO.C,U3*
X8290000Y-10290000D03*
D24*
X9100000Y-10030000D03*
X9100000Y-10160000D03*
X9100000Y-10290000D03*
X9100000Y-10420000D03*
X9100000Y-10550000D03*
G04 #@! TD*
D10*
G04 #@! TO.C,C10*
G36*
X9644951Y-11807620D02*
X9647377Y-11807980D01*
X9649757Y-11808576D01*
X9652067Y-11809403D01*
X9654285Y-11810452D01*
X9656389Y-11811713D01*
X9658360Y-11813175D01*
X9660178Y-11814822D01*
X9661825Y-11816640D01*
X9663287Y-11818611D01*
X9664548Y-11820715D01*
X9665597Y-11822933D01*
X9666424Y-11825243D01*
X9667020Y-11827623D01*
X9667380Y-11830049D01*
X9667500Y-11832500D01*
X9667500Y-12007500D01*
X9667380Y-12009950D01*
X9667020Y-12012377D01*
X9666424Y-12014757D01*
X9665597Y-12017067D01*
X9664548Y-12019285D01*
X9663287Y-12021389D01*
X9661825Y-12023360D01*
X9660178Y-12025178D01*
X9658360Y-12026825D01*
X9656389Y-12028287D01*
X9654285Y-12029548D01*
X9652067Y-12030597D01*
X9649757Y-12031423D01*
X9647377Y-12032020D01*
X9644951Y-12032380D01*
X9642500Y-12032500D01*
X9437500Y-12032500D01*
X9435050Y-12032380D01*
X9432623Y-12032020D01*
X9430243Y-12031423D01*
X9427933Y-12030597D01*
X9425715Y-12029548D01*
X9423611Y-12028287D01*
X9421640Y-12026825D01*
X9419822Y-12025178D01*
X9418175Y-12023360D01*
X9416713Y-12021389D01*
X9415452Y-12019285D01*
X9414403Y-12017067D01*
X9413577Y-12014757D01*
X9412980Y-12012377D01*
X9412620Y-12009950D01*
X9412500Y-12007500D01*
X9412500Y-11832500D01*
X9412620Y-11830049D01*
X9412980Y-11827623D01*
X9413577Y-11825243D01*
X9414403Y-11822933D01*
X9415452Y-11820715D01*
X9416713Y-11818611D01*
X9418175Y-11816640D01*
X9419822Y-11814822D01*
X9421640Y-11813175D01*
X9423611Y-11811713D01*
X9425715Y-11810452D01*
X9427933Y-11809403D01*
X9430243Y-11808576D01*
X9432623Y-11807980D01*
X9435050Y-11807620D01*
X9437500Y-11807500D01*
X9642500Y-11807500D01*
X9644951Y-11807620D01*
X9644951Y-11807620D01*
G37*
D14*
X9540000Y-11920000D03*
D10*
G36*
X9644951Y-11167620D02*
X9647377Y-11167980D01*
X9649757Y-11168577D01*
X9652067Y-11169403D01*
X9654285Y-11170452D01*
X9656389Y-11171713D01*
X9658360Y-11173175D01*
X9660178Y-11174822D01*
X9661825Y-11176640D01*
X9663287Y-11178611D01*
X9664548Y-11180715D01*
X9665597Y-11182933D01*
X9666424Y-11185243D01*
X9667020Y-11187623D01*
X9667380Y-11190049D01*
X9667500Y-11192500D01*
X9667500Y-11367500D01*
X9667380Y-11369950D01*
X9667020Y-11372377D01*
X9666424Y-11374757D01*
X9665597Y-11377067D01*
X9664548Y-11379285D01*
X9663287Y-11381389D01*
X9661825Y-11383360D01*
X9660178Y-11385178D01*
X9658360Y-11386825D01*
X9656389Y-11388287D01*
X9654285Y-11389548D01*
X9652067Y-11390597D01*
X9649757Y-11391423D01*
X9647377Y-11392020D01*
X9644951Y-11392380D01*
X9642500Y-11392500D01*
X9437500Y-11392500D01*
X9435050Y-11392380D01*
X9432623Y-11392020D01*
X9430243Y-11391423D01*
X9427933Y-11390597D01*
X9425715Y-11389548D01*
X9423611Y-11388287D01*
X9421640Y-11386825D01*
X9419822Y-11385178D01*
X9418175Y-11383360D01*
X9416713Y-11381389D01*
X9415452Y-11379285D01*
X9414403Y-11377067D01*
X9413577Y-11374757D01*
X9412980Y-11372377D01*
X9412620Y-11369950D01*
X9412500Y-11367500D01*
X9412500Y-11192500D01*
X9412620Y-11190049D01*
X9412980Y-11187623D01*
X9413577Y-11185243D01*
X9414403Y-11182933D01*
X9415452Y-11180715D01*
X9416713Y-11178611D01*
X9418175Y-11176640D01*
X9419822Y-11174822D01*
X9421640Y-11173175D01*
X9423611Y-11171713D01*
X9425715Y-11170452D01*
X9427933Y-11169403D01*
X9430243Y-11168577D01*
X9432623Y-11167980D01*
X9435050Y-11167620D01*
X9437500Y-11167500D01*
X9642500Y-11167500D01*
X9644951Y-11167620D01*
X9644951Y-11167620D01*
G37*
D14*
X9540000Y-11280000D03*
G04 #@! TD*
D10*
G04 #@! TO.C,C9*
G36*
X8549951Y-9292620D02*
X8552377Y-9292980D01*
X8554757Y-9293577D01*
X8557067Y-9294403D01*
X8559285Y-9295452D01*
X8561389Y-9296713D01*
X8563360Y-9298175D01*
X8565178Y-9299822D01*
X8566825Y-9301640D01*
X8568287Y-9303611D01*
X8569548Y-9305715D01*
X8570597Y-9307933D01*
X8571424Y-9310243D01*
X8572020Y-9312623D01*
X8572380Y-9315050D01*
X8572500Y-9317500D01*
X8572500Y-9522500D01*
X8572380Y-9524951D01*
X8572020Y-9527377D01*
X8571424Y-9529757D01*
X8570597Y-9532067D01*
X8569548Y-9534285D01*
X8568287Y-9536389D01*
X8566825Y-9538360D01*
X8565178Y-9540178D01*
X8563360Y-9541825D01*
X8561389Y-9543287D01*
X8559285Y-9544548D01*
X8557067Y-9545597D01*
X8554757Y-9546424D01*
X8552377Y-9547020D01*
X8549951Y-9547380D01*
X8547500Y-9547500D01*
X8372500Y-9547500D01*
X8370049Y-9547380D01*
X8367623Y-9547020D01*
X8365243Y-9546424D01*
X8362933Y-9545597D01*
X8360715Y-9544548D01*
X8358611Y-9543287D01*
X8356640Y-9541825D01*
X8354822Y-9540178D01*
X8353175Y-9538360D01*
X8351713Y-9536389D01*
X8350452Y-9534285D01*
X8349403Y-9532067D01*
X8348576Y-9529757D01*
X8347980Y-9527377D01*
X8347620Y-9524951D01*
X8347500Y-9522500D01*
X8347500Y-9317500D01*
X8347620Y-9315050D01*
X8347980Y-9312623D01*
X8348576Y-9310243D01*
X8349403Y-9307933D01*
X8350452Y-9305715D01*
X8351713Y-9303611D01*
X8353175Y-9301640D01*
X8354822Y-9299822D01*
X8356640Y-9298175D01*
X8358611Y-9296713D01*
X8360715Y-9295452D01*
X8362933Y-9294403D01*
X8365243Y-9293577D01*
X8367623Y-9292980D01*
X8370049Y-9292620D01*
X8372500Y-9292500D01*
X8547500Y-9292500D01*
X8549951Y-9292620D01*
X8549951Y-9292620D01*
G37*
D14*
X8460000Y-9420000D03*
D10*
G36*
X9189951Y-9292620D02*
X9192377Y-9292980D01*
X9194757Y-9293577D01*
X9197067Y-9294403D01*
X9199285Y-9295452D01*
X9201389Y-9296713D01*
X9203360Y-9298175D01*
X9205178Y-9299822D01*
X9206825Y-9301640D01*
X9208287Y-9303611D01*
X9209548Y-9305715D01*
X9210597Y-9307933D01*
X9211424Y-9310243D01*
X9212020Y-9312623D01*
X9212380Y-9315050D01*
X9212500Y-9317500D01*
X9212500Y-9522500D01*
X9212380Y-9524951D01*
X9212020Y-9527377D01*
X9211424Y-9529757D01*
X9210597Y-9532067D01*
X9209548Y-9534285D01*
X9208287Y-9536389D01*
X9206825Y-9538360D01*
X9205178Y-9540178D01*
X9203360Y-9541825D01*
X9201389Y-9543287D01*
X9199285Y-9544548D01*
X9197067Y-9545597D01*
X9194757Y-9546424D01*
X9192377Y-9547020D01*
X9189951Y-9547380D01*
X9187500Y-9547500D01*
X9012500Y-9547500D01*
X9010050Y-9547380D01*
X9007623Y-9547020D01*
X9005243Y-9546424D01*
X9002933Y-9545597D01*
X9000715Y-9544548D01*
X8998611Y-9543287D01*
X8996640Y-9541825D01*
X8994822Y-9540178D01*
X8993175Y-9538360D01*
X8991713Y-9536389D01*
X8990452Y-9534285D01*
X8989403Y-9532067D01*
X8988577Y-9529757D01*
X8987980Y-9527377D01*
X8987620Y-9524951D01*
X8987500Y-9522500D01*
X8987500Y-9317500D01*
X8987620Y-9315050D01*
X8987980Y-9312623D01*
X8988577Y-9310243D01*
X8989403Y-9307933D01*
X8990452Y-9305715D01*
X8991713Y-9303611D01*
X8993175Y-9301640D01*
X8994822Y-9299822D01*
X8996640Y-9298175D01*
X8998611Y-9296713D01*
X9000715Y-9295452D01*
X9002933Y-9294403D01*
X9005243Y-9293577D01*
X9007623Y-9292980D01*
X9010050Y-9292620D01*
X9012500Y-9292500D01*
X9187500Y-9292500D01*
X9189951Y-9292620D01*
X9189951Y-9292620D01*
G37*
D14*
X9100000Y-9420000D03*
G04 #@! TD*
D25*
G04 #@! TO.C,U7*
X7135000Y-7425000D03*
X7135000Y-7475000D03*
X7135000Y-7525000D03*
X7135000Y-7575000D03*
X7135000Y-7625000D03*
X7135000Y-7675000D03*
X7135000Y-7725000D03*
X7135000Y-7775000D03*
X7135000Y-7825000D03*
X7135000Y-7875000D03*
X7135000Y-7925000D03*
X7135000Y-7975000D03*
D26*
X6975000Y-8135000D03*
X6925000Y-8135000D03*
X6875000Y-8135000D03*
X6825000Y-8135000D03*
X6775000Y-8135000D03*
X6725000Y-8135000D03*
X6675000Y-8135000D03*
X6625000Y-8135000D03*
X6575000Y-8135000D03*
X6525000Y-8135000D03*
X6475000Y-8135000D03*
X6425000Y-8135000D03*
D25*
X6265000Y-7975000D03*
X6265000Y-7925000D03*
X6265000Y-7875000D03*
X6265000Y-7825000D03*
X6265000Y-7775000D03*
X6265000Y-7725000D03*
X6265000Y-7675000D03*
X6265000Y-7625000D03*
X6265000Y-7575000D03*
X6265000Y-7525000D03*
X6265000Y-7475000D03*
X6265000Y-7425000D03*
D26*
X6425000Y-7265000D03*
X6475000Y-7265000D03*
X6525000Y-7265000D03*
X6575000Y-7265000D03*
X6625000Y-7265000D03*
X6675000Y-7265000D03*
X6725000Y-7265000D03*
X6775000Y-7265000D03*
X6825000Y-7265000D03*
X6875000Y-7265000D03*
X6925000Y-7265000D03*
X6975000Y-7265000D03*
G04 #@! TD*
D27*
G04 #@! TO.C,U8*
X10970000Y-7025000D03*
X10970000Y-7075000D03*
X10970000Y-7125000D03*
X10970000Y-7175000D03*
X10970000Y-7225000D03*
X10970000Y-7275000D03*
X10970000Y-7325000D03*
X10970000Y-7375000D03*
X10970000Y-7425000D03*
X10970000Y-7475000D03*
X10970000Y-7525000D03*
X10970000Y-7575000D03*
X10970000Y-7625000D03*
X10970000Y-7675000D03*
X10970000Y-7725000D03*
X10970000Y-7775000D03*
D28*
X10775000Y-7970000D03*
X10725000Y-7970000D03*
X10675000Y-7970000D03*
X10625000Y-7970000D03*
X10575000Y-7970000D03*
X10525000Y-7970000D03*
X10475000Y-7970000D03*
X10425000Y-7970000D03*
X10375000Y-7970000D03*
X10325000Y-7970000D03*
X10275000Y-7970000D03*
X10225000Y-7970000D03*
X10175000Y-7970000D03*
X10125000Y-7970000D03*
X10075000Y-7970000D03*
X10025000Y-7970000D03*
D27*
X9830000Y-7775000D03*
X9830000Y-7725000D03*
X9830000Y-7675000D03*
X9830000Y-7625000D03*
X9830000Y-7575000D03*
X9830000Y-7525000D03*
X9830000Y-7475000D03*
X9830000Y-7425000D03*
X9830000Y-7375000D03*
X9830000Y-7325000D03*
X9830000Y-7275000D03*
X9830000Y-7225000D03*
X9830000Y-7175000D03*
X9830000Y-7125000D03*
X9830000Y-7075000D03*
X9830000Y-7025000D03*
D28*
X10025000Y-6830000D03*
X10075000Y-6830000D03*
X10125000Y-6830000D03*
X10175000Y-6830000D03*
X10225000Y-6830000D03*
X10275000Y-6830000D03*
X10325000Y-6830000D03*
X10375000Y-6830000D03*
X10425000Y-6830000D03*
X10475000Y-6830000D03*
X10525000Y-6830000D03*
X10575000Y-6830000D03*
X10625000Y-6830000D03*
X10675000Y-6830000D03*
X10725000Y-6830000D03*
X10775000Y-6830000D03*
G04 #@! TD*
M02*
