G04 #@! TF.GenerationSoftware,KiCad,Pcbnew,5.0.2-bee76a0~70~ubuntu18.04.1*
G04 #@! TF.CreationDate,2019-04-28T14:18:51+03:00*
G04 #@! TF.ProjectId,LED_controller,4c45445f-636f-46e7-9472-6f6c6c65722e,rev?*
G04 #@! TF.SameCoordinates,Original*
G04 #@! TF.FileFunction,Legend,Top*
G04 #@! TF.FilePolarity,Positive*
%FSLAX45Y45*%
G04 Gerber Fmt 4.5, Leading zero omitted, Abs format (unit mm)*
G04 Created by KiCad (PCBNEW 5.0.2-bee76a0~70~ubuntu18.04.1) date Вс 28 апр 2019 14:18:51*
%MOMM*%
%LPD*%
G01*
G04 APERTURE LIST*
%ADD10C,0.300000*%
%ADD11C,0.200000*%
%ADD12C,0.120000*%
%ADD13C,0.150000*%
%ADD14C,0.002540*%
G04 APERTURE END LIST*
D10*
X8083786Y-13177857D02*
X8098071Y-13177857D01*
X8112357Y-13185000D01*
X8119500Y-13192143D01*
X8126643Y-13206428D01*
X8133786Y-13235000D01*
X8133786Y-13270714D01*
X8126643Y-13299286D01*
X8119500Y-13313571D01*
X8112357Y-13320714D01*
X8098071Y-13327857D01*
X8083786Y-13327857D01*
X8069500Y-13320714D01*
X8062357Y-13313571D01*
X8055214Y-13299286D01*
X8048071Y-13270714D01*
X8048071Y-13235000D01*
X8055214Y-13206428D01*
X8062357Y-13192143D01*
X8069500Y-13185000D01*
X8083786Y-13177857D01*
X8262357Y-13227857D02*
X8262357Y-13327857D01*
X8226643Y-13170714D02*
X8190928Y-13277857D01*
X8283786Y-13277857D01*
X8448071Y-13170714D02*
X8319500Y-13363571D01*
X8490929Y-13192143D02*
X8498071Y-13185000D01*
X8512357Y-13177857D01*
X8548071Y-13177857D01*
X8562357Y-13185000D01*
X8569500Y-13192143D01*
X8576643Y-13206428D01*
X8576643Y-13220714D01*
X8569500Y-13242143D01*
X8483786Y-13327857D01*
X8576643Y-13327857D01*
X8669500Y-13177857D02*
X8683786Y-13177857D01*
X8698071Y-13185000D01*
X8705214Y-13192143D01*
X8712357Y-13206428D01*
X8719500Y-13235000D01*
X8719500Y-13270714D01*
X8712357Y-13299286D01*
X8705214Y-13313571D01*
X8698071Y-13320714D01*
X8683786Y-13327857D01*
X8669500Y-13327857D01*
X8655214Y-13320714D01*
X8648071Y-13313571D01*
X8640929Y-13299286D01*
X8633786Y-13270714D01*
X8633786Y-13235000D01*
X8640929Y-13206428D01*
X8648071Y-13192143D01*
X8655214Y-13185000D01*
X8669500Y-13177857D01*
X8862357Y-13327857D02*
X8776643Y-13327857D01*
X8819500Y-13327857D02*
X8819500Y-13177857D01*
X8805214Y-13199286D01*
X8790929Y-13213571D01*
X8776643Y-13220714D01*
X8933786Y-13327857D02*
X8962357Y-13327857D01*
X8976643Y-13320714D01*
X8983786Y-13313571D01*
X8998071Y-13292143D01*
X9005214Y-13263571D01*
X9005214Y-13206428D01*
X8998071Y-13192143D01*
X8990929Y-13185000D01*
X8976643Y-13177857D01*
X8948071Y-13177857D01*
X8933786Y-13185000D01*
X8926643Y-13192143D01*
X8919500Y-13206428D01*
X8919500Y-13242143D01*
X8926643Y-13256428D01*
X8933786Y-13263571D01*
X8948071Y-13270714D01*
X8976643Y-13270714D01*
X8990929Y-13263571D01*
X8998071Y-13256428D01*
X9005214Y-13242143D01*
X8040928Y-12997857D02*
X8076643Y-13097857D01*
X8112357Y-12997857D01*
X8248071Y-13097857D02*
X8162357Y-13097857D01*
X8205214Y-13097857D02*
X8205214Y-12947857D01*
X8190928Y-12969286D01*
X8176643Y-12983571D01*
X8162357Y-12990714D01*
X8312357Y-13083571D02*
X8319500Y-13090714D01*
X8312357Y-13097857D01*
X8305214Y-13090714D01*
X8312357Y-13083571D01*
X8312357Y-13097857D01*
X8412357Y-12947857D02*
X8426643Y-12947857D01*
X8440929Y-12955000D01*
X8448071Y-12962143D01*
X8455214Y-12976428D01*
X8462357Y-13005000D01*
X8462357Y-13040714D01*
X8455214Y-13069286D01*
X8448071Y-13083571D01*
X8440929Y-13090714D01*
X8426643Y-13097857D01*
X8412357Y-13097857D01*
X8398071Y-13090714D01*
X8390929Y-13083571D01*
X8383786Y-13069286D01*
X8376643Y-13040714D01*
X8376643Y-13005000D01*
X8383786Y-12976428D01*
X8390929Y-12962143D01*
X8398071Y-12955000D01*
X8412357Y-12947857D01*
X8126643Y-12867857D02*
X8055214Y-12867857D01*
X8055214Y-12717857D01*
X8176643Y-12789286D02*
X8226643Y-12789286D01*
X8248071Y-12867857D02*
X8176643Y-12867857D01*
X8176643Y-12717857D01*
X8248071Y-12717857D01*
X8312357Y-12867857D02*
X8312357Y-12717857D01*
X8348071Y-12717857D01*
X8369500Y-12725000D01*
X8383786Y-12739286D01*
X8390929Y-12753571D01*
X8398071Y-12782143D01*
X8398071Y-12803571D01*
X8390929Y-12832143D01*
X8383786Y-12846428D01*
X8369500Y-12860714D01*
X8348071Y-12867857D01*
X8312357Y-12867857D01*
X8426643Y-12882143D02*
X8540929Y-12882143D01*
X8640929Y-12860714D02*
X8626643Y-12867857D01*
X8598071Y-12867857D01*
X8583786Y-12860714D01*
X8576643Y-12853571D01*
X8569500Y-12839286D01*
X8569500Y-12796428D01*
X8576643Y-12782143D01*
X8583786Y-12775000D01*
X8598071Y-12767857D01*
X8626643Y-12767857D01*
X8640929Y-12775000D01*
X8726643Y-12867857D02*
X8712357Y-12860714D01*
X8705214Y-12853571D01*
X8698071Y-12839286D01*
X8698071Y-12796428D01*
X8705214Y-12782143D01*
X8712357Y-12775000D01*
X8726643Y-12767857D01*
X8748071Y-12767857D01*
X8762357Y-12775000D01*
X8769500Y-12782143D01*
X8776643Y-12796428D01*
X8776643Y-12839286D01*
X8769500Y-12853571D01*
X8762357Y-12860714D01*
X8748071Y-12867857D01*
X8726643Y-12867857D01*
X8840929Y-12767857D02*
X8840929Y-12867857D01*
X8840929Y-12782143D02*
X8848071Y-12775000D01*
X8862357Y-12767857D01*
X8883786Y-12767857D01*
X8898071Y-12775000D01*
X8905214Y-12789286D01*
X8905214Y-12867857D01*
X8955214Y-12767857D02*
X9012357Y-12767857D01*
X8976643Y-12717857D02*
X8976643Y-12846428D01*
X8983786Y-12860714D01*
X8998071Y-12867857D01*
X9012357Y-12867857D01*
X9062357Y-12867857D02*
X9062357Y-12767857D01*
X9062357Y-12796428D02*
X9069500Y-12782143D01*
X9076643Y-12775000D01*
X9090929Y-12767857D01*
X9105214Y-12767857D01*
X9176643Y-12867857D02*
X9162357Y-12860714D01*
X9155214Y-12853571D01*
X9148071Y-12839286D01*
X9148071Y-12796428D01*
X9155214Y-12782143D01*
X9162357Y-12775000D01*
X9176643Y-12767857D01*
X9198071Y-12767857D01*
X9212357Y-12775000D01*
X9219500Y-12782143D01*
X9226643Y-12796428D01*
X9226643Y-12839286D01*
X9219500Y-12853571D01*
X9212357Y-12860714D01*
X9198071Y-12867857D01*
X9176643Y-12867857D01*
X9312357Y-12867857D02*
X9298071Y-12860714D01*
X9290929Y-12846428D01*
X9290929Y-12717857D01*
X9390929Y-12867857D02*
X9376643Y-12860714D01*
X9369500Y-12846428D01*
X9369500Y-12717857D01*
X9505214Y-12860714D02*
X9490929Y-12867857D01*
X9462357Y-12867857D01*
X9448071Y-12860714D01*
X9440929Y-12846428D01*
X9440929Y-12789286D01*
X9448071Y-12775000D01*
X9462357Y-12767857D01*
X9490929Y-12767857D01*
X9505214Y-12775000D01*
X9512357Y-12789286D01*
X9512357Y-12803571D01*
X9440929Y-12817857D01*
X9576643Y-12867857D02*
X9576643Y-12767857D01*
X9576643Y-12796428D02*
X9583786Y-12782143D01*
X9590929Y-12775000D01*
X9605214Y-12767857D01*
X9619500Y-12767857D01*
X12791428Y-7867857D02*
X12791428Y-7717857D01*
X12841428Y-7825000D01*
X12891428Y-7717857D01*
X12891428Y-7867857D01*
X12991428Y-7717857D02*
X13020000Y-7717857D01*
X13034286Y-7725000D01*
X13048571Y-7739286D01*
X13055714Y-7767857D01*
X13055714Y-7817857D01*
X13048571Y-7846428D01*
X13034286Y-7860714D01*
X13020000Y-7867857D01*
X12991428Y-7867857D01*
X12977143Y-7860714D01*
X12962857Y-7846428D01*
X12955714Y-7817857D01*
X12955714Y-7767857D01*
X12962857Y-7739286D01*
X12977143Y-7725000D01*
X12991428Y-7717857D01*
X13098571Y-7717857D02*
X13184286Y-7717857D01*
X13141428Y-7867857D02*
X13141428Y-7717857D01*
X13234286Y-7867857D02*
X13234286Y-7717857D01*
X13334286Y-7717857D02*
X13362857Y-7717857D01*
X13377143Y-7725000D01*
X13391428Y-7739286D01*
X13398571Y-7767857D01*
X13398571Y-7817857D01*
X13391428Y-7846428D01*
X13377143Y-7860714D01*
X13362857Y-7867857D01*
X13334286Y-7867857D01*
X13320000Y-7860714D01*
X13305714Y-7846428D01*
X13298571Y-7817857D01*
X13298571Y-7767857D01*
X13305714Y-7739286D01*
X13320000Y-7725000D01*
X13334286Y-7717857D01*
X13462857Y-7867857D02*
X13462857Y-7717857D01*
X13548571Y-7867857D01*
X13548571Y-7717857D01*
X12787143Y-7317857D02*
X12822857Y-7467857D01*
X12851428Y-7360714D01*
X12880000Y-7467857D01*
X12915714Y-7317857D01*
X13001428Y-7317857D02*
X13030000Y-7317857D01*
X13044286Y-7325000D01*
X13058571Y-7339286D01*
X13065714Y-7367857D01*
X13065714Y-7417857D01*
X13058571Y-7446428D01*
X13044286Y-7460714D01*
X13030000Y-7467857D01*
X13001428Y-7467857D01*
X12987143Y-7460714D01*
X12972857Y-7446428D01*
X12965714Y-7417857D01*
X12965714Y-7367857D01*
X12972857Y-7339286D01*
X12987143Y-7325000D01*
X13001428Y-7317857D01*
X13215714Y-7467857D02*
X13165714Y-7396428D01*
X13130000Y-7467857D02*
X13130000Y-7317857D01*
X13187143Y-7317857D01*
X13201428Y-7325000D01*
X13208571Y-7332143D01*
X13215714Y-7346428D01*
X13215714Y-7367857D01*
X13208571Y-7382143D01*
X13201428Y-7389286D01*
X13187143Y-7396428D01*
X13130000Y-7396428D01*
X13280000Y-7467857D02*
X13280000Y-7317857D01*
X13365714Y-7467857D02*
X13301428Y-7382143D01*
X13365714Y-7317857D02*
X13280000Y-7403571D01*
X12790000Y-7067857D02*
X12790000Y-6917857D01*
X12847143Y-6917857D01*
X12861428Y-6925000D01*
X12868571Y-6932143D01*
X12875714Y-6946428D01*
X12875714Y-6967857D01*
X12868571Y-6982143D01*
X12861428Y-6989286D01*
X12847143Y-6996428D01*
X12790000Y-6996428D01*
X12925714Y-6917857D02*
X12961428Y-7067857D01*
X12990000Y-6960714D01*
X13018571Y-7067857D01*
X13054286Y-6917857D01*
X13197143Y-7067857D02*
X13147143Y-6996428D01*
X13111428Y-7067857D02*
X13111428Y-6917857D01*
X13168571Y-6917857D01*
X13182857Y-6925000D01*
X13190000Y-6932143D01*
X13197143Y-6946428D01*
X13197143Y-6967857D01*
X13190000Y-6982143D01*
X13182857Y-6989286D01*
X13168571Y-6996428D01*
X13111428Y-6996428D01*
D11*
X5900000Y-5600000D02*
X5900000Y-5500000D01*
X5500000Y-5900000D02*
X5600000Y-5900000D01*
X5100000Y-6300000D02*
X5100000Y-6200000D01*
X5900000Y-5300000D02*
X5900000Y-5100000D01*
X5900000Y-5900000D02*
X5900000Y-5800000D01*
X5800000Y-5900000D02*
X5900000Y-5900000D01*
X8500000Y-6300000D02*
X8500000Y-6200000D01*
X8500000Y-6900000D02*
X8500000Y-6800000D01*
X8500000Y-6600000D02*
X8500000Y-6500000D01*
X8500000Y-7200000D02*
X8500000Y-7100000D01*
X8500000Y-7500000D02*
X8500000Y-7400000D01*
X8500000Y-7800000D02*
X8500000Y-7700000D01*
X5100000Y-8500000D02*
X5100000Y-8300000D01*
X5300000Y-8500000D02*
X5100000Y-8500000D01*
X8500000Y-8500000D02*
X8300000Y-8500000D01*
X8500000Y-8500000D02*
X8500000Y-8300000D01*
X5100000Y-6600000D02*
X5100000Y-6500000D01*
X5100000Y-7800000D02*
X5100000Y-7700000D01*
X5100000Y-7500000D02*
X5100000Y-7400000D01*
X5100000Y-7200000D02*
X5100000Y-7100000D01*
X5100000Y-6900000D02*
X5100000Y-6800000D01*
X5100000Y-8100000D02*
X5100000Y-8000000D01*
X10000000Y-6000000D02*
X10200000Y-6000000D01*
X10200000Y-6200000D02*
X10200000Y-6000000D01*
X5100000Y-5900000D02*
X5300000Y-5900000D01*
X5100000Y-6100000D02*
X5100000Y-5900000D01*
X5100000Y-12600000D02*
X5100000Y-12400000D01*
X7900000Y-8600000D02*
X7900000Y-8800000D01*
X7700000Y-8600000D02*
X7900000Y-8600000D01*
X7900000Y-12600000D02*
X7900000Y-12400000D01*
X7700000Y-12600000D02*
X7900000Y-12600000D01*
X5100000Y-12600000D02*
X5200000Y-12600000D01*
X14900000Y-8600000D02*
X14900000Y-12600000D01*
X17100000Y-8600000D02*
X17100000Y-12600000D01*
X17100000Y-8600000D02*
X14900000Y-8600000D01*
X17100000Y-12600000D02*
X14900000Y-12600000D01*
X12600000Y-8600000D02*
X12600000Y-12600000D01*
X14800000Y-8600000D02*
X14800000Y-12600000D01*
X14800000Y-8600000D02*
X12600000Y-8600000D01*
X14800000Y-12600000D02*
X12600000Y-12600000D01*
X10300000Y-8600000D02*
X10300000Y-12600000D01*
X12500000Y-8600000D02*
X12500000Y-12600000D01*
X12500000Y-8600000D02*
X10300000Y-8600000D01*
X12500000Y-12600000D02*
X10300000Y-12600000D01*
X10200000Y-12600000D02*
X8000000Y-12600000D01*
X10200000Y-8600000D02*
X8000000Y-8600000D01*
X10200000Y-8600000D02*
X10200000Y-12600000D01*
X8000000Y-8600000D02*
X8000000Y-12600000D01*
X5100000Y-8600000D02*
X5300000Y-8600000D01*
X5100000Y-8800000D02*
X5100000Y-8600000D01*
D12*
G04 #@! TO.C,D14*
X12526125Y-7471000D02*
X12473875Y-7471000D01*
X12526125Y-7329000D02*
X12473875Y-7329000D01*
G04 #@! TO.C,D13*
X12526125Y-6929000D02*
X12473875Y-6929000D01*
X12526125Y-7071000D02*
X12473875Y-7071000D01*
G04 #@! TO.C,D15*
X12526125Y-7871000D02*
X12473875Y-7871000D01*
X12526125Y-7729000D02*
X12473875Y-7729000D01*
D11*
G04 #@! TO.C,J42*
X5955000Y-4770000D02*
X7555000Y-4770000D01*
X7555000Y-4770000D02*
X7555000Y-5960000D01*
X7555000Y-6930000D02*
X5955000Y-6930000D01*
X5955000Y-6930000D02*
X5955000Y-6360000D01*
X5955000Y-5960000D02*
X5955000Y-4770000D01*
X7555000Y-6930000D02*
X7555000Y-6360000D01*
D12*
G04 #@! TO.C,L5*
X15765000Y-12110000D02*
X15670000Y-12110000D01*
X15235000Y-10790000D02*
X15330000Y-10790000D01*
X15765000Y-12110000D02*
X16010000Y-11590000D01*
X15235000Y-10790000D02*
X14990000Y-11310000D01*
X15235000Y-12110000D02*
X14990000Y-11590000D01*
X15235000Y-12110000D02*
X15330000Y-12110000D01*
X15765000Y-10790000D02*
X16010000Y-11310000D01*
X15765000Y-10790000D02*
X15670000Y-10790000D01*
G04 #@! TO.C,L4*
X13465000Y-12110000D02*
X13370000Y-12110000D01*
X12935000Y-10790000D02*
X13030000Y-10790000D01*
X13465000Y-12110000D02*
X13710000Y-11590000D01*
X12935000Y-10790000D02*
X12690000Y-11310000D01*
X12935000Y-12110000D02*
X12690000Y-11590000D01*
X12935000Y-12110000D02*
X13030000Y-12110000D01*
X13465000Y-10790000D02*
X13710000Y-11310000D01*
X13465000Y-10790000D02*
X13370000Y-10790000D01*
G04 #@! TO.C,L3*
X11165000Y-12110000D02*
X11070000Y-12110000D01*
X10635000Y-10790000D02*
X10730000Y-10790000D01*
X11165000Y-12110000D02*
X11410000Y-11590000D01*
X10635000Y-10790000D02*
X10390000Y-11310000D01*
X10635000Y-12110000D02*
X10390000Y-11590000D01*
X10635000Y-12110000D02*
X10730000Y-12110000D01*
X11165000Y-10790000D02*
X11410000Y-11310000D01*
X11165000Y-10790000D02*
X11070000Y-10790000D01*
G04 #@! TO.C,L2*
X8865000Y-12110000D02*
X8770000Y-12110000D01*
X8335000Y-10790000D02*
X8430000Y-10790000D01*
X8865000Y-12110000D02*
X9110000Y-11590000D01*
X8335000Y-10790000D02*
X8090000Y-11310000D01*
X8335000Y-12110000D02*
X8090000Y-11590000D01*
X8335000Y-12110000D02*
X8430000Y-12110000D01*
X8865000Y-10790000D02*
X9110000Y-11310000D01*
X8865000Y-10790000D02*
X8770000Y-10790000D01*
G04 #@! TO.C,F1*
X7578000Y-11908000D02*
X7194000Y-11908000D01*
X7578000Y-12092000D02*
X7194000Y-12092000D01*
D11*
G04 #@! TO.C,J67*
X16300000Y-5100000D02*
X15300000Y-5100000D01*
X16300000Y-5000000D02*
X16300000Y-5900000D01*
X15300000Y-5000000D02*
X16300000Y-5000000D01*
X15300000Y-5900000D02*
X15300000Y-5000000D01*
X16300000Y-5900000D02*
X15300000Y-5900000D01*
G04 #@! TO.C,J13*
X14300000Y-5100000D02*
X13300000Y-5100000D01*
X14300000Y-5000000D02*
X14300000Y-5900000D01*
X13300000Y-5000000D02*
X14300000Y-5000000D01*
X13300000Y-5900000D02*
X13300000Y-5000000D01*
X14300000Y-5900000D02*
X13300000Y-5900000D01*
G04 #@! TO.C,J8*
X12300000Y-5100000D02*
X11300000Y-5100000D01*
X12300000Y-5000000D02*
X12300000Y-5900000D01*
X11300000Y-5000000D02*
X12300000Y-5000000D01*
X11300000Y-5900000D02*
X11300000Y-5000000D01*
X12300000Y-5900000D02*
X11300000Y-5900000D01*
G04 #@! TO.C,J10*
X13300000Y-5100000D02*
X12300000Y-5100000D01*
X13300000Y-5000000D02*
X13300000Y-5900000D01*
X12300000Y-5000000D02*
X13300000Y-5000000D01*
X12300000Y-5900000D02*
X12300000Y-5000000D01*
X13300000Y-5900000D02*
X12300000Y-5900000D01*
G04 #@! TO.C,J11*
X15300000Y-5100000D02*
X14300000Y-5100000D01*
X15300000Y-5000000D02*
X15300000Y-5900000D01*
X14300000Y-5000000D02*
X15300000Y-5000000D01*
X14300000Y-5900000D02*
X14300000Y-5000000D01*
X15300000Y-5900000D02*
X14300000Y-5900000D01*
G04 #@! TO.C,J34*
X13000000Y-13600000D02*
X14500000Y-13600000D01*
X14500000Y-13700000D02*
X13000000Y-13700000D01*
X14500000Y-12800000D02*
X14500000Y-13700000D01*
X13000000Y-12800000D02*
X14500000Y-12800000D01*
X13000000Y-13700000D02*
X13000000Y-12800000D01*
G04 #@! TO.C,J35*
X14500000Y-13600000D02*
X16000000Y-13600000D01*
X16000000Y-13700000D02*
X14500000Y-13700000D01*
X16000000Y-12800000D02*
X16000000Y-13700000D01*
X14500000Y-12800000D02*
X16000000Y-12800000D01*
X14500000Y-13700000D02*
X14500000Y-12800000D01*
G04 #@! TO.C,J21*
X11500000Y-13600000D02*
X13000000Y-13600000D01*
X13000000Y-13700000D02*
X11500000Y-13700000D01*
X13000000Y-12800000D02*
X13000000Y-13700000D01*
X11500000Y-12800000D02*
X13000000Y-12800000D01*
X11500000Y-13700000D02*
X11500000Y-12800000D01*
G04 #@! TO.C,J20*
X10000000Y-13600000D02*
X11500000Y-13600000D01*
X11500000Y-13700000D02*
X10000000Y-13700000D01*
X11500000Y-12800000D02*
X11500000Y-13700000D01*
X10000000Y-12800000D02*
X11500000Y-12800000D01*
X10000000Y-13700000D02*
X10000000Y-12800000D01*
G04 #@! TO.C,J12*
X11300000Y-5100000D02*
X9800000Y-5100000D01*
X9800000Y-5000000D02*
X11300000Y-5000000D01*
X9800000Y-5900000D02*
X9800000Y-5000000D01*
X11300000Y-5900000D02*
X9800000Y-5900000D01*
X11300000Y-5000000D02*
X11300000Y-5900000D01*
G04 #@! TO.C,J9*
X9800000Y-5100000D02*
X8300000Y-5100000D01*
X8300000Y-5000000D02*
X9800000Y-5000000D01*
X8300000Y-5900000D02*
X8300000Y-5000000D01*
X9800000Y-5900000D02*
X8300000Y-5900000D01*
X9800000Y-5000000D02*
X9800000Y-5900000D01*
G04 #@! TO.C,J3*
X6200000Y-13600000D02*
X7700000Y-13600000D01*
X7700000Y-13700000D02*
X6200000Y-13700000D01*
X7700000Y-12800000D02*
X7700000Y-13700000D01*
X6200000Y-12800000D02*
X7700000Y-12800000D01*
X6200000Y-13700000D02*
X6200000Y-12800000D01*
G04 #@! TO.C,K1*
X14275000Y-6475000D02*
X14275000Y-6975000D01*
X17090000Y-6975000D02*
X14275000Y-6975000D01*
X17090000Y-6475000D02*
X17090000Y-6975000D01*
X14275000Y-6475000D02*
X17090000Y-6475000D01*
D12*
G04 #@! TO.C,J7-2*
X5230000Y-6370000D02*
X5230000Y-6130000D01*
X5470000Y-6370000D02*
X5230000Y-6370000D01*
X5470000Y-6130000D02*
X5470000Y-6370000D01*
X5230000Y-6130000D02*
X5470000Y-6130000D01*
G04 #@! TO.C,R12*
X5529000Y-11973875D02*
X5529000Y-12026125D01*
X5671000Y-11973875D02*
X5671000Y-12026125D01*
G04 #@! TO.C,J66*
X7516000Y-8970000D02*
X7516000Y-8730000D01*
X7756000Y-8970000D02*
X7516000Y-8970000D01*
X7756000Y-8730000D02*
X7756000Y-8970000D01*
X7516000Y-8730000D02*
X7756000Y-8730000D01*
G04 #@! TO.C,J65*
X6500000Y-12470000D02*
X6500000Y-12230000D01*
X6740000Y-12470000D02*
X6500000Y-12470000D01*
X6740000Y-12230000D02*
X6740000Y-12470000D01*
X6500000Y-12230000D02*
X6740000Y-12230000D01*
G04 #@! TO.C,J63*
X7516000Y-12470000D02*
X7516000Y-12230000D01*
X7756000Y-12470000D02*
X7516000Y-12470000D01*
X7756000Y-12230000D02*
X7756000Y-12470000D01*
X7516000Y-12230000D02*
X7756000Y-12230000D01*
G04 #@! TO.C,J64*
X5230000Y-12470000D02*
X5230000Y-12230000D01*
X5470000Y-12470000D02*
X5230000Y-12470000D01*
X5470000Y-12230000D02*
X5470000Y-12470000D01*
X5230000Y-12230000D02*
X5470000Y-12230000D01*
G04 #@! TO.C,C39*
X9621000Y-7096125D02*
X9621000Y-7043875D01*
X9479000Y-7096125D02*
X9479000Y-7043875D01*
G04 #@! TO.C,C7*
X5273875Y-11421000D02*
X5326125Y-11421000D01*
X5273875Y-11279000D02*
X5326125Y-11279000D01*
G04 #@! TO.C,C8*
X5273875Y-10671000D02*
X5326125Y-10671000D01*
X5273875Y-10529000D02*
X5326125Y-10529000D01*
G04 #@! TO.C,C6*
X6099794Y-9341000D02*
X6220206Y-9341000D01*
X6099794Y-9159000D02*
X6220206Y-9159000D01*
G04 #@! TO.C,C1*
X6768500Y-11494000D02*
X5945000Y-11494000D01*
X6768500Y-11946000D02*
X6768500Y-11494000D01*
X5945000Y-11946000D02*
X6768500Y-11946000D01*
G04 #@! TO.C,C5*
X5424000Y-9441500D02*
X5424000Y-10265000D01*
X5876000Y-9441500D02*
X5424000Y-9441500D01*
X5876000Y-10265000D02*
X5876000Y-9441500D01*
G04 #@! TO.C,C4*
X5934000Y-9441500D02*
X5934000Y-10265000D01*
X6386000Y-9441500D02*
X5934000Y-9441500D01*
X6386000Y-10265000D02*
X6386000Y-9441500D01*
G04 #@! TO.C,C2*
X6768500Y-10994000D02*
X5945000Y-10994000D01*
X6768500Y-11446000D02*
X6768500Y-10994000D01*
X5945000Y-11446000D02*
X6768500Y-11446000D01*
G04 #@! TO.C,J48*
X11733000Y-8233000D02*
X11600000Y-8233000D01*
X11733000Y-8100000D02*
X11733000Y-8233000D01*
X11733000Y-7973000D02*
X11467000Y-7973000D01*
X11467000Y-7973000D02*
X11467000Y-7205000D01*
X11733000Y-7973000D02*
X11733000Y-7205000D01*
X11733000Y-7205000D02*
X11467000Y-7205000D01*
G04 #@! TO.C,D2*
X6232000Y-10826000D02*
X6232000Y-10680000D01*
X6548000Y-10826000D02*
X6548000Y-10610000D01*
X6548000Y-10826000D02*
X6455000Y-10826000D01*
X6232000Y-10826000D02*
X6325000Y-10826000D01*
D13*
G04 #@! TO.C,U1*
X7352500Y-10782500D02*
X7352500Y-10642500D01*
X6842500Y-10782500D02*
X6842500Y-11197500D01*
X7357500Y-10782500D02*
X7357500Y-11197500D01*
X6842500Y-10782500D02*
X6857000Y-10782500D01*
X6842500Y-11197500D02*
X6857000Y-11197500D01*
X7357500Y-11197500D02*
X7343000Y-11197500D01*
X7357500Y-10782500D02*
X7352500Y-10782500D01*
D12*
G04 #@! TO.C,U2*
X5524650Y-10740000D02*
X5524650Y-10860000D01*
X5124650Y-10740000D02*
X5524650Y-10740000D01*
X5524650Y-11220000D02*
X5254650Y-11220000D01*
X5524650Y-11100000D02*
X5524650Y-11220000D01*
G04 #@! TO.C,R1*
X7143875Y-11571000D02*
X7196125Y-11571000D01*
X7143875Y-11429000D02*
X7196125Y-11429000D01*
G04 #@! TO.C,R3*
X6171000Y-10796125D02*
X6171000Y-10743875D01*
X6029000Y-10796125D02*
X6029000Y-10743875D01*
G04 #@! TO.C,R4*
X6751000Y-10796125D02*
X6751000Y-10743875D01*
X6609000Y-10796125D02*
X6609000Y-10743875D01*
G04 #@! TO.C,R60*
X5851000Y-8106125D02*
X5851000Y-8053875D01*
X5709000Y-8106125D02*
X5709000Y-8053875D01*
G04 #@! TO.C,R70*
X12073875Y-7071000D02*
X12126125Y-7071000D01*
X12073875Y-6929000D02*
X12126125Y-6929000D01*
G04 #@! TO.C,R71*
X12073875Y-7471000D02*
X12126125Y-7471000D01*
X12073875Y-7329000D02*
X12126125Y-7329000D01*
G04 #@! TO.C,R72*
X12073875Y-7871000D02*
X12126125Y-7871000D01*
X12073875Y-7729000D02*
X12126125Y-7729000D01*
G04 #@! TO.C,R73*
X5279000Y-11973875D02*
X5279000Y-12026125D01*
X5421000Y-11973875D02*
X5421000Y-12026125D01*
G04 #@! TO.C,R67*
X9673875Y-8501000D02*
X9726125Y-8501000D01*
X9673875Y-8359000D02*
X9726125Y-8359000D01*
G04 #@! TO.C,R50*
X7566125Y-7149000D02*
X7513875Y-7149000D01*
X7566125Y-7291000D02*
X7513875Y-7291000D01*
G04 #@! TO.C,R51*
X7566125Y-6959000D02*
X7513875Y-6959000D01*
X7566125Y-7101000D02*
X7513875Y-7101000D01*
G04 #@! TO.C,R54*
X7566125Y-7339000D02*
X7513875Y-7339000D01*
X7566125Y-7481000D02*
X7513875Y-7481000D01*
G04 #@! TO.C,R55*
X7566125Y-7719000D02*
X7513875Y-7719000D01*
X7566125Y-7861000D02*
X7513875Y-7861000D01*
G04 #@! TO.C,R56*
X7566125Y-7529000D02*
X7513875Y-7529000D01*
X7566125Y-7671000D02*
X7513875Y-7671000D01*
G04 #@! TO.C,R57*
X7566125Y-7909000D02*
X7513875Y-7909000D01*
X7566125Y-8051000D02*
X7513875Y-8051000D01*
G04 #@! TO.C,R62*
X5906125Y-7339000D02*
X5853875Y-7339000D01*
X5906125Y-7481000D02*
X5853875Y-7481000D01*
G04 #@! TO.C,R63*
X7566125Y-8099000D02*
X7513875Y-8099000D01*
X7566125Y-8241000D02*
X7513875Y-8241000D01*
G04 #@! TO.C,R64*
X5906125Y-7529000D02*
X5853875Y-7529000D01*
X5906125Y-7671000D02*
X5853875Y-7671000D01*
G04 #@! TO.C,R65*
X5906125Y-7719000D02*
X5853875Y-7719000D01*
X5906125Y-7861000D02*
X5853875Y-7861000D01*
G04 #@! TO.C,J47*
X8130000Y-6338000D02*
X8130000Y-6098000D01*
X8370000Y-6338000D02*
X8130000Y-6338000D01*
X8370000Y-6098000D02*
X8370000Y-6338000D01*
X8130000Y-6098000D02*
X8370000Y-6098000D01*
G04 #@! TO.C,J43*
X8130000Y-6846000D02*
X8130000Y-6606000D01*
X8370000Y-6846000D02*
X8130000Y-6846000D01*
X8370000Y-6606000D02*
X8370000Y-6846000D01*
X8130000Y-6606000D02*
X8370000Y-6606000D01*
G04 #@! TO.C,J50*
X5484000Y-12470000D02*
X5484000Y-12230000D01*
X5724000Y-12470000D02*
X5484000Y-12470000D01*
X5724000Y-12230000D02*
X5724000Y-12470000D01*
X5484000Y-12230000D02*
X5724000Y-12230000D01*
G04 #@! TO.C,J49*
X6246000Y-12470000D02*
X6246000Y-12230000D01*
X6486000Y-12470000D02*
X6246000Y-12470000D01*
X6486000Y-12230000D02*
X6486000Y-12470000D01*
X6246000Y-12230000D02*
X6486000Y-12230000D01*
G04 #@! TO.C,J1*
X7262000Y-12470000D02*
X7262000Y-12230000D01*
X7502000Y-12470000D02*
X7262000Y-12470000D01*
X7502000Y-12230000D02*
X7502000Y-12470000D01*
X7262000Y-12230000D02*
X7502000Y-12230000D01*
G04 #@! TO.C,J2*
X7262000Y-8970000D02*
X7262000Y-8730000D01*
X7502000Y-8970000D02*
X7262000Y-8970000D01*
X7502000Y-8730000D02*
X7502000Y-8970000D01*
X7262000Y-8730000D02*
X7502000Y-8730000D01*
G04 #@! TO.C,J4*
X5738000Y-8970000D02*
X5738000Y-8730000D01*
X5978000Y-8970000D02*
X5738000Y-8970000D01*
X5978000Y-8730000D02*
X5978000Y-8970000D01*
X5738000Y-8730000D02*
X5978000Y-8730000D01*
G04 #@! TO.C,J6*
X6246000Y-8970000D02*
X6246000Y-8730000D01*
X6486000Y-8970000D02*
X6246000Y-8970000D01*
X6486000Y-8730000D02*
X6486000Y-8970000D01*
X6246000Y-8730000D02*
X6486000Y-8730000D01*
G04 #@! TO.C,J7*
X5230000Y-8970000D02*
X5230000Y-8730000D01*
X5470000Y-8970000D02*
X5230000Y-8970000D01*
X5470000Y-8730000D02*
X5470000Y-8970000D01*
X5230000Y-8730000D02*
X5470000Y-8730000D01*
G04 #@! TO.C,J45*
X8130000Y-6592000D02*
X8130000Y-6352000D01*
X8370000Y-6592000D02*
X8130000Y-6592000D01*
X8370000Y-6352000D02*
X8370000Y-6592000D01*
X8130000Y-6352000D02*
X8370000Y-6352000D01*
G04 #@! TO.C,J46*
X8130000Y-8116000D02*
X8130000Y-7876000D01*
X8370000Y-8116000D02*
X8130000Y-8116000D01*
X8370000Y-7876000D02*
X8370000Y-8116000D01*
X8130000Y-7876000D02*
X8370000Y-7876000D01*
G04 #@! TO.C,J5*
X5992000Y-8970000D02*
X5992000Y-8730000D01*
X6232000Y-8970000D02*
X5992000Y-8970000D01*
X6232000Y-8730000D02*
X6232000Y-8970000D01*
X5992000Y-8730000D02*
X6232000Y-8730000D01*
G04 #@! TO.C,J44*
X8130000Y-8370000D02*
X8130000Y-8130000D01*
X8370000Y-8370000D02*
X8130000Y-8370000D01*
X8370000Y-8130000D02*
X8370000Y-8370000D01*
X8130000Y-8130000D02*
X8370000Y-8130000D01*
D13*
G04 #@! TO.C,L1*
X6650000Y-9250000D02*
X6650000Y-9450000D01*
X7650000Y-9250000D02*
X6650000Y-9250000D01*
X7650000Y-9450000D02*
X7650000Y-9250000D01*
X7650000Y-10450000D02*
X7650000Y-10250000D01*
X6650000Y-10450000D02*
X6650000Y-10250000D01*
X7650000Y-10450000D02*
X6650000Y-10450000D01*
D12*
G04 #@! TO.C,J54*
X15538000Y-12470000D02*
X15538000Y-12230000D01*
X15778000Y-12470000D02*
X15538000Y-12470000D01*
X15778000Y-12230000D02*
X15778000Y-12470000D01*
X15538000Y-12230000D02*
X15778000Y-12230000D01*
G04 #@! TO.C,J60*
X16046000Y-8970000D02*
X16046000Y-8730000D01*
X16286000Y-8970000D02*
X16046000Y-8970000D01*
X16286000Y-8730000D02*
X16286000Y-8970000D01*
X16046000Y-8730000D02*
X16286000Y-8730000D01*
G04 #@! TO.C,J62*
X16046000Y-12470000D02*
X16046000Y-12230000D01*
X16286000Y-12470000D02*
X16046000Y-12470000D01*
X16286000Y-12230000D02*
X16286000Y-12470000D01*
X16046000Y-12230000D02*
X16286000Y-12230000D01*
D11*
G04 #@! TO.C,U6*
X15240000Y-9950000D02*
X15240000Y-9970000D01*
X15240000Y-10630000D02*
X15240000Y-10610000D01*
X15240000Y-10630000D02*
X15790000Y-10630000D01*
X15790000Y-9950000D02*
X15240000Y-9950000D01*
X15790000Y-10630000D02*
X15790000Y-9950000D01*
D12*
G04 #@! TO.C,J29*
X16733000Y-10983000D02*
X16600000Y-10983000D01*
X16733000Y-10850000D02*
X16733000Y-10983000D01*
X16473000Y-10983000D02*
X16213000Y-10983000D01*
X16473000Y-10723000D02*
X16473000Y-10983000D01*
X16733000Y-10723000D02*
X16473000Y-10723000D01*
X16213000Y-10983000D02*
X16213000Y-9193000D01*
X16733000Y-10723000D02*
X16733000Y-9193000D01*
X16733000Y-9193000D02*
X16213000Y-9193000D01*
G04 #@! TO.C,J32*
X16554000Y-8970000D02*
X16554000Y-8730000D01*
X16794000Y-8970000D02*
X16554000Y-8970000D01*
X16794000Y-8730000D02*
X16794000Y-8970000D01*
X16554000Y-8730000D02*
X16794000Y-8730000D01*
G04 #@! TO.C,J33*
X16554000Y-12470000D02*
X16554000Y-12230000D01*
X16794000Y-12470000D02*
X16554000Y-12470000D01*
X16794000Y-12230000D02*
X16794000Y-12470000D01*
X16554000Y-12230000D02*
X16794000Y-12230000D01*
G04 #@! TO.C,J38*
X15538000Y-8970000D02*
X15538000Y-8730000D01*
X15778000Y-8970000D02*
X15538000Y-8970000D01*
X15778000Y-8730000D02*
X15778000Y-8970000D01*
X15538000Y-8730000D02*
X15778000Y-8730000D01*
G04 #@! TO.C,J39*
X15030000Y-12470000D02*
X15030000Y-12230000D01*
X15270000Y-12470000D02*
X15030000Y-12470000D01*
X15270000Y-12230000D02*
X15270000Y-12470000D01*
X15030000Y-12230000D02*
X15270000Y-12230000D01*
G04 #@! TO.C,J41*
X15030000Y-8970000D02*
X15030000Y-8730000D01*
X15270000Y-8970000D02*
X15030000Y-8970000D01*
X15270000Y-8730000D02*
X15270000Y-8970000D01*
X15030000Y-8730000D02*
X15270000Y-8730000D01*
G04 #@! TO.C,C15*
X16138500Y-9194000D02*
X15315000Y-9194000D01*
X16138500Y-9646000D02*
X16138500Y-9194000D01*
X15315000Y-9646000D02*
X16138500Y-9646000D01*
G04 #@! TO.C,C16*
X16214000Y-11141500D02*
X16214000Y-11965000D01*
X16666000Y-11141500D02*
X16214000Y-11141500D01*
X16666000Y-11965000D02*
X16666000Y-11141500D01*
G04 #@! TO.C,J53*
X13238000Y-12470000D02*
X13238000Y-12230000D01*
X13478000Y-12470000D02*
X13238000Y-12470000D01*
X13478000Y-12230000D02*
X13478000Y-12470000D01*
X13238000Y-12230000D02*
X13478000Y-12230000D01*
G04 #@! TO.C,J59*
X13746000Y-8970000D02*
X13746000Y-8730000D01*
X13986000Y-8970000D02*
X13746000Y-8970000D01*
X13986000Y-8730000D02*
X13986000Y-8970000D01*
X13746000Y-8730000D02*
X13986000Y-8730000D01*
G04 #@! TO.C,J61*
X13746000Y-12470000D02*
X13746000Y-12230000D01*
X13986000Y-12470000D02*
X13746000Y-12470000D01*
X13986000Y-12230000D02*
X13986000Y-12470000D01*
X13746000Y-12230000D02*
X13986000Y-12230000D01*
D11*
G04 #@! TO.C,U5*
X12940000Y-9950000D02*
X12940000Y-9970000D01*
X12940000Y-10630000D02*
X12940000Y-10610000D01*
X12940000Y-10630000D02*
X13490000Y-10630000D01*
X13490000Y-9950000D02*
X12940000Y-9950000D01*
X13490000Y-10630000D02*
X13490000Y-9950000D01*
D12*
G04 #@! TO.C,J28*
X14433000Y-10983000D02*
X14300000Y-10983000D01*
X14433000Y-10850000D02*
X14433000Y-10983000D01*
X14173000Y-10983000D02*
X13913000Y-10983000D01*
X14173000Y-10723000D02*
X14173000Y-10983000D01*
X14433000Y-10723000D02*
X14173000Y-10723000D01*
X13913000Y-10983000D02*
X13913000Y-9193000D01*
X14433000Y-10723000D02*
X14433000Y-9193000D01*
X14433000Y-9193000D02*
X13913000Y-9193000D01*
G04 #@! TO.C,J30*
X14254000Y-8970000D02*
X14254000Y-8730000D01*
X14494000Y-8970000D02*
X14254000Y-8970000D01*
X14494000Y-8730000D02*
X14494000Y-8970000D01*
X14254000Y-8730000D02*
X14494000Y-8730000D01*
G04 #@! TO.C,J31*
X14254000Y-12470000D02*
X14254000Y-12230000D01*
X14494000Y-12470000D02*
X14254000Y-12470000D01*
X14494000Y-12230000D02*
X14494000Y-12470000D01*
X14254000Y-12230000D02*
X14494000Y-12230000D01*
G04 #@! TO.C,J36*
X13238000Y-8970000D02*
X13238000Y-8730000D01*
X13478000Y-8970000D02*
X13238000Y-8970000D01*
X13478000Y-8730000D02*
X13478000Y-8970000D01*
X13238000Y-8730000D02*
X13478000Y-8730000D01*
G04 #@! TO.C,J37*
X12730000Y-12470000D02*
X12730000Y-12230000D01*
X12970000Y-12470000D02*
X12730000Y-12470000D01*
X12970000Y-12230000D02*
X12970000Y-12470000D01*
X12730000Y-12230000D02*
X12970000Y-12230000D01*
G04 #@! TO.C,J40*
X12730000Y-8970000D02*
X12730000Y-8730000D01*
X12970000Y-8970000D02*
X12730000Y-8970000D01*
X12970000Y-8730000D02*
X12970000Y-8970000D01*
X12730000Y-8730000D02*
X12970000Y-8730000D01*
G04 #@! TO.C,C13*
X13838500Y-9194000D02*
X13015000Y-9194000D01*
X13838500Y-9646000D02*
X13838500Y-9194000D01*
X13015000Y-9646000D02*
X13838500Y-9646000D01*
G04 #@! TO.C,C14*
X13914000Y-11141500D02*
X13914000Y-11965000D01*
X14366000Y-11141500D02*
X13914000Y-11141500D01*
X14366000Y-11965000D02*
X14366000Y-11141500D01*
G04 #@! TO.C,J52*
X10938000Y-12470000D02*
X10938000Y-12230000D01*
X11178000Y-12470000D02*
X10938000Y-12470000D01*
X11178000Y-12230000D02*
X11178000Y-12470000D01*
X10938000Y-12230000D02*
X11178000Y-12230000D01*
G04 #@! TO.C,J56*
X11446000Y-8970000D02*
X11446000Y-8730000D01*
X11686000Y-8970000D02*
X11446000Y-8970000D01*
X11686000Y-8730000D02*
X11686000Y-8970000D01*
X11446000Y-8730000D02*
X11686000Y-8730000D01*
G04 #@! TO.C,J58*
X11446000Y-12470000D02*
X11446000Y-12230000D01*
X11686000Y-12470000D02*
X11446000Y-12470000D01*
X11686000Y-12230000D02*
X11686000Y-12470000D01*
X11446000Y-12230000D02*
X11686000Y-12230000D01*
D11*
G04 #@! TO.C,U4*
X10640000Y-9950000D02*
X10640000Y-9970000D01*
X10640000Y-10630000D02*
X10640000Y-10610000D01*
X10640000Y-10630000D02*
X11190000Y-10630000D01*
X11190000Y-9950000D02*
X10640000Y-9950000D01*
X11190000Y-10630000D02*
X11190000Y-9950000D01*
D12*
G04 #@! TO.C,J15*
X12133000Y-10983000D02*
X12000000Y-10983000D01*
X12133000Y-10850000D02*
X12133000Y-10983000D01*
X11873000Y-10983000D02*
X11613000Y-10983000D01*
X11873000Y-10723000D02*
X11873000Y-10983000D01*
X12133000Y-10723000D02*
X11873000Y-10723000D01*
X11613000Y-10983000D02*
X11613000Y-9193000D01*
X12133000Y-10723000D02*
X12133000Y-9193000D01*
X12133000Y-9193000D02*
X11613000Y-9193000D01*
G04 #@! TO.C,J18*
X11954000Y-8970000D02*
X11954000Y-8730000D01*
X12194000Y-8970000D02*
X11954000Y-8970000D01*
X12194000Y-8730000D02*
X12194000Y-8970000D01*
X11954000Y-8730000D02*
X12194000Y-8730000D01*
G04 #@! TO.C,J19*
X11954000Y-12470000D02*
X11954000Y-12230000D01*
X12194000Y-12470000D02*
X11954000Y-12470000D01*
X12194000Y-12230000D02*
X12194000Y-12470000D01*
X11954000Y-12230000D02*
X12194000Y-12230000D01*
G04 #@! TO.C,J24*
X10938000Y-8970000D02*
X10938000Y-8730000D01*
X11178000Y-8970000D02*
X10938000Y-8970000D01*
X11178000Y-8730000D02*
X11178000Y-8970000D01*
X10938000Y-8730000D02*
X11178000Y-8730000D01*
G04 #@! TO.C,J25*
X10430000Y-12470000D02*
X10430000Y-12230000D01*
X10670000Y-12470000D02*
X10430000Y-12470000D01*
X10670000Y-12230000D02*
X10670000Y-12470000D01*
X10430000Y-12230000D02*
X10670000Y-12230000D01*
G04 #@! TO.C,J27*
X10430000Y-8970000D02*
X10430000Y-8730000D01*
X10670000Y-8970000D02*
X10430000Y-8970000D01*
X10670000Y-8730000D02*
X10670000Y-8970000D01*
X10430000Y-8730000D02*
X10670000Y-8730000D01*
G04 #@! TO.C,C11*
X11538500Y-9194000D02*
X10715000Y-9194000D01*
X11538500Y-9646000D02*
X11538500Y-9194000D01*
X10715000Y-9646000D02*
X11538500Y-9646000D01*
G04 #@! TO.C,C12*
X11614000Y-11141500D02*
X11614000Y-11965000D01*
X12066000Y-11141500D02*
X11614000Y-11141500D01*
X12066000Y-11965000D02*
X12066000Y-11141500D01*
G04 #@! TO.C,J55*
X9146000Y-8970000D02*
X9146000Y-8730000D01*
X9386000Y-8970000D02*
X9146000Y-8970000D01*
X9386000Y-8730000D02*
X9386000Y-8970000D01*
X9146000Y-8730000D02*
X9386000Y-8730000D01*
G04 #@! TO.C,J57*
X9146000Y-12470000D02*
X9146000Y-12230000D01*
X9386000Y-12470000D02*
X9146000Y-12470000D01*
X9386000Y-12230000D02*
X9386000Y-12470000D01*
X9146000Y-12230000D02*
X9386000Y-12230000D01*
G04 #@! TO.C,J51*
X8638000Y-12470000D02*
X8638000Y-12230000D01*
X8878000Y-12470000D02*
X8638000Y-12470000D01*
X8878000Y-12230000D02*
X8878000Y-12470000D01*
X8638000Y-12230000D02*
X8878000Y-12230000D01*
D11*
G04 #@! TO.C,U3*
X8340000Y-9950000D02*
X8340000Y-9970000D01*
X8340000Y-10630000D02*
X8340000Y-10610000D01*
X8340000Y-10630000D02*
X8890000Y-10630000D01*
X8890000Y-9950000D02*
X8340000Y-9950000D01*
X8890000Y-10630000D02*
X8890000Y-9950000D01*
D12*
G04 #@! TO.C,C10*
X9314000Y-11141500D02*
X9314000Y-11965000D01*
X9766000Y-11141500D02*
X9314000Y-11141500D01*
X9766000Y-11965000D02*
X9766000Y-11141500D01*
G04 #@! TO.C,C9*
X9238500Y-9194000D02*
X8415000Y-9194000D01*
X9238500Y-9646000D02*
X9238500Y-9194000D01*
X8415000Y-9646000D02*
X9238500Y-9646000D01*
G04 #@! TO.C,J14*
X9833000Y-10983000D02*
X9700000Y-10983000D01*
X9833000Y-10850000D02*
X9833000Y-10983000D01*
X9573000Y-10983000D02*
X9313000Y-10983000D01*
X9573000Y-10723000D02*
X9573000Y-10983000D01*
X9833000Y-10723000D02*
X9573000Y-10723000D01*
X9313000Y-10983000D02*
X9313000Y-9193000D01*
X9833000Y-10723000D02*
X9833000Y-9193000D01*
X9833000Y-9193000D02*
X9313000Y-9193000D01*
G04 #@! TO.C,U7*
X6344000Y-7344000D02*
X6344000Y-7386000D01*
X7056000Y-7344000D02*
X7014000Y-7344000D01*
X7014000Y-7344000D02*
X7014000Y-7206000D01*
X7056000Y-8056000D02*
X7056000Y-8014000D01*
X6344000Y-8056000D02*
X6344000Y-8014000D01*
X7056000Y-7344000D02*
X7056000Y-7386000D01*
X6344000Y-7344000D02*
X6386000Y-7344000D01*
X6344000Y-8056000D02*
X6386000Y-8056000D01*
X7056000Y-8056000D02*
X7014000Y-8056000D01*
D13*
G04 #@! TO.C,U8*
X10817500Y-6882500D02*
X10817500Y-6780000D01*
X10917500Y-7917500D02*
X10917500Y-7810000D01*
X9882500Y-7917500D02*
X9882500Y-7810000D01*
X9882500Y-6882500D02*
X9882500Y-6990000D01*
X10917500Y-6882500D02*
X10917500Y-6990000D01*
X9882500Y-6882500D02*
X9990000Y-6882500D01*
X9882500Y-7917500D02*
X9990000Y-7917500D01*
X10917500Y-7917500D02*
X10810000Y-7917500D01*
X10917500Y-6882500D02*
X10817500Y-6882500D01*
D12*
G04 #@! TO.C,J26*
X8130000Y-8970000D02*
X8130000Y-8730000D01*
X8370000Y-8970000D02*
X8130000Y-8970000D01*
X8370000Y-8730000D02*
X8370000Y-8970000D01*
X8130000Y-8730000D02*
X8370000Y-8730000D01*
G04 #@! TO.C,J23*
X8130000Y-12470000D02*
X8130000Y-12230000D01*
X8370000Y-12470000D02*
X8130000Y-12470000D01*
X8370000Y-12230000D02*
X8370000Y-12470000D01*
X8130000Y-12230000D02*
X8370000Y-12230000D01*
G04 #@! TO.C,J22*
X8638000Y-8970000D02*
X8638000Y-8730000D01*
X8878000Y-8970000D02*
X8638000Y-8970000D01*
X8878000Y-8730000D02*
X8878000Y-8970000D01*
X8638000Y-8730000D02*
X8878000Y-8730000D01*
G04 #@! TO.C,J17*
X9654000Y-12470000D02*
X9654000Y-12230000D01*
X9894000Y-12470000D02*
X9654000Y-12470000D01*
X9894000Y-12230000D02*
X9894000Y-12470000D01*
X9654000Y-12230000D02*
X9894000Y-12230000D01*
G04 #@! TO.C,J16*
X9654000Y-8970000D02*
X9654000Y-8730000D01*
X9894000Y-8970000D02*
X9654000Y-8970000D01*
X9894000Y-8730000D02*
X9894000Y-8970000D01*
X9654000Y-8730000D02*
X9894000Y-8730000D01*
D14*
G04 #@! TO.C,G\002A\002A\002A*
G36*
X15875566Y-8428904D02*
X15882932Y-8425094D01*
X15899442Y-8414680D01*
X15922810Y-8399440D01*
X15950242Y-8380898D01*
X15978182Y-8362102D01*
X16000788Y-8346862D01*
X16016790Y-8336702D01*
X16023394Y-8332892D01*
X16027204Y-8334162D01*
X16040412Y-8340512D01*
X16059462Y-8350418D01*
X16070384Y-8356260D01*
X16088164Y-8363880D01*
X16096800Y-8365404D01*
X16098324Y-8362864D01*
X16104674Y-8349402D01*
X16114834Y-8326542D01*
X16128042Y-8296316D01*
X16143028Y-8260756D01*
X16159284Y-8222402D01*
X16175540Y-8183286D01*
X16191034Y-8145948D01*
X16204750Y-8112420D01*
X16215672Y-8085242D01*
X16223038Y-8066446D01*
X16225578Y-8058064D01*
X16224816Y-8056540D01*
X16215926Y-8047904D01*
X16200686Y-8036474D01*
X16167666Y-8009550D01*
X16134900Y-7968656D01*
X16114834Y-7922428D01*
X16108230Y-7870866D01*
X16114072Y-7823114D01*
X16132868Y-7777140D01*
X16164618Y-7735738D01*
X16203480Y-7705258D01*
X16248946Y-7685700D01*
X16300000Y-7679350D01*
X16348768Y-7684938D01*
X16395758Y-7703480D01*
X16436906Y-7734976D01*
X16454432Y-7755042D01*
X16478308Y-7796698D01*
X16492024Y-7841656D01*
X16493548Y-7853086D01*
X16491516Y-7902108D01*
X16477038Y-7949352D01*
X16451130Y-7991516D01*
X16415062Y-8026060D01*
X16410490Y-8029362D01*
X16393726Y-8041808D01*
X16382550Y-8050444D01*
X16373914Y-8057556D01*
X16436398Y-8208178D01*
X16446558Y-8232308D01*
X16463576Y-8273456D01*
X16478816Y-8309016D01*
X16490754Y-8337210D01*
X16499136Y-8356006D01*
X16502946Y-8363626D01*
X16503200Y-8364134D01*
X16508788Y-8364896D01*
X16520218Y-8360832D01*
X16541300Y-8350672D01*
X16555270Y-8343560D01*
X16571272Y-8335686D01*
X16578384Y-8332892D01*
X16584480Y-8336194D01*
X16599974Y-8346100D01*
X16622326Y-8361086D01*
X16649250Y-8379374D01*
X16674904Y-8396900D01*
X16698526Y-8412394D01*
X16715798Y-8423570D01*
X16723926Y-8427888D01*
X16725196Y-8427888D01*
X16732816Y-8423824D01*
X16746278Y-8412394D01*
X16766852Y-8393090D01*
X16795808Y-8364388D01*
X16800380Y-8360070D01*
X16824256Y-8335686D01*
X16843560Y-8315366D01*
X16856514Y-8300888D01*
X16861340Y-8294284D01*
X16857022Y-8286156D01*
X16846100Y-8268884D01*
X16830352Y-8245008D01*
X16811302Y-8217068D01*
X16761518Y-8144424D01*
X16788950Y-8076098D01*
X16797332Y-8055270D01*
X16808000Y-8029616D01*
X16815874Y-8011582D01*
X16819938Y-8003708D01*
X16827558Y-8000914D01*
X16846100Y-7996596D01*
X16873278Y-7991008D01*
X16905790Y-7984912D01*
X16936524Y-7979070D01*
X16964464Y-7973990D01*
X16984530Y-7969926D01*
X16993674Y-7968148D01*
X16995706Y-7966878D01*
X16997484Y-7962560D01*
X16998754Y-7953162D01*
X16999516Y-7936144D01*
X16999770Y-7909474D01*
X16999770Y-7870866D01*
X16999770Y-7866802D01*
X16999516Y-7829718D01*
X16998754Y-7800508D01*
X16997738Y-7781204D01*
X16996468Y-7773584D01*
X16987832Y-7771552D01*
X16968020Y-7767234D01*
X16940334Y-7761900D01*
X16907060Y-7755550D01*
X16905028Y-7755042D01*
X16871754Y-7748692D01*
X16844068Y-7743104D01*
X16824764Y-7738532D01*
X16816382Y-7735992D01*
X16814858Y-7733706D01*
X16808000Y-7720752D01*
X16798602Y-7700178D01*
X16787680Y-7675032D01*
X16776758Y-7649124D01*
X16767360Y-7625756D01*
X16761264Y-7608230D01*
X16759232Y-7600356D01*
X16759232Y-7600102D01*
X16764312Y-7592228D01*
X16775742Y-7575210D01*
X16791744Y-7551334D01*
X16811048Y-7523140D01*
X16812572Y-7520854D01*
X16831622Y-7492914D01*
X16847116Y-7469292D01*
X16857276Y-7452274D01*
X16861340Y-7444908D01*
X16861086Y-7444400D01*
X16854736Y-7436018D01*
X16840512Y-7420016D01*
X16820192Y-7398680D01*
X16795554Y-7374042D01*
X16787934Y-7366422D01*
X16760756Y-7339752D01*
X16741706Y-7322480D01*
X16730022Y-7313082D01*
X16724434Y-7311050D01*
X16724180Y-7311304D01*
X16715798Y-7316384D01*
X16698018Y-7327814D01*
X16674142Y-7344070D01*
X16645694Y-7363374D01*
X16643662Y-7364644D01*
X16615722Y-7383694D01*
X16592354Y-7399442D01*
X16575844Y-7410618D01*
X16568732Y-7414936D01*
X16567462Y-7414936D01*
X16556032Y-7411634D01*
X16536220Y-7404522D01*
X16511582Y-7395124D01*
X16485674Y-7384710D01*
X16462306Y-7374804D01*
X16444526Y-7366676D01*
X16436144Y-7362104D01*
X16435890Y-7361596D01*
X16433096Y-7351436D01*
X16428270Y-7330608D01*
X16422174Y-7301652D01*
X16415824Y-7267616D01*
X16414808Y-7262028D01*
X16408458Y-7228754D01*
X16403124Y-7201068D01*
X16399060Y-7182018D01*
X16397282Y-7174144D01*
X16392456Y-7173128D01*
X16376200Y-7171858D01*
X16351308Y-7171350D01*
X16321082Y-7170842D01*
X16289332Y-7171096D01*
X16258344Y-7171858D01*
X16231928Y-7172874D01*
X16213132Y-7174144D01*
X16205258Y-7175668D01*
X16205004Y-7176176D01*
X16201956Y-7186336D01*
X16197384Y-7207418D01*
X16191542Y-7236374D01*
X16184938Y-7270664D01*
X16183922Y-7276760D01*
X16177572Y-7310034D01*
X16171984Y-7337466D01*
X16167920Y-7356008D01*
X16165888Y-7363374D01*
X16162840Y-7365152D01*
X16149124Y-7370994D01*
X16126772Y-7380392D01*
X16099086Y-7391568D01*
X16035078Y-7417476D01*
X15956592Y-7363628D01*
X15949226Y-7358802D01*
X15921032Y-7339498D01*
X15897918Y-7324004D01*
X15881662Y-7313590D01*
X15875058Y-7309780D01*
X15874550Y-7310034D01*
X15866676Y-7316892D01*
X15850928Y-7331624D01*
X15829846Y-7352198D01*
X15804954Y-7376836D01*
X15786666Y-7395124D01*
X15765076Y-7417222D01*
X15751360Y-7431954D01*
X15743994Y-7441606D01*
X15741200Y-7447194D01*
X15741962Y-7451004D01*
X15747042Y-7459132D01*
X15758472Y-7476404D01*
X15774728Y-7500280D01*
X15793778Y-7527966D01*
X15809526Y-7551334D01*
X15826544Y-7577750D01*
X15837720Y-7596546D01*
X15841530Y-7605690D01*
X15840514Y-7609500D01*
X15835180Y-7624994D01*
X15825782Y-7648108D01*
X15813844Y-7675794D01*
X15786666Y-7738024D01*
X15745772Y-7745898D01*
X15721134Y-7750470D01*
X15686590Y-7757074D01*
X15653570Y-7763678D01*
X15602008Y-7773584D01*
X15599976Y-7963322D01*
X15608104Y-7966878D01*
X15615724Y-7968910D01*
X15634774Y-7972974D01*
X15662206Y-7978562D01*
X15694210Y-7984658D01*
X15721896Y-7989738D01*
X15749328Y-7995072D01*
X15769140Y-7998882D01*
X15778030Y-8000660D01*
X15780316Y-8003708D01*
X15787174Y-8017170D01*
X15797080Y-8038252D01*
X15808002Y-8063906D01*
X15819178Y-8090576D01*
X15828830Y-8114960D01*
X15835688Y-8133756D01*
X15838228Y-8143408D01*
X15834418Y-8150520D01*
X15824004Y-8166776D01*
X15808764Y-8190144D01*
X15789968Y-8217576D01*
X15771172Y-8245008D01*
X15755170Y-8268376D01*
X15744248Y-8285394D01*
X15739676Y-8293014D01*
X15741962Y-8298348D01*
X15752884Y-8311556D01*
X15773712Y-8333146D01*
X15804446Y-8363626D01*
X15809526Y-8368706D01*
X15834164Y-8392074D01*
X15854738Y-8411124D01*
X15869216Y-8424078D01*
X15875566Y-8428904D01*
X15875566Y-8428904D01*
G37*
X15875566Y-8428904D02*
X15882932Y-8425094D01*
X15899442Y-8414680D01*
X15922810Y-8399440D01*
X15950242Y-8380898D01*
X15978182Y-8362102D01*
X16000788Y-8346862D01*
X16016790Y-8336702D01*
X16023394Y-8332892D01*
X16027204Y-8334162D01*
X16040412Y-8340512D01*
X16059462Y-8350418D01*
X16070384Y-8356260D01*
X16088164Y-8363880D01*
X16096800Y-8365404D01*
X16098324Y-8362864D01*
X16104674Y-8349402D01*
X16114834Y-8326542D01*
X16128042Y-8296316D01*
X16143028Y-8260756D01*
X16159284Y-8222402D01*
X16175540Y-8183286D01*
X16191034Y-8145948D01*
X16204750Y-8112420D01*
X16215672Y-8085242D01*
X16223038Y-8066446D01*
X16225578Y-8058064D01*
X16224816Y-8056540D01*
X16215926Y-8047904D01*
X16200686Y-8036474D01*
X16167666Y-8009550D01*
X16134900Y-7968656D01*
X16114834Y-7922428D01*
X16108230Y-7870866D01*
X16114072Y-7823114D01*
X16132868Y-7777140D01*
X16164618Y-7735738D01*
X16203480Y-7705258D01*
X16248946Y-7685700D01*
X16300000Y-7679350D01*
X16348768Y-7684938D01*
X16395758Y-7703480D01*
X16436906Y-7734976D01*
X16454432Y-7755042D01*
X16478308Y-7796698D01*
X16492024Y-7841656D01*
X16493548Y-7853086D01*
X16491516Y-7902108D01*
X16477038Y-7949352D01*
X16451130Y-7991516D01*
X16415062Y-8026060D01*
X16410490Y-8029362D01*
X16393726Y-8041808D01*
X16382550Y-8050444D01*
X16373914Y-8057556D01*
X16436398Y-8208178D01*
X16446558Y-8232308D01*
X16463576Y-8273456D01*
X16478816Y-8309016D01*
X16490754Y-8337210D01*
X16499136Y-8356006D01*
X16502946Y-8363626D01*
X16503200Y-8364134D01*
X16508788Y-8364896D01*
X16520218Y-8360832D01*
X16541300Y-8350672D01*
X16555270Y-8343560D01*
X16571272Y-8335686D01*
X16578384Y-8332892D01*
X16584480Y-8336194D01*
X16599974Y-8346100D01*
X16622326Y-8361086D01*
X16649250Y-8379374D01*
X16674904Y-8396900D01*
X16698526Y-8412394D01*
X16715798Y-8423570D01*
X16723926Y-8427888D01*
X16725196Y-8427888D01*
X16732816Y-8423824D01*
X16746278Y-8412394D01*
X16766852Y-8393090D01*
X16795808Y-8364388D01*
X16800380Y-8360070D01*
X16824256Y-8335686D01*
X16843560Y-8315366D01*
X16856514Y-8300888D01*
X16861340Y-8294284D01*
X16857022Y-8286156D01*
X16846100Y-8268884D01*
X16830352Y-8245008D01*
X16811302Y-8217068D01*
X16761518Y-8144424D01*
X16788950Y-8076098D01*
X16797332Y-8055270D01*
X16808000Y-8029616D01*
X16815874Y-8011582D01*
X16819938Y-8003708D01*
X16827558Y-8000914D01*
X16846100Y-7996596D01*
X16873278Y-7991008D01*
X16905790Y-7984912D01*
X16936524Y-7979070D01*
X16964464Y-7973990D01*
X16984530Y-7969926D01*
X16993674Y-7968148D01*
X16995706Y-7966878D01*
X16997484Y-7962560D01*
X16998754Y-7953162D01*
X16999516Y-7936144D01*
X16999770Y-7909474D01*
X16999770Y-7870866D01*
X16999770Y-7866802D01*
X16999516Y-7829718D01*
X16998754Y-7800508D01*
X16997738Y-7781204D01*
X16996468Y-7773584D01*
X16987832Y-7771552D01*
X16968020Y-7767234D01*
X16940334Y-7761900D01*
X16907060Y-7755550D01*
X16905028Y-7755042D01*
X16871754Y-7748692D01*
X16844068Y-7743104D01*
X16824764Y-7738532D01*
X16816382Y-7735992D01*
X16814858Y-7733706D01*
X16808000Y-7720752D01*
X16798602Y-7700178D01*
X16787680Y-7675032D01*
X16776758Y-7649124D01*
X16767360Y-7625756D01*
X16761264Y-7608230D01*
X16759232Y-7600356D01*
X16759232Y-7600102D01*
X16764312Y-7592228D01*
X16775742Y-7575210D01*
X16791744Y-7551334D01*
X16811048Y-7523140D01*
X16812572Y-7520854D01*
X16831622Y-7492914D01*
X16847116Y-7469292D01*
X16857276Y-7452274D01*
X16861340Y-7444908D01*
X16861086Y-7444400D01*
X16854736Y-7436018D01*
X16840512Y-7420016D01*
X16820192Y-7398680D01*
X16795554Y-7374042D01*
X16787934Y-7366422D01*
X16760756Y-7339752D01*
X16741706Y-7322480D01*
X16730022Y-7313082D01*
X16724434Y-7311050D01*
X16724180Y-7311304D01*
X16715798Y-7316384D01*
X16698018Y-7327814D01*
X16674142Y-7344070D01*
X16645694Y-7363374D01*
X16643662Y-7364644D01*
X16615722Y-7383694D01*
X16592354Y-7399442D01*
X16575844Y-7410618D01*
X16568732Y-7414936D01*
X16567462Y-7414936D01*
X16556032Y-7411634D01*
X16536220Y-7404522D01*
X16511582Y-7395124D01*
X16485674Y-7384710D01*
X16462306Y-7374804D01*
X16444526Y-7366676D01*
X16436144Y-7362104D01*
X16435890Y-7361596D01*
X16433096Y-7351436D01*
X16428270Y-7330608D01*
X16422174Y-7301652D01*
X16415824Y-7267616D01*
X16414808Y-7262028D01*
X16408458Y-7228754D01*
X16403124Y-7201068D01*
X16399060Y-7182018D01*
X16397282Y-7174144D01*
X16392456Y-7173128D01*
X16376200Y-7171858D01*
X16351308Y-7171350D01*
X16321082Y-7170842D01*
X16289332Y-7171096D01*
X16258344Y-7171858D01*
X16231928Y-7172874D01*
X16213132Y-7174144D01*
X16205258Y-7175668D01*
X16205004Y-7176176D01*
X16201956Y-7186336D01*
X16197384Y-7207418D01*
X16191542Y-7236374D01*
X16184938Y-7270664D01*
X16183922Y-7276760D01*
X16177572Y-7310034D01*
X16171984Y-7337466D01*
X16167920Y-7356008D01*
X16165888Y-7363374D01*
X16162840Y-7365152D01*
X16149124Y-7370994D01*
X16126772Y-7380392D01*
X16099086Y-7391568D01*
X16035078Y-7417476D01*
X15956592Y-7363628D01*
X15949226Y-7358802D01*
X15921032Y-7339498D01*
X15897918Y-7324004D01*
X15881662Y-7313590D01*
X15875058Y-7309780D01*
X15874550Y-7310034D01*
X15866676Y-7316892D01*
X15850928Y-7331624D01*
X15829846Y-7352198D01*
X15804954Y-7376836D01*
X15786666Y-7395124D01*
X15765076Y-7417222D01*
X15751360Y-7431954D01*
X15743994Y-7441606D01*
X15741200Y-7447194D01*
X15741962Y-7451004D01*
X15747042Y-7459132D01*
X15758472Y-7476404D01*
X15774728Y-7500280D01*
X15793778Y-7527966D01*
X15809526Y-7551334D01*
X15826544Y-7577750D01*
X15837720Y-7596546D01*
X15841530Y-7605690D01*
X15840514Y-7609500D01*
X15835180Y-7624994D01*
X15825782Y-7648108D01*
X15813844Y-7675794D01*
X15786666Y-7738024D01*
X15745772Y-7745898D01*
X15721134Y-7750470D01*
X15686590Y-7757074D01*
X15653570Y-7763678D01*
X15602008Y-7773584D01*
X15599976Y-7963322D01*
X15608104Y-7966878D01*
X15615724Y-7968910D01*
X15634774Y-7972974D01*
X15662206Y-7978562D01*
X15694210Y-7984658D01*
X15721896Y-7989738D01*
X15749328Y-7995072D01*
X15769140Y-7998882D01*
X15778030Y-8000660D01*
X15780316Y-8003708D01*
X15787174Y-8017170D01*
X15797080Y-8038252D01*
X15808002Y-8063906D01*
X15819178Y-8090576D01*
X15828830Y-8114960D01*
X15835688Y-8133756D01*
X15838228Y-8143408D01*
X15834418Y-8150520D01*
X15824004Y-8166776D01*
X15808764Y-8190144D01*
X15789968Y-8217576D01*
X15771172Y-8245008D01*
X15755170Y-8268376D01*
X15744248Y-8285394D01*
X15739676Y-8293014D01*
X15741962Y-8298348D01*
X15752884Y-8311556D01*
X15773712Y-8333146D01*
X15804446Y-8363626D01*
X15809526Y-8368706D01*
X15834164Y-8392074D01*
X15854738Y-8411124D01*
X15869216Y-8424078D01*
X15875566Y-8428904D01*
G04 #@! TO.C,D14*
D13*
X12378571Y-7610238D02*
X12378571Y-7510238D01*
X12402381Y-7510238D01*
X12416667Y-7515000D01*
X12426190Y-7524524D01*
X12430952Y-7534048D01*
X12435714Y-7553095D01*
X12435714Y-7567381D01*
X12430952Y-7586428D01*
X12426190Y-7595952D01*
X12416667Y-7605476D01*
X12402381Y-7610238D01*
X12378571Y-7610238D01*
X12530952Y-7610238D02*
X12473809Y-7610238D01*
X12502381Y-7610238D02*
X12502381Y-7510238D01*
X12492857Y-7524524D01*
X12483333Y-7534048D01*
X12473809Y-7538809D01*
X12616667Y-7543571D02*
X12616667Y-7610238D01*
X12592857Y-7505476D02*
X12569048Y-7576905D01*
X12630952Y-7576905D01*
G04 #@! TO.C,D13*
X12378571Y-7210238D02*
X12378571Y-7110238D01*
X12402381Y-7110238D01*
X12416667Y-7115000D01*
X12426190Y-7124524D01*
X12430952Y-7134048D01*
X12435714Y-7153095D01*
X12435714Y-7167381D01*
X12430952Y-7186428D01*
X12426190Y-7195952D01*
X12416667Y-7205476D01*
X12402381Y-7210238D01*
X12378571Y-7210238D01*
X12530952Y-7210238D02*
X12473809Y-7210238D01*
X12502381Y-7210238D02*
X12502381Y-7110238D01*
X12492857Y-7124524D01*
X12483333Y-7134048D01*
X12473809Y-7138809D01*
X12564286Y-7110238D02*
X12626190Y-7110238D01*
X12592857Y-7148333D01*
X12607143Y-7148333D01*
X12616667Y-7153095D01*
X12621428Y-7157857D01*
X12626190Y-7167381D01*
X12626190Y-7191190D01*
X12621428Y-7200714D01*
X12616667Y-7205476D01*
X12607143Y-7210238D01*
X12578571Y-7210238D01*
X12569048Y-7205476D01*
X12564286Y-7200714D01*
G04 #@! TO.C,D15*
X12378571Y-8010238D02*
X12378571Y-7910238D01*
X12402381Y-7910238D01*
X12416667Y-7915000D01*
X12426190Y-7924524D01*
X12430952Y-7934048D01*
X12435714Y-7953095D01*
X12435714Y-7967381D01*
X12430952Y-7986428D01*
X12426190Y-7995952D01*
X12416667Y-8005476D01*
X12402381Y-8010238D01*
X12378571Y-8010238D01*
X12530952Y-8010238D02*
X12473809Y-8010238D01*
X12502381Y-8010238D02*
X12502381Y-7910238D01*
X12492857Y-7924524D01*
X12483333Y-7934048D01*
X12473809Y-7938809D01*
X12621428Y-7910238D02*
X12573809Y-7910238D01*
X12569048Y-7957857D01*
X12573809Y-7953095D01*
X12583333Y-7948333D01*
X12607143Y-7948333D01*
X12616667Y-7953095D01*
X12621428Y-7957857D01*
X12626190Y-7967381D01*
X12626190Y-7991190D01*
X12621428Y-8000714D01*
X12616667Y-8005476D01*
X12607143Y-8010238D01*
X12583333Y-8010238D01*
X12573809Y-8005476D01*
X12569048Y-8000714D01*
G04 #@! TO.C,J42*
X7619048Y-5885238D02*
X7619048Y-5956667D01*
X7614286Y-5970952D01*
X7604762Y-5980476D01*
X7590476Y-5985238D01*
X7580952Y-5985238D01*
X7709524Y-5918571D02*
X7709524Y-5985238D01*
X7685714Y-5880476D02*
X7661905Y-5951905D01*
X7723809Y-5951905D01*
X7757143Y-5894762D02*
X7761905Y-5890000D01*
X7771428Y-5885238D01*
X7795238Y-5885238D01*
X7804762Y-5890000D01*
X7809524Y-5894762D01*
X7814286Y-5904286D01*
X7814286Y-5913809D01*
X7809524Y-5928095D01*
X7752381Y-5985238D01*
X7814286Y-5985238D01*
G04 #@! TO.C,L5*
X15065238Y-12036667D02*
X15065238Y-12084286D01*
X14965238Y-12084286D01*
X14965238Y-11955714D02*
X14965238Y-12003333D01*
X15012857Y-12008095D01*
X15008095Y-12003333D01*
X15003333Y-11993809D01*
X15003333Y-11970000D01*
X15008095Y-11960476D01*
X15012857Y-11955714D01*
X15022381Y-11950952D01*
X15046190Y-11950952D01*
X15055714Y-11955714D01*
X15060476Y-11960476D01*
X15065238Y-11970000D01*
X15065238Y-11993809D01*
X15060476Y-12003333D01*
X15055714Y-12008095D01*
G04 #@! TO.C,L4*
X12765238Y-12016667D02*
X12765238Y-12064286D01*
X12665238Y-12064286D01*
X12698571Y-11940476D02*
X12765238Y-11940476D01*
X12660476Y-11964286D02*
X12731905Y-11988095D01*
X12731905Y-11926190D01*
G04 #@! TO.C,L3*
X10455238Y-11996667D02*
X10455238Y-12044286D01*
X10355238Y-12044286D01*
X10355238Y-11972857D02*
X10355238Y-11910952D01*
X10393333Y-11944286D01*
X10393333Y-11930000D01*
X10398095Y-11920476D01*
X10402857Y-11915714D01*
X10412381Y-11910952D01*
X10436190Y-11910952D01*
X10445714Y-11915714D01*
X10450476Y-11920476D01*
X10455238Y-11930000D01*
X10455238Y-11958571D01*
X10450476Y-11968095D01*
X10445714Y-11972857D01*
G04 #@! TO.C,L2*
X8175238Y-12016667D02*
X8175238Y-12064286D01*
X8075238Y-12064286D01*
X8084762Y-11988095D02*
X8080000Y-11983333D01*
X8075238Y-11973809D01*
X8075238Y-11950000D01*
X8080000Y-11940476D01*
X8084762Y-11935714D01*
X8094286Y-11930952D01*
X8103809Y-11930952D01*
X8118095Y-11935714D01*
X8175238Y-11992857D01*
X8175238Y-11930952D01*
G04 #@! TO.C,F1*
X7336667Y-11822857D02*
X7303333Y-11822857D01*
X7303333Y-11875238D02*
X7303333Y-11775238D01*
X7350952Y-11775238D01*
X7441428Y-11875238D02*
X7384286Y-11875238D01*
X7412857Y-11875238D02*
X7412857Y-11775238D01*
X7403333Y-11789524D01*
X7393809Y-11799048D01*
X7384286Y-11803809D01*
G04 #@! TO.C,J67*
X15979048Y-5935238D02*
X15979048Y-6006667D01*
X15974286Y-6020952D01*
X15964762Y-6030476D01*
X15950476Y-6035238D01*
X15940952Y-6035238D01*
X16069524Y-5935238D02*
X16050476Y-5935238D01*
X16040952Y-5940000D01*
X16036190Y-5944762D01*
X16026667Y-5959048D01*
X16021905Y-5978095D01*
X16021905Y-6016190D01*
X16026667Y-6025714D01*
X16031428Y-6030476D01*
X16040952Y-6035238D01*
X16060000Y-6035238D01*
X16069524Y-6030476D01*
X16074286Y-6025714D01*
X16079048Y-6016190D01*
X16079048Y-5992381D01*
X16074286Y-5982857D01*
X16069524Y-5978095D01*
X16060000Y-5973333D01*
X16040952Y-5973333D01*
X16031428Y-5978095D01*
X16026667Y-5982857D01*
X16021905Y-5992381D01*
X16112381Y-5935238D02*
X16179048Y-5935238D01*
X16136190Y-6035238D01*
G04 #@! TO.C,J13*
X13979048Y-5935238D02*
X13979048Y-6006667D01*
X13974286Y-6020952D01*
X13964762Y-6030476D01*
X13950476Y-6035238D01*
X13940952Y-6035238D01*
X14079048Y-6035238D02*
X14021905Y-6035238D01*
X14050476Y-6035238D02*
X14050476Y-5935238D01*
X14040952Y-5949524D01*
X14031428Y-5959048D01*
X14021905Y-5963809D01*
X14112381Y-5935238D02*
X14174286Y-5935238D01*
X14140952Y-5973333D01*
X14155238Y-5973333D01*
X14164762Y-5978095D01*
X14169524Y-5982857D01*
X14174286Y-5992381D01*
X14174286Y-6016190D01*
X14169524Y-6025714D01*
X14164762Y-6030476D01*
X14155238Y-6035238D01*
X14126667Y-6035238D01*
X14117143Y-6030476D01*
X14112381Y-6025714D01*
G04 #@! TO.C,J8*
X12026667Y-5935238D02*
X12026667Y-6006667D01*
X12021905Y-6020952D01*
X12012381Y-6030476D01*
X11998095Y-6035238D01*
X11988571Y-6035238D01*
X12088571Y-5978095D02*
X12079048Y-5973333D01*
X12074286Y-5968571D01*
X12069524Y-5959048D01*
X12069524Y-5954286D01*
X12074286Y-5944762D01*
X12079048Y-5940000D01*
X12088571Y-5935238D01*
X12107619Y-5935238D01*
X12117143Y-5940000D01*
X12121905Y-5944762D01*
X12126667Y-5954286D01*
X12126667Y-5959048D01*
X12121905Y-5968571D01*
X12117143Y-5973333D01*
X12107619Y-5978095D01*
X12088571Y-5978095D01*
X12079048Y-5982857D01*
X12074286Y-5987619D01*
X12069524Y-5997143D01*
X12069524Y-6016190D01*
X12074286Y-6025714D01*
X12079048Y-6030476D01*
X12088571Y-6035238D01*
X12107619Y-6035238D01*
X12117143Y-6030476D01*
X12121905Y-6025714D01*
X12126667Y-6016190D01*
X12126667Y-5997143D01*
X12121905Y-5987619D01*
X12117143Y-5982857D01*
X12107619Y-5978095D01*
G04 #@! TO.C,J10*
X12979048Y-5935238D02*
X12979048Y-6006667D01*
X12974286Y-6020952D01*
X12964762Y-6030476D01*
X12950476Y-6035238D01*
X12940952Y-6035238D01*
X13079048Y-6035238D02*
X13021905Y-6035238D01*
X13050476Y-6035238D02*
X13050476Y-5935238D01*
X13040952Y-5949524D01*
X13031428Y-5959048D01*
X13021905Y-5963809D01*
X13140952Y-5935238D02*
X13150476Y-5935238D01*
X13160000Y-5940000D01*
X13164762Y-5944762D01*
X13169524Y-5954286D01*
X13174286Y-5973333D01*
X13174286Y-5997143D01*
X13169524Y-6016190D01*
X13164762Y-6025714D01*
X13160000Y-6030476D01*
X13150476Y-6035238D01*
X13140952Y-6035238D01*
X13131428Y-6030476D01*
X13126667Y-6025714D01*
X13121905Y-6016190D01*
X13117143Y-5997143D01*
X13117143Y-5973333D01*
X13121905Y-5954286D01*
X13126667Y-5944762D01*
X13131428Y-5940000D01*
X13140952Y-5935238D01*
G04 #@! TO.C,J11*
X14979048Y-5935238D02*
X14979048Y-6006667D01*
X14974286Y-6020952D01*
X14964762Y-6030476D01*
X14950476Y-6035238D01*
X14940952Y-6035238D01*
X15079048Y-6035238D02*
X15021905Y-6035238D01*
X15050476Y-6035238D02*
X15050476Y-5935238D01*
X15040952Y-5949524D01*
X15031428Y-5959048D01*
X15021905Y-5963809D01*
X15174286Y-6035238D02*
X15117143Y-6035238D01*
X15145714Y-6035238D02*
X15145714Y-5935238D01*
X15136190Y-5949524D01*
X15126667Y-5959048D01*
X15117143Y-5963809D01*
G04 #@! TO.C,J34*
X13159048Y-12645238D02*
X13159048Y-12716667D01*
X13154286Y-12730952D01*
X13144762Y-12740476D01*
X13130476Y-12745238D01*
X13120952Y-12745238D01*
X13197143Y-12645238D02*
X13259048Y-12645238D01*
X13225714Y-12683333D01*
X13240000Y-12683333D01*
X13249524Y-12688095D01*
X13254286Y-12692857D01*
X13259048Y-12702381D01*
X13259048Y-12726190D01*
X13254286Y-12735714D01*
X13249524Y-12740476D01*
X13240000Y-12745238D01*
X13211428Y-12745238D01*
X13201905Y-12740476D01*
X13197143Y-12735714D01*
X13344762Y-12678571D02*
X13344762Y-12745238D01*
X13320952Y-12640476D02*
X13297143Y-12711905D01*
X13359048Y-12711905D01*
G04 #@! TO.C,J35*
X14659048Y-12645238D02*
X14659048Y-12716667D01*
X14654286Y-12730952D01*
X14644762Y-12740476D01*
X14630476Y-12745238D01*
X14620952Y-12745238D01*
X14697143Y-12645238D02*
X14759048Y-12645238D01*
X14725714Y-12683333D01*
X14740000Y-12683333D01*
X14749524Y-12688095D01*
X14754286Y-12692857D01*
X14759048Y-12702381D01*
X14759048Y-12726190D01*
X14754286Y-12735714D01*
X14749524Y-12740476D01*
X14740000Y-12745238D01*
X14711428Y-12745238D01*
X14701905Y-12740476D01*
X14697143Y-12735714D01*
X14849524Y-12645238D02*
X14801905Y-12645238D01*
X14797143Y-12692857D01*
X14801905Y-12688095D01*
X14811428Y-12683333D01*
X14835238Y-12683333D01*
X14844762Y-12688095D01*
X14849524Y-12692857D01*
X14854286Y-12702381D01*
X14854286Y-12726190D01*
X14849524Y-12735714D01*
X14844762Y-12740476D01*
X14835238Y-12745238D01*
X14811428Y-12745238D01*
X14801905Y-12740476D01*
X14797143Y-12735714D01*
G04 #@! TO.C,J21*
X11659048Y-12645238D02*
X11659048Y-12716667D01*
X11654286Y-12730952D01*
X11644762Y-12740476D01*
X11630476Y-12745238D01*
X11620952Y-12745238D01*
X11701905Y-12654762D02*
X11706667Y-12650000D01*
X11716190Y-12645238D01*
X11740000Y-12645238D01*
X11749524Y-12650000D01*
X11754286Y-12654762D01*
X11759048Y-12664286D01*
X11759048Y-12673809D01*
X11754286Y-12688095D01*
X11697143Y-12745238D01*
X11759048Y-12745238D01*
X11854286Y-12745238D02*
X11797143Y-12745238D01*
X11825714Y-12745238D02*
X11825714Y-12645238D01*
X11816190Y-12659524D01*
X11806667Y-12669048D01*
X11797143Y-12673809D01*
G04 #@! TO.C,J20*
X10159048Y-12645238D02*
X10159048Y-12716667D01*
X10154286Y-12730952D01*
X10144762Y-12740476D01*
X10130476Y-12745238D01*
X10120952Y-12745238D01*
X10201905Y-12654762D02*
X10206667Y-12650000D01*
X10216190Y-12645238D01*
X10240000Y-12645238D01*
X10249524Y-12650000D01*
X10254286Y-12654762D01*
X10259048Y-12664286D01*
X10259048Y-12673809D01*
X10254286Y-12688095D01*
X10197143Y-12745238D01*
X10259048Y-12745238D01*
X10320952Y-12645238D02*
X10330476Y-12645238D01*
X10340000Y-12650000D01*
X10344762Y-12654762D01*
X10349524Y-12664286D01*
X10354286Y-12683333D01*
X10354286Y-12707143D01*
X10349524Y-12726190D01*
X10344762Y-12735714D01*
X10340000Y-12740476D01*
X10330476Y-12745238D01*
X10320952Y-12745238D01*
X10311429Y-12740476D01*
X10306667Y-12735714D01*
X10301905Y-12726190D01*
X10297143Y-12707143D01*
X10297143Y-12683333D01*
X10301905Y-12664286D01*
X10306667Y-12654762D01*
X10311429Y-12650000D01*
X10320952Y-12645238D01*
G04 #@! TO.C,J12*
X10979048Y-5945238D02*
X10979048Y-6016667D01*
X10974286Y-6030952D01*
X10964762Y-6040476D01*
X10950476Y-6045238D01*
X10940952Y-6045238D01*
X11079048Y-6045238D02*
X11021905Y-6045238D01*
X11050476Y-6045238D02*
X11050476Y-5945238D01*
X11040952Y-5959524D01*
X11031429Y-5969048D01*
X11021905Y-5973809D01*
X11117143Y-5954762D02*
X11121905Y-5950000D01*
X11131429Y-5945238D01*
X11155238Y-5945238D01*
X11164762Y-5950000D01*
X11169524Y-5954762D01*
X11174286Y-5964286D01*
X11174286Y-5973809D01*
X11169524Y-5988095D01*
X11112381Y-6045238D01*
X11174286Y-6045238D01*
G04 #@! TO.C,J9*
X9526667Y-5945238D02*
X9526667Y-6016667D01*
X9521905Y-6030952D01*
X9512381Y-6040476D01*
X9498095Y-6045238D01*
X9488571Y-6045238D01*
X9579048Y-6045238D02*
X9598095Y-6045238D01*
X9607619Y-6040476D01*
X9612381Y-6035714D01*
X9621905Y-6021428D01*
X9626667Y-6002381D01*
X9626667Y-5964286D01*
X9621905Y-5954762D01*
X9617143Y-5950000D01*
X9607619Y-5945238D01*
X9588571Y-5945238D01*
X9579048Y-5950000D01*
X9574286Y-5954762D01*
X9569524Y-5964286D01*
X9569524Y-5988095D01*
X9574286Y-5997619D01*
X9579048Y-6002381D01*
X9588571Y-6007143D01*
X9607619Y-6007143D01*
X9617143Y-6002381D01*
X9621905Y-5997619D01*
X9626667Y-5988095D01*
G04 #@! TO.C,J3*
X6406667Y-12645238D02*
X6406667Y-12716667D01*
X6401905Y-12730952D01*
X6392381Y-12740476D01*
X6378095Y-12745238D01*
X6368571Y-12745238D01*
X6444762Y-12645238D02*
X6506667Y-12645238D01*
X6473333Y-12683333D01*
X6487619Y-12683333D01*
X6497143Y-12688095D01*
X6501905Y-12692857D01*
X6506667Y-12702381D01*
X6506667Y-12726190D01*
X6501905Y-12735714D01*
X6497143Y-12740476D01*
X6487619Y-12745238D01*
X6459048Y-12745238D01*
X6449524Y-12740476D01*
X6444762Y-12735714D01*
G04 #@! TO.C,MH4*
X16716667Y-12975238D02*
X16716667Y-12875238D01*
X16750000Y-12946667D01*
X16783333Y-12875238D01*
X16783333Y-12975238D01*
X16830952Y-12975238D02*
X16830952Y-12875238D01*
X16830952Y-12922857D02*
X16888095Y-12922857D01*
X16888095Y-12975238D02*
X16888095Y-12875238D01*
X16978571Y-12908571D02*
X16978571Y-12975238D01*
X16954762Y-12870476D02*
X16930952Y-12941905D01*
X16992857Y-12941905D01*
G04 #@! TO.C,MH3*
X5216667Y-12975238D02*
X5216667Y-12875238D01*
X5250000Y-12946667D01*
X5283333Y-12875238D01*
X5283333Y-12975238D01*
X5330952Y-12975238D02*
X5330952Y-12875238D01*
X5330952Y-12922857D02*
X5388095Y-12922857D01*
X5388095Y-12975238D02*
X5388095Y-12875238D01*
X5426190Y-12875238D02*
X5488095Y-12875238D01*
X5454762Y-12913333D01*
X5469048Y-12913333D01*
X5478571Y-12918095D01*
X5483333Y-12922857D01*
X5488095Y-12932381D01*
X5488095Y-12956190D01*
X5483333Y-12965714D01*
X5478571Y-12970476D01*
X5469048Y-12975238D01*
X5440476Y-12975238D01*
X5430952Y-12970476D01*
X5426190Y-12965714D01*
G04 #@! TO.C,MH2*
X16716667Y-5815238D02*
X16716667Y-5715238D01*
X16750000Y-5786667D01*
X16783333Y-5715238D01*
X16783333Y-5815238D01*
X16830952Y-5815238D02*
X16830952Y-5715238D01*
X16830952Y-5762857D02*
X16888095Y-5762857D01*
X16888095Y-5815238D02*
X16888095Y-5715238D01*
X16930952Y-5724762D02*
X16935714Y-5720000D01*
X16945238Y-5715238D01*
X16969048Y-5715238D01*
X16978571Y-5720000D01*
X16983333Y-5724762D01*
X16988095Y-5734286D01*
X16988095Y-5743809D01*
X16983333Y-5758095D01*
X16926190Y-5815238D01*
X16988095Y-5815238D01*
G04 #@! TO.C,MH1*
X5216667Y-5825238D02*
X5216667Y-5725238D01*
X5250000Y-5796667D01*
X5283333Y-5725238D01*
X5283333Y-5825238D01*
X5330952Y-5825238D02*
X5330952Y-5725238D01*
X5330952Y-5772857D02*
X5388095Y-5772857D01*
X5388095Y-5825238D02*
X5388095Y-5725238D01*
X5488095Y-5825238D02*
X5430952Y-5825238D01*
X5459524Y-5825238D02*
X5459524Y-5725238D01*
X5450000Y-5739524D01*
X5440476Y-5749048D01*
X5430952Y-5753809D01*
G04 #@! TO.C,K1*
X14076190Y-6945238D02*
X14076190Y-6845238D01*
X14133333Y-6945238D02*
X14090476Y-6888095D01*
X14133333Y-6845238D02*
X14076190Y-6902381D01*
X14228571Y-6945238D02*
X14171428Y-6945238D01*
X14200000Y-6945238D02*
X14200000Y-6845238D01*
X14190476Y-6859524D01*
X14180952Y-6869048D01*
X14171428Y-6873809D01*
G04 #@! TO.C,J7-2*
X5207143Y-6435238D02*
X5207143Y-6506667D01*
X5202381Y-6520952D01*
X5192857Y-6530476D01*
X5178571Y-6535238D01*
X5169048Y-6535238D01*
X5245238Y-6435238D02*
X5311905Y-6435238D01*
X5269048Y-6535238D01*
X5350000Y-6497143D02*
X5426190Y-6497143D01*
X5469048Y-6444762D02*
X5473810Y-6440000D01*
X5483333Y-6435238D01*
X5507143Y-6435238D01*
X5516667Y-6440000D01*
X5521429Y-6444762D01*
X5526190Y-6454286D01*
X5526190Y-6463809D01*
X5521429Y-6478095D01*
X5464286Y-6535238D01*
X5526190Y-6535238D01*
G04 #@! TO.C,R12*
X5810238Y-12064286D02*
X5762619Y-12097619D01*
X5810238Y-12121428D02*
X5710238Y-12121428D01*
X5710238Y-12083333D01*
X5715000Y-12073809D01*
X5719762Y-12069048D01*
X5729286Y-12064286D01*
X5743571Y-12064286D01*
X5753095Y-12069048D01*
X5757857Y-12073809D01*
X5762619Y-12083333D01*
X5762619Y-12121428D01*
X5810238Y-11969048D02*
X5810238Y-12026190D01*
X5810238Y-11997619D02*
X5710238Y-11997619D01*
X5724524Y-12007143D01*
X5734048Y-12016667D01*
X5738809Y-12026190D01*
X5719762Y-11930952D02*
X5715000Y-11926190D01*
X5710238Y-11916667D01*
X5710238Y-11892857D01*
X5715000Y-11883333D01*
X5719762Y-11878571D01*
X5729286Y-11873809D01*
X5738809Y-11873809D01*
X5753095Y-11878571D01*
X5810238Y-11935714D01*
X5810238Y-11873809D01*
G04 #@! TO.C,J66*
X7549048Y-8995238D02*
X7549048Y-9066667D01*
X7544286Y-9080952D01*
X7534762Y-9090476D01*
X7520476Y-9095238D01*
X7510952Y-9095238D01*
X7639524Y-8995238D02*
X7620476Y-8995238D01*
X7610952Y-9000000D01*
X7606190Y-9004762D01*
X7596667Y-9019048D01*
X7591905Y-9038095D01*
X7591905Y-9076190D01*
X7596667Y-9085714D01*
X7601428Y-9090476D01*
X7610952Y-9095238D01*
X7630000Y-9095238D01*
X7639524Y-9090476D01*
X7644286Y-9085714D01*
X7649048Y-9076190D01*
X7649048Y-9052381D01*
X7644286Y-9042857D01*
X7639524Y-9038095D01*
X7630000Y-9033333D01*
X7610952Y-9033333D01*
X7601428Y-9038095D01*
X7596667Y-9042857D01*
X7591905Y-9052381D01*
X7734762Y-8995238D02*
X7715714Y-8995238D01*
X7706190Y-9000000D01*
X7701428Y-9004762D01*
X7691905Y-9019048D01*
X7687143Y-9038095D01*
X7687143Y-9076190D01*
X7691905Y-9085714D01*
X7696667Y-9090476D01*
X7706190Y-9095238D01*
X7725238Y-9095238D01*
X7734762Y-9090476D01*
X7739524Y-9085714D01*
X7744286Y-9076190D01*
X7744286Y-9052381D01*
X7739524Y-9042857D01*
X7734762Y-9038095D01*
X7725238Y-9033333D01*
X7706190Y-9033333D01*
X7696667Y-9038095D01*
X7691905Y-9042857D01*
X7687143Y-9052381D01*
G04 #@! TO.C,J65*
X6539048Y-12095438D02*
X6539048Y-12166867D01*
X6534286Y-12181152D01*
X6524762Y-12190676D01*
X6510476Y-12195438D01*
X6500952Y-12195438D01*
X6629524Y-12095438D02*
X6610476Y-12095438D01*
X6600952Y-12100200D01*
X6596190Y-12104962D01*
X6586667Y-12119248D01*
X6581905Y-12138295D01*
X6581905Y-12176390D01*
X6586667Y-12185914D01*
X6591428Y-12190676D01*
X6600952Y-12195438D01*
X6620000Y-12195438D01*
X6629524Y-12190676D01*
X6634286Y-12185914D01*
X6639048Y-12176390D01*
X6639048Y-12152581D01*
X6634286Y-12143057D01*
X6629524Y-12138295D01*
X6620000Y-12133533D01*
X6600952Y-12133533D01*
X6591428Y-12138295D01*
X6586667Y-12143057D01*
X6581905Y-12152581D01*
X6729524Y-12095438D02*
X6681905Y-12095438D01*
X6677143Y-12143057D01*
X6681905Y-12138295D01*
X6691428Y-12133533D01*
X6715238Y-12133533D01*
X6724762Y-12138295D01*
X6729524Y-12143057D01*
X6734286Y-12152581D01*
X6734286Y-12176390D01*
X6729524Y-12185914D01*
X6724762Y-12190676D01*
X6715238Y-12195438D01*
X6691428Y-12195438D01*
X6681905Y-12190676D01*
X6677143Y-12185914D01*
G04 #@! TO.C,J63*
X7555048Y-12095438D02*
X7555048Y-12166867D01*
X7550286Y-12181152D01*
X7540762Y-12190676D01*
X7526476Y-12195438D01*
X7516952Y-12195438D01*
X7645524Y-12095438D02*
X7626476Y-12095438D01*
X7616952Y-12100200D01*
X7612190Y-12104962D01*
X7602667Y-12119248D01*
X7597905Y-12138295D01*
X7597905Y-12176390D01*
X7602667Y-12185914D01*
X7607428Y-12190676D01*
X7616952Y-12195438D01*
X7636000Y-12195438D01*
X7645524Y-12190676D01*
X7650286Y-12185914D01*
X7655048Y-12176390D01*
X7655048Y-12152581D01*
X7650286Y-12143057D01*
X7645524Y-12138295D01*
X7636000Y-12133533D01*
X7616952Y-12133533D01*
X7607428Y-12138295D01*
X7602667Y-12143057D01*
X7597905Y-12152581D01*
X7688381Y-12095438D02*
X7750286Y-12095438D01*
X7716952Y-12133533D01*
X7731238Y-12133533D01*
X7740762Y-12138295D01*
X7745524Y-12143057D01*
X7750286Y-12152581D01*
X7750286Y-12176390D01*
X7745524Y-12185914D01*
X7740762Y-12190676D01*
X7731238Y-12195438D01*
X7702667Y-12195438D01*
X7693143Y-12190676D01*
X7688381Y-12185914D01*
G04 #@! TO.C,J64*
X5279048Y-12495238D02*
X5279048Y-12566667D01*
X5274286Y-12580952D01*
X5264762Y-12590476D01*
X5250476Y-12595238D01*
X5240952Y-12595238D01*
X5369524Y-12495238D02*
X5350476Y-12495238D01*
X5340952Y-12500000D01*
X5336190Y-12504762D01*
X5326667Y-12519048D01*
X5321905Y-12538095D01*
X5321905Y-12576190D01*
X5326667Y-12585714D01*
X5331429Y-12590476D01*
X5340952Y-12595238D01*
X5360000Y-12595238D01*
X5369524Y-12590476D01*
X5374286Y-12585714D01*
X5379048Y-12576190D01*
X5379048Y-12552381D01*
X5374286Y-12542857D01*
X5369524Y-12538095D01*
X5360000Y-12533333D01*
X5340952Y-12533333D01*
X5331429Y-12538095D01*
X5326667Y-12542857D01*
X5321905Y-12552381D01*
X5464762Y-12528571D02*
X5464762Y-12595238D01*
X5440952Y-12490476D02*
X5417143Y-12561905D01*
X5479048Y-12561905D01*
G04 #@! TO.C,C39*
X9420714Y-7134286D02*
X9425476Y-7139048D01*
X9430238Y-7153333D01*
X9430238Y-7162857D01*
X9425476Y-7177143D01*
X9415952Y-7186667D01*
X9406429Y-7191428D01*
X9387381Y-7196190D01*
X9373095Y-7196190D01*
X9354048Y-7191428D01*
X9344524Y-7186667D01*
X9335000Y-7177143D01*
X9330238Y-7162857D01*
X9330238Y-7153333D01*
X9335000Y-7139048D01*
X9339762Y-7134286D01*
X9330238Y-7100952D02*
X9330238Y-7039048D01*
X9368333Y-7072381D01*
X9368333Y-7058095D01*
X9373095Y-7048571D01*
X9377857Y-7043809D01*
X9387381Y-7039048D01*
X9411190Y-7039048D01*
X9420714Y-7043809D01*
X9425476Y-7048571D01*
X9430238Y-7058095D01*
X9430238Y-7086667D01*
X9425476Y-7096190D01*
X9420714Y-7100952D01*
X9430238Y-6991428D02*
X9430238Y-6972381D01*
X9425476Y-6962857D01*
X9420714Y-6958095D01*
X9406429Y-6948571D01*
X9387381Y-6943809D01*
X9349286Y-6943809D01*
X9339762Y-6948571D01*
X9335000Y-6953333D01*
X9330238Y-6962857D01*
X9330238Y-6981905D01*
X9335000Y-6991428D01*
X9339762Y-6996190D01*
X9349286Y-7000952D01*
X9373095Y-7000952D01*
X9382619Y-6996190D01*
X9387381Y-6991428D01*
X9392143Y-6981905D01*
X9392143Y-6962857D01*
X9387381Y-6953333D01*
X9382619Y-6948571D01*
X9373095Y-6943809D01*
G04 #@! TO.C,C7*
X5373333Y-11565714D02*
X5368571Y-11570476D01*
X5354286Y-11575238D01*
X5344762Y-11575238D01*
X5330476Y-11570476D01*
X5320952Y-11560952D01*
X5316190Y-11551428D01*
X5311429Y-11532381D01*
X5311429Y-11518095D01*
X5316190Y-11499048D01*
X5320952Y-11489524D01*
X5330476Y-11480000D01*
X5344762Y-11475238D01*
X5354286Y-11475238D01*
X5368571Y-11480000D01*
X5373333Y-11484762D01*
X5406667Y-11475238D02*
X5473333Y-11475238D01*
X5430476Y-11575238D01*
G04 #@! TO.C,C8*
X5283333Y-10455714D02*
X5278571Y-10460476D01*
X5264286Y-10465238D01*
X5254762Y-10465238D01*
X5240476Y-10460476D01*
X5230952Y-10450952D01*
X5226190Y-10441429D01*
X5221429Y-10422381D01*
X5221429Y-10408095D01*
X5226190Y-10389048D01*
X5230952Y-10379524D01*
X5240476Y-10370000D01*
X5254762Y-10365238D01*
X5264286Y-10365238D01*
X5278571Y-10370000D01*
X5283333Y-10374762D01*
X5340476Y-10408095D02*
X5330952Y-10403333D01*
X5326190Y-10398571D01*
X5321429Y-10389048D01*
X5321429Y-10384286D01*
X5326190Y-10374762D01*
X5330952Y-10370000D01*
X5340476Y-10365238D01*
X5359524Y-10365238D01*
X5369048Y-10370000D01*
X5373810Y-10374762D01*
X5378571Y-10384286D01*
X5378571Y-10389048D01*
X5373810Y-10398571D01*
X5369048Y-10403333D01*
X5359524Y-10408095D01*
X5340476Y-10408095D01*
X5330952Y-10412857D01*
X5326190Y-10417619D01*
X5321429Y-10427143D01*
X5321429Y-10446190D01*
X5326190Y-10455714D01*
X5330952Y-10460476D01*
X5340476Y-10465238D01*
X5359524Y-10465238D01*
X5369048Y-10460476D01*
X5373810Y-10455714D01*
X5378571Y-10446190D01*
X5378571Y-10427143D01*
X5373810Y-10417619D01*
X5369048Y-10412857D01*
X5359524Y-10408095D01*
G04 #@! TO.C,C6*
X6143333Y-9103714D02*
X6138571Y-9108476D01*
X6124286Y-9113238D01*
X6114762Y-9113238D01*
X6100476Y-9108476D01*
X6090952Y-9098952D01*
X6086190Y-9089429D01*
X6081428Y-9070381D01*
X6081428Y-9056095D01*
X6086190Y-9037048D01*
X6090952Y-9027524D01*
X6100476Y-9018000D01*
X6114762Y-9013238D01*
X6124286Y-9013238D01*
X6138571Y-9018000D01*
X6143333Y-9022762D01*
X6229048Y-9013238D02*
X6210000Y-9013238D01*
X6200476Y-9018000D01*
X6195714Y-9022762D01*
X6186190Y-9037048D01*
X6181428Y-9056095D01*
X6181428Y-9094190D01*
X6186190Y-9103714D01*
X6190952Y-9108476D01*
X6200476Y-9113238D01*
X6219524Y-9113238D01*
X6229048Y-9108476D01*
X6233809Y-9103714D01*
X6238571Y-9094190D01*
X6238571Y-9070381D01*
X6233809Y-9060857D01*
X6229048Y-9056095D01*
X6219524Y-9051333D01*
X6200476Y-9051333D01*
X6190952Y-9056095D01*
X6186190Y-9060857D01*
X6181428Y-9070381D01*
G04 #@! TO.C,C1*
X6915714Y-11736667D02*
X6920476Y-11741428D01*
X6925238Y-11755714D01*
X6925238Y-11765238D01*
X6920476Y-11779524D01*
X6910952Y-11789048D01*
X6901428Y-11793809D01*
X6882381Y-11798571D01*
X6868095Y-11798571D01*
X6849048Y-11793809D01*
X6839524Y-11789048D01*
X6830000Y-11779524D01*
X6825238Y-11765238D01*
X6825238Y-11755714D01*
X6830000Y-11741428D01*
X6834762Y-11736667D01*
X6925238Y-11641428D02*
X6925238Y-11698571D01*
X6925238Y-11670000D02*
X6825238Y-11670000D01*
X6839524Y-11679524D01*
X6849048Y-11689048D01*
X6853809Y-11698571D01*
G04 #@! TO.C,C5*
X5503333Y-9395714D02*
X5498571Y-9400476D01*
X5484286Y-9405238D01*
X5474762Y-9405238D01*
X5460476Y-9400476D01*
X5450952Y-9390952D01*
X5446190Y-9381429D01*
X5441429Y-9362381D01*
X5441429Y-9348095D01*
X5446190Y-9329048D01*
X5450952Y-9319524D01*
X5460476Y-9310000D01*
X5474762Y-9305238D01*
X5484286Y-9305238D01*
X5498571Y-9310000D01*
X5503333Y-9314762D01*
X5593809Y-9305238D02*
X5546190Y-9305238D01*
X5541429Y-9352857D01*
X5546190Y-9348095D01*
X5555714Y-9343333D01*
X5579524Y-9343333D01*
X5589048Y-9348095D01*
X5593809Y-9352857D01*
X5598571Y-9362381D01*
X5598571Y-9386190D01*
X5593809Y-9395714D01*
X5589048Y-9400476D01*
X5579524Y-9405238D01*
X5555714Y-9405238D01*
X5546190Y-9400476D01*
X5541429Y-9395714D01*
G04 #@! TO.C,C4*
X5803333Y-9395714D02*
X5798571Y-9400476D01*
X5784286Y-9405238D01*
X5774762Y-9405238D01*
X5760476Y-9400476D01*
X5750952Y-9390952D01*
X5746190Y-9381429D01*
X5741428Y-9362381D01*
X5741428Y-9348095D01*
X5746190Y-9329048D01*
X5750952Y-9319524D01*
X5760476Y-9310000D01*
X5774762Y-9305238D01*
X5784286Y-9305238D01*
X5798571Y-9310000D01*
X5803333Y-9314762D01*
X5889048Y-9338571D02*
X5889048Y-9405238D01*
X5865238Y-9300476D02*
X5841428Y-9371905D01*
X5903333Y-9371905D01*
G04 #@! TO.C,C2*
X5795714Y-11236667D02*
X5800476Y-11241428D01*
X5805238Y-11255714D01*
X5805238Y-11265238D01*
X5800476Y-11279524D01*
X5790952Y-11289048D01*
X5781428Y-11293809D01*
X5762381Y-11298571D01*
X5748095Y-11298571D01*
X5729048Y-11293809D01*
X5719524Y-11289048D01*
X5710000Y-11279524D01*
X5705238Y-11265238D01*
X5705238Y-11255714D01*
X5710000Y-11241428D01*
X5714762Y-11236667D01*
X5714762Y-11198571D02*
X5710000Y-11193809D01*
X5705238Y-11184286D01*
X5705238Y-11160476D01*
X5710000Y-11150952D01*
X5714762Y-11146190D01*
X5724286Y-11141429D01*
X5733809Y-11141429D01*
X5748095Y-11146190D01*
X5805238Y-11203333D01*
X5805238Y-11141429D01*
G04 #@! TO.C,J48*
X11529048Y-7065238D02*
X11529048Y-7136667D01*
X11524286Y-7150952D01*
X11514762Y-7160476D01*
X11500476Y-7165238D01*
X11490952Y-7165238D01*
X11619524Y-7098571D02*
X11619524Y-7165238D01*
X11595714Y-7060476D02*
X11571905Y-7131905D01*
X11633809Y-7131905D01*
X11686190Y-7108095D02*
X11676667Y-7103333D01*
X11671905Y-7098571D01*
X11667143Y-7089048D01*
X11667143Y-7084286D01*
X11671905Y-7074762D01*
X11676667Y-7070000D01*
X11686190Y-7065238D01*
X11705238Y-7065238D01*
X11714762Y-7070000D01*
X11719524Y-7074762D01*
X11724286Y-7084286D01*
X11724286Y-7089048D01*
X11719524Y-7098571D01*
X11714762Y-7103333D01*
X11705238Y-7108095D01*
X11686190Y-7108095D01*
X11676667Y-7112857D01*
X11671905Y-7117619D01*
X11667143Y-7127143D01*
X11667143Y-7146190D01*
X11671905Y-7155714D01*
X11676667Y-7160476D01*
X11686190Y-7165238D01*
X11705238Y-7165238D01*
X11714762Y-7160476D01*
X11719524Y-7155714D01*
X11724286Y-7146190D01*
X11724286Y-7127143D01*
X11719524Y-7117619D01*
X11714762Y-7112857D01*
X11705238Y-7108095D01*
G04 #@! TO.C,D2*
X6316190Y-10535238D02*
X6316190Y-10435238D01*
X6340000Y-10435238D01*
X6354286Y-10440000D01*
X6363809Y-10449524D01*
X6368571Y-10459048D01*
X6373333Y-10478095D01*
X6373333Y-10492381D01*
X6368571Y-10511429D01*
X6363809Y-10520952D01*
X6354286Y-10530476D01*
X6340000Y-10535238D01*
X6316190Y-10535238D01*
X6411428Y-10444762D02*
X6416190Y-10440000D01*
X6425714Y-10435238D01*
X6449524Y-10435238D01*
X6459048Y-10440000D01*
X6463809Y-10444762D01*
X6468571Y-10454286D01*
X6468571Y-10463810D01*
X6463809Y-10478095D01*
X6406667Y-10535238D01*
X6468571Y-10535238D01*
G04 #@! TO.C,U1*
X6835238Y-11576190D02*
X6916190Y-11576190D01*
X6925714Y-11571428D01*
X6930476Y-11566667D01*
X6935238Y-11557143D01*
X6935238Y-11538095D01*
X6930476Y-11528571D01*
X6925714Y-11523809D01*
X6916190Y-11519048D01*
X6835238Y-11519048D01*
X6935238Y-11419048D02*
X6935238Y-11476190D01*
X6935238Y-11447619D02*
X6835238Y-11447619D01*
X6849524Y-11457143D01*
X6859048Y-11466667D01*
X6863809Y-11476190D01*
G04 #@! TO.C,U2*
X5573810Y-10665238D02*
X5573810Y-10746190D01*
X5578571Y-10755714D01*
X5583333Y-10760476D01*
X5592857Y-10765238D01*
X5611905Y-10765238D01*
X5621428Y-10760476D01*
X5626190Y-10755714D01*
X5630952Y-10746190D01*
X5630952Y-10665238D01*
X5673809Y-10674762D02*
X5678571Y-10670000D01*
X5688095Y-10665238D01*
X5711905Y-10665238D01*
X5721428Y-10670000D01*
X5726190Y-10674762D01*
X5730952Y-10684286D01*
X5730952Y-10693810D01*
X5726190Y-10708095D01*
X5669048Y-10765238D01*
X5730952Y-10765238D01*
G04 #@! TO.C,R1*
X7153333Y-11715238D02*
X7120000Y-11667619D01*
X7096190Y-11715238D02*
X7096190Y-11615238D01*
X7134286Y-11615238D01*
X7143809Y-11620000D01*
X7148571Y-11624762D01*
X7153333Y-11634286D01*
X7153333Y-11648571D01*
X7148571Y-11658095D01*
X7143809Y-11662857D01*
X7134286Y-11667619D01*
X7096190Y-11667619D01*
X7248571Y-11715238D02*
X7191428Y-11715238D01*
X7220000Y-11715238D02*
X7220000Y-11615238D01*
X7210476Y-11629524D01*
X7200952Y-11639048D01*
X7191428Y-11643809D01*
G04 #@! TO.C,R3*
X5975238Y-10786667D02*
X5927619Y-10820000D01*
X5975238Y-10843810D02*
X5875238Y-10843810D01*
X5875238Y-10805714D01*
X5880000Y-10796190D01*
X5884762Y-10791429D01*
X5894286Y-10786667D01*
X5908571Y-10786667D01*
X5918095Y-10791429D01*
X5922857Y-10796190D01*
X5927619Y-10805714D01*
X5927619Y-10843810D01*
X5875238Y-10753333D02*
X5875238Y-10691429D01*
X5913333Y-10724762D01*
X5913333Y-10710476D01*
X5918095Y-10700952D01*
X5922857Y-10696190D01*
X5932381Y-10691429D01*
X5956190Y-10691429D01*
X5965714Y-10696190D01*
X5970476Y-10700952D01*
X5975238Y-10710476D01*
X5975238Y-10739048D01*
X5970476Y-10748571D01*
X5965714Y-10753333D01*
G04 #@! TO.C,R4*
X6663333Y-10575238D02*
X6630000Y-10527619D01*
X6606190Y-10575238D02*
X6606190Y-10475238D01*
X6644286Y-10475238D01*
X6653809Y-10480000D01*
X6658571Y-10484762D01*
X6663333Y-10494286D01*
X6663333Y-10508571D01*
X6658571Y-10518095D01*
X6653809Y-10522857D01*
X6644286Y-10527619D01*
X6606190Y-10527619D01*
X6749048Y-10508571D02*
X6749048Y-10575238D01*
X6725238Y-10470476D02*
X6701428Y-10541905D01*
X6763333Y-10541905D01*
G04 #@! TO.C,R60*
X5665238Y-8144286D02*
X5617619Y-8177619D01*
X5665238Y-8201428D02*
X5565238Y-8201428D01*
X5565238Y-8163333D01*
X5570000Y-8153809D01*
X5574762Y-8149048D01*
X5584286Y-8144286D01*
X5598571Y-8144286D01*
X5608095Y-8149048D01*
X5612857Y-8153809D01*
X5617619Y-8163333D01*
X5617619Y-8201428D01*
X5565238Y-8058571D02*
X5565238Y-8077619D01*
X5570000Y-8087143D01*
X5574762Y-8091905D01*
X5589048Y-8101428D01*
X5608095Y-8106190D01*
X5646190Y-8106190D01*
X5655714Y-8101428D01*
X5660476Y-8096667D01*
X5665238Y-8087143D01*
X5665238Y-8068095D01*
X5660476Y-8058571D01*
X5655714Y-8053809D01*
X5646190Y-8049048D01*
X5622381Y-8049048D01*
X5612857Y-8053809D01*
X5608095Y-8058571D01*
X5603333Y-8068095D01*
X5603333Y-8087143D01*
X5608095Y-8096667D01*
X5612857Y-8101428D01*
X5622381Y-8106190D01*
X5565238Y-7987143D02*
X5565238Y-7977619D01*
X5570000Y-7968095D01*
X5574762Y-7963333D01*
X5584286Y-7958571D01*
X5603333Y-7953809D01*
X5627143Y-7953809D01*
X5646190Y-7958571D01*
X5655714Y-7963333D01*
X5660476Y-7968095D01*
X5665238Y-7977619D01*
X5665238Y-7987143D01*
X5660476Y-7996667D01*
X5655714Y-8001428D01*
X5646190Y-8006190D01*
X5627143Y-8010952D01*
X5603333Y-8010952D01*
X5584286Y-8006190D01*
X5574762Y-8001428D01*
X5570000Y-7996667D01*
X5565238Y-7987143D01*
G04 #@! TO.C,R70*
X12035714Y-6885238D02*
X12002381Y-6837619D01*
X11978571Y-6885238D02*
X11978571Y-6785238D01*
X12016667Y-6785238D01*
X12026190Y-6790000D01*
X12030952Y-6794762D01*
X12035714Y-6804286D01*
X12035714Y-6818571D01*
X12030952Y-6828095D01*
X12026190Y-6832857D01*
X12016667Y-6837619D01*
X11978571Y-6837619D01*
X12069048Y-6785238D02*
X12135714Y-6785238D01*
X12092857Y-6885238D01*
X12192857Y-6785238D02*
X12202381Y-6785238D01*
X12211905Y-6790000D01*
X12216667Y-6794762D01*
X12221428Y-6804286D01*
X12226190Y-6823333D01*
X12226190Y-6847143D01*
X12221428Y-6866190D01*
X12216667Y-6875714D01*
X12211905Y-6880476D01*
X12202381Y-6885238D01*
X12192857Y-6885238D01*
X12183333Y-6880476D01*
X12178571Y-6875714D01*
X12173809Y-6866190D01*
X12169048Y-6847143D01*
X12169048Y-6823333D01*
X12173809Y-6804286D01*
X12178571Y-6794762D01*
X12183333Y-6790000D01*
X12192857Y-6785238D01*
G04 #@! TO.C,R71*
X12035714Y-7295238D02*
X12002381Y-7247619D01*
X11978571Y-7295238D02*
X11978571Y-7195238D01*
X12016667Y-7195238D01*
X12026190Y-7200000D01*
X12030952Y-7204762D01*
X12035714Y-7214286D01*
X12035714Y-7228571D01*
X12030952Y-7238095D01*
X12026190Y-7242857D01*
X12016667Y-7247619D01*
X11978571Y-7247619D01*
X12069048Y-7195238D02*
X12135714Y-7195238D01*
X12092857Y-7295238D01*
X12226190Y-7295238D02*
X12169048Y-7295238D01*
X12197619Y-7295238D02*
X12197619Y-7195238D01*
X12188095Y-7209524D01*
X12178571Y-7219048D01*
X12169048Y-7223809D01*
G04 #@! TO.C,R72*
X12035714Y-7695238D02*
X12002381Y-7647619D01*
X11978571Y-7695238D02*
X11978571Y-7595238D01*
X12016667Y-7595238D01*
X12026190Y-7600000D01*
X12030952Y-7604762D01*
X12035714Y-7614286D01*
X12035714Y-7628571D01*
X12030952Y-7638095D01*
X12026190Y-7642857D01*
X12016667Y-7647619D01*
X11978571Y-7647619D01*
X12069048Y-7595238D02*
X12135714Y-7595238D01*
X12092857Y-7695238D01*
X12169048Y-7604762D02*
X12173809Y-7600000D01*
X12183333Y-7595238D01*
X12207143Y-7595238D01*
X12216667Y-7600000D01*
X12221428Y-7604762D01*
X12226190Y-7614286D01*
X12226190Y-7623809D01*
X12221428Y-7638095D01*
X12164286Y-7695238D01*
X12226190Y-7695238D01*
G04 #@! TO.C,R73*
X5235238Y-12064286D02*
X5187619Y-12097619D01*
X5235238Y-12121428D02*
X5135238Y-12121428D01*
X5135238Y-12083333D01*
X5140000Y-12073809D01*
X5144762Y-12069048D01*
X5154286Y-12064286D01*
X5168571Y-12064286D01*
X5178095Y-12069048D01*
X5182857Y-12073809D01*
X5187619Y-12083333D01*
X5187619Y-12121428D01*
X5135238Y-12030952D02*
X5135238Y-11964286D01*
X5235238Y-12007143D01*
X5135238Y-11935714D02*
X5135238Y-11873809D01*
X5173333Y-11907143D01*
X5173333Y-11892857D01*
X5178095Y-11883333D01*
X5182857Y-11878571D01*
X5192381Y-11873809D01*
X5216190Y-11873809D01*
X5225714Y-11878571D01*
X5230476Y-11883333D01*
X5235238Y-11892857D01*
X5235238Y-11921428D01*
X5230476Y-11930952D01*
X5225714Y-11935714D01*
G04 #@! TO.C,R67*
X9635714Y-8310238D02*
X9602381Y-8262619D01*
X9578571Y-8310238D02*
X9578571Y-8210238D01*
X9616667Y-8210238D01*
X9626190Y-8215000D01*
X9630952Y-8219762D01*
X9635714Y-8229286D01*
X9635714Y-8243571D01*
X9630952Y-8253095D01*
X9626190Y-8257857D01*
X9616667Y-8262619D01*
X9578571Y-8262619D01*
X9721429Y-8210238D02*
X9702381Y-8210238D01*
X9692857Y-8215000D01*
X9688095Y-8219762D01*
X9678571Y-8234048D01*
X9673810Y-8253095D01*
X9673810Y-8291190D01*
X9678571Y-8300714D01*
X9683333Y-8305476D01*
X9692857Y-8310238D01*
X9711905Y-8310238D01*
X9721429Y-8305476D01*
X9726190Y-8300714D01*
X9730952Y-8291190D01*
X9730952Y-8267381D01*
X9726190Y-8257857D01*
X9721429Y-8253095D01*
X9711905Y-8248333D01*
X9692857Y-8248333D01*
X9683333Y-8253095D01*
X9678571Y-8257857D01*
X9673810Y-8267381D01*
X9764286Y-8210238D02*
X9830952Y-8210238D01*
X9788095Y-8310238D01*
G04 #@! TO.C,R50*
X7805714Y-7265238D02*
X7772381Y-7217619D01*
X7748571Y-7265238D02*
X7748571Y-7165238D01*
X7786667Y-7165238D01*
X7796190Y-7170000D01*
X7800952Y-7174762D01*
X7805714Y-7184286D01*
X7805714Y-7198571D01*
X7800952Y-7208095D01*
X7796190Y-7212857D01*
X7786667Y-7217619D01*
X7748571Y-7217619D01*
X7896190Y-7165238D02*
X7848571Y-7165238D01*
X7843809Y-7212857D01*
X7848571Y-7208095D01*
X7858095Y-7203333D01*
X7881905Y-7203333D01*
X7891428Y-7208095D01*
X7896190Y-7212857D01*
X7900952Y-7222381D01*
X7900952Y-7246190D01*
X7896190Y-7255714D01*
X7891428Y-7260476D01*
X7881905Y-7265238D01*
X7858095Y-7265238D01*
X7848571Y-7260476D01*
X7843809Y-7255714D01*
X7962857Y-7165238D02*
X7972381Y-7165238D01*
X7981905Y-7170000D01*
X7986667Y-7174762D01*
X7991428Y-7184286D01*
X7996190Y-7203333D01*
X7996190Y-7227143D01*
X7991428Y-7246190D01*
X7986667Y-7255714D01*
X7981905Y-7260476D01*
X7972381Y-7265238D01*
X7962857Y-7265238D01*
X7953333Y-7260476D01*
X7948571Y-7255714D01*
X7943809Y-7246190D01*
X7939048Y-7227143D01*
X7939048Y-7203333D01*
X7943809Y-7184286D01*
X7948571Y-7174762D01*
X7953333Y-7170000D01*
X7962857Y-7165238D01*
G04 #@! TO.C,R51*
X7805714Y-7075238D02*
X7772381Y-7027619D01*
X7748571Y-7075238D02*
X7748571Y-6975238D01*
X7786667Y-6975238D01*
X7796190Y-6980000D01*
X7800952Y-6984762D01*
X7805714Y-6994286D01*
X7805714Y-7008571D01*
X7800952Y-7018095D01*
X7796190Y-7022857D01*
X7786667Y-7027619D01*
X7748571Y-7027619D01*
X7896190Y-6975238D02*
X7848571Y-6975238D01*
X7843809Y-7022857D01*
X7848571Y-7018095D01*
X7858095Y-7013333D01*
X7881905Y-7013333D01*
X7891428Y-7018095D01*
X7896190Y-7022857D01*
X7900952Y-7032381D01*
X7900952Y-7056190D01*
X7896190Y-7065714D01*
X7891428Y-7070476D01*
X7881905Y-7075238D01*
X7858095Y-7075238D01*
X7848571Y-7070476D01*
X7843809Y-7065714D01*
X7996190Y-7075238D02*
X7939048Y-7075238D01*
X7967619Y-7075238D02*
X7967619Y-6975238D01*
X7958095Y-6989524D01*
X7948571Y-6999048D01*
X7939048Y-7003809D01*
G04 #@! TO.C,R54*
X7805714Y-7455238D02*
X7772381Y-7407619D01*
X7748571Y-7455238D02*
X7748571Y-7355238D01*
X7786667Y-7355238D01*
X7796190Y-7360000D01*
X7800952Y-7364762D01*
X7805714Y-7374286D01*
X7805714Y-7388571D01*
X7800952Y-7398095D01*
X7796190Y-7402857D01*
X7786667Y-7407619D01*
X7748571Y-7407619D01*
X7896190Y-7355238D02*
X7848571Y-7355238D01*
X7843809Y-7402857D01*
X7848571Y-7398095D01*
X7858095Y-7393333D01*
X7881905Y-7393333D01*
X7891428Y-7398095D01*
X7896190Y-7402857D01*
X7900952Y-7412381D01*
X7900952Y-7436190D01*
X7896190Y-7445714D01*
X7891428Y-7450476D01*
X7881905Y-7455238D01*
X7858095Y-7455238D01*
X7848571Y-7450476D01*
X7843809Y-7445714D01*
X7986667Y-7388571D02*
X7986667Y-7455238D01*
X7962857Y-7350476D02*
X7939048Y-7421905D01*
X8000952Y-7421905D01*
G04 #@! TO.C,R55*
X7805714Y-7835238D02*
X7772381Y-7787619D01*
X7748571Y-7835238D02*
X7748571Y-7735238D01*
X7786667Y-7735238D01*
X7796190Y-7740000D01*
X7800952Y-7744762D01*
X7805714Y-7754286D01*
X7805714Y-7768571D01*
X7800952Y-7778095D01*
X7796190Y-7782857D01*
X7786667Y-7787619D01*
X7748571Y-7787619D01*
X7896190Y-7735238D02*
X7848571Y-7735238D01*
X7843809Y-7782857D01*
X7848571Y-7778095D01*
X7858095Y-7773333D01*
X7881905Y-7773333D01*
X7891428Y-7778095D01*
X7896190Y-7782857D01*
X7900952Y-7792381D01*
X7900952Y-7816190D01*
X7896190Y-7825714D01*
X7891428Y-7830476D01*
X7881905Y-7835238D01*
X7858095Y-7835238D01*
X7848571Y-7830476D01*
X7843809Y-7825714D01*
X7991428Y-7735238D02*
X7943809Y-7735238D01*
X7939048Y-7782857D01*
X7943809Y-7778095D01*
X7953333Y-7773333D01*
X7977143Y-7773333D01*
X7986667Y-7778095D01*
X7991428Y-7782857D01*
X7996190Y-7792381D01*
X7996190Y-7816190D01*
X7991428Y-7825714D01*
X7986667Y-7830476D01*
X7977143Y-7835238D01*
X7953333Y-7835238D01*
X7943809Y-7830476D01*
X7939048Y-7825714D01*
G04 #@! TO.C,R56*
X7805714Y-7645238D02*
X7772381Y-7597619D01*
X7748571Y-7645238D02*
X7748571Y-7545238D01*
X7786667Y-7545238D01*
X7796190Y-7550000D01*
X7800952Y-7554762D01*
X7805714Y-7564286D01*
X7805714Y-7578571D01*
X7800952Y-7588095D01*
X7796190Y-7592857D01*
X7786667Y-7597619D01*
X7748571Y-7597619D01*
X7896190Y-7545238D02*
X7848571Y-7545238D01*
X7843809Y-7592857D01*
X7848571Y-7588095D01*
X7858095Y-7583333D01*
X7881905Y-7583333D01*
X7891428Y-7588095D01*
X7896190Y-7592857D01*
X7900952Y-7602381D01*
X7900952Y-7626190D01*
X7896190Y-7635714D01*
X7891428Y-7640476D01*
X7881905Y-7645238D01*
X7858095Y-7645238D01*
X7848571Y-7640476D01*
X7843809Y-7635714D01*
X7986667Y-7545238D02*
X7967619Y-7545238D01*
X7958095Y-7550000D01*
X7953333Y-7554762D01*
X7943809Y-7569048D01*
X7939048Y-7588095D01*
X7939048Y-7626190D01*
X7943809Y-7635714D01*
X7948571Y-7640476D01*
X7958095Y-7645238D01*
X7977143Y-7645238D01*
X7986667Y-7640476D01*
X7991428Y-7635714D01*
X7996190Y-7626190D01*
X7996190Y-7602381D01*
X7991428Y-7592857D01*
X7986667Y-7588095D01*
X7977143Y-7583333D01*
X7958095Y-7583333D01*
X7948571Y-7588095D01*
X7943809Y-7592857D01*
X7939048Y-7602381D01*
G04 #@! TO.C,R57*
X7805714Y-8025238D02*
X7772381Y-7977619D01*
X7748571Y-8025238D02*
X7748571Y-7925238D01*
X7786667Y-7925238D01*
X7796190Y-7930000D01*
X7800952Y-7934762D01*
X7805714Y-7944286D01*
X7805714Y-7958571D01*
X7800952Y-7968095D01*
X7796190Y-7972857D01*
X7786667Y-7977619D01*
X7748571Y-7977619D01*
X7896190Y-7925238D02*
X7848571Y-7925238D01*
X7843809Y-7972857D01*
X7848571Y-7968095D01*
X7858095Y-7963333D01*
X7881905Y-7963333D01*
X7891428Y-7968095D01*
X7896190Y-7972857D01*
X7900952Y-7982381D01*
X7900952Y-8006190D01*
X7896190Y-8015714D01*
X7891428Y-8020476D01*
X7881905Y-8025238D01*
X7858095Y-8025238D01*
X7848571Y-8020476D01*
X7843809Y-8015714D01*
X7934286Y-7925238D02*
X8000952Y-7925238D01*
X7958095Y-8025238D01*
G04 #@! TO.C,R62*
X5485714Y-7455238D02*
X5452381Y-7407619D01*
X5428571Y-7455238D02*
X5428571Y-7355238D01*
X5466667Y-7355238D01*
X5476190Y-7360000D01*
X5480952Y-7364762D01*
X5485714Y-7374286D01*
X5485714Y-7388571D01*
X5480952Y-7398095D01*
X5476190Y-7402857D01*
X5466667Y-7407619D01*
X5428571Y-7407619D01*
X5571429Y-7355238D02*
X5552381Y-7355238D01*
X5542857Y-7360000D01*
X5538095Y-7364762D01*
X5528571Y-7379048D01*
X5523810Y-7398095D01*
X5523810Y-7436190D01*
X5528571Y-7445714D01*
X5533333Y-7450476D01*
X5542857Y-7455238D01*
X5561905Y-7455238D01*
X5571429Y-7450476D01*
X5576190Y-7445714D01*
X5580952Y-7436190D01*
X5580952Y-7412381D01*
X5576190Y-7402857D01*
X5571429Y-7398095D01*
X5561905Y-7393333D01*
X5542857Y-7393333D01*
X5533333Y-7398095D01*
X5528571Y-7402857D01*
X5523810Y-7412381D01*
X5619048Y-7364762D02*
X5623809Y-7360000D01*
X5633333Y-7355238D01*
X5657143Y-7355238D01*
X5666667Y-7360000D01*
X5671428Y-7364762D01*
X5676190Y-7374286D01*
X5676190Y-7383809D01*
X5671428Y-7398095D01*
X5614286Y-7455238D01*
X5676190Y-7455238D01*
G04 #@! TO.C,R63*
X7805714Y-8215238D02*
X7772381Y-8167619D01*
X7748571Y-8215238D02*
X7748571Y-8115238D01*
X7786667Y-8115238D01*
X7796190Y-8120000D01*
X7800952Y-8124762D01*
X7805714Y-8134286D01*
X7805714Y-8148571D01*
X7800952Y-8158095D01*
X7796190Y-8162857D01*
X7786667Y-8167619D01*
X7748571Y-8167619D01*
X7891428Y-8115238D02*
X7872381Y-8115238D01*
X7862857Y-8120000D01*
X7858095Y-8124762D01*
X7848571Y-8139048D01*
X7843809Y-8158095D01*
X7843809Y-8196190D01*
X7848571Y-8205714D01*
X7853333Y-8210476D01*
X7862857Y-8215238D01*
X7881905Y-8215238D01*
X7891428Y-8210476D01*
X7896190Y-8205714D01*
X7900952Y-8196190D01*
X7900952Y-8172381D01*
X7896190Y-8162857D01*
X7891428Y-8158095D01*
X7881905Y-8153333D01*
X7862857Y-8153333D01*
X7853333Y-8158095D01*
X7848571Y-8162857D01*
X7843809Y-8172381D01*
X7934286Y-8115238D02*
X7996190Y-8115238D01*
X7962857Y-8153333D01*
X7977143Y-8153333D01*
X7986667Y-8158095D01*
X7991428Y-8162857D01*
X7996190Y-8172381D01*
X7996190Y-8196190D01*
X7991428Y-8205714D01*
X7986667Y-8210476D01*
X7977143Y-8215238D01*
X7948571Y-8215238D01*
X7939048Y-8210476D01*
X7934286Y-8205714D01*
G04 #@! TO.C,R64*
X5485714Y-7655238D02*
X5452381Y-7607619D01*
X5428571Y-7655238D02*
X5428571Y-7555238D01*
X5466667Y-7555238D01*
X5476190Y-7560000D01*
X5480952Y-7564762D01*
X5485714Y-7574286D01*
X5485714Y-7588571D01*
X5480952Y-7598095D01*
X5476190Y-7602857D01*
X5466667Y-7607619D01*
X5428571Y-7607619D01*
X5571429Y-7555238D02*
X5552381Y-7555238D01*
X5542857Y-7560000D01*
X5538095Y-7564762D01*
X5528571Y-7579048D01*
X5523810Y-7598095D01*
X5523810Y-7636190D01*
X5528571Y-7645714D01*
X5533333Y-7650476D01*
X5542857Y-7655238D01*
X5561905Y-7655238D01*
X5571429Y-7650476D01*
X5576190Y-7645714D01*
X5580952Y-7636190D01*
X5580952Y-7612381D01*
X5576190Y-7602857D01*
X5571429Y-7598095D01*
X5561905Y-7593333D01*
X5542857Y-7593333D01*
X5533333Y-7598095D01*
X5528571Y-7602857D01*
X5523810Y-7612381D01*
X5666667Y-7588571D02*
X5666667Y-7655238D01*
X5642857Y-7550476D02*
X5619048Y-7621905D01*
X5680952Y-7621905D01*
G04 #@! TO.C,R65*
X5485714Y-7845238D02*
X5452381Y-7797619D01*
X5428571Y-7845238D02*
X5428571Y-7745238D01*
X5466667Y-7745238D01*
X5476190Y-7750000D01*
X5480952Y-7754762D01*
X5485714Y-7764286D01*
X5485714Y-7778571D01*
X5480952Y-7788095D01*
X5476190Y-7792857D01*
X5466667Y-7797619D01*
X5428571Y-7797619D01*
X5571429Y-7745238D02*
X5552381Y-7745238D01*
X5542857Y-7750000D01*
X5538095Y-7754762D01*
X5528571Y-7769048D01*
X5523810Y-7788095D01*
X5523810Y-7826190D01*
X5528571Y-7835714D01*
X5533333Y-7840476D01*
X5542857Y-7845238D01*
X5561905Y-7845238D01*
X5571429Y-7840476D01*
X5576190Y-7835714D01*
X5580952Y-7826190D01*
X5580952Y-7802381D01*
X5576190Y-7792857D01*
X5571429Y-7788095D01*
X5561905Y-7783333D01*
X5542857Y-7783333D01*
X5533333Y-7788095D01*
X5528571Y-7792857D01*
X5523810Y-7802381D01*
X5671428Y-7745238D02*
X5623809Y-7745238D01*
X5619048Y-7792857D01*
X5623809Y-7788095D01*
X5633333Y-7783333D01*
X5657143Y-7783333D01*
X5666667Y-7788095D01*
X5671428Y-7792857D01*
X5676190Y-7802381D01*
X5676190Y-7826190D01*
X5671428Y-7835714D01*
X5666667Y-7840476D01*
X5657143Y-7845238D01*
X5633333Y-7845238D01*
X5623809Y-7840476D01*
X5619048Y-7835714D01*
G04 #@! TO.C,J47*
X7899048Y-6165238D02*
X7899048Y-6236667D01*
X7894286Y-6250952D01*
X7884762Y-6260476D01*
X7870476Y-6265238D01*
X7860952Y-6265238D01*
X7989524Y-6198571D02*
X7989524Y-6265238D01*
X7965714Y-6160476D02*
X7941905Y-6231905D01*
X8003809Y-6231905D01*
X8032381Y-6165238D02*
X8099048Y-6165238D01*
X8056190Y-6265238D01*
G04 #@! TO.C,J43*
X7899048Y-6671238D02*
X7899048Y-6742667D01*
X7894286Y-6756952D01*
X7884762Y-6766476D01*
X7870476Y-6771238D01*
X7860952Y-6771238D01*
X7989524Y-6704571D02*
X7989524Y-6771238D01*
X7965714Y-6666476D02*
X7941905Y-6737905D01*
X8003809Y-6737905D01*
X8032381Y-6671238D02*
X8094286Y-6671238D01*
X8060952Y-6709333D01*
X8075238Y-6709333D01*
X8084762Y-6714095D01*
X8089524Y-6718857D01*
X8094286Y-6728381D01*
X8094286Y-6752190D01*
X8089524Y-6761714D01*
X8084762Y-6766476D01*
X8075238Y-6771238D01*
X8046667Y-6771238D01*
X8037143Y-6766476D01*
X8032381Y-6761714D01*
G04 #@! TO.C,J50*
X5549048Y-12495238D02*
X5549048Y-12566667D01*
X5544286Y-12580952D01*
X5534762Y-12590476D01*
X5520476Y-12595238D01*
X5510952Y-12595238D01*
X5644286Y-12495238D02*
X5596667Y-12495238D01*
X5591905Y-12542857D01*
X5596667Y-12538095D01*
X5606190Y-12533333D01*
X5630000Y-12533333D01*
X5639524Y-12538095D01*
X5644286Y-12542857D01*
X5649048Y-12552381D01*
X5649048Y-12576190D01*
X5644286Y-12585714D01*
X5639524Y-12590476D01*
X5630000Y-12595238D01*
X5606190Y-12595238D01*
X5596667Y-12590476D01*
X5591905Y-12585714D01*
X5710952Y-12495238D02*
X5720476Y-12495238D01*
X5730000Y-12500000D01*
X5734762Y-12504762D01*
X5739524Y-12514286D01*
X5744286Y-12533333D01*
X5744286Y-12557143D01*
X5739524Y-12576190D01*
X5734762Y-12585714D01*
X5730000Y-12590476D01*
X5720476Y-12595238D01*
X5710952Y-12595238D01*
X5701428Y-12590476D01*
X5696667Y-12585714D01*
X5691905Y-12576190D01*
X5687143Y-12557143D01*
X5687143Y-12533333D01*
X5691905Y-12514286D01*
X5696667Y-12504762D01*
X5701428Y-12500000D01*
X5710952Y-12495238D01*
G04 #@! TO.C,J49*
X6285048Y-12095438D02*
X6285048Y-12166867D01*
X6280286Y-12181152D01*
X6270762Y-12190676D01*
X6256476Y-12195438D01*
X6246952Y-12195438D01*
X6375524Y-12128771D02*
X6375524Y-12195438D01*
X6351714Y-12090676D02*
X6327905Y-12162105D01*
X6389809Y-12162105D01*
X6432667Y-12195438D02*
X6451714Y-12195438D01*
X6461238Y-12190676D01*
X6466000Y-12185914D01*
X6475524Y-12171628D01*
X6480286Y-12152581D01*
X6480286Y-12114486D01*
X6475524Y-12104962D01*
X6470762Y-12100200D01*
X6461238Y-12095438D01*
X6442190Y-12095438D01*
X6432667Y-12100200D01*
X6427905Y-12104962D01*
X6423143Y-12114486D01*
X6423143Y-12138295D01*
X6427905Y-12147819D01*
X6432667Y-12152581D01*
X6442190Y-12157343D01*
X6461238Y-12157343D01*
X6470762Y-12152581D01*
X6475524Y-12147819D01*
X6480286Y-12138295D01*
G04 #@! TO.C,J1*
X7348667Y-12095438D02*
X7348667Y-12166867D01*
X7343905Y-12181152D01*
X7334381Y-12190676D01*
X7320095Y-12195438D01*
X7310571Y-12195438D01*
X7448667Y-12195438D02*
X7391524Y-12195438D01*
X7420095Y-12195438D02*
X7420095Y-12095438D01*
X7410571Y-12109724D01*
X7401048Y-12119248D01*
X7391524Y-12124009D01*
G04 #@! TO.C,J2*
X7346667Y-8995238D02*
X7346667Y-9066667D01*
X7341905Y-9080952D01*
X7332381Y-9090476D01*
X7318095Y-9095238D01*
X7308571Y-9095238D01*
X7389524Y-9004762D02*
X7394286Y-9000000D01*
X7403809Y-8995238D01*
X7427619Y-8995238D01*
X7437143Y-9000000D01*
X7441905Y-9004762D01*
X7446667Y-9014286D01*
X7446667Y-9023810D01*
X7441905Y-9038095D01*
X7384762Y-9095238D01*
X7446667Y-9095238D01*
G04 #@! TO.C,J4*
X5824667Y-8595438D02*
X5824667Y-8666867D01*
X5819905Y-8681152D01*
X5810381Y-8690676D01*
X5796095Y-8695438D01*
X5786571Y-8695438D01*
X5915143Y-8628771D02*
X5915143Y-8695438D01*
X5891333Y-8590676D02*
X5867524Y-8662105D01*
X5929428Y-8662105D01*
G04 #@! TO.C,J6*
X6332667Y-8595438D02*
X6332667Y-8666867D01*
X6327905Y-8681152D01*
X6318381Y-8690676D01*
X6304095Y-8695438D01*
X6294571Y-8695438D01*
X6423143Y-8595438D02*
X6404095Y-8595438D01*
X6394571Y-8600200D01*
X6389809Y-8604962D01*
X6380286Y-8619248D01*
X6375524Y-8638295D01*
X6375524Y-8676390D01*
X6380286Y-8685914D01*
X6385048Y-8690676D01*
X6394571Y-8695438D01*
X6413619Y-8695438D01*
X6423143Y-8690676D01*
X6427905Y-8685914D01*
X6432667Y-8676390D01*
X6432667Y-8652581D01*
X6427905Y-8643057D01*
X6423143Y-8638295D01*
X6413619Y-8633533D01*
X6394571Y-8633533D01*
X6385048Y-8638295D01*
X6380286Y-8643057D01*
X6375524Y-8652581D01*
G04 #@! TO.C,J7*
X5366667Y-8595238D02*
X5366667Y-8666667D01*
X5361905Y-8680952D01*
X5352381Y-8690476D01*
X5338095Y-8695238D01*
X5328571Y-8695238D01*
X5404762Y-8595238D02*
X5471429Y-8595238D01*
X5428571Y-8695238D01*
G04 #@! TO.C,J45*
X7899048Y-6415238D02*
X7899048Y-6486667D01*
X7894286Y-6500952D01*
X7884762Y-6510476D01*
X7870476Y-6515238D01*
X7860952Y-6515238D01*
X7989524Y-6448571D02*
X7989524Y-6515238D01*
X7965714Y-6410476D02*
X7941905Y-6481905D01*
X8003809Y-6481905D01*
X8089524Y-6415238D02*
X8041905Y-6415238D01*
X8037143Y-6462857D01*
X8041905Y-6458095D01*
X8051428Y-6453333D01*
X8075238Y-6453333D01*
X8084762Y-6458095D01*
X8089524Y-6462857D01*
X8094286Y-6472381D01*
X8094286Y-6496190D01*
X8089524Y-6505714D01*
X8084762Y-6510476D01*
X8075238Y-6515238D01*
X8051428Y-6515238D01*
X8041905Y-6510476D01*
X8037143Y-6505714D01*
G04 #@! TO.C,J46*
X8429048Y-7931238D02*
X8429048Y-8002667D01*
X8424286Y-8016952D01*
X8414762Y-8026476D01*
X8400476Y-8031238D01*
X8390952Y-8031238D01*
X8519524Y-7964571D02*
X8519524Y-8031238D01*
X8495714Y-7926476D02*
X8471905Y-7997905D01*
X8533810Y-7997905D01*
X8614762Y-7931238D02*
X8595714Y-7931238D01*
X8586190Y-7936000D01*
X8581429Y-7940762D01*
X8571905Y-7955048D01*
X8567143Y-7974095D01*
X8567143Y-8012190D01*
X8571905Y-8021714D01*
X8576667Y-8026476D01*
X8586190Y-8031238D01*
X8605238Y-8031238D01*
X8614762Y-8026476D01*
X8619524Y-8021714D01*
X8624286Y-8012190D01*
X8624286Y-7988381D01*
X8619524Y-7978857D01*
X8614762Y-7974095D01*
X8605238Y-7969333D01*
X8586190Y-7969333D01*
X8576667Y-7974095D01*
X8571905Y-7978857D01*
X8567143Y-7988381D01*
G04 #@! TO.C,J5*
X6078667Y-8595438D02*
X6078667Y-8666867D01*
X6073905Y-8681152D01*
X6064381Y-8690676D01*
X6050095Y-8695438D01*
X6040571Y-8695438D01*
X6173905Y-8595438D02*
X6126286Y-8595438D01*
X6121524Y-8643057D01*
X6126286Y-8638295D01*
X6135809Y-8633533D01*
X6159619Y-8633533D01*
X6169143Y-8638295D01*
X6173905Y-8643057D01*
X6178667Y-8652581D01*
X6178667Y-8676390D01*
X6173905Y-8685914D01*
X6169143Y-8690676D01*
X6159619Y-8695438D01*
X6135809Y-8695438D01*
X6126286Y-8690676D01*
X6121524Y-8685914D01*
G04 #@! TO.C,J44*
X8429048Y-8145238D02*
X8429048Y-8216667D01*
X8424286Y-8230952D01*
X8414762Y-8240476D01*
X8400476Y-8245238D01*
X8390952Y-8245238D01*
X8519524Y-8178571D02*
X8519524Y-8245238D01*
X8495714Y-8140476D02*
X8471905Y-8211905D01*
X8533810Y-8211905D01*
X8614762Y-8178571D02*
X8614762Y-8245238D01*
X8590952Y-8140476D02*
X8567143Y-8211905D01*
X8629048Y-8211905D01*
G04 #@! TO.C,L1*
X6743333Y-9205238D02*
X6695714Y-9205238D01*
X6695714Y-9105238D01*
X6829048Y-9205238D02*
X6771905Y-9205238D01*
X6800476Y-9205238D02*
X6800476Y-9105238D01*
X6790952Y-9119524D01*
X6781428Y-9129048D01*
X6771905Y-9133810D01*
G04 #@! TO.C,J54*
X15815238Y-12430952D02*
X15886667Y-12430952D01*
X15900952Y-12435714D01*
X15910476Y-12445238D01*
X15915238Y-12459524D01*
X15915238Y-12469048D01*
X15815238Y-12335714D02*
X15815238Y-12383333D01*
X15862857Y-12388095D01*
X15858095Y-12383333D01*
X15853333Y-12373809D01*
X15853333Y-12350000D01*
X15858095Y-12340476D01*
X15862857Y-12335714D01*
X15872381Y-12330952D01*
X15896190Y-12330952D01*
X15905714Y-12335714D01*
X15910476Y-12340476D01*
X15915238Y-12350000D01*
X15915238Y-12373809D01*
X15910476Y-12383333D01*
X15905714Y-12388095D01*
X15848571Y-12245238D02*
X15915238Y-12245238D01*
X15810476Y-12269048D02*
X15881905Y-12292857D01*
X15881905Y-12230952D01*
G04 #@! TO.C,J60*
X16325238Y-8930952D02*
X16396667Y-8930952D01*
X16410952Y-8935714D01*
X16420476Y-8945238D01*
X16425238Y-8959524D01*
X16425238Y-8969048D01*
X16325238Y-8840476D02*
X16325238Y-8859524D01*
X16330000Y-8869048D01*
X16334762Y-8873810D01*
X16349048Y-8883333D01*
X16368095Y-8888095D01*
X16406190Y-8888095D01*
X16415714Y-8883333D01*
X16420476Y-8878571D01*
X16425238Y-8869048D01*
X16425238Y-8850000D01*
X16420476Y-8840476D01*
X16415714Y-8835714D01*
X16406190Y-8830952D01*
X16382381Y-8830952D01*
X16372857Y-8835714D01*
X16368095Y-8840476D01*
X16363333Y-8850000D01*
X16363333Y-8869048D01*
X16368095Y-8878571D01*
X16372857Y-8883333D01*
X16382381Y-8888095D01*
X16325238Y-8769048D02*
X16325238Y-8759524D01*
X16330000Y-8750000D01*
X16334762Y-8745238D01*
X16344286Y-8740476D01*
X16363333Y-8735714D01*
X16387143Y-8735714D01*
X16406190Y-8740476D01*
X16415714Y-8745238D01*
X16420476Y-8750000D01*
X16425238Y-8759524D01*
X16425238Y-8769048D01*
X16420476Y-8778571D01*
X16415714Y-8783333D01*
X16406190Y-8788095D01*
X16387143Y-8792857D01*
X16363333Y-8792857D01*
X16344286Y-8788095D01*
X16334762Y-8783333D01*
X16330000Y-8778571D01*
X16325238Y-8769048D01*
G04 #@! TO.C,J62*
X16325238Y-12430952D02*
X16396667Y-12430952D01*
X16410952Y-12435714D01*
X16420476Y-12445238D01*
X16425238Y-12459524D01*
X16425238Y-12469048D01*
X16325238Y-12340476D02*
X16325238Y-12359524D01*
X16330000Y-12369048D01*
X16334762Y-12373809D01*
X16349048Y-12383333D01*
X16368095Y-12388095D01*
X16406190Y-12388095D01*
X16415714Y-12383333D01*
X16420476Y-12378571D01*
X16425238Y-12369048D01*
X16425238Y-12350000D01*
X16420476Y-12340476D01*
X16415714Y-12335714D01*
X16406190Y-12330952D01*
X16382381Y-12330952D01*
X16372857Y-12335714D01*
X16368095Y-12340476D01*
X16363333Y-12350000D01*
X16363333Y-12369048D01*
X16368095Y-12378571D01*
X16372857Y-12383333D01*
X16382381Y-12388095D01*
X16334762Y-12292857D02*
X16330000Y-12288095D01*
X16325238Y-12278571D01*
X16325238Y-12254762D01*
X16330000Y-12245238D01*
X16334762Y-12240476D01*
X16344286Y-12235714D01*
X16353809Y-12235714D01*
X16368095Y-12240476D01*
X16425238Y-12297619D01*
X16425238Y-12235714D01*
G04 #@! TO.C,U6*
X15023809Y-9835238D02*
X15023809Y-9916190D01*
X15028571Y-9925714D01*
X15033333Y-9930476D01*
X15042857Y-9935238D01*
X15061905Y-9935238D01*
X15071428Y-9930476D01*
X15076190Y-9925714D01*
X15080952Y-9916190D01*
X15080952Y-9835238D01*
X15171428Y-9835238D02*
X15152381Y-9835238D01*
X15142857Y-9840000D01*
X15138095Y-9844762D01*
X15128571Y-9859048D01*
X15123809Y-9878095D01*
X15123809Y-9916190D01*
X15128571Y-9925714D01*
X15133333Y-9930476D01*
X15142857Y-9935238D01*
X15161905Y-9935238D01*
X15171428Y-9930476D01*
X15176190Y-9925714D01*
X15180952Y-9916190D01*
X15180952Y-9892381D01*
X15176190Y-9882857D01*
X15171428Y-9878095D01*
X15161905Y-9873333D01*
X15142857Y-9873333D01*
X15133333Y-9878095D01*
X15128571Y-9882857D01*
X15123809Y-9892381D01*
G04 #@! TO.C,J29*
X16249048Y-9065238D02*
X16249048Y-9136667D01*
X16244286Y-9150952D01*
X16234762Y-9160476D01*
X16220476Y-9165238D01*
X16210952Y-9165238D01*
X16291905Y-9074762D02*
X16296667Y-9070000D01*
X16306190Y-9065238D01*
X16330000Y-9065238D01*
X16339524Y-9070000D01*
X16344286Y-9074762D01*
X16349048Y-9084286D01*
X16349048Y-9093810D01*
X16344286Y-9108095D01*
X16287143Y-9165238D01*
X16349048Y-9165238D01*
X16396667Y-9165238D02*
X16415714Y-9165238D01*
X16425238Y-9160476D01*
X16430000Y-9155714D01*
X16439524Y-9141429D01*
X16444286Y-9122381D01*
X16444286Y-9084286D01*
X16439524Y-9074762D01*
X16434762Y-9070000D01*
X16425238Y-9065238D01*
X16406190Y-9065238D01*
X16396667Y-9070000D01*
X16391905Y-9074762D01*
X16387143Y-9084286D01*
X16387143Y-9108095D01*
X16391905Y-9117619D01*
X16396667Y-9122381D01*
X16406190Y-9127143D01*
X16425238Y-9127143D01*
X16434762Y-9122381D01*
X16439524Y-9117619D01*
X16444286Y-9108095D01*
G04 #@! TO.C,J32*
X16835238Y-8930952D02*
X16906667Y-8930952D01*
X16920952Y-8935714D01*
X16930476Y-8945238D01*
X16935238Y-8959524D01*
X16935238Y-8969048D01*
X16835238Y-8892857D02*
X16835238Y-8830952D01*
X16873333Y-8864286D01*
X16873333Y-8850000D01*
X16878095Y-8840476D01*
X16882857Y-8835714D01*
X16892381Y-8830952D01*
X16916190Y-8830952D01*
X16925714Y-8835714D01*
X16930476Y-8840476D01*
X16935238Y-8850000D01*
X16935238Y-8878571D01*
X16930476Y-8888095D01*
X16925714Y-8892857D01*
X16844762Y-8792857D02*
X16840000Y-8788095D01*
X16835238Y-8778571D01*
X16835238Y-8754762D01*
X16840000Y-8745238D01*
X16844762Y-8740476D01*
X16854286Y-8735714D01*
X16863810Y-8735714D01*
X16878095Y-8740476D01*
X16935238Y-8797619D01*
X16935238Y-8735714D01*
G04 #@! TO.C,J33*
X16835238Y-12430952D02*
X16906667Y-12430952D01*
X16920952Y-12435714D01*
X16930476Y-12445238D01*
X16935238Y-12459524D01*
X16935238Y-12469048D01*
X16835238Y-12392857D02*
X16835238Y-12330952D01*
X16873333Y-12364286D01*
X16873333Y-12350000D01*
X16878095Y-12340476D01*
X16882857Y-12335714D01*
X16892381Y-12330952D01*
X16916190Y-12330952D01*
X16925714Y-12335714D01*
X16930476Y-12340476D01*
X16935238Y-12350000D01*
X16935238Y-12378571D01*
X16930476Y-12388095D01*
X16925714Y-12392857D01*
X16835238Y-12297619D02*
X16835238Y-12235714D01*
X16873333Y-12269048D01*
X16873333Y-12254762D01*
X16878095Y-12245238D01*
X16882857Y-12240476D01*
X16892381Y-12235714D01*
X16916190Y-12235714D01*
X16925714Y-12240476D01*
X16930476Y-12245238D01*
X16935238Y-12254762D01*
X16935238Y-12283333D01*
X16930476Y-12292857D01*
X16925714Y-12297619D01*
G04 #@! TO.C,J38*
X15815238Y-8930952D02*
X15886667Y-8930952D01*
X15900952Y-8935714D01*
X15910476Y-8945238D01*
X15915238Y-8959524D01*
X15915238Y-8969048D01*
X15815238Y-8892857D02*
X15815238Y-8830952D01*
X15853333Y-8864286D01*
X15853333Y-8850000D01*
X15858095Y-8840476D01*
X15862857Y-8835714D01*
X15872381Y-8830952D01*
X15896190Y-8830952D01*
X15905714Y-8835714D01*
X15910476Y-8840476D01*
X15915238Y-8850000D01*
X15915238Y-8878571D01*
X15910476Y-8888095D01*
X15905714Y-8892857D01*
X15858095Y-8773810D02*
X15853333Y-8783333D01*
X15848571Y-8788095D01*
X15839048Y-8792857D01*
X15834286Y-8792857D01*
X15824762Y-8788095D01*
X15820000Y-8783333D01*
X15815238Y-8773810D01*
X15815238Y-8754762D01*
X15820000Y-8745238D01*
X15824762Y-8740476D01*
X15834286Y-8735714D01*
X15839048Y-8735714D01*
X15848571Y-8740476D01*
X15853333Y-8745238D01*
X15858095Y-8754762D01*
X15858095Y-8773810D01*
X15862857Y-8783333D01*
X15867619Y-8788095D01*
X15877143Y-8792857D01*
X15896190Y-8792857D01*
X15905714Y-8788095D01*
X15910476Y-8783333D01*
X15915238Y-8773810D01*
X15915238Y-8754762D01*
X15910476Y-8745238D01*
X15905714Y-8740476D01*
X15896190Y-8735714D01*
X15877143Y-8735714D01*
X15867619Y-8740476D01*
X15862857Y-8745238D01*
X15858095Y-8754762D01*
G04 #@! TO.C,J39*
X15305238Y-12430952D02*
X15376667Y-12430952D01*
X15390952Y-12435714D01*
X15400476Y-12445238D01*
X15405238Y-12459524D01*
X15405238Y-12469048D01*
X15305238Y-12392857D02*
X15305238Y-12330952D01*
X15343333Y-12364286D01*
X15343333Y-12350000D01*
X15348095Y-12340476D01*
X15352857Y-12335714D01*
X15362381Y-12330952D01*
X15386190Y-12330952D01*
X15395714Y-12335714D01*
X15400476Y-12340476D01*
X15405238Y-12350000D01*
X15405238Y-12378571D01*
X15400476Y-12388095D01*
X15395714Y-12392857D01*
X15405238Y-12283333D02*
X15405238Y-12264286D01*
X15400476Y-12254762D01*
X15395714Y-12250000D01*
X15381428Y-12240476D01*
X15362381Y-12235714D01*
X15324286Y-12235714D01*
X15314762Y-12240476D01*
X15310000Y-12245238D01*
X15305238Y-12254762D01*
X15305238Y-12273809D01*
X15310000Y-12283333D01*
X15314762Y-12288095D01*
X15324286Y-12292857D01*
X15348095Y-12292857D01*
X15357619Y-12288095D01*
X15362381Y-12283333D01*
X15367143Y-12273809D01*
X15367143Y-12254762D01*
X15362381Y-12245238D01*
X15357619Y-12240476D01*
X15348095Y-12235714D01*
G04 #@! TO.C,J41*
X15305238Y-8930952D02*
X15376667Y-8930952D01*
X15390952Y-8935714D01*
X15400476Y-8945238D01*
X15405238Y-8959524D01*
X15405238Y-8969048D01*
X15338571Y-8840476D02*
X15405238Y-8840476D01*
X15300476Y-8864286D02*
X15371905Y-8888095D01*
X15371905Y-8826190D01*
X15405238Y-8735714D02*
X15405238Y-8792857D01*
X15405238Y-8764286D02*
X15305238Y-8764286D01*
X15319524Y-8773810D01*
X15329048Y-8783333D01*
X15333809Y-8792857D01*
G04 #@! TO.C,C15*
X15615714Y-9765714D02*
X15610952Y-9770476D01*
X15596667Y-9775238D01*
X15587143Y-9775238D01*
X15572857Y-9770476D01*
X15563333Y-9760952D01*
X15558571Y-9751429D01*
X15553809Y-9732381D01*
X15553809Y-9718095D01*
X15558571Y-9699048D01*
X15563333Y-9689524D01*
X15572857Y-9680000D01*
X15587143Y-9675238D01*
X15596667Y-9675238D01*
X15610952Y-9680000D01*
X15615714Y-9684762D01*
X15710952Y-9775238D02*
X15653809Y-9775238D01*
X15682381Y-9775238D02*
X15682381Y-9675238D01*
X15672857Y-9689524D01*
X15663333Y-9699048D01*
X15653809Y-9703810D01*
X15801428Y-9675238D02*
X15753809Y-9675238D01*
X15749048Y-9722857D01*
X15753809Y-9718095D01*
X15763333Y-9713333D01*
X15787143Y-9713333D01*
X15796667Y-9718095D01*
X15801428Y-9722857D01*
X15806190Y-9732381D01*
X15806190Y-9756190D01*
X15801428Y-9765714D01*
X15796667Y-9770476D01*
X15787143Y-9775238D01*
X15763333Y-9775238D01*
X15753809Y-9770476D01*
X15749048Y-9765714D01*
G04 #@! TO.C,C16*
X16785714Y-11664286D02*
X16790476Y-11669048D01*
X16795238Y-11683333D01*
X16795238Y-11692857D01*
X16790476Y-11707143D01*
X16780952Y-11716667D01*
X16771428Y-11721428D01*
X16752381Y-11726190D01*
X16738095Y-11726190D01*
X16719048Y-11721428D01*
X16709524Y-11716667D01*
X16700000Y-11707143D01*
X16695238Y-11692857D01*
X16695238Y-11683333D01*
X16700000Y-11669048D01*
X16704762Y-11664286D01*
X16795238Y-11569048D02*
X16795238Y-11626190D01*
X16795238Y-11597619D02*
X16695238Y-11597619D01*
X16709524Y-11607143D01*
X16719048Y-11616667D01*
X16723809Y-11626190D01*
X16695238Y-11483333D02*
X16695238Y-11502381D01*
X16700000Y-11511905D01*
X16704762Y-11516667D01*
X16719048Y-11526190D01*
X16738095Y-11530952D01*
X16776190Y-11530952D01*
X16785714Y-11526190D01*
X16790476Y-11521428D01*
X16795238Y-11511905D01*
X16795238Y-11492857D01*
X16790476Y-11483333D01*
X16785714Y-11478571D01*
X16776190Y-11473809D01*
X16752381Y-11473809D01*
X16742857Y-11478571D01*
X16738095Y-11483333D01*
X16733333Y-11492857D01*
X16733333Y-11511905D01*
X16738095Y-11521428D01*
X16742857Y-11526190D01*
X16752381Y-11530952D01*
G04 #@! TO.C,J53*
X13515238Y-12430952D02*
X13586667Y-12430952D01*
X13600952Y-12435714D01*
X13610476Y-12445238D01*
X13615238Y-12459524D01*
X13615238Y-12469048D01*
X13515238Y-12335714D02*
X13515238Y-12383333D01*
X13562857Y-12388095D01*
X13558095Y-12383333D01*
X13553333Y-12373809D01*
X13553333Y-12350000D01*
X13558095Y-12340476D01*
X13562857Y-12335714D01*
X13572381Y-12330952D01*
X13596190Y-12330952D01*
X13605714Y-12335714D01*
X13610476Y-12340476D01*
X13615238Y-12350000D01*
X13615238Y-12373809D01*
X13610476Y-12383333D01*
X13605714Y-12388095D01*
X13515238Y-12297619D02*
X13515238Y-12235714D01*
X13553333Y-12269048D01*
X13553333Y-12254762D01*
X13558095Y-12245238D01*
X13562857Y-12240476D01*
X13572381Y-12235714D01*
X13596190Y-12235714D01*
X13605714Y-12240476D01*
X13610476Y-12245238D01*
X13615238Y-12254762D01*
X13615238Y-12283333D01*
X13610476Y-12292857D01*
X13605714Y-12297619D01*
G04 #@! TO.C,J59*
X14025238Y-8930952D02*
X14096667Y-8930952D01*
X14110952Y-8935714D01*
X14120476Y-8945238D01*
X14125238Y-8959524D01*
X14125238Y-8969048D01*
X14025238Y-8835714D02*
X14025238Y-8883333D01*
X14072857Y-8888095D01*
X14068095Y-8883333D01*
X14063333Y-8873810D01*
X14063333Y-8850000D01*
X14068095Y-8840476D01*
X14072857Y-8835714D01*
X14082381Y-8830952D01*
X14106190Y-8830952D01*
X14115714Y-8835714D01*
X14120476Y-8840476D01*
X14125238Y-8850000D01*
X14125238Y-8873810D01*
X14120476Y-8883333D01*
X14115714Y-8888095D01*
X14125238Y-8783333D02*
X14125238Y-8764286D01*
X14120476Y-8754762D01*
X14115714Y-8750000D01*
X14101428Y-8740476D01*
X14082381Y-8735714D01*
X14044286Y-8735714D01*
X14034762Y-8740476D01*
X14030000Y-8745238D01*
X14025238Y-8754762D01*
X14025238Y-8773810D01*
X14030000Y-8783333D01*
X14034762Y-8788095D01*
X14044286Y-8792857D01*
X14068095Y-8792857D01*
X14077619Y-8788095D01*
X14082381Y-8783333D01*
X14087143Y-8773810D01*
X14087143Y-8754762D01*
X14082381Y-8745238D01*
X14077619Y-8740476D01*
X14068095Y-8735714D01*
G04 #@! TO.C,J61*
X14025238Y-12430952D02*
X14096667Y-12430952D01*
X14110952Y-12435714D01*
X14120476Y-12445238D01*
X14125238Y-12459524D01*
X14125238Y-12469048D01*
X14025238Y-12340476D02*
X14025238Y-12359524D01*
X14030000Y-12369048D01*
X14034762Y-12373809D01*
X14049048Y-12383333D01*
X14068095Y-12388095D01*
X14106190Y-12388095D01*
X14115714Y-12383333D01*
X14120476Y-12378571D01*
X14125238Y-12369048D01*
X14125238Y-12350000D01*
X14120476Y-12340476D01*
X14115714Y-12335714D01*
X14106190Y-12330952D01*
X14082381Y-12330952D01*
X14072857Y-12335714D01*
X14068095Y-12340476D01*
X14063333Y-12350000D01*
X14063333Y-12369048D01*
X14068095Y-12378571D01*
X14072857Y-12383333D01*
X14082381Y-12388095D01*
X14125238Y-12235714D02*
X14125238Y-12292857D01*
X14125238Y-12264286D02*
X14025238Y-12264286D01*
X14039524Y-12273809D01*
X14049048Y-12283333D01*
X14053809Y-12292857D01*
G04 #@! TO.C,U5*
X12723809Y-9835238D02*
X12723809Y-9916190D01*
X12728571Y-9925714D01*
X12733333Y-9930476D01*
X12742857Y-9935238D01*
X12761905Y-9935238D01*
X12771428Y-9930476D01*
X12776190Y-9925714D01*
X12780952Y-9916190D01*
X12780952Y-9835238D01*
X12876190Y-9835238D02*
X12828571Y-9835238D01*
X12823809Y-9882857D01*
X12828571Y-9878095D01*
X12838095Y-9873333D01*
X12861905Y-9873333D01*
X12871428Y-9878095D01*
X12876190Y-9882857D01*
X12880952Y-9892381D01*
X12880952Y-9916190D01*
X12876190Y-9925714D01*
X12871428Y-9930476D01*
X12861905Y-9935238D01*
X12838095Y-9935238D01*
X12828571Y-9930476D01*
X12823809Y-9925714D01*
G04 #@! TO.C,J28*
X13949048Y-9065238D02*
X13949048Y-9136667D01*
X13944286Y-9150952D01*
X13934762Y-9160476D01*
X13920476Y-9165238D01*
X13910952Y-9165238D01*
X13991905Y-9074762D02*
X13996667Y-9070000D01*
X14006190Y-9065238D01*
X14030000Y-9065238D01*
X14039524Y-9070000D01*
X14044286Y-9074762D01*
X14049048Y-9084286D01*
X14049048Y-9093810D01*
X14044286Y-9108095D01*
X13987143Y-9165238D01*
X14049048Y-9165238D01*
X14106190Y-9108095D02*
X14096667Y-9103333D01*
X14091905Y-9098571D01*
X14087143Y-9089048D01*
X14087143Y-9084286D01*
X14091905Y-9074762D01*
X14096667Y-9070000D01*
X14106190Y-9065238D01*
X14125238Y-9065238D01*
X14134762Y-9070000D01*
X14139524Y-9074762D01*
X14144286Y-9084286D01*
X14144286Y-9089048D01*
X14139524Y-9098571D01*
X14134762Y-9103333D01*
X14125238Y-9108095D01*
X14106190Y-9108095D01*
X14096667Y-9112857D01*
X14091905Y-9117619D01*
X14087143Y-9127143D01*
X14087143Y-9146190D01*
X14091905Y-9155714D01*
X14096667Y-9160476D01*
X14106190Y-9165238D01*
X14125238Y-9165238D01*
X14134762Y-9160476D01*
X14139524Y-9155714D01*
X14144286Y-9146190D01*
X14144286Y-9127143D01*
X14139524Y-9117619D01*
X14134762Y-9112857D01*
X14125238Y-9108095D01*
G04 #@! TO.C,J30*
X14535238Y-8930952D02*
X14606667Y-8930952D01*
X14620952Y-8935714D01*
X14630476Y-8945238D01*
X14635238Y-8959524D01*
X14635238Y-8969048D01*
X14535238Y-8892857D02*
X14535238Y-8830952D01*
X14573333Y-8864286D01*
X14573333Y-8850000D01*
X14578095Y-8840476D01*
X14582857Y-8835714D01*
X14592381Y-8830952D01*
X14616190Y-8830952D01*
X14625714Y-8835714D01*
X14630476Y-8840476D01*
X14635238Y-8850000D01*
X14635238Y-8878571D01*
X14630476Y-8888095D01*
X14625714Y-8892857D01*
X14535238Y-8769048D02*
X14535238Y-8759524D01*
X14540000Y-8750000D01*
X14544762Y-8745238D01*
X14554286Y-8740476D01*
X14573333Y-8735714D01*
X14597143Y-8735714D01*
X14616190Y-8740476D01*
X14625714Y-8745238D01*
X14630476Y-8750000D01*
X14635238Y-8759524D01*
X14635238Y-8769048D01*
X14630476Y-8778571D01*
X14625714Y-8783333D01*
X14616190Y-8788095D01*
X14597143Y-8792857D01*
X14573333Y-8792857D01*
X14554286Y-8788095D01*
X14544762Y-8783333D01*
X14540000Y-8778571D01*
X14535238Y-8769048D01*
G04 #@! TO.C,J31*
X14535238Y-12430952D02*
X14606667Y-12430952D01*
X14620952Y-12435714D01*
X14630476Y-12445238D01*
X14635238Y-12459524D01*
X14635238Y-12469048D01*
X14535238Y-12392857D02*
X14535238Y-12330952D01*
X14573333Y-12364286D01*
X14573333Y-12350000D01*
X14578095Y-12340476D01*
X14582857Y-12335714D01*
X14592381Y-12330952D01*
X14616190Y-12330952D01*
X14625714Y-12335714D01*
X14630476Y-12340476D01*
X14635238Y-12350000D01*
X14635238Y-12378571D01*
X14630476Y-12388095D01*
X14625714Y-12392857D01*
X14635238Y-12235714D02*
X14635238Y-12292857D01*
X14635238Y-12264286D02*
X14535238Y-12264286D01*
X14549524Y-12273809D01*
X14559048Y-12283333D01*
X14563809Y-12292857D01*
G04 #@! TO.C,J36*
X13515238Y-8930952D02*
X13586667Y-8930952D01*
X13600952Y-8935714D01*
X13610476Y-8945238D01*
X13615238Y-8959524D01*
X13615238Y-8969048D01*
X13515238Y-8892857D02*
X13515238Y-8830952D01*
X13553333Y-8864286D01*
X13553333Y-8850000D01*
X13558095Y-8840476D01*
X13562857Y-8835714D01*
X13572381Y-8830952D01*
X13596190Y-8830952D01*
X13605714Y-8835714D01*
X13610476Y-8840476D01*
X13615238Y-8850000D01*
X13615238Y-8878571D01*
X13610476Y-8888095D01*
X13605714Y-8892857D01*
X13515238Y-8745238D02*
X13515238Y-8764286D01*
X13520000Y-8773810D01*
X13524762Y-8778571D01*
X13539048Y-8788095D01*
X13558095Y-8792857D01*
X13596190Y-8792857D01*
X13605714Y-8788095D01*
X13610476Y-8783333D01*
X13615238Y-8773810D01*
X13615238Y-8754762D01*
X13610476Y-8745238D01*
X13605714Y-8740476D01*
X13596190Y-8735714D01*
X13572381Y-8735714D01*
X13562857Y-8740476D01*
X13558095Y-8745238D01*
X13553333Y-8754762D01*
X13553333Y-8773810D01*
X13558095Y-8783333D01*
X13562857Y-8788095D01*
X13572381Y-8792857D01*
G04 #@! TO.C,J37*
X13005238Y-12430952D02*
X13076667Y-12430952D01*
X13090952Y-12435714D01*
X13100476Y-12445238D01*
X13105238Y-12459524D01*
X13105238Y-12469048D01*
X13005238Y-12392857D02*
X13005238Y-12330952D01*
X13043333Y-12364286D01*
X13043333Y-12350000D01*
X13048095Y-12340476D01*
X13052857Y-12335714D01*
X13062381Y-12330952D01*
X13086190Y-12330952D01*
X13095714Y-12335714D01*
X13100476Y-12340476D01*
X13105238Y-12350000D01*
X13105238Y-12378571D01*
X13100476Y-12388095D01*
X13095714Y-12392857D01*
X13005238Y-12297619D02*
X13005238Y-12230952D01*
X13105238Y-12273809D01*
G04 #@! TO.C,J40*
X13005238Y-8930952D02*
X13076667Y-8930952D01*
X13090952Y-8935714D01*
X13100476Y-8945238D01*
X13105238Y-8959524D01*
X13105238Y-8969048D01*
X13038571Y-8840476D02*
X13105238Y-8840476D01*
X13000476Y-8864286D02*
X13071905Y-8888095D01*
X13071905Y-8826190D01*
X13005238Y-8769048D02*
X13005238Y-8759524D01*
X13010000Y-8750000D01*
X13014762Y-8745238D01*
X13024286Y-8740476D01*
X13043333Y-8735714D01*
X13067143Y-8735714D01*
X13086190Y-8740476D01*
X13095714Y-8745238D01*
X13100476Y-8750000D01*
X13105238Y-8759524D01*
X13105238Y-8769048D01*
X13100476Y-8778571D01*
X13095714Y-8783333D01*
X13086190Y-8788095D01*
X13067143Y-8792857D01*
X13043333Y-8792857D01*
X13024286Y-8788095D01*
X13014762Y-8783333D01*
X13010000Y-8778571D01*
X13005238Y-8769048D01*
G04 #@! TO.C,C13*
X13315714Y-9765714D02*
X13310952Y-9770476D01*
X13296667Y-9775238D01*
X13287143Y-9775238D01*
X13272857Y-9770476D01*
X13263333Y-9760952D01*
X13258571Y-9751429D01*
X13253809Y-9732381D01*
X13253809Y-9718095D01*
X13258571Y-9699048D01*
X13263333Y-9689524D01*
X13272857Y-9680000D01*
X13287143Y-9675238D01*
X13296667Y-9675238D01*
X13310952Y-9680000D01*
X13315714Y-9684762D01*
X13410952Y-9775238D02*
X13353809Y-9775238D01*
X13382381Y-9775238D02*
X13382381Y-9675238D01*
X13372857Y-9689524D01*
X13363333Y-9699048D01*
X13353809Y-9703810D01*
X13444286Y-9675238D02*
X13506190Y-9675238D01*
X13472857Y-9713333D01*
X13487143Y-9713333D01*
X13496667Y-9718095D01*
X13501428Y-9722857D01*
X13506190Y-9732381D01*
X13506190Y-9756190D01*
X13501428Y-9765714D01*
X13496667Y-9770476D01*
X13487143Y-9775238D01*
X13458571Y-9775238D01*
X13449048Y-9770476D01*
X13444286Y-9765714D01*
G04 #@! TO.C,C14*
X14485714Y-11664286D02*
X14490476Y-11669048D01*
X14495238Y-11683333D01*
X14495238Y-11692857D01*
X14490476Y-11707143D01*
X14480952Y-11716667D01*
X14471428Y-11721428D01*
X14452381Y-11726190D01*
X14438095Y-11726190D01*
X14419048Y-11721428D01*
X14409524Y-11716667D01*
X14400000Y-11707143D01*
X14395238Y-11692857D01*
X14395238Y-11683333D01*
X14400000Y-11669048D01*
X14404762Y-11664286D01*
X14495238Y-11569048D02*
X14495238Y-11626190D01*
X14495238Y-11597619D02*
X14395238Y-11597619D01*
X14409524Y-11607143D01*
X14419048Y-11616667D01*
X14423809Y-11626190D01*
X14428571Y-11483333D02*
X14495238Y-11483333D01*
X14390476Y-11507143D02*
X14461905Y-11530952D01*
X14461905Y-11469048D01*
G04 #@! TO.C,J52*
X11215238Y-12430952D02*
X11286667Y-12430952D01*
X11300952Y-12435714D01*
X11310476Y-12445238D01*
X11315238Y-12459524D01*
X11315238Y-12469048D01*
X11215238Y-12335714D02*
X11215238Y-12383333D01*
X11262857Y-12388095D01*
X11258095Y-12383333D01*
X11253333Y-12373809D01*
X11253333Y-12350000D01*
X11258095Y-12340476D01*
X11262857Y-12335714D01*
X11272381Y-12330952D01*
X11296190Y-12330952D01*
X11305714Y-12335714D01*
X11310476Y-12340476D01*
X11315238Y-12350000D01*
X11315238Y-12373809D01*
X11310476Y-12383333D01*
X11305714Y-12388095D01*
X11224762Y-12292857D02*
X11220000Y-12288095D01*
X11215238Y-12278571D01*
X11215238Y-12254762D01*
X11220000Y-12245238D01*
X11224762Y-12240476D01*
X11234286Y-12235714D01*
X11243809Y-12235714D01*
X11258095Y-12240476D01*
X11315238Y-12297619D01*
X11315238Y-12235714D01*
G04 #@! TO.C,J56*
X11725238Y-8930952D02*
X11796667Y-8930952D01*
X11810952Y-8935714D01*
X11820476Y-8945238D01*
X11825238Y-8959524D01*
X11825238Y-8969048D01*
X11725238Y-8835714D02*
X11725238Y-8883333D01*
X11772857Y-8888095D01*
X11768095Y-8883333D01*
X11763333Y-8873810D01*
X11763333Y-8850000D01*
X11768095Y-8840476D01*
X11772857Y-8835714D01*
X11782381Y-8830952D01*
X11806190Y-8830952D01*
X11815714Y-8835714D01*
X11820476Y-8840476D01*
X11825238Y-8850000D01*
X11825238Y-8873810D01*
X11820476Y-8883333D01*
X11815714Y-8888095D01*
X11725238Y-8745238D02*
X11725238Y-8764286D01*
X11730000Y-8773810D01*
X11734762Y-8778571D01*
X11749048Y-8788095D01*
X11768095Y-8792857D01*
X11806190Y-8792857D01*
X11815714Y-8788095D01*
X11820476Y-8783333D01*
X11825238Y-8773810D01*
X11825238Y-8754762D01*
X11820476Y-8745238D01*
X11815714Y-8740476D01*
X11806190Y-8735714D01*
X11782381Y-8735714D01*
X11772857Y-8740476D01*
X11768095Y-8745238D01*
X11763333Y-8754762D01*
X11763333Y-8773810D01*
X11768095Y-8783333D01*
X11772857Y-8788095D01*
X11782381Y-8792857D01*
G04 #@! TO.C,J58*
X11725238Y-12430952D02*
X11796667Y-12430952D01*
X11810952Y-12435714D01*
X11820476Y-12445238D01*
X11825238Y-12459524D01*
X11825238Y-12469048D01*
X11725238Y-12335714D02*
X11725238Y-12383333D01*
X11772857Y-12388095D01*
X11768095Y-12383333D01*
X11763333Y-12373809D01*
X11763333Y-12350000D01*
X11768095Y-12340476D01*
X11772857Y-12335714D01*
X11782381Y-12330952D01*
X11806190Y-12330952D01*
X11815714Y-12335714D01*
X11820476Y-12340476D01*
X11825238Y-12350000D01*
X11825238Y-12373809D01*
X11820476Y-12383333D01*
X11815714Y-12388095D01*
X11768095Y-12273809D02*
X11763333Y-12283333D01*
X11758571Y-12288095D01*
X11749048Y-12292857D01*
X11744286Y-12292857D01*
X11734762Y-12288095D01*
X11730000Y-12283333D01*
X11725238Y-12273809D01*
X11725238Y-12254762D01*
X11730000Y-12245238D01*
X11734762Y-12240476D01*
X11744286Y-12235714D01*
X11749048Y-12235714D01*
X11758571Y-12240476D01*
X11763333Y-12245238D01*
X11768095Y-12254762D01*
X11768095Y-12273809D01*
X11772857Y-12283333D01*
X11777619Y-12288095D01*
X11787143Y-12292857D01*
X11806190Y-12292857D01*
X11815714Y-12288095D01*
X11820476Y-12283333D01*
X11825238Y-12273809D01*
X11825238Y-12254762D01*
X11820476Y-12245238D01*
X11815714Y-12240476D01*
X11806190Y-12235714D01*
X11787143Y-12235714D01*
X11777619Y-12240476D01*
X11772857Y-12245238D01*
X11768095Y-12254762D01*
G04 #@! TO.C,U4*
X10423810Y-9835238D02*
X10423810Y-9916190D01*
X10428571Y-9925714D01*
X10433333Y-9930476D01*
X10442857Y-9935238D01*
X10461905Y-9935238D01*
X10471429Y-9930476D01*
X10476190Y-9925714D01*
X10480952Y-9916190D01*
X10480952Y-9835238D01*
X10571429Y-9868571D02*
X10571429Y-9935238D01*
X10547619Y-9830476D02*
X10523810Y-9901905D01*
X10585714Y-9901905D01*
G04 #@! TO.C,J15*
X11649048Y-9065238D02*
X11649048Y-9136667D01*
X11644286Y-9150952D01*
X11634762Y-9160476D01*
X11620476Y-9165238D01*
X11610952Y-9165238D01*
X11749048Y-9165238D02*
X11691905Y-9165238D01*
X11720476Y-9165238D02*
X11720476Y-9065238D01*
X11710952Y-9079524D01*
X11701428Y-9089048D01*
X11691905Y-9093810D01*
X11839524Y-9065238D02*
X11791905Y-9065238D01*
X11787143Y-9112857D01*
X11791905Y-9108095D01*
X11801428Y-9103333D01*
X11825238Y-9103333D01*
X11834762Y-9108095D01*
X11839524Y-9112857D01*
X11844286Y-9122381D01*
X11844286Y-9146190D01*
X11839524Y-9155714D01*
X11834762Y-9160476D01*
X11825238Y-9165238D01*
X11801428Y-9165238D01*
X11791905Y-9160476D01*
X11787143Y-9155714D01*
G04 #@! TO.C,J18*
X12235238Y-8930952D02*
X12306667Y-8930952D01*
X12320952Y-8935714D01*
X12330476Y-8945238D01*
X12335238Y-8959524D01*
X12335238Y-8969048D01*
X12335238Y-8830952D02*
X12335238Y-8888095D01*
X12335238Y-8859524D02*
X12235238Y-8859524D01*
X12249524Y-8869048D01*
X12259048Y-8878571D01*
X12263809Y-8888095D01*
X12278095Y-8773810D02*
X12273333Y-8783333D01*
X12268571Y-8788095D01*
X12259048Y-8792857D01*
X12254286Y-8792857D01*
X12244762Y-8788095D01*
X12240000Y-8783333D01*
X12235238Y-8773810D01*
X12235238Y-8754762D01*
X12240000Y-8745238D01*
X12244762Y-8740476D01*
X12254286Y-8735714D01*
X12259048Y-8735714D01*
X12268571Y-8740476D01*
X12273333Y-8745238D01*
X12278095Y-8754762D01*
X12278095Y-8773810D01*
X12282857Y-8783333D01*
X12287619Y-8788095D01*
X12297143Y-8792857D01*
X12316190Y-8792857D01*
X12325714Y-8788095D01*
X12330476Y-8783333D01*
X12335238Y-8773810D01*
X12335238Y-8754762D01*
X12330476Y-8745238D01*
X12325714Y-8740476D01*
X12316190Y-8735714D01*
X12297143Y-8735714D01*
X12287619Y-8740476D01*
X12282857Y-8745238D01*
X12278095Y-8754762D01*
G04 #@! TO.C,J19*
X12235238Y-12430952D02*
X12306667Y-12430952D01*
X12320952Y-12435714D01*
X12330476Y-12445238D01*
X12335238Y-12459524D01*
X12335238Y-12469048D01*
X12335238Y-12330952D02*
X12335238Y-12388095D01*
X12335238Y-12359524D02*
X12235238Y-12359524D01*
X12249524Y-12369048D01*
X12259048Y-12378571D01*
X12263809Y-12388095D01*
X12335238Y-12283333D02*
X12335238Y-12264286D01*
X12330476Y-12254762D01*
X12325714Y-12250000D01*
X12311428Y-12240476D01*
X12292381Y-12235714D01*
X12254286Y-12235714D01*
X12244762Y-12240476D01*
X12240000Y-12245238D01*
X12235238Y-12254762D01*
X12235238Y-12273809D01*
X12240000Y-12283333D01*
X12244762Y-12288095D01*
X12254286Y-12292857D01*
X12278095Y-12292857D01*
X12287619Y-12288095D01*
X12292381Y-12283333D01*
X12297143Y-12273809D01*
X12297143Y-12254762D01*
X12292381Y-12245238D01*
X12287619Y-12240476D01*
X12278095Y-12235714D01*
G04 #@! TO.C,J24*
X11215238Y-8930952D02*
X11286667Y-8930952D01*
X11300952Y-8935714D01*
X11310476Y-8945238D01*
X11315238Y-8959524D01*
X11315238Y-8969048D01*
X11224762Y-8888095D02*
X11220000Y-8883333D01*
X11215238Y-8873810D01*
X11215238Y-8850000D01*
X11220000Y-8840476D01*
X11224762Y-8835714D01*
X11234286Y-8830952D01*
X11243809Y-8830952D01*
X11258095Y-8835714D01*
X11315238Y-8892857D01*
X11315238Y-8830952D01*
X11248571Y-8745238D02*
X11315238Y-8745238D01*
X11210476Y-8769048D02*
X11281905Y-8792857D01*
X11281905Y-8730952D01*
G04 #@! TO.C,J25*
X10705238Y-12430952D02*
X10776667Y-12430952D01*
X10790952Y-12435714D01*
X10800476Y-12445238D01*
X10805238Y-12459524D01*
X10805238Y-12469048D01*
X10714762Y-12388095D02*
X10710000Y-12383333D01*
X10705238Y-12373809D01*
X10705238Y-12350000D01*
X10710000Y-12340476D01*
X10714762Y-12335714D01*
X10724286Y-12330952D01*
X10733810Y-12330952D01*
X10748095Y-12335714D01*
X10805238Y-12392857D01*
X10805238Y-12330952D01*
X10705238Y-12240476D02*
X10705238Y-12288095D01*
X10752857Y-12292857D01*
X10748095Y-12288095D01*
X10743333Y-12278571D01*
X10743333Y-12254762D01*
X10748095Y-12245238D01*
X10752857Y-12240476D01*
X10762381Y-12235714D01*
X10786190Y-12235714D01*
X10795714Y-12240476D01*
X10800476Y-12245238D01*
X10805238Y-12254762D01*
X10805238Y-12278571D01*
X10800476Y-12288095D01*
X10795714Y-12292857D01*
G04 #@! TO.C,J27*
X10705238Y-8930952D02*
X10776667Y-8930952D01*
X10790952Y-8935714D01*
X10800476Y-8945238D01*
X10805238Y-8959524D01*
X10805238Y-8969048D01*
X10714762Y-8888095D02*
X10710000Y-8883333D01*
X10705238Y-8873810D01*
X10705238Y-8850000D01*
X10710000Y-8840476D01*
X10714762Y-8835714D01*
X10724286Y-8830952D01*
X10733810Y-8830952D01*
X10748095Y-8835714D01*
X10805238Y-8892857D01*
X10805238Y-8830952D01*
X10705238Y-8797619D02*
X10705238Y-8730952D01*
X10805238Y-8773810D01*
G04 #@! TO.C,C11*
X11015714Y-9765714D02*
X11010952Y-9770476D01*
X10996667Y-9775238D01*
X10987143Y-9775238D01*
X10972857Y-9770476D01*
X10963333Y-9760952D01*
X10958571Y-9751429D01*
X10953810Y-9732381D01*
X10953810Y-9718095D01*
X10958571Y-9699048D01*
X10963333Y-9689524D01*
X10972857Y-9680000D01*
X10987143Y-9675238D01*
X10996667Y-9675238D01*
X11010952Y-9680000D01*
X11015714Y-9684762D01*
X11110952Y-9775238D02*
X11053810Y-9775238D01*
X11082381Y-9775238D02*
X11082381Y-9675238D01*
X11072857Y-9689524D01*
X11063333Y-9699048D01*
X11053810Y-9703810D01*
X11206190Y-9775238D02*
X11149048Y-9775238D01*
X11177619Y-9775238D02*
X11177619Y-9675238D01*
X11168095Y-9689524D01*
X11158571Y-9699048D01*
X11149048Y-9703810D01*
G04 #@! TO.C,C12*
X12185714Y-11664286D02*
X12190476Y-11669048D01*
X12195238Y-11683333D01*
X12195238Y-11692857D01*
X12190476Y-11707143D01*
X12180952Y-11716667D01*
X12171428Y-11721428D01*
X12152381Y-11726190D01*
X12138095Y-11726190D01*
X12119048Y-11721428D01*
X12109524Y-11716667D01*
X12100000Y-11707143D01*
X12095238Y-11692857D01*
X12095238Y-11683333D01*
X12100000Y-11669048D01*
X12104762Y-11664286D01*
X12195238Y-11569048D02*
X12195238Y-11626190D01*
X12195238Y-11597619D02*
X12095238Y-11597619D01*
X12109524Y-11607143D01*
X12119048Y-11616667D01*
X12123809Y-11626190D01*
X12104762Y-11530952D02*
X12100000Y-11526190D01*
X12095238Y-11516667D01*
X12095238Y-11492857D01*
X12100000Y-11483333D01*
X12104762Y-11478571D01*
X12114286Y-11473809D01*
X12123809Y-11473809D01*
X12138095Y-11478571D01*
X12195238Y-11535714D01*
X12195238Y-11473809D01*
G04 #@! TO.C,J55*
X9425238Y-8930952D02*
X9496667Y-8930952D01*
X9510952Y-8935714D01*
X9520476Y-8945238D01*
X9525238Y-8959524D01*
X9525238Y-8969048D01*
X9425238Y-8835714D02*
X9425238Y-8883333D01*
X9472857Y-8888095D01*
X9468095Y-8883333D01*
X9463333Y-8873810D01*
X9463333Y-8850000D01*
X9468095Y-8840476D01*
X9472857Y-8835714D01*
X9482381Y-8830952D01*
X9506190Y-8830952D01*
X9515714Y-8835714D01*
X9520476Y-8840476D01*
X9525238Y-8850000D01*
X9525238Y-8873810D01*
X9520476Y-8883333D01*
X9515714Y-8888095D01*
X9425238Y-8740476D02*
X9425238Y-8788095D01*
X9472857Y-8792857D01*
X9468095Y-8788095D01*
X9463333Y-8778571D01*
X9463333Y-8754762D01*
X9468095Y-8745238D01*
X9472857Y-8740476D01*
X9482381Y-8735714D01*
X9506190Y-8735714D01*
X9515714Y-8740476D01*
X9520476Y-8745238D01*
X9525238Y-8754762D01*
X9525238Y-8778571D01*
X9520476Y-8788095D01*
X9515714Y-8792857D01*
G04 #@! TO.C,J57*
X9425238Y-12430952D02*
X9496667Y-12430952D01*
X9510952Y-12435714D01*
X9520476Y-12445238D01*
X9525238Y-12459524D01*
X9525238Y-12469048D01*
X9425238Y-12335714D02*
X9425238Y-12383333D01*
X9472857Y-12388095D01*
X9468095Y-12383333D01*
X9463333Y-12373809D01*
X9463333Y-12350000D01*
X9468095Y-12340476D01*
X9472857Y-12335714D01*
X9482381Y-12330952D01*
X9506190Y-12330952D01*
X9515714Y-12335714D01*
X9520476Y-12340476D01*
X9525238Y-12350000D01*
X9525238Y-12373809D01*
X9520476Y-12383333D01*
X9515714Y-12388095D01*
X9425238Y-12297619D02*
X9425238Y-12230952D01*
X9525238Y-12273809D01*
G04 #@! TO.C,J51*
X8915238Y-12430952D02*
X8986667Y-12430952D01*
X9000952Y-12435714D01*
X9010476Y-12445238D01*
X9015238Y-12459524D01*
X9015238Y-12469048D01*
X8915238Y-12335714D02*
X8915238Y-12383333D01*
X8962857Y-12388095D01*
X8958095Y-12383333D01*
X8953333Y-12373809D01*
X8953333Y-12350000D01*
X8958095Y-12340476D01*
X8962857Y-12335714D01*
X8972381Y-12330952D01*
X8996190Y-12330952D01*
X9005714Y-12335714D01*
X9010476Y-12340476D01*
X9015238Y-12350000D01*
X9015238Y-12373809D01*
X9010476Y-12383333D01*
X9005714Y-12388095D01*
X9015238Y-12235714D02*
X9015238Y-12292857D01*
X9015238Y-12264286D02*
X8915238Y-12264286D01*
X8929524Y-12273809D01*
X8939048Y-12283333D01*
X8943810Y-12292857D01*
G04 #@! TO.C,U3*
X8123809Y-9835238D02*
X8123809Y-9916190D01*
X8128571Y-9925714D01*
X8133333Y-9930476D01*
X8142857Y-9935238D01*
X8161905Y-9935238D01*
X8171428Y-9930476D01*
X8176190Y-9925714D01*
X8180952Y-9916190D01*
X8180952Y-9835238D01*
X8219048Y-9835238D02*
X8280952Y-9835238D01*
X8247619Y-9873333D01*
X8261905Y-9873333D01*
X8271428Y-9878095D01*
X8276190Y-9882857D01*
X8280952Y-9892381D01*
X8280952Y-9916190D01*
X8276190Y-9925714D01*
X8271428Y-9930476D01*
X8261905Y-9935238D01*
X8233333Y-9935238D01*
X8223809Y-9930476D01*
X8219048Y-9925714D01*
G04 #@! TO.C,C10*
X9885714Y-11664286D02*
X9890476Y-11669048D01*
X9895238Y-11683333D01*
X9895238Y-11692857D01*
X9890476Y-11707143D01*
X9880952Y-11716667D01*
X9871429Y-11721428D01*
X9852381Y-11726190D01*
X9838095Y-11726190D01*
X9819048Y-11721428D01*
X9809524Y-11716667D01*
X9800000Y-11707143D01*
X9795238Y-11692857D01*
X9795238Y-11683333D01*
X9800000Y-11669048D01*
X9804762Y-11664286D01*
X9895238Y-11569048D02*
X9895238Y-11626190D01*
X9895238Y-11597619D02*
X9795238Y-11597619D01*
X9809524Y-11607143D01*
X9819048Y-11616667D01*
X9823810Y-11626190D01*
X9795238Y-11507143D02*
X9795238Y-11497619D01*
X9800000Y-11488095D01*
X9804762Y-11483333D01*
X9814286Y-11478571D01*
X9833333Y-11473809D01*
X9857143Y-11473809D01*
X9876190Y-11478571D01*
X9885714Y-11483333D01*
X9890476Y-11488095D01*
X9895238Y-11497619D01*
X9895238Y-11507143D01*
X9890476Y-11516667D01*
X9885714Y-11521428D01*
X9876190Y-11526190D01*
X9857143Y-11530952D01*
X9833333Y-11530952D01*
X9814286Y-11526190D01*
X9804762Y-11521428D01*
X9800000Y-11516667D01*
X9795238Y-11507143D01*
G04 #@! TO.C,C9*
X8763333Y-9765714D02*
X8758571Y-9770476D01*
X8744286Y-9775238D01*
X8734762Y-9775238D01*
X8720476Y-9770476D01*
X8710952Y-9760952D01*
X8706190Y-9751429D01*
X8701429Y-9732381D01*
X8701429Y-9718095D01*
X8706190Y-9699048D01*
X8710952Y-9689524D01*
X8720476Y-9680000D01*
X8734762Y-9675238D01*
X8744286Y-9675238D01*
X8758571Y-9680000D01*
X8763333Y-9684762D01*
X8810952Y-9775238D02*
X8830000Y-9775238D01*
X8839524Y-9770476D01*
X8844286Y-9765714D01*
X8853810Y-9751429D01*
X8858571Y-9732381D01*
X8858571Y-9694286D01*
X8853810Y-9684762D01*
X8849048Y-9680000D01*
X8839524Y-9675238D01*
X8820476Y-9675238D01*
X8810952Y-9680000D01*
X8806190Y-9684762D01*
X8801429Y-9694286D01*
X8801429Y-9718095D01*
X8806190Y-9727619D01*
X8810952Y-9732381D01*
X8820476Y-9737143D01*
X8839524Y-9737143D01*
X8849048Y-9732381D01*
X8853810Y-9727619D01*
X8858571Y-9718095D01*
G04 #@! TO.C,J14*
X9349048Y-9065238D02*
X9349048Y-9136667D01*
X9344286Y-9150952D01*
X9334762Y-9160476D01*
X9320476Y-9165238D01*
X9310952Y-9165238D01*
X9449048Y-9165238D02*
X9391905Y-9165238D01*
X9420476Y-9165238D02*
X9420476Y-9065238D01*
X9410952Y-9079524D01*
X9401429Y-9089048D01*
X9391905Y-9093810D01*
X9534762Y-9098571D02*
X9534762Y-9165238D01*
X9510952Y-9060476D02*
X9487143Y-9131905D01*
X9549048Y-9131905D01*
G04 #@! TO.C,U7*
X7093809Y-7165238D02*
X7093809Y-7246190D01*
X7098571Y-7255714D01*
X7103333Y-7260476D01*
X7112857Y-7265238D01*
X7131905Y-7265238D01*
X7141428Y-7260476D01*
X7146190Y-7255714D01*
X7150952Y-7246190D01*
X7150952Y-7165238D01*
X7189048Y-7165238D02*
X7255714Y-7165238D01*
X7212857Y-7265238D01*
G04 #@! TO.C,U8*
X10943810Y-6745238D02*
X10943810Y-6826190D01*
X10948571Y-6835714D01*
X10953333Y-6840476D01*
X10962857Y-6845238D01*
X10981905Y-6845238D01*
X10991429Y-6840476D01*
X10996190Y-6835714D01*
X11000952Y-6826190D01*
X11000952Y-6745238D01*
X11062857Y-6788095D02*
X11053333Y-6783333D01*
X11048571Y-6778571D01*
X11043810Y-6769048D01*
X11043810Y-6764286D01*
X11048571Y-6754762D01*
X11053333Y-6750000D01*
X11062857Y-6745238D01*
X11081905Y-6745238D01*
X11091429Y-6750000D01*
X11096190Y-6754762D01*
X11100952Y-6764286D01*
X11100952Y-6769048D01*
X11096190Y-6778571D01*
X11091429Y-6783333D01*
X11081905Y-6788095D01*
X11062857Y-6788095D01*
X11053333Y-6792857D01*
X11048571Y-6797619D01*
X11043810Y-6807143D01*
X11043810Y-6826190D01*
X11048571Y-6835714D01*
X11053333Y-6840476D01*
X11062857Y-6845238D01*
X11081905Y-6845238D01*
X11091429Y-6840476D01*
X11096190Y-6835714D01*
X11100952Y-6826190D01*
X11100952Y-6807143D01*
X11096190Y-6797619D01*
X11091429Y-6792857D01*
X11081905Y-6788095D01*
G04 #@! TO.C,J26*
X8405238Y-8930952D02*
X8476667Y-8930952D01*
X8490952Y-8935714D01*
X8500476Y-8945238D01*
X8505238Y-8959524D01*
X8505238Y-8969048D01*
X8414762Y-8888095D02*
X8410000Y-8883333D01*
X8405238Y-8873810D01*
X8405238Y-8850000D01*
X8410000Y-8840476D01*
X8414762Y-8835714D01*
X8424286Y-8830952D01*
X8433810Y-8830952D01*
X8448095Y-8835714D01*
X8505238Y-8892857D01*
X8505238Y-8830952D01*
X8405238Y-8745238D02*
X8405238Y-8764286D01*
X8410000Y-8773810D01*
X8414762Y-8778571D01*
X8429048Y-8788095D01*
X8448095Y-8792857D01*
X8486190Y-8792857D01*
X8495714Y-8788095D01*
X8500476Y-8783333D01*
X8505238Y-8773810D01*
X8505238Y-8754762D01*
X8500476Y-8745238D01*
X8495714Y-8740476D01*
X8486190Y-8735714D01*
X8462381Y-8735714D01*
X8452857Y-8740476D01*
X8448095Y-8745238D01*
X8443333Y-8754762D01*
X8443333Y-8773810D01*
X8448095Y-8783333D01*
X8452857Y-8788095D01*
X8462381Y-8792857D01*
G04 #@! TO.C,J23*
X8405238Y-12430952D02*
X8476667Y-12430952D01*
X8490952Y-12435714D01*
X8500476Y-12445238D01*
X8505238Y-12459524D01*
X8505238Y-12469048D01*
X8414762Y-12388095D02*
X8410000Y-12383333D01*
X8405238Y-12373809D01*
X8405238Y-12350000D01*
X8410000Y-12340476D01*
X8414762Y-12335714D01*
X8424286Y-12330952D01*
X8433810Y-12330952D01*
X8448095Y-12335714D01*
X8505238Y-12392857D01*
X8505238Y-12330952D01*
X8405238Y-12297619D02*
X8405238Y-12235714D01*
X8443333Y-12269048D01*
X8443333Y-12254762D01*
X8448095Y-12245238D01*
X8452857Y-12240476D01*
X8462381Y-12235714D01*
X8486190Y-12235714D01*
X8495714Y-12240476D01*
X8500476Y-12245238D01*
X8505238Y-12254762D01*
X8505238Y-12283333D01*
X8500476Y-12292857D01*
X8495714Y-12297619D01*
G04 #@! TO.C,J22*
X8915238Y-8930952D02*
X8986667Y-8930952D01*
X9000952Y-8935714D01*
X9010476Y-8945238D01*
X9015238Y-8959524D01*
X9015238Y-8969048D01*
X8924762Y-8888095D02*
X8920000Y-8883333D01*
X8915238Y-8873810D01*
X8915238Y-8850000D01*
X8920000Y-8840476D01*
X8924762Y-8835714D01*
X8934286Y-8830952D01*
X8943810Y-8830952D01*
X8958095Y-8835714D01*
X9015238Y-8892857D01*
X9015238Y-8830952D01*
X8924762Y-8792857D02*
X8920000Y-8788095D01*
X8915238Y-8778571D01*
X8915238Y-8754762D01*
X8920000Y-8745238D01*
X8924762Y-8740476D01*
X8934286Y-8735714D01*
X8943810Y-8735714D01*
X8958095Y-8740476D01*
X9015238Y-8797619D01*
X9015238Y-8735714D01*
G04 #@! TO.C,J17*
X9935238Y-12430952D02*
X10006667Y-12430952D01*
X10020952Y-12435714D01*
X10030476Y-12445238D01*
X10035238Y-12459524D01*
X10035238Y-12469048D01*
X10035238Y-12330952D02*
X10035238Y-12388095D01*
X10035238Y-12359524D02*
X9935238Y-12359524D01*
X9949524Y-12369048D01*
X9959048Y-12378571D01*
X9963810Y-12388095D01*
X9935238Y-12297619D02*
X9935238Y-12230952D01*
X10035238Y-12273809D01*
G04 #@! TO.C,J16*
X9935238Y-8930952D02*
X10006667Y-8930952D01*
X10020952Y-8935714D01*
X10030476Y-8945238D01*
X10035238Y-8959524D01*
X10035238Y-8969048D01*
X10035238Y-8830952D02*
X10035238Y-8888095D01*
X10035238Y-8859524D02*
X9935238Y-8859524D01*
X9949524Y-8869048D01*
X9959048Y-8878571D01*
X9963810Y-8888095D01*
X9935238Y-8745238D02*
X9935238Y-8764286D01*
X9940000Y-8773810D01*
X9944762Y-8778571D01*
X9959048Y-8788095D01*
X9978095Y-8792857D01*
X10016190Y-8792857D01*
X10025714Y-8788095D01*
X10030476Y-8783333D01*
X10035238Y-8773810D01*
X10035238Y-8754762D01*
X10030476Y-8745238D01*
X10025714Y-8740476D01*
X10016190Y-8735714D01*
X9992381Y-8735714D01*
X9982857Y-8740476D01*
X9978095Y-8745238D01*
X9973333Y-8754762D01*
X9973333Y-8773810D01*
X9978095Y-8783333D01*
X9982857Y-8788095D01*
X9992381Y-8792857D01*
G04 #@! TD*
M02*
