M48
;DRILL file {KiCad 5.0.2-bee76a0~70~ubuntu18.04.1} date Вс 28 апр 2019 14:18:01
;FORMAT={-:-/ absolute / metric / decimal}
FMAT,2
METRIC,TZ
T1C0.300
T2C0.500
T3C0.700
T4C0.900
T5C1.000
T6C1.300
T7C1.500
T8C1.700
T9C3.200
T10C3.400
%
G90
G05
T1
X52.1Y-115.
X55.Y-82.
X59.7Y-82.
X61.Y-70.3
X61.Y-72.2
X61.Y-74.8
X61.Y-76.
X61.Y-78.9
X61.Y-79.9
X61.Y-105.
X64.Y-77.75
X64.Y-79.8
X65.Y-74.
X65.Y-75.
X65.Y-92.5
X66.3Y-115.
X66.4Y-75.5
X66.4Y-76.5
X67.2Y-79.8
X69.1Y-79.8
X69.1Y-84.8
X69.1Y-111.
X69.6Y-58.
X70.3Y-108.8
X70.5Y-82.8
X71.Y-91.
X72.9Y-102.8
X72.9Y-103.9
X72.9Y-105.
X73.Y-74.
X73.Y-75.
X76.Y-68.
X81.Y-75.
X81.Y-108.
X81.Y-109.
X81.Y-110.
X82.Y-101.
X82.Y-102.
X82.Y-103.
X82.Y-104.
X82.Y-105.
X82.Y-108.
X82.Y-109.
X82.Y-110.
X83.6Y-75.
X85.Y-68.5
X86.Y-68.5
X88.Y-73.
X88.Y-77.
X88.Y-102.
X90.Y-71.
X90.Y-80.
X91.Y-68.4
X91.Y-73.
X91.Y-80.
X92.5Y-61.5
X93.Y-73.05
X93.Y-77.5
X95.5Y-69.7
X96.7Y-77.6
X97.Y-70.8
X99.2Y-84.3
X99.7Y-71.2
X99.7Y-77.8
X100.5Y-81.6
X100.5Y-85.
X101.5Y-81.6
X101.5Y-85.
X101.8Y-65.5
X102.5Y-81.7
X102.5Y-84.
X103.2Y-69.8
X103.5Y-81.7
X103.5Y-84.
X104.Y-108.
X104.Y-109.
X104.Y-110.
X105.Y-65.
X105.Y-101.
X105.Y-102.
X105.Y-103.
X105.Y-104.
X105.Y-105.
X105.Y-108.
X105.Y-109.
X105.Y-110.
X106.2Y-77.8
X107.5Y-61.5
X108.3Y-77.8
X108.3Y-69.3
X108.3Y-71.2
X111.Y-102.
X111.9Y-73.
X111.9Y-75.
X112.Y-78.5
X112.9Y-64.6
X113.3Y-70.8
X115.8Y-66.9
X116.Y-84.
X117.Y-70.
X118.8Y-81.4
X120.Y-71.5
X120.Y-74.
X120.Y-78.
X120.Y-82.
X120.5Y-61.5
X121.Y-63.9
X121.Y-79.7
X122.Y-63.2
X122.Y-76.4
X126.025Y-74.
X126.025Y-78.
X126.025Y-70.
X127.Y-108.
X127.Y-109.
X127.Y-110.
X128.Y-101.
X128.Y-102.
X128.Y-103.
X128.Y-104.
X128.Y-105.
X128.Y-108.
X128.Y-109.
X128.Y-110.
X128.4Y-71.7
X130.5Y-61.5
X134.Y-102.
X138.4Y-72.4
X140.Y-64.
X140.Y-75.
X140.5Y-61.5
X147.4Y-63.6
X150.Y-108.
X150.Y-109.
X150.Y-110.
X150.5Y-61.5
X151.Y-101.
X151.Y-102.
X151.Y-103.
X151.Y-104.
X151.Y-105.
X151.Y-108.
X151.Y-109.
X151.Y-110.
X152.Y-82.
X157.Y-102.
T2
X166.1Y-53.5
X166.803Y-51.803
X166.803Y-55.197
X168.5Y-51.1
X168.5Y-55.9
X170.197Y-51.803
X170.197Y-55.197
X170.9Y-53.5
X51.1Y-53.5
X51.803Y-51.803
X51.803Y-55.197
X53.5Y-51.1
X53.5Y-55.9
X55.197Y-51.803
X55.197Y-55.197
X55.9Y-53.5
X166.1Y-133.5
X166.803Y-131.803
X166.803Y-135.197
X168.5Y-131.1
X168.5Y-135.9
X170.197Y-131.803
X170.197Y-135.197
X170.9Y-133.5
X51.1Y-133.5
X51.803Y-131.803
X51.803Y-135.197
X53.5Y-131.1
X53.5Y-135.9
X55.197Y-131.803
X55.197Y-135.197
X55.9Y-133.5
T3
X71.32Y-120.
X76.4Y-120.
T4
X60.92Y-53.7
X63.11Y-67.5
X63.46Y-53.7
X64.38Y-64.96
X65.65Y-67.5
X66.92Y-64.96
X68.19Y-67.5
X69.46Y-64.96
X70.73Y-67.5
X71.64Y-53.7
X72.Y-64.96
X74.18Y-53.7
T5
X53.5Y-62.5
X138.66Y-88.5
X156.58Y-123.5
X166.74Y-123.5
X76.36Y-123.5
X161.66Y-88.5
X115.66Y-88.5
X63.66Y-123.5
X110.58Y-88.5
X140.46Y-93.26
X140.46Y-95.8
X140.46Y-98.34
X140.46Y-100.88
X140.46Y-103.42
X140.46Y-105.96
X140.46Y-108.5
X143.Y-93.26
X143.Y-95.8
X143.Y-98.34
X143.Y-100.88
X143.Y-103.42
X143.Y-105.96
X143.Y-108.5
X105.5Y-88.5
X82.5Y-82.5
X110.58Y-123.5
X58.58Y-88.5
X151.5Y-88.5
X133.58Y-123.5
X82.5Y-64.72
X87.58Y-88.5
X116.Y-73.38
X116.Y-75.92
X116.Y-78.46
X116.Y-81.
X105.5Y-123.5
X82.5Y-62.18
X120.74Y-123.5
X87.58Y-123.5
X61.12Y-88.5
X128.5Y-88.5
X82.5Y-79.96
X97.74Y-88.5
X56.04Y-123.5
X92.66Y-123.5
X133.58Y-88.5
X117.46Y-93.26
X117.46Y-95.8
X117.46Y-98.34
X117.46Y-100.88
X117.46Y-103.42
X117.46Y-105.96
X117.46Y-108.5
X120.Y-93.26
X120.Y-95.8
X120.Y-98.34
X120.Y-100.88
X120.Y-103.42
X120.Y-105.96
X120.Y-108.5
X151.5Y-123.5
X82.5Y-67.26
X163.46Y-93.26
X163.46Y-95.8
X163.46Y-98.34
X163.46Y-100.88
X163.46Y-103.42
X163.46Y-105.96
X163.46Y-108.5
X166.Y-93.26
X166.Y-95.8
X166.Y-98.34
X166.Y-100.88
X166.Y-103.42
X166.Y-105.96
X166.Y-108.5
X138.66Y-123.5
X143.74Y-88.5
X161.66Y-123.5
X73.82Y-123.5
X115.66Y-123.5
X143.74Y-123.5
X166.74Y-88.5
X73.82Y-88.5
X144.Y-66.
X147.75Y-66.
X120.74Y-88.5
X128.5Y-123.5
X53.5Y-123.5
X76.36Y-88.5
X92.66Y-88.5
X82.5Y-123.5
X97.74Y-123.5
X156.58Y-88.5
X82.5Y-88.5
X63.66Y-88.5
X53.5Y-88.5
X94.46Y-93.26
X94.46Y-95.8
X94.46Y-98.34
X94.46Y-100.88
X94.46Y-103.42
X94.46Y-105.96
X94.46Y-108.5
X97.Y-93.26
X97.Y-95.8
X97.Y-98.34
X97.Y-100.88
X97.Y-103.42
X97.Y-105.96
X97.Y-108.5
X66.2Y-123.5
T6
X159.Y-66.
X164.Y-66.
X169.Y-66.
T7
X125.5Y-54.
X130.5Y-54.
X102.5Y-133.
X107.5Y-133.
X112.5Y-133.
X155.5Y-54.
X160.5Y-54.
X145.5Y-54.
X150.5Y-54.
X85.5Y-54.
X90.5Y-54.
X95.5Y-54.
X132.5Y-133.
X137.5Y-133.
X142.5Y-133.
X64.5Y-133.
X69.5Y-133.
X74.5Y-133.
X147.5Y-133.
X152.5Y-133.
X157.5Y-133.
X100.5Y-54.
X105.5Y-54.
X110.5Y-54.
X117.5Y-133.
X122.5Y-133.
X127.5Y-133.
X135.5Y-54.
X140.5Y-54.
X115.5Y-54.
X120.5Y-54.
T8
X59.8Y-61.65
X75.3Y-61.65
T9
X168.5Y-133.5
X53.5Y-133.5
X168.5Y-53.5
X53.5Y-53.5
T10
X61.83Y-58.6
X73.27Y-58.6
T0
M30
